<?xml version="1.0" encoding="utf-8"?>
<!-- Generator: Adobe Illustrator 22.0.0, SVG Export Plug-In . SVG Version: 6.00 Build 0)  -->
<svg version="1.1" id="Layer_5" xmlns="http://www.w3.org/2000/svg" xmlns:xlink="http://www.w3.org/1999/xlink" x="0px" y="0px"
	 width="200px" height="200px" viewBox="0 0 200 200" enable-background="new 0 0 200 200" xml:space="preserve">
<g id="fur">
	<path fill="#FFFFFF" stroke="#231F20" stroke-miterlimit="10" d="M178.333,171H21.667c-2.75,0-5-2.25-5-5v-17c0-2.75,2.25-5,5-5
		h156.667c2.75,0,5,2.25,5,5v17C183.333,168.75,181.083,171,178.333,171z"/>
	<g>
		<defs>
			<path id="SVGID_1_" d="M178.333,171H21.667c-2.75,0-5-2.25-5-5v-17c0-2.75,2.25-5,5-5h156.667c2.75,0,5,2.25,5,5v17
				C183.333,168.75,181.083,171,178.333,171z"/>
		</defs>
		<clipPath id="SVGID_2_">
			<use xlink:href="#SVGID_1_"  overflow="visible"/>
		</clipPath>
		<ellipse clip-path="url(#SVGID_2_)" fill="#231F20" cx="100" cy="157.5" rx="13.667" ry="7.167"/>
		<ellipse clip-path="url(#SVGID_2_)" fill="#231F20" cx="25" cy="157.5" rx="13.667" ry="7.167"/>
		<ellipse clip-path="url(#SVGID_2_)" fill="#231F20" cx="175" cy="157.5" rx="13.667" ry="7.167"/>
	</g>
</g>
<path fill="#EDD089" stroke="#231F20" stroke-miterlimit="10" d="M27.833,144v-17c0-2.75,2.25-5,5-5h134.333c2.75,0,5,2.25,5,5v17
	H27.833z"/>
<g id="gold_band">
	
		<rect x="33.618" y="130.118" transform="matrix(0.7071 0.7071 -0.7071 0.7071 105.7361 12.7313)" fill="#1FA000" stroke="#E9E9EA" stroke-miterlimit="10" width="7.763" height="7.763"/>
	<path fill="#143591" stroke="#E9E9EA" stroke-miterlimit="10" d="M52.24,139.49H51.26c-2.75,0-5-2.25-5-5v-0.979c0-2.75,2.25-5,5-5
		h0.979c2.75,0,5,2.25,5,5v0.979C57.24,137.24,54.99,139.49,52.24,139.49z"/>
	<path fill="#ED1C24" stroke="#E9E9EA" stroke-miterlimit="10" d="M63.367,138.351l-0.717-0.667
		c-2.013-1.874-2.126-5.054-0.252-7.067l0.667-0.717c1.874-2.013,5.054-2.126,7.067-0.252l0.717,0.667
		c2.013,1.874,2.126,5.054,0.252,7.067l-0.667,0.717C68.56,140.112,65.38,140.225,63.367,138.351z"/>
	
		<rect x="158.618" y="130.118" transform="matrix(-0.7071 0.7071 -0.7071 -0.7071 372.157 113.847)" fill="#1FA000" stroke="#E9E9EA" stroke-miterlimit="10" width="7.763" height="7.763"/>
	<path fill="#143591" stroke="#E9E9EA" stroke-miterlimit="10" d="M147.76,139.49h0.979c2.75,0,5-2.25,5-5v-0.979c0-2.75-2.25-5-5-5
		h-0.979c-2.75,0-5,2.25-5,5v0.979C142.76,137.24,145.01,139.49,147.76,139.49z"/>
	<path fill="#ED1C24" stroke="#E9E9EA" stroke-miterlimit="10" d="M136.633,138.351l0.717-0.667
		c2.013-1.874,2.126-5.054,0.252-7.067l-0.667-0.717c-1.874-2.013-5.054-2.126-7.067-0.252l-0.717,0.667
		c-2.013,1.874-2.126,5.054-0.252,7.067l0.667,0.717C131.44,140.112,134.62,140.225,136.633,138.351z"/>
</g>
<g id="top_crown">
	<path fill="#EDD089" stroke="#231F20" stroke-miterlimit="10" d="M162.5,122c0,0-0.167-5,6.5-12s22-8,16.333-40.667
		c-5.667-32.667-45.861-22.667-45.861-22.667c-13.861-16-39.473-8.333-39.473-8.333s-25.612-7.667-39.473,8.333
		c0,0-40.194-10-45.861,22.667S24.333,103,31,110s6.5,12,6.5,12H162.5z"/>
	<path fill="#953B85" d="M118.333,122c0,0,1.667-16,16.333-37.667c14.667-21.667-6.333-47-34.667-37.333
		c-28.333-9.667-49.333,15.667-34.667,37.333S81.667,122,81.667,122H118.333z"/>
	<path fill="#953B85" d="M46.26,122c0,0-4.594-11-19.927-36.333S42.5,53.333,51.75,53.333c0,0-6.029,28,8.777,47.167
		s11.139,7.167,15.139,21.5H46.26z"/>
	<path fill="#953B85" d="M153.74,122c0,0,4.594-11,19.927-36.333S157.5,53.333,148.25,53.333c0,0,6.029,28-8.777,47.167
		s-11.139,7.167-15.139,21.5H153.74z"/>
	
		<rect x="55.618" y="81.882" transform="matrix(0.4322 -0.9018 0.9018 0.4322 -43.5546 102.3562)" fill="#1FA000" stroke="#E9E9EA" stroke-miterlimit="10" width="7.763" height="7.763"/>
	<path fill="#143591" stroke="#E9E9EA" stroke-miterlimit="10" d="M61.251,69.875l0.325,0.924c0.913,2.594-0.462,5.463-3.056,6.377
		L57.596,77.5c-2.594,0.913-5.463-0.462-6.377-3.056l-0.325-0.924c-0.913-2.594,0.462-5.463,3.056-6.377l0.924-0.325
		C57.468,65.905,60.337,67.281,61.251,69.875z"/>
	<path fill="#ED1C24" stroke="#E9E9EA" stroke-miterlimit="10" d="M61.914,60.721l-0.391,0.898
		c-1.099,2.521-4.061,3.684-6.582,2.584l-0.898-0.391c-2.521-1.099-3.684-4.061-2.584-6.582l0.391-0.898
		c1.099-2.521,4.061-3.684,6.582-2.584l0.898,0.391C61.85,55.239,63.013,58.201,61.914,60.721z"/>
	
		<rect x="23.952" y="96.118" transform="matrix(0.4322 -0.9018 0.9018 0.4322 -74.3747 81.8835)" fill="#1FA000" stroke="#E9E9EA" stroke-miterlimit="10" width="7.763" height="7.763"/>
	<path fill="#143591" stroke="#E9E9EA" stroke-miterlimit="10" d="M25.636,85.382l0.325,0.924c0.913,2.594-0.462,5.463-3.056,6.377
		l-0.924,0.325c-2.594,0.913-5.463-0.462-6.377-3.056l-0.325-0.924c-0.913-2.594,0.462-5.463,3.056-6.377l0.924-0.325
		C21.854,81.413,24.723,82.788,25.636,85.382z"/>
	<path fill="#ED1C24" stroke="#E9E9EA" stroke-miterlimit="10" d="M23.035,74.347l-0.391,0.898
		c-1.099,2.521-4.061,3.684-6.582,2.584l-0.898-0.391c-2.521-1.099-3.684-4.061-2.584-6.582l0.391-0.898
		c1.099-2.521,4.061-3.684,6.582-2.584l0.898,0.391C22.971,68.865,24.134,71.827,23.035,74.347z"/>
	
		<rect x="136.618" y="81.882" transform="matrix(-0.4322 -0.9018 0.9018 -0.4322 123.8783 249.5293)" fill="#1FA000" stroke="#E9E9EA" stroke-miterlimit="10" width="7.763" height="7.763"/>
	<path fill="#143591" stroke="#E9E9EA" stroke-miterlimit="10" d="M138.749,69.875l-0.325,0.924
		c-0.913,2.594,0.462,5.463,3.056,6.377l0.924,0.325c2.594,0.913,5.463-0.462,6.377-3.056l0.325-0.924
		c0.913-2.594-0.462-5.463-3.056-6.377l-0.924-0.325C142.532,65.905,139.663,67.281,138.749,69.875z"/>
	<path fill="#ED1C24" stroke="#E9E9EA" stroke-miterlimit="10" d="M138.086,60.721l0.391,0.898c1.099,2.521,4.061,3.684,6.582,2.584
		l0.898-0.391c2.521-1.099,3.684-4.061,2.584-6.582l-0.391-0.898c-1.099-2.521-4.061-3.684-6.582-2.584l-0.898,0.391
		C138.15,55.239,136.987,58.201,138.086,60.721z"/>
	
		<rect x="168.285" y="96.118" transform="matrix(-0.4322 -0.9018 0.9018 -0.4322 156.3916 298.4754)" fill="#1FA000" stroke="#E9E9EA" stroke-miterlimit="10" width="7.763" height="7.763"/>
	<path fill="#143591" stroke="#E9E9EA" stroke-miterlimit="10" d="M174.364,85.382l-0.325,0.924
		c-0.913,2.594,0.462,5.463,3.056,6.377l0.924,0.325c2.594,0.913,5.463-0.462,6.377-3.056l0.325-0.924
		c0.913-2.594-0.462-5.463-3.056-6.377l-0.924-0.325C178.146,81.413,175.277,82.788,174.364,85.382z"/>
	<path fill="#ED1C24" stroke="#E9E9EA" stroke-miterlimit="10" d="M176.965,74.347l0.391,0.898c1.099,2.521,4.061,3.684,6.582,2.584
		l0.898-0.391c2.521-1.099,3.684-4.061,2.584-6.582l-0.391-0.898c-1.099-2.521-4.061-3.684-6.582-2.584l-0.898,0.391
		C177.029,68.865,175.866,71.827,176.965,74.347z"/>
</g>
<g id="flour_de_lis">
	<path fill="#EDD089" stroke="#231F20" stroke-width="2" stroke-miterlimit="10" d="M100,67.287c0,0,5.063,7.737,8.213,16.962
		c3.15,9.225-4.95,16.313-6.3,25.373c-1.35,9.06,1.013,10.178,1.8,12.428c0.788,2.25,3.713,4.388,3.713,4.388
		c-2.475,1.463-4.275-0.563-4.275-0.563c0,2.475-3.15,6.837-3.15,6.837s-3.15-4.362-3.15-6.837c0,0-1.8,2.025-4.275,0.563
		c0,0,2.925-2.138,3.713-4.388c0.788-2.25,3.15-3.368,1.8-12.428c-1.35-9.06-9.45-16.148-6.3-25.373
		C94.937,75.024,100,67.287,100,67.287L100,67.287z"/>
	<path fill="#EDD089" stroke="#231F20" stroke-width="2" stroke-miterlimit="10" d="M81.862,113.328c0,0-5.101-7.14,3.706-9.166
		c8.807-2.025,9.482,5.625,9.594,8.438s-0.788,5.063-2.813,5.4c-2.025,0.338-4.095-2.183-2.329-5.142c0,0-4.066,1.992-3.344,6.548
		c0.722,4.556,10.24,7.262,11.781-3.766c1.541-11.028-7.846-23.798-16.597-22.644c-8.751,1.154-10.534,8.579-8.124,13.754
		C76.149,111.925,81.862,113.328,81.862,113.328z"/>
	<path fill="#EDD089" stroke="#231F20" stroke-width="2" stroke-miterlimit="10" d="M118.138,113.328c0,0,5.101-7.14-3.706-9.166
		c-8.807-2.025-9.482,5.625-9.594,8.438s0.788,5.063,2.813,5.4c2.025,0.338,4.095-2.183,2.329-5.142c0,0,4.066,1.992,3.344,6.548
		c-0.722,4.556-10.24,7.262-11.781-3.766c-1.541-11.028,7.846-23.798,16.597-22.644c8.751,1.154,10.534,8.579,8.124,13.754
		C123.851,111.925,118.138,113.328,118.138,113.328z"/>
	<path fill="#EDD089" stroke="#231F20" stroke-width="2" stroke-miterlimit="10" d="M100,115.694c0,0,2.953-0.084,4.997-0.844
		c2.044-0.759,1.585-4.81,0.572-4.556c-1.013,0.253-5.569,0.844-5.569,0.844s2.07,0,0,0c-2.07,0-4.556-0.591-5.569-0.844
		c-1.013-0.253-1.471,3.797,0.572,4.556C97.047,115.61,100,115.694,100,115.694z"/>
</g>
</svg>
