<?xml version="1.0" encoding="utf-8"?>
<!-- Generator: Adobe Illustrator 21.0.2, SVG Export Plug-In . SVG Version: 6.00 Build 0)  -->
<svg version="1.1" id="Layer_2" xmlns="http://www.w3.org/2000/svg" xmlns:xlink="http://www.w3.org/1999/xlink" x="0px" y="0px"
	 width="200px" height="200px" viewBox="0 0 200 200" enable-background="new 0 0 200 200" xml:space="preserve">
<path fill="#231F20" d="M115.833,7.25L128.083,29c37-9.5,49.25,4,49.25,4c14,108.188-35.25,153.5-35.25,153.5
	c10.5-75.75-18.875-92.875-18.875-92.875s-3.125,28.125-3.75,30.125s-15.792,11.5-15.792,11.5s-15.167-9.5-15.792-11.5
	s-3.75-30.125-3.75-30.125S54.75,110.75,65.25,186.5c0,0-49.25-45.312-35.25-153.5c0,0,12.25-13.5,49.25-4L91.5,7.25H115.833z"/>
<g>
	<defs>
		<path id="SVGID_1_" d="M115.833,7.25L128.083,29c37-9.5,49.25,4,49.25,4c14,108.188-35.25,153.5-35.25,153.5
			c10.5-75.75-18.875-92.875-18.875-92.875s-3.125,28.125-3.75,30.125s-15.792,11.5-15.792,11.5s-15.167-9.5-15.792-11.5
			s-3.75-30.125-3.75-30.125S54.75,110.75,65.25,186.5c0,0-49.25-45.312-35.25-153.5c0,0,12.25-13.5,49.25-4L91.5,7.25H115.833z"/>
	</defs>
	<clipPath id="SVGID_2_">
		<use xlink:href="#SVGID_1_"  overflow="visible"/>
	</clipPath>
	<path clip-path="url(#SVGID_2_)" fill="#EA6B00" d="M111.083,14l12.5,22.5c0,0,31.518-8.576,54.445,2.268
		c1.83,0.866,3.605,1.855,5.305,2.982v138.5l-34.405-1.678c0,0,15.155-54.072-26.345-94.322h-2.5c0,0-4,34-6.25,37.5
		s-8.083,7.25-10.167,7.5c-2.083-0.25-7.917-4-10.167-7.5s-6.25-37.5-6.25-37.5h-2.5c-41.5,40.25-26.345,94.322-26.345,94.322
		L24,180.25V41.75c1.7-1.127,3.475-2.116,5.305-2.982C52.232,27.924,83.75,36.5,83.75,36.5L96.25,14H111.083z"/>
</g>
<path fill="#C0468E" d="M103.667,30.5L118.833,56c27.5-27,55.25-11.5,55.25-11.5c11.75,67.5-18.75,116.75-18.75,116.75
	s7.358-62.702-30.975-80.803c-5.793-2.735-12.629,42.882-20.692,42.554c-8.063,0.328-14.899-45.289-20.692-42.554
	C44.642,98.548,52,161.25,52,161.25S21.5,112,33.25,44.5C33.25,44.5,61,29,88.5,56C88.5,56,103.667,30.5,103.667,30.5z"/>
<path fill="#C5CF06" d="M103.667,47.667c0,0,10.333,18.5,23,18.5c10.083,0,14.5-17.333,43.167-6.667c0,0-0.169,17.423,1.5,25.333
	c3.833,18.167-6.167,61.167-12.667,67.5c0,0,14.5-31.667-14.5-63.167l-27.5-7l-13,27.833l-13-27.833l-27.5,7
	c-29,31.5-14.5,63.167-14.5,63.167C42.167,146,32.167,103,36,84.833c1.669-7.91,1.5-25.333,1.5-25.333
	c28.667-10.667,33.083,6.667,43.167,6.667C93.333,66.167,103.667,47.667,103.667,47.667z"/>
<path fill="#231F20" d="M103.667,64c0.833,2.5,17.167,10.833,17.167,10.833c23.667-14.5,44.5-6,44.5-6
	c9,65.667-6.667,83.5-6.667,83.5c13.333-39.5-3.167-61.5-3.167-61.5c-7.5,5-36.5-5-40-5.833s-11.833,17.167-11.833,17.167
	s-8.333-18-11.833-17.167s-32.5,10.833-40,5.833c0,0-16.5,22-3.167,61.5c0,0-15.667-17.833-6.667-83.5c0,0,20.833-8.5,44.5,6
	C86.5,74.833,102.833,66.5,103.667,64z"/>
<path fill="#FFFFFF" d="M54.5,76.167c0,0,2.833-5.5,13.5-4.333c10.667,1.167,15.667,6,15.667,6S68.667,88,54.5,76.167z"/>
<path fill="#FFFFFF" d="M152.833,76.167c0,0-2.833-5.5-13.5-4.333c-10.667,1.167-15.667,6-15.667,6S138.667,88,152.833,76.167z"/>
</svg>
