<?xml version="1.0" encoding="utf-8"?>
<!-- Generator: Adobe Illustrator 22.0.0, SVG Export Plug-In . SVG Version: 6.00 Build 0)  -->
<svg version="1.1" id="Layer_2" xmlns="http://www.w3.org/2000/svg" xmlns:xlink="http://www.w3.org/1999/xlink" x="0px" y="0px"
	 width="200px" height="200px" viewBox="0 0 200 200" enable-background="new 0 0 200 200" xml:space="preserve">
<g>
	<path fill="#0060AE" d="M86.153,61.985c-20.606-10.623-40.96-11.749-53.622-7.953C9.13,61.044,1.877,90.784,23.56,105.362
		c1.307,0.881,0.487,2.741-1.159,5.694c-2.029,3.687-5.804,10.935-12.467,16.169c-4.004,3.155-6.607,4.457-3.309,8.352
		c0,0,7.329,8.212,12.75,10.59c6.526,2.867,8.162,2.385,13.018-2.166c3.058-2.867,9.113-10.678,16.422-23.133
		c3.791-6.471,8.856-6.59,8.172,4.058c0,0-1.002,10.251-1.28,12.369c-0.81,6.11-0.174,8.22,5.295,8.276
		c0,0,11.761-0.646,15.836-1.219c5.742-0.782,5.431-1.713,6.935-6.241c8.03-24.167,8.707-65.65,8.707-65.65
		C92.831,66.897,91.07,64.523,86.153,61.985 M71.104,84.351c0,0-7.296,5.006-7.478,5.142c-0.618,0.476-1.471,1.05-1.585,3.364
		c-0.045,0.974-0.328,7.783-0.345,8.643c-0.016,0.935-0.427,3.507-3.397,0.897c0,0-4.972-4.355-5.704-4.999
		c-0.171-0.148-1.872-2.085-4.53-0.935l-7.783,3.107c0,0-4.682,1.914-2.943-2.292c1.691-4.097,2.827-7.489,3.2-8.583
		c0.389-1.148,0.25-2.762-0.696-3.883c-0.432-0.509-4.167-5.454-5.02-6.674c0,0-3.074-3.648,2.039-3.402
		c0,0,8.742,0.202,8.878,0.213c0.147,0.016,1.782,0.126,2.953-1.712c1.433-2.259,5.656-7.554,4.782-6.427
		c0.737-0.935,2.444-3.249,3.576,0.585c0,0,1.613,5.043,2.375,7.165c0.513,1.445,0.848,2.401,3.445,3.238l8.025,2.905
		C70.897,80.703,74.65,81.863,71.104,84.351"/>
	<path fill="#72BD44" d="M107.13,82.426c-0.86,1.324-7.654,11.64-8.502,27.486c-0.376,7.046,2.725,13.265,8.293,16.644
		c6.181,3.753,14.206,3.435,21.449-0.853c15.577-9.212,17.318-32.431,16.879-42.9c-0.093-2.418-1.515-3.873-3.899-3.977
		c-0.914-0.049-2.889,0.028-5.126,0.224c-2.254,0.192-3.611,1.767-3.725,4.322l-0.017,0.689c-0.104,9.737-0.765,18.351-4.993,23.678
		c-2.774,3.495-6.077,4.896-8.26,3.994c-1.948-0.8-3.185-3.419-2.889-6.082c0.749-6.641,3.561-11.881,5.295-15.229l0.739-1.439
		c1.062-2.249,0.525-4.644-1.252-5.579c-1.035-0.536-3.288-1.368-5.274-2.096l-2.4-0.897C111.741,79.74,109.225,79.22,107.13,82.426
		z"/>
	<path fill="#EC135A" d="M161.704,75.66c-6.756,3.609-10.236,8.549-10.945,15.534c-0.974,9.436,11.859,16.011,14.91,17.674
		c3.67,2.001,3.806,4.305,2.855,5.673c-1.497,2.155-5.666,1.547-8.735,0.321c-3.369-1.35-5.081-2.953-7.854-6.181
		c-1.63-1.886-6.576,3.523-7.352,7.303c-0.356,1.729,0.323,2.537,1.373,4.081c2.696,3.955,11.36,10.971,23.925,11.912
		c3.463,0.263,12.488,0.471,18.57-5.184c2.468-2.293,5.153-6.089,6.077-10.602c0.641-3.117,0.591-7.215-1.848-10.951
		c-3.419-5.24-9.118-8.719-15.453-11.7c-9.234-4.343-7.45-6.92-5.388-8.112c1.936-1.116,8.51-0.328,13.658,4.568
		c2.615,2.478,8.023-5.218,5.77-7.839C183.042,72.597,169.076,71.716,161.704,75.66z"/>
</g>
</svg>
