<?xml version="1.0" encoding="utf-8"?>
<!-- Generator: Adobe Illustrator 21.0.2, SVG Export Plug-In . SVG Version: 6.00 Build 0)  -->
<svg version="1.1" id="Layer_2" xmlns="http://www.w3.org/2000/svg" xmlns:xlink="http://www.w3.org/1999/xlink" x="0px" y="0px"
	 width="200px" height="200.381px" viewBox="0 0 200 200.381" enable-background="new 0 0 200 200.381" xml:space="preserve">
<g>
	<path fill="#F10000" d="M4.11,73.991c0,0,7.039-8.282,25.673-12.008c0,0,1.518,1.242,1.932,0.828s23.741-6.349,20.152,0.138
		c-3.589,6.487-5.797,9.11-6.073,11.87s-6.073,15.321-8.282,16.701c-2.208,1.38-9.662,10.628-12.837,12.008
		s-3.727,4.279-4.693,3.313c-0.966-0.966-0.414-9.386,0.414-11.87c0.828-2.484-0.966-2.761-0.552-4.831
		c0.414-2.07,5.758-19.324,8.331-19.738c2.573-0.414,4.091-0.69,5.472-1.518c1.38-0.828-0.276,6.073-2.899,8.558
		s-0.138,1.242-0.966,3.037c-0.828,1.794-5.245,13.389-5.245,14.493s-1.932,0.966-1.656,1.38c0.276,0.414,1.242,3.313,1.104,3.865
		s7.315-8.558,9.386-12.837c2.07-4.279,3.589-9.662,4.831-11.18c1.242-1.518,1.656-3.727,2.761-6.901
		c1.104-3.175,4.003-5.797-1.794-3.865s-8.052,3.083-9.432,2.392c-1.38-0.69-13.297,10.536-14.907,10.122
		c-1.61-0.414-1.15-2.024-0.322-2.3c0.828-0.276,1.656-1.058,0.368-1.242s-0.552-1.242,0.276-1.196
		c0.828,0.046,3.037-0.874,1.794-1.104c-1.242-0.23-2.991,0.322-2.484-0.46c0.506-0.782,4.233-1.61,4.555-2.208
		c0.322-0.598-5.705-0.23-10.214,2.807S4.11,73.991,4.11,73.991z"/>
	<path fill="#F10000" d="M90.722,58.325c-2.277-2.208-6.832,1.035-8.489,0.648c-1.656-0.387-3.658,0.663-7.177,5.494
		c-3.52,4.831-4.348,10.911-4.348,10.911c-2.899,5.459-1.035,6.274-1.035,6.274s-1.38,9.731,2.415,9.524s10.214-5.107,10.559-8.213
		c0,0,2.001-0.138,2.899-2.139c0.475-1.059,4.217-7.275,5.176-10.766c0.854-3.108-1.183-3.571,0.897-3.796
		c2.554-0.276,1.587-2.623,1.932-4.141S93,60.534,90.722,58.325z M87.064,62.397c-0.736,1.472-1.84,4.877-1.38,5.429
		c0,0-2.024,0.092-2.208,1.288c-0.184,1.196-3.589,6.07-3.221,8.004l-5.061,6.366c-0.736-1.211-0.368-5.168-0.828-5.904
		c-0.46-0.736,1.932-3.589,1.84-4.233c-0.092-0.644,6.257-9.754,5.981-10.95C81.911,61.201,87.8,60.925,87.064,62.397z"/>
	<path fill="#F10000" d="M119.087,57.221c0,0,1.173,1.518,1.932,1.518c0.759,0,3.589,0.828,2.07,0.966s-2.273,1.242-3,1.656
		c-0.727,0.414-1.417,0.897-0.589,0.897s6.763-0.759,8.075-1.38s4.072-0.069,3.037,0.966c-1.035,1.035-2.346,3.934-2.415,4.624
		c-0.069,0.69-4.141,4.486-4.21,5.797s-1.863,2.017-1.863,3.217s-3.865,2.856-4.693,4.03s-4.348,4.072-4.417,4.762
		c-0.069,0.69-2.139,0.759,0-2.968c0,0,1.035-2.415,0.759-3.313s1.104-0.483,1.587-1.242c0.483-0.759,4.072-5.728,4.21-7.177
		c0.138-1.449,1.469-1.104,1.873-1.449c0.404-0.345,4.062-4.969,3.579-5.314c-0.483-0.345-2.623-0.276-3.106,0.276
		c0,0-2.657-0.863-3.485,0.345c-0.828,1.208-3.623,5.59-4.221,6.786c-0.598,1.196-4.647,7.177-4.739,9.524s-1.38,6.027-2.346,7.039
		s-1.61,2.577,0.414,2.116c2.024-0.46,9.064-1.932,9.478-5.659c0,0,6.165-2.254,7.223-3.543c1.058-1.288,7.545-8.466,7.914-9.478
		s0-3.405,0.644-4.049c0.644-0.644,6.073-3.957,4.923-6.579c-1.15-2.623-5.107-1.84-5.797-1.656s-0.874-0.736-2.3-0.713
		C128.196,57.244,118.028,56.508,119.087,57.221z"/>
	<path fill="#F10000" d="M154.422,61.086c-0.207-1.449-1.932,0-2.968-1.311c-1.035-1.311-4.348-1.035-8.351,0
		s-8.834,7.384-8.969,9.179c-0.135,1.794-1.314,2.692-2.556,4.417c-1.242,1.725-1.863,9.524-0.552,10.283
		c1.311,0.759,3.796,3.796,5.452,3.451c1.656-0.345,1.587-1.518,1.402-2.761c0,0,0.945,0.276,2.463-0.138
		c1.518-0.414,5.797-5.659,6.832-6.832s0.828-3.009,0.828-3.009c1.173-0.456,3.658-4.858,4.969-5.963
		C154.284,67.297,154.629,62.535,154.422,61.086z M144.139,72.945c-0.345,2.266-2.07,2.979-4.072,5.67
		c-2.001,2.692-3.589,2.83-4.969,2.139c-1.38-0.69,0.828-3.313,0.828-3.313c1.311-1.173,1.863-2.554,2.346-3.658
		s-0.552-1.587,0.966-1.794s3.313-3.934,4.831-6.28c1.518-2.346,3.451-2.899,3.727-0.483
		C148.072,67.642,144.484,70.679,144.139,72.945z"/>
	<path fill="#F10000" d="M170.157,65.434c-0.207-3.727-3.106-4.969-5.107-4.693c0,0-1.518,0.966-2.07,0.207
		c-0.552-0.759,0.138-1.104-1.518-1.104s-5.521,4.486-6.28,6.418c-0.759,1.932-1.863,2.692-2.554,5.59c0,0-1.932,3.037-1.587,5.176
		c0.345,2.139-1.242,8.282,1.449,9.386c2.692,1.104,7.246-0.966,7.937-4.279c0,0,2.277-0.276,2.968-1.932
		c0.69-1.656,4.9-6.625,4.831-10.49C168.224,69.713,170.364,69.16,170.157,65.434z M164.429,69.437
		c-0.391,1.361-1.794,2.415-2.554,4.417c-0.759,2.001-3.934,4.831-4.348,5.866c-0.414,1.035-2.277,3.037-3.05,2.277
		c-0.772-0.759,0.703-5.452,0.703-6.142c0-0.69,0.207-1.38,1.242-1.656c1.035-0.276,3.796-5.038,4.104-6.28
		c0.309-1.242,3.349-2.968,3.349-2.968S166.154,63.432,164.429,69.437z"/>
	<path fill="#F10000" d="M164.636,90.693c0,0,1.518-6.694,2.899-7.937c1.38-1.242,3.175-4.555,3.106-5.521
		c-0.069-0.966,2.07-3.29,2.346-3.957c0.276-0.667,1.38-2.876,0-2.738c0,0-2.732-0.288-2.815-0.006
		c-0.083,0.282,0.193-2.754,1.021-2.892c0.828-0.138-0.483-2.07,0.414-1.794c0.897,0.276,2.147-0.227-0.069-1.068
		c-1.366-0.519,0.966-0.657,0.552-3.003c0,0,9.317,1.311,10.49,2.623c0,0,1.656,0.9,1.518,0.381c-0.138-0.519,3.244-0.45,9.179,5.14
		c0,0-1.932,0.414-3.658-0.759s-2.277-0.759-3.313-0.345c-1.035,0.414-10.559-0.345-10.076,0.138s3.382,0.966,3.589,1.725
		c0.207,0.759,2.346,1.56,1.587,2.333c-0.759,0.773-4.003,3.603-4.072,4.293c-0.069,0.69-5.521,5.728-5.659,6.625
		C171.537,84.827,163.977,93.255,164.636,90.693z"/>
	<path fill="#F10000" d="M194.104,70.61c0,0-0.207,0.552,0.552,1.173s1.932,0,0.69-0.863S194.588,69.575,194.104,70.61z"/>
	<path fill="#F10000" d="M15.083,111.328c0,0-1.38,1.518-1.38,2.277c0,0.759,0.552,0.621,1.38-0.345
		C15.911,112.294,16.325,110.569,15.083,111.328z"/>
	<path fill="#F10000" d="M71.697,60.649c-1.564,0.552-3.221-1.012-4.509-1.564c-1.288-0.552-5.521,1.104-8.006,1.748
		c-2.484,0.644-2.208-0.184-7.822,6.165c-5.613,6.349-3.865,8.742-3.865,8.742s-2.3,2.3-2.484,5.521
		c-0.184,3.221-0.644,9.202,1.242,10.674c1.886,1.472,4.095,3.865,6.395,3.221c2.3-0.644,1.932-1.84,2.116-2.853
		c0.184-1.012,2.945-0.736,4.325-2.853c1.38-2.116,6.993-7.085,6.901-11.502c-0.092-4.417,5.705-6.809,5.705-10.95
		C71.697,66.998,73.262,60.097,71.697,60.649z M56.725,83.235c-0.333-0.535,0.797-1.93,1.166-2.569
		c0.466-0.805,0.444,0.824,0.538,1.284C58.524,82.411,57.058,83.77,56.725,83.235z M61.805,72.197
		c-0.276,1.518,0.138,2.208-1.38,2.623c-1.518,0.414-4.003,8.42-8.834,12.146S54.49,74.82,54.49,74.82
		c-0.828-3.589,5.521-11.732,8.834-11.594C66.636,63.363,62.081,70.679,61.805,72.197z"/>
	<path fill="#F10000" d="M115.36,57.549c-1.863-1.329-7.937-0.742-8.696-0.88s-1.242,0.897-1.932,0.276c-0.69-0.621-2.415,0-4.348,0
		s-4.969,0-4.969,0s-0.069,3.727-0.483,4.003c-0.414,0.276,1.932-0.207,1.794,0.276c-0.138,0.483-1.656,0.897-1.449,1.38
		c0.207,0.483,0.109,1.173-0.394,1.38c-0.503,0.207,0,2.761,0,2.761s2.741-0.552,3.845-1.035c1.104-0.483,2.554-0.414,2.484,0
		c-0.069,0.414-0.409,2.001,0.002,2.07c0.412,0.069-0.071,1.173-0.485,1.035c-0.414-0.138-3.037,7.22-3.106,8.303
		c0,0-2.547,2.808-2.964,7.087c0,0-0.827,0.552-1.036,1.242c-0.21,0.69-2.28,5.176-1.659,8.144c0.621,2.968,2.484-4.072,5.107-6.073
		s1.173-2.753,1.863-4.034c0.69-1.28,3.313-5.145,4.417-7.561s2.623-4.072,3.313-5.659c0.69-1.587,4.486-4.21,2.899-5.728
		c-1.587-1.518-3.796-2.139-2.761-2.415c1.035-0.276,4.9-0.69,5.59-1.173c0.69-0.483,2.208-1.035,3.037-0.138
		c0.828,0.897,4.335-0.096,4.555-0.276C120.743,59.913,117.223,58.877,115.36,57.549z M106.787,66.518
		c0.073-0.46,1.462-1.451,1.527-0.871c0.065,0.581-1.108,1.677-1.546,2.21C106.216,68.529,106.713,66.978,106.787,66.518z"/>
	<path fill="#F10000" d="M174.781,91.175c-9.178-0.456-12.422-1.932-16.011-1.863c-3.589,0.069-18.082-0.626-18.979-0.002
		c-0.897,0.623-1.863,2.418-2.553,0.762c-0.69-1.656-1.173-1.794-6.418-1.38c-5.245,0.414-13.941-0.456-14.493,0.29
		c-0.552,0.745-1.38,0.773-2.208,0c-0.828-0.773-13.113,1.648-16.287,1.712c-3.175,0.064-31.884,1.509-37.543,3.618
		c-5.659,2.11-17.598,2.938-18.427,4.249c-0.828,1.311-5.038-0.345-7.799,3.106c-2.761,3.451-1.38-2.305-12.215,5.369
		c0,0-10.628,6.225,0.621,2.774c11.249-3.451,13.596-6.073,16.011-6.28s14.562-2.83,15.252-2.07c0.69,0.759,0.483,1.519,6.418-0.137
		c5.935-1.657,15.252-4.901,15.804-2.416c0,0,0,0.759,2.415,0.414c2.415-0.345,24.224-4.141,24.914-2.83
		c0.69,1.311,1.794,1.38,3.934,1.035c2.139-0.345,10.575-1.269,12.3,0.318c0,0,2.528,1.89,10.779-0.249
		c4.711-0.403,2.594,0.966,5.906,1.656c0,0,24.155-1.449,25.466,1.518c0,0,0.602,0.897,3.406,0.69c2.805-0.207,6.393,0,7.498,0.552
		s10.973,0.897,10.973,0c0-0.897-0.621-1.794,0-2.623s-0.897-1.449-1.794-1.587c-0.897-0.138,1.257-0.897,1.94-1.311
		c0.683-0.414,0.614-1.932-1.111-2.001c-1.725-0.069,2.07-1.518,4.003-0.621C188.514,94.765,183.959,91.632,174.781,91.175z
		 M49.988,98.387c-0.92,0.322-0.92,0-0.92,0c0.322-0.138,3.077-1.53,2.991-0.23C51.927,100.126,50.908,98.065,49.988,98.387z
		 M179.221,96.076c-0.644,0.782-1.334-0.368-2.208-0.414c-0.874-0.046-1.521-0.109-1.288-0.69c0.368-0.92,0.506,0.184,0.92-0.068
		s1.196,0.344,1.886,0.068S179.865,95.294,179.221,96.076z"/>
	<path fill="#F10000" d="M15.612,115.63c1.013,0.412,3.359,0.644,6.349,0s4.555-1.426,6.487-0.782s5.429-0.69,7.868-1.242
		c2.438-0.552,7.73,0.138,13.159-2.208s13.527-1.426,15.919-3.221c2.392-1.794,9.202-2.07,7.638,0
		c-1.564,2.07-3.267,8.374-3.129,9.018c0.138,0.644-0.92,0-1.84,1.518s-7.453,12.745-8.512,12.468
		c-1.058-0.276-1.518-3.681,0.322-7.453c1.84-3.773,2.623-4.923,2.577-6.993c-0.046-2.07,4.187-5.922,3.083-5.882
		c-1.104,0.039-6.809-0.375-8.328,1.696c-1.518,2.07-1.932,4.831-2.162,6.073s-2.761,6.625-3.405,11.548s0.046,2.438-0.046,4.601
		s-1.794,8.328-1.012,8.88c0.782,0.552,4.463-1.978,4.325-3.589s1.104-1.058,2.024-0.414c0.92,0.644,2.162,0.598,4.003-0.644
		c1.84-1.242,1.932-1.334,1.702-3.083c-0.23-1.748,0.966,1.288,3.727-1.702c0,0,8.006-9.018,7.684-12.837
		c0,0,1.748-0.552,2.438-2.761c0.69-2.208,2.3-5.383,3.221-6.027c0.92-0.644,0.782-1.886,0.966-2.853s3.451-2.3,2.623-6.165
		c0,0,0.138-0.598-0.828-0.644c-0.966-0.046-1.38-0.828-0.736-1.15c0.644-0.322,2.104-1.472-0.374-1.38s-2.847,0-3.859,1.058
		c-1.012,1.058-7.73-0.23-10.72,0.782s-16.931,2.208-17.115,2.991c-0.184,0.782-0.414,2.503-0.92,1.804s-0.368-1.758-1.38-1.482
		s-10.582,2.024-13.021,2.761c-2.438,0.736-2.991-0.276-3.773,0.046C29.783,108.682,14.087,115.01,15.612,115.63z"/>
	<path fill="#F10000" d="M105.284,104.817c-1.058-2.07-1.978-4.565-5.981-4.422s-3.313-0.162-3.727-0.723
		c-0.414-0.56-1.334-2.033-3.267-0.238c-1.932,1.794-6.993,5.981-8.42,8.512c-1.426,2.53-3.451,4.785-3.635,7.868
		c-0.184,3.083-2.853-0.184-2.669,8.052c0.02,0.873-0.184,2.484-0.736,4.049c-0.552,1.564-1.288,8.006,1.196,9.57
		c2.484,1.564,5.889,0.276,6.717-0.552c0.828-0.828,5.153-3.313,5.429-5.061c0.276-1.748,0.644-1.288,1.472-0.828
		s5.429-4.463,6.119-6.902c0.69-2.438,3.543-5.797,3.957-6.763c0.414-0.966,1.38-2.116,1.104-4.095c0,0,1.334-0.092,1.886-1.38
		C105.284,110.615,106.342,106.888,105.284,104.817z M91.665,106.106c1.426-0.46,0.552,1.104,0.276,1.702
		c-0.276,0.598-1.84,2.024-1.84,1.196S90.371,106.523,91.665,106.106z M97.738,112.547c-0.276,1.702-3.083,4.555-3.451,7.269
		c-0.368,2.715-5.245,8.052-6.303,9.432c-1.058,1.38-5.153,3.129-6.073,1.38c-0.92-1.748,2.899-8.604,3.405-9.892
		c0.506-1.288-0.184-2.341-0.184-2.341c-0.33-0.92,1.886,0.178,2.761-0.374c0.874-0.552,3.313-5.291,4.325-7.171
		c1.012-1.88,3.589-6.632,5.935-4.838C100.499,107.808,98.014,110.845,97.738,112.547z"/>
	<path fill="#F10000" d="M125.62,102.517c0,0,0.193-0.211-0.72-0.028c-0.913,0.183-3.133-1.369-4.928-0.821
		c-1.795,0.547-7.939,1.034-8.882,2.829c-0.943,1.795-5.082,6.144-5.355,7.239s-1.094,2.038-1.368,4.167
		c-0.274,2.129-1.703,2.585-1.855,4.106c-0.152,1.521-0.704,4.895-0.352,6.386c0.708,3-0.236,4.233,1.605,5.429
		c1.84,1.196,3.635,1.84,4.417,2.576c0.782,0.736,3.359-1.61,3.221-2.116c-0.138-0.506-0.138-1.196,1.38-1.38
		c1.518-0.184,8.328-9.156,8.466-10.674c0.138-1.518-0.046-2.346,0.92-3.313c0.966-0.966,1.523-4.297,3.41-6.275
		C127.465,108.665,125.988,102.011,125.62,102.517z M120.294,108.188c-0.449,0.828-0.104,2.726-0.863,3.623
		c-0.759,0.897-1.139,1.311-1.208,2.726s-2.554,4.451-3.313,5.763c-0.759,1.311-2.968,2.588-3.002,3.934
		c-0.035,1.346-1.656,3.071-3.429,3.382c-1.773,0.311-0.953-2.795-0.884-4.072c0.069-1.277,0.725-1.898,1.242-2.415
		c0.518-0.518,0.571-1.237,0.449-2.732c-0.071-0.87,1.07-0.374,1.76-0.615c0.69-0.242,1.104-2.139,1.932-3.278
		s1.898-3.244,2.139-4.313c0.242-1.07,2.277-2.761,3.485-4.003C119.811,104.944,120.743,107.359,120.294,108.188z"/>
	<path fill="#F10000" d="M178.438,106.152c-1.656-1.173-8.213-0.759-12.56-2.07s-12.906-2.346-13.389-2.139
		c-0.483,0.207-1.242,0.276-1.242,0.276c-0.621-0.828-9.041-0.276-10.904-0.687c-1.863-0.411-9.317,0.204-10.628,0.019
		c-1.311-0.185-1.587,1.013-1.656,1.358s1.725,0.414,1.449,0.828c-0.276,0.414-1.242,0.276-1.794,0.897
		c-0.552,0.621,1.518,0.69,1.518,0.69c-1.173,0.207-0.966,2.623-1.794,4.181c-0.828,1.558,6.418,0.65,7.039,0.167
		s1.794,0.207,0.759,0.483s-1.104,1.794-1.725,2.484c-0.621,0.69,0.414,1.38,0,1.242c-0.414-0.138-1.863,3.658-1.932,4.165
		c-0.069,0.507,1.035,1.287,0,1.494c-1.035,0.207-2.139,4.141-3.52,6.763c-1.38,2.623-2.178,6.078-1.104,7.039
		c1.311,1.173,3.865-3.175,5.038-4.279c1.173-1.104-0.207-1.656,0.345-2.208s5.659-7.039,6.211-7.868s1.173-3.382,0.345-4.072
		c-0.828-0.69,0.966-0.552,1.794-0.345c0.828,0.207,1.794-2.484,2.346-3.106s0.069-1.449-1.311-2.001
		c-1.38-0.552-0.828-1.518-0.345-1.104c0.483,0.414,6.625,0,8.144-0.621s15.252,0.759,16.356,0.759s11.387,0.759,13.058,1.035
		c1.671,0.276,3.644,1.173,3.782,0.069C182.855,108.498,180.095,107.325,178.438,106.152z M133.718,105.117
		c-0.621,0.207-2.182,0.26-2.554-0.483c-0.483-0.966,1.242,0.207,1.656,0C133.234,104.426,134.339,104.91,133.718,105.117z"/>
</g>
</svg>
