<?xml version="1.0" encoding="utf-8"?>
<!-- Generator: Adobe Illustrator 21.0.2, SVG Export Plug-In . SVG Version: 6.00 Build 0)  -->
<svg version="1.1" id="mario_x5F_head" xmlns="http://www.w3.org/2000/svg" xmlns:xlink="http://www.w3.org/1999/xlink" x="0px"
	 y="0px" width="200px" height="200px" viewBox="0 0 200 200" enable-background="new 0 0 200 200" xml:space="preserve">
<g>
	<g id="hat">
		<g>
			<path fill="#E00B00" d="M161.846,92.63c0.084-15.494-6.089-33.79-18.233-50.349C119.578,4.985,87.464-1.366,68.425,13.259
				c-30.122,23.139-17.086,50.209,5.08,80.435c19.075,26.011,46.665,39.259,66.327,33.399c3.972,7.094,11.556,11.892,20.264,11.892
				c12.821,0,23.214-10.394,23.214-23.214C183.311,103.54,173.849,93.525,161.846,92.63z"/>
			<g>
				<path d="M163.646,92.474c-0.087-12.865-3.853-25.451-9.728-36.833c-5.943-11.513-13.921-22.933-23.171-32.04
					C118.26,11.308,100.745,1.992,82.778,5.456c-17.281,3.332-33.04,19.716-33.76,37.563c-0.419,10.371,3.709,20.478,8.58,29.423
					c5.973,10.969,13.332,21.802,21.791,31.012c14.757,16.068,38.276,31.154,61.026,24.805c-0.763-0.228-1.526-0.455-2.289-0.683
					c9.335,15.529,32.434,17.104,42.821,1.667c10.612-15.772-0.595-35.968-18.727-37.862c-1.971-0.206-3.12,2.249-0.748,2.497
					c15.165,1.584,24.549,17.889,17.761,31.745c-7.649,15.614-28.969,15.504-37.695,0.989c-0.457-0.76-1.495-0.905-2.289-0.683
					c-19.08,5.325-39.082-6.698-52.368-19.412c-8.649-8.277-15.68-18.234-21.973-28.375c-5.12-8.249-9.885-17.211-11.642-26.856
					c-3.339-18.337,9.091-37.139,26.872-42.572c16.966-5.184,34.462,3.898,46.541,15.385c9.61,9.138,17.756,20.748,23.826,32.509
					c5.786,11.209,9.456,23.51,9.542,36.178C160.058,94.446,163.657,94.18,163.646,92.474z"/>
			</g>
		</g>
		<g>
			<ellipse fill="#FFFFFF" cx="84.54" cy="49.042" rx="23.841" ry="24.924"/>
			<g>
				<path d="M106.612,48.763c-0.316,11.841-8.62,22.86-21.047,23.567C72.681,73.061,62.507,61.819,62.468,49.32
					c-0.037-11.828,8.888-22.884,21.047-23.567C96.62,25.018,106.278,36.275,106.612,48.763c0.053,1.982,3.594,2.667,3.538,0.558
					c-0.29-10.859-6.279-20.977-16.631-25.057c-9.874-3.891-21.25-0.944-28.151,7.069C50.075,49.09,64.853,79.329,88.865,75.214
					c12.604-2.16,20.953-13.461,21.285-25.894C110.202,47.328,106.668,46.64,106.612,48.763z"/>
			</g>
		</g>
		<g>
			<g>
				<path d="M160.04,92.278c0.037,3.447-0.921,6.733-1.445,10.114c-0.116,0.749,3.434,0.825,3.603-0.261
					c0.524-3.381,1.482-6.667,1.445-10.114C163.633,91.116,160.029,91.275,160.04,92.278L160.04,92.278z"/>
			</g>
		</g>
		<g>
			<path fill="#E00B00" d="M98.03,57.254l4.348-2.076L92.02,29.658l-10.486,9.158l-3.325-9.28l-11.49,12.039l5.352,2.614l4.859-6.35
				c0,0,3.197,7.693,3.197,8.059c0,0.366,8.568-6.96,8.568-6.96l4.86,15.874L98.03,57.254z"/>
			<g>
				<path d="M98.454,57.803c1.449-0.692,2.899-1.384,4.348-2.076c0.261-0.125,0.564-0.507,0.438-0.819
					c-3.453-8.507-6.905-17.014-10.358-25.52c-0.238-0.587-1.067-0.502-1.471-0.149c-3.495,3.053-6.991,6.105-10.486,9.158
					c0.49,0.05,0.981,0.099,1.471,0.149c-1.108-3.093-2.217-6.187-3.325-9.28c-0.204-0.57-1.108-0.529-1.471-0.149
					c-3.83,4.013-7.66,8.026-11.49,12.039c-0.369,0.387-0.361,0.82,0.143,1.066c1.784,0.871,3.568,1.742,5.352,2.614
					c0.397,0.194,0.974-0.063,1.218-0.383c1.62-2.117,3.239-4.233,4.859-6.35c-0.538,0.002-1.076,0.004-1.614,0.007
					c1.088,2.621,2.484,5.308,3.197,8.059c0.085,0.329,0.53,0.465,0.827,0.422c3.065-0.437,6.911-5.268,9.211-7.234
					c-0.49-0.05-0.981-0.099-1.471-0.149c1.269,4.146,2.538,8.292,3.808,12.438c1.223,3.996,1.882,4.057,5.747,6.166
					c0.732,0.4,2.18-0.628,1.284-1.117c-1.079-0.589-3.723-1.546-4.278-2.228c-0.805-0.989-1.046-3.417-1.413-4.616
					c-1.141-3.728-2.283-7.456-3.424-11.183c-0.19-0.619-1.098-0.467-1.471-0.149c-2.281,1.949-4.906,5.082-7.615,6.327
					c-0.049,0.023,0.546,1.212,0.086-0.458c-0.232-0.84-0.658-1.668-0.982-2.473c-0.585-1.452-1.182-2.9-1.783-4.347
					c-0.276-0.664-1.251-0.467-1.614,0.007c-1.25,1.634-2.99,5.273-4.764,6.225c1.485-0.798,0.648-0.17-0.265-0.935
					c-0.514-0.432-1.536-0.871-2.155-1.052c-0.454-0.133-1.275-0.449-1.626-0.794c0.662,0.652-0.425,1.256,0.416,0.498
					c3.922-3.537,7.385-7.738,11.034-11.561c-0.49-0.05-0.981-0.099-1.471-0.149c1.108,3.093,2.217,6.187,3.325,9.28
					c0.215,0.601,1.083,0.488,1.471,0.149c3.495-3.053,6.991-6.105,10.486-9.158c-0.49-0.05-0.981-0.099-1.471-0.149
					c2.154,5.306,4.307,10.613,6.461,15.919c1.119,2.758,2.044,5.748,3.407,8.395c0.69,1.34,0.228,0.866,0.494,0.594
					c-0.795,0.813-2.861,1.366-3.915,1.869C96.535,57.216,97.539,58.239,98.454,57.803z"/>
			</g>
		</g>
	</g>
	<g id="face_1_">
		<path fill="#EACD8C" d="M142.438,121.836C141.97,121.836,142.901,121.813,142.438,121.836
			c-5.16-29.207-25.569-35.228-53.155-64.75c-27.956,0-50.618,28.142-50.618,62.857c0,6.351,0.761,12.48,2.172,18.259
			c-5.065,1.869-8.951,5.34-10.551,10.061c-3.377,9.967,6.603,22.371,19.955,26.896c1.521,0.516,1.15,0.253,2.662,0.541
			c2.665,10.817,13.174,18.311,26.099,18.311c9.765,0,18.128-4.394,22.877-11.318c5.487,0.054,11.351-2.135,16.616-5.78
			c3.875-2.682,6.722-7.054,8.807-10.699c3.917,2.199,8.949,4.472,13.761,4.472c13.761-0.344,25.458-15.825,26.145-27.866
			C167.208,127.859,157.4,121.836,142.438,121.836z"/>
		<g>
			<path d="M142.555,119.936c-0.035-0.002-0.07-0.003-0.105-0.005c-0.078,1.267-0.156,2.534-0.234,3.801
				c0.069-0.002,0.138-0.003,0.207-0.005c-0.123-1.257-0.246-2.513-0.369-3.77c-0.034,0.003-0.068,0.007-0.101,0.01
				c0.897,0.499,1.794,0.999,2.69,1.498c-2.186-11.651-7.469-21.533-15.642-30.078c-10.015-10.471-21.775-19.164-32.058-29.381
				c-2.061-2.048-4.429-5.854-7.245-6.767c-2.145-0.695-6.136,0.254-8.271,0.64c-5.381,0.974-10.533,2.97-15.233,5.752
				c-10.632,6.293-18.597,16.407-23.526,27.632c-6.787,15.457-7.819,32.954-4.034,49.311c0.389-0.694,0.778-1.388,1.168-2.082
				c-9.386,3.814-15.033,12.736-10.968,22.635c3.828,9.32,14.07,16.988,23.953,18.475c-0.696-0.51-1.391-1.019-2.087-1.529
				c6.432,23.189,39.635,26.111,53.067,7.7c-0.668,0.274-1.336,0.548-2.004,0.822c12.08-0.323,21.48-7.121,27.426-17.3
				c-1.042,0.164-2.083,0.328-3.125,0.492c8.62,4.695,17.387,6.579,26.304,1.537c7.642-4.321,13.656-12.205,16.057-20.63
				c2.026-7.109,0.976-15.469-4.084-21.122C158.901,121.495,150.312,120.035,142.555,119.936c-2.831-0.036-3.099,3.764-0.234,3.801
				c6.257,0.08,13.333,0.885,17.968,5.582c4.575,4.635,5.535,12.028,3.851,18.097c-1.825,6.575-6.05,12.749-11.493,16.864
				c-7.826,5.917-15.762,4.91-24.108,0.365c-0.879-0.478-2.537-0.514-3.125,0.492c-4.425,7.575-10.544,13.507-19.468,15.248
				c-3.531,0.689-4.483-0.148-6.779,2.361c-2.561,2.799-5.064,5.15-8.545,6.804c-13.341,6.339-31.378,0.698-35.516-14.22
				c-0.27-0.972-1.175-1.392-2.087-1.529c-15.619-2.349-31.458-25.632-11.146-33.887c0.827-0.336,1.374-1.191,1.168-2.082
				c-6.784-29.318,4.599-70.853,38.16-77.978c1.537-0.326,3.269-0.749,4.847-0.73c2.924,0.037,3.526,1.313,5.577,3.4
				c3.293,3.35,6.69,6.595,10.159,9.761c5.761,5.258,11.769,10.235,17.536,15.485c10.605,9.654,18.225,20.103,20.915,34.438
				c0.223,1.188,1.678,1.601,2.69,1.498c0.034-0.003,0.068-0.007,0.101-0.01c2.503-0.255,2.076-3.831-0.369-3.77
				c-0.069,0.002-0.138,0.003-0.207,0.005c-2.791,0.07-3.134,3.659-0.234,3.801c0.035,0.002,0.07,0.003,0.105,0.005
				C145.162,123.876,145.41,120.076,142.555,119.936z"/>
		</g>
	</g>
	<g id="eye">
		<g>
			<path fill="#FFFFFF" d="M65.951,99.172c-1.159,8.059-5.988,13.945-10.787,13.145c-4.798-0.799-7.749-7.981-6.591-16.04
				c1.159-8.059,5.988-13.945,10.787-13.145C64.159,83.931,67.109,91.113,65.951,99.172z"/>
			<g>
				<path d="M64.61,99.238c-0.737,4.169-4.81,15.618-11.125,10.99c-3.963-2.905-4.214-9.646-3.572-14.017
					c0.677-4.612,4.011-13.676,10.097-11.458C65.136,86.621,65.088,94.937,64.61,99.238c-0.174,1.563,2.518,1.338,2.681-0.132
					c0.66-5.943-0.433-16.939-8.512-17.2c-7.102-0.229-10.747,8.707-11.547,14.437c-0.819,5.86,0.422,16.379,8.032,17.164
					c7.486,0.772,11.006-8.629,12.027-14.401C67.562,97.574,64.865,97.794,64.61,99.238z"/>
			</g>
		</g>
		<g>
			<path fill="#0091F4" d="M65.515,102.298c-0.879,6.118-4.357,10.616-7.769,10.048c-3.411-0.567-5.463-5.988-4.584-12.105
				c0.879-6.118,4.357-10.617,7.768-10.049C64.342,90.76,66.394,96.18,65.515,102.298z"/>
			<g>
				<path d="M64.643,102.375c-0.608,3.337-3.392,12.468-8.339,8.438c-2.769-2.256-2.654-7.58-2.206-10.69
					c0.487-3.382,3.388-12.38,8.276-8.398c2.812,2.291,2.588,7.592,2.255,10.749c-0.039,0.372,1.71,0.231,1.771-0.352
					c0.435-4.121-0.003-12.63-6.044-12.353c-5.076,0.233-7.47,6.405-8.073,10.599c-0.593,4.129,0.041,12.558,5.928,12.405
					c5.207-0.135,7.414-6.376,8.176-10.553C66.487,101.675,64.73,101.894,64.643,102.375z"/>
			</g>
		</g>
		<path d="M65.138,102.807c-0.627,4.364-3.123,7.57-5.575,7.162c-2.451-0.408-3.93-4.277-3.303-8.64
			c0.628-4.364,3.124-7.57,5.575-7.162C64.287,94.575,65.765,98.443,65.138,102.807z"/>
		
			<ellipse transform="matrix(0.0168 -0.9999 0.9999 0.0168 -38.4108 160.8031)" fill="#FFFFFF" cx="62.558" cy="99.932" rx="2.672" ry="1.795"/>
	</g>
	<g id="eye_1_">
		<g>
			
				<ellipse transform="matrix(0.2254 -0.9743 0.9743 0.2254 -35.0972 172.1665)" fill="#FFFFFF" cx="90.719" cy="108.154" rx="19.379" ry="12.419"/>
			<g>
				<path d="M101.16,110.982c-1.565,6.049-7.236,18.512-15.554,14.215c-6.668-3.445-6.674-13.808-5.258-19.979
					c1.404-6.122,7.321-18.325,15.484-14.108c6.833,3.53,6.533,13.875,5.254,20.187c-0.308,1.521,3.177,0.736,3.466-0.689
					c1.599-7.887,0.692-21.877-9.968-22.732c-9.508-0.763-15.825,9.73-17.661,17.666c-1.815,7.845-0.716,21.814,9.729,22.873
					c9.646,0.978,15.787-9.611,17.826-17.491C104.956,109.075,101.511,109.623,101.16,110.982z"/>
			</g>
		</g>
		<g>
			
				<ellipse transform="matrix(0.2253 -0.9743 0.9743 0.2253 -34.9865 176.8714)" fill="#0091F4" cx="93.731" cy="110.437" rx="14.71" ry="8.796"/>
			<g>
				<path d="M101.528,112.015c-1.131,4.259-3.282,9.639-7.718,11.443c-8.5,3.456-8.934-9.745-7.812-14.634
					c1.005-4.376,3.635-10.545,8.511-11.787c8.056-2.051,7.892,10.479,6.974,15.184c-0.193,0.989,1.417,1.52,1.637,0.396
					c1.068-5.472,1.154-15.69-6.001-17.351c-6.981-1.62-11.509,7.544-12.753,12.887c-1.257,5.398-1.143,15.184,5.49,17.289
					c7.206,2.287,11.787-7.224,13.22-12.619C103.325,111.881,101.81,110.954,101.528,112.015z"/>
			</g>
		</g>
		<ellipse transform="matrix(0.2253 -0.9743 0.9743 0.2253 -35.2417 180.4577)" cx="95.859" cy="112.39" rx="10.492" ry="6.345"/>
		
			<ellipse transform="matrix(0.0893 -0.996 0.996 0.0893 -18.9771 196.4938)" fill="#FFFFFF" cx="97.961" cy="108.624" rx="3.212" ry="2.323"/>
	</g>
	<g>
		<path fill="#420E04" d="M144.141,122.731l-7.104-16.135c-2.698,8.87-10.324,12.087-13.408,11.65
			c-1.046-0.445-2.215-0.695-3.449-0.695c-4.458,0-8.072,3.252-8.072,7.262c0,3.199,2.3,5.912,5.492,6.88
			c-2.737,1.352-4.608,4.066-4.608,7.195c0,4.477,3.827,8.108,8.549,8.108c4.573,0,8.309-3.406,8.539-7.689
			C132.631,133.75,144.141,122.731,144.141,122.731z"/>
		<g>
			<path fill="#020202" d="M145.354,122.135c-2.368-5.378-4.736-10.756-7.104-16.135c-0.542-1.232-2.139-1.377-2.596-0.054
				c-1.581,4.569-4.993,9.198-9.946,10.423c-4.112,1.017-7.466-1.532-11.472,1.375c-6.272,4.552-3.33,12.923,3.032,15.441
				c-0.137-1.002-0.275-2.004-0.412-3.007c-10.892,6.437-2.063,22.881,9.247,17.48c2.272-1.085,3.877-2.958,4.824-5.258
				c1.376-3.347,2.569-5.717,4.973-8.559c2.904-3.433,6.04-6.693,9.282-9.809c1.241-1.193-0.716-3.915-2.079-2.604
				c-4.071,3.913-8.077,8.032-11.485,12.54c-0.775,1.024-1.622,2.075-2.202,3.222c-0.757,1.497-0.806,3.216-1.67,4.657
				c-1.904,3.177-6.515,4.442-9.8,2.75c-4.994-2.573-3.899-8.851,0.399-11.391c1.117-0.66,0.728-2.556-0.412-3.007
				c-4.989-1.974-5.621-7.698-1.082-10.144c2.66-1.434,4.719-0.345,7.364-0.164c1.496,0.102,3.054-0.399,4.406-0.987
				c4.975-2.165,8.078-6.681,9.801-11.66c-0.865-0.018-1.731-0.036-2.596-0.054c2.368,5.378,4.736,10.756,7.104,16.135
				C143.785,125.271,146.204,124.066,145.354,122.135z"/>
		</g>
	</g>
	<path id="ear" d="M135.132,155.723c0,0-0.116-11.561,8.965-16.28c0,0,7.274-4.618,13.371-0.459c0,0-9.022-0.819-14.018,4.666
		c0,0,6.729,1.276,7.544,3.935c0,0-6.346-3.319-9.75-0.346C141.243,147.24,136.87,150.805,135.132,155.723z"/>
	<g id="mustache">
		<path d="M101.517,124.356c-0.58,3.303-9.077,6.538-16.863,8.983c0,0.011-0.001,0.023-0.001,0.035c0,0.043,0.003,0.085,0.003,0.128
			c-0.095-0.028-0.194-0.049-0.29-0.076c-0.783,0.241-1.585,0.468-2.407,0.677c-2.665,0.677-6.943,1.671-9.329,1.867
			c-4.368,0.354-7.424,2.716-12.1,2.716c-4.102,0-7.646,2.442-9.327,5.985c-1.433-3.542-4.453-5.985-7.949-5.985
			c-2.15,0-4.12,0.925-5.652,2.461c-0.882-4.301-3.489-7.418-6.569-7.418c-0.878,0-1.717,0.255-2.489,0.717
			c-0.46-4.854-2.473-8.509-4.886-8.509c-2.753,0-4.986,4.757-4.986,10.626c0,5.868,2.232,10.625,4.986,10.625
			c0.243,0,0.482-0.04,0.716-0.111c0.78,4.548,3.466,7.902,6.66,7.902c1.471,0,2.833-0.713,3.952-1.925
			c1.259,4.021,4.486,6.883,8.269,6.883c3.495,0,6.516-2.442,7.949-5.985c1.681,3.542,5.26,5.624,9.362,5.624
			c5.725,0,10.331-4.396,10.331-10.264c0-0.745-0.076-1.472-0.218-2.174c1.451,4.344,5.674,7.488,10.66,7.488
			c6.185,0,11.199-4.836,11.199-10.803c0-0.02-0.001-0.04-0.002-0.06c0.677,0.154,1.377,0.237,2.097,0.237
			c5.51,0,9.518-4.775,9.978-10.625C104.859,130.186,104.705,128.961,101.517,124.356z"/>
		<g>
			<path d="M99.755,124.184c-1.826,5.322-11.944,7.286-16.6,8.774c-0.129,0.023-0.217,0.093-0.263,0.208
				c-0.002,0.054-0.001,0.109,0.002,0.163c0.897-0.046,1.794-0.092,2.691-0.138c-1.701-0.442-2.849-0.079-4.516,0.368
				c-4.063,1.088-8.203,1.475-12.267,2.427c-2.41,0.564-4.625,1.486-7.081,1.885c-1.746,0.283-3.614,0.301-5.328,0.782
				c-3.148,0.884-5.403,3.035-6.953,5.846c1.158,0.072,2.316,0.144,3.474,0.216c-3.165-6.616-11.303-8.649-17-3.856
				c1.15,0.153,2.3,0.307,3.45,0.46c-1.528-5.803-6.277-9.922-12.32-7.253c1.087,0.184,2.175,0.368,3.262,0.552
				c-0.472-3.537-1.403-7.934-5.349-8.946c-2.757-0.708-4.847,0.231-6.297,2.675c-3.515,5.922-2.67,20.663,6.928,19.177
				c-0.992-0.206-1.985-0.412-2.977-0.618c1.48,6.613,8.022,11.68,14.062,6.437c-1.15-0.153-2.3-0.307-3.45-0.46
				c3.438,9.075,15.404,10.314,19.743,1.242c-1.158-0.072-2.316-0.144-3.474-0.216c5.942,10.641,24.985,6.817,22.949-6.6
				c-1.158-0.072-2.316-0.144-3.474-0.216c4.507,11.042,25.738,10.91,25.331-3.16c-0.758,0.075-1.516,0.15-2.274,0.225
				c4.776,0.816,9.45-0.129,12.286-4.435c3.536-5.368,2.205-10.446-1.079-15.324c-0.501-0.744-3.664-0.445-3.423-0.087
				c2.098,3.116,3.487,5.736,2.956,9.553c-0.631,4.542-4.128,10.453-9.716,9.498c-0.161-0.028-2.29-0.309-2.274,0.225
				c0.095,3.295-1.615,6.451-4.205,8.416c-5.697,4.322-11.886,0.791-14.179-4.825c-0.255-0.624-3.546-0.688-3.474-0.215
				c1.387,9.137-10.078,17.638-16.001,7.031c-0.328-0.588-3.152-0.888-3.474-0.215c-1.026,2.146-2.667,4.674-5.17,5.339
				c-4.074,1.084-6.444-3.047-7.523-5.894c-0.286-0.754-2.894-0.943-3.45-0.46c-4.008,3.479-6.454-2.353-7.162-5.517
				c-0.175-0.781-2.407-0.707-2.977-0.618c-0.693,0.107-2.404-6.146-2.47-6.538c-0.449-2.67-0.357-5.608,0.302-8.241
				c0.32-1.276,1.514-5.335,2.985-4.958c2.013,0.516,2.617,5.967,2.805,7.381c0.106,0.793,2.757,0.775,3.262,0.552
				c3.583-1.582,5.279,4.183,5.796,6.149c0.206,0.781,2.929,0.898,3.45,0.46c4.252-3.577,8.2-0.994,10.202,3.193
				c0.3,0.628,3.125,0.849,3.474,0.215c3.382-6.135,10.606-5.679,16.649-7.477c3.103-0.923,6.356-1.175,9.52-1.859
				c0.806-0.174,1.609-0.362,2.41-0.554c0.746-0.179,4.564-0.522,2.184-1.14c0.272,0.071,2.706,0.477,2.691-0.138
				c-0.007-0.291,9.896-3.648,10.963-4.17c2.273-1.111,5.024-2.427,5.898-4.975C103.423,124.112,100.036,123.364,99.755,124.184z"/>
		</g>
	</g>
	<g id="nose">
		<path fill="#EACD8C" d="M69.85,133.877c-4.214,8.237-15.575,12.235-26.851,11.791c-14.803-0.583-26.792-10.358-26.295-22.956
			c0.497-12.598,10.559-26.122,26.657-21.174c9.829,3.544,16.509,6.359,20.66,10.171"/>
		<g>
			<path d="M67.256,133.296c-9.971,17.692-47.03,12.854-47.852-9.244c-0.308-8.285,4.445-18.035,12.627-20.883
				c6.023-2.097,11.896,0.534,17.461,2.785c4.48,1.812,8.896,3.809,12.571,7.007c1.814,1.579,6.424-0.322,3.916-2.505
				c-5.044-4.39-11.475-6.857-17.659-9.181c-5.965-2.242-12.099-3.639-18.344-1.611c-10.66,3.461-17.373,15.734-15.763,26.648
				c3.72,25.21,46.691,28.624,58.232,8.146C73.732,132.174,68.428,131.217,67.256,133.296L67.256,133.296z"/>
		</g>
	</g>
	<path d="M88.423,149.732c-3.201,3.879-7.616,5.87-16.767,8.76c-3.277,0.626-8.188,2.469-11.8,2.288
		c-0.093,1.678,0.528,3.532,0.843,5.298c1.762,9.871,8.398,16.616,18.698,15.03c7.873-1.405,11.604-17.261,9.842-27.131
		C89.046,152.897,88.726,150.589,88.423,149.732z"/>
	<g id="mouth">
		<path fill="#E00B00" d="M74.758,177.966c-1.645-0.212-3.277-0.818-4.72-1.848c-1.254-0.895-4.669-3.692-2.896-5.259
			c2.183-1.927,6.435-1.548,9.209-2.556c1.914-0.695,8.313-3.705,9.268-0.444c0.48,1.639-0.472,3.559-1.129,5.07
			C82.87,176.654,78.775,178.484,74.758,177.966z"/>
		<path fill="#FFFFFF" d="M67.949,162.547c4.9-0.719,9.43-2.8,13.844-4.965c1.216-0.597,2.605-1.553,4.008-1.51
			c1.099,0.033,1.164,2.41,1.147,3.142c-0.051,2.205-1.34,2.83-3.131,3.612c-2.364,1.032-5.054,2.133-7.522,2.884
			c-4.759,1.451-10.949,4.126-12.602-1.68c-0.302-1.06,1.378-1.17,2.018-1.225C66.463,162.742,67.209,162.656,67.949,162.547z"/>
		<g>
			<g>
				<path d="M62.689,160.49c-1.845-0.109-4.533,0.238-6.002-1.133c-1.437-1.341-4.424,0.68-2.891,2.111
					c2.289,2.136,5.318,2.027,8.252,2.201C64.123,163.792,65.035,160.629,62.689,160.49L62.689,160.49z"/>
			</g>
		</g>
	</g>
	<g id="hat_1_">
		<path fill="#A50400" d="M95.402,59.606C64.606,39.222,32.506,34.097,23.704,48.159c-6.238,9.966,3.696,25.212,20.018,40.797
			c6.102-14.006,24.382-17.927,45.514-13.546c14.81,3.07,17.7,7.947,27.272,19.145c7.044,6.322,9.934,5.419,15.533,3.973
			C119.578,80.829,111.09,70.534,95.402,59.606z"/>
		<g>
			<path d="M97.929,58.889c-11.704-7.642-24.327-14.026-37.92-17.513c-9.271-2.378-19.714-3.562-28.946-0.365
				C4.534,50.2,30.095,78.957,41.195,89.673c0.988,0.954,4.561,0.36,5.147-0.897c4.086-8.76,12.482-12.899,21.824-13.756
				c9.669-0.887,21.346,0.417,30.058,4.972c7.376,3.856,10.97,11.271,17.112,16.45c5.562,4.69,10.855,4.669,17.583,2.935
				c0.548-0.141,2.236-0.732,1.648-1.565C124.057,82.928,112.925,69.453,97.929,58.889c-1.312-0.924-5.953,0.8-5.054,1.433
				c14.996,10.564,26.129,24.039,36.639,38.923c0.549-0.522,1.099-1.043,1.648-1.565c-10.589,2.729-15.779-9.463-22.608-15.457
				c-6.613-5.805-15.439-7.819-23.957-8.939c-15.436-2.029-36.033-0.147-43.495,15.853c1.716-0.299,3.431-0.598,5.147-0.897
				C37.714,80,10.693,51.978,32.557,42.838c8.136-3.401,18.514-0.992,26.599,1.365c12.011,3.5,23.276,9.302,33.719,16.12
				C94.223,61.203,98.804,59.46,97.929,58.889z"/>
		</g>
	</g>
	<g id="eyebrows">
		<path d="M56.619,74.437c4.203,0,7.834,4.213,9.542,10.317c0.027-0.558,0.042-1.123,0.042-1.695c0-10.049-4.21-18.195-9.403-18.195
			c-5.193,0-9.403,8.146-9.403,18.195c0,0.211,0.005,0.419,0.008,0.628C49.222,78.166,52.666,74.437,56.619,74.437z"/>
		<path d="M100.008,81.769c5.412,2.434,8.405,8.438,8.404,15.4c4.352-10.665,2.507-21.517-4.34-24.597
			c-6.913-3.109-16.367,2.853-21.424,13.369C87.899,81.143,94.504,79.293,100.008,81.769z"/>
	</g>
</g>
</svg>
