<?xml version="1.0" encoding="utf-8"?>
<!-- Generator: Adobe Illustrator 21.0.2, SVG Export Plug-In . SVG Version: 6.00 Build 0)  -->
<svg version="1.1" id="Layer_5_copy" xmlns="http://www.w3.org/2000/svg" xmlns:xlink="http://www.w3.org/1999/xlink" x="0px"
	 y="0px" width="200px" height="200px" viewBox="0 0 200 200" style="enable-background:new 0 0 200 200;" xml:space="preserve">
<style type="text/css">
	.st0{fill:#FFFFFF;}
	.st1{fill:none;stroke:#FFFFFF;stroke-width:4;stroke-miterlimit:10;}
	.st2{clip-path:url(#SVGID_2_);fill:#841617;}
	.st3{clip-path:url(#SVGID_4_);fill:#841617;}
</style>
<path d="M150,77.4c0,0,20.7-3.3,29,4c37,32.5,2.3,58.3,2.3,58.3s-17,14.3-48.3,13.7c-31.3-0.7-72.3-35-93.3-44
	c-11.5-4.9-9.7-3-23.3-4.3c-13.7-1.3-23-30.7-6-33.7c0,0,14.7-2.3,28.7,17.3c0,0,3.7-4,7.7-3.7c0,0,10.7-28.3,14-32.3
	C64,48.7,74,26.4,77,25.4s3.7,4.7,9.7,4.7s12-7.7,19-4.9c0,0,43.3,6.9,44,25.9C150.3,70.1,150,77.4,150,77.4z"/>
<path class="st0" d="M52.8,103.8c0,0,24.9-0.4,39.9-5.7s51-1.3,58.3,12.3s-39.2,18.3-55.3,6C78,112.1,52.8,103.8,52.8,103.8z"/>
<path class="st1" d="M5.8,119.5c0,0,8-13.3,35.8-15.3c8.5-0.6,30.8,2.8,56-11.5s61.8-20,87.2-17.5"/>
<path class="st1" d="M37.8,82.7c0,0,20.8-1.1,64.9,7.3"/>
<g>
	<g>
		<defs>
			<path id="SVGID_1_" d="M52.8,106.5c0,0,24.9-3.1,39.9-8.5s51-1.3,58.3,12.3l49-0.7v65.7H0v-66.9L52.8,106.5z"/>
		</defs>
		<clipPath id="SVGID_2_">
			<use xlink:href="#SVGID_1_"  style="overflow:visible;"/>
		</clipPath>
		<path class="st2" d="M46.5,119.2V95.7h39.4v23.5h-9l-0.9,0.2v40.7l-0.9,2.9c-4,5.5-10.4,7.9-19.2,7.4h-8.6
			c-1.2-0.1-2.1-0.2-2.8-0.5h-0.7c-0.6-0.1-1.4-0.3-2.4-0.6h-0.5l-2.4-0.8l-3.6-1.9c-1.3-0.9-2.4-2.2-3.4-3.9
			c-0.5-1.6-0.7-3.5-0.5-6v-20.1h18.3c0.2,0.9,0.3,2.1,0.2,3.6v6c2.2,1,4.4,1.1,6.8,0.3c0.5-1.4,0.6-3.4,0.4-6v-21.1
			c-0.5-0.1-1.1-0.2-1.7-0.2c-0.6,0-1.4,0-2.2,0L46.5,119.2L46.5,119.2z"/>
	</g>
	<g>
		<defs>
			<path id="SVGID_3_" d="M52.8,103.8c0,0,24.9-0.4,39.9-5.7s51-1.3,58.3,12.3l49-0.7v65.7H0v-69.7L52.8,103.8z"/>
		</defs>
		<clipPath id="SVGID_4_">
			<use xlink:href="#SVGID_3_"  style="overflow:visible;"/>
		</clipPath>
		<path class="st3" d="M91.7,119.1V95.9h39.9l1.1,0.2l3.3,0.4c0.3,0.1,0.6,0.2,1,0.3c0.4,0.1,0.9,0.2,1.5,0.3
			c3.3,0.9,6.5,2.5,9.5,4.9l0.6,0.5l2.1,2.9l0.3,0.6l0.6,2.1v17.4l-0.2,0.7l-0.9,2.3c-1.4,2-3.4,3.5-5.9,4.6c2.8,2.1,4,4.9,3.4,8.4
			c-0.6,3.5,1.3,5,5.7,4.6h2.8v23.1h-14.3l-1.2-0.2h-0.6l-3.5-0.9l-1.8-0.7c-1.7-1-3.1-2.4-4.4-4.3c-0.3-0.8-0.5-1.8-0.7-3v-21.6
			c-0.4-0.4-0.9-0.7-1.7-0.9h-11l-0.3,0.2v8.3c0.5,0.1,1.1,0.2,1.7,0.2s1.3,0,2,0h6.7v23.1H91.7v-23.1h8.3l0.8-0.2v-26.8L91.7,119.1
			z M131.1,119.1h-13.9c-0.1,0.4-0.2,0.9-0.2,1.5c0,0.6,0,1.2,0,1.9v3.8l0.2,0.5h13.2c0.8,0,1.6-0.1,2.4-0.3l0.9-0.2
			c0.4-0.1,0.7-0.3,1.1-0.8v-4.8l-0.5-0.9c-0.8-0.4-1.7-0.6-2.7-0.6L131.1,119.1z"/>
	</g>
</g>
</svg>
