<?xml version="1.0" encoding="utf-8"?>
<!-- Generator: Adobe Illustrator 21.0.2, SVG Export Plug-In . SVG Version: 6.00 Build 0)  -->
<svg version="1.1" id="Layer_1" xmlns="http://www.w3.org/2000/svg" xmlns:xlink="http://www.w3.org/1999/xlink" x="0px" y="0px"
	 width="200px" height="200px" viewBox="0 0 200 200" enable-background="new 0 0 200 200" xml:space="preserve">
<g id="back_hair">
	<path fill="#3C2415" d="M65.885,161.693c0,0-9.005,4.842-14.137,4.648s-4.357,0.485-6.487,2.324
		c-2.13,1.839-6.584-0.775-8.327,1.065c-1.743,1.839-5.228-4.261-8.037-2.518s-4.067-3.486-9.682-2.033
		c-5.615,1.452-3.582-2.518-6.294-4.261c-2.712-1.743,0.581-6.39-1.937-8.424s-3.389,0.775-3.389,0.775
		c-1.162-5.034,3.97-6.487,5.519-7.358s0.096-4.453-3.001-4.648c-3.099-0.194-2.808,2.227-2.808,2.227
		c-1.258-6.39,4.842-7.165,7.552-7.552s3.752-3.074,1.501-4.454s-2.759-6.681-2.759-6.681s5.591,2.759,6.753-0.581
		c1.162-3.34,4.793-4.285,6.172-5.301c1.379-1.015-2.833-3.995,0-3.414c2.833,0.581,2.759-1.017,3.267-5.591
		c0.508-4.574,8.205-5.664,7.48-7.334s-3.267-3.05-0.726-2.324c2.541,0.726,6.39-3.848,5.955-5.947
		c-0.433-2.101,1.381-5.748,4.214-8.144c2.833-2.396,1.73-8.859,1.73-8.859c-1.175-1.888,2.337-4.357,1.029-3.631
		c-1.307,0.726-4.793-2.759-4.793-2.759s4.502,0.726,7.697-2.033s6.536-20.623,6.536-20.623c-2.301-1.48-0.804-5.094-4.938-3.704
		s-2.033,9.368-3.05,5.592c-1.017-3.776-0.145-7.407,3.77-11.183c0,0-0.285-3.921-3.189-3.921c-2.905,0,8.424-1.979,10.021-3.749
		c1.598-1.771-2.033-3.512-2.033-3.512s6.826-0.726,8.424-5.519c1.598-4.793,3.776-7.697,6.681-7.988s7.117-5.374,11.764-3.776
		s8.859,2.324,9.876,1.452c1.017-0.871,4.067-2.033,5.519-1.162c1.452,0.871,7.843-4.938,12.055-3.921
		c4.212,1.017,10.184,1.162,10.184,1.162s-0.598,0.29-1.325,1.743c-0.726,1.452,9.15,4.938,10.312,6.826s1.307,6.536,5.228,7.552
		c3.921,1.017,3.921,1.017,3.921,1.017s2.033,1.652,2.179,6.127s-1.598,8.978,1.452,11.883c3.05,2.905,2.905,3.921,4.212,11.474
		c0.383,2.218,3.474-1.637,3.34-0.145c-0.322,3.588-4.665,11.148-4.357,13.507c0.436,3.34-0.145,7.988,2.614,10.021
		c2.759,2.033,1.307,14.976,4.212,16.275c2.905,1.299,18.735,6.673,11.328,22.794c0,0-1.017,4.115,8.665-1.404
		c0,0-1.452,1.699-0.387,2.737c1.065,1.039,4.067,0.845,3.68,3.557c-0.387,2.711,7.939-0.581,6.487,8.133
		c0,0-2.614-1.549-4.357,0.775c-1.743,2.324-0.968,6.003,3.001,5.034c3.97-0.969,5.907,0.387,6.584-0.969
		c0.677-1.356-2.905,4.648-2.033,6.1c0.871,1.452,2.324,6.294,0.194,9.392c-2.13,3.099-1.743,5.519-3.776,6.584
		c-2.033,1.065,6.487,0.485,4.938,4.648s-1.258,7.594-4.067,5.879c-1.754-1.072-3.775,5.267-5.156,2.72
		c-2.299-4.242-3.897,0.805-7.528-0.756c-2.647-1.137-3.651,2.878-6.971,3.486c-3.321,0.608-5.858-2.776-9.466-1.65
		c-5.984,1.868-12.096,3.609-17.452,2.424C127.659,171.182,65.885,161.693,65.885,161.693z"/>
</g>
<g id="neck">
	<path fill="#DFB28B" stroke="#B08874" stroke-width="1.1619" stroke-linejoin="round" stroke-miterlimit="10" d="M138.6,108.828
		c0,0,6.875,46.669,14.233,63.323c7.358,16.653-30.596,20.527-53.06,20.527s-60.417-3.874-53.059-20.527
		s14.233-63.323,14.233-63.323"/>
</g>
<g id="ears">
	<path fill="#DFB28B" stroke="#B08874" stroke-width="1.1619" stroke-linejoin="round" stroke-miterlimit="10" d="M58.333,86.752
		c0,0-6.39-10.166-8.714-7.552c-2.324,2.614-0.581,21.495,0,22.947c0.581,1.452,1.149,15.976,3.77,16.266
		c2.62,0.29,4.653-1.743,7.558-9.586"/>
	<path fill="#DFB28B" stroke="#B08874" stroke-width="1.1619" stroke-linejoin="round" stroke-miterlimit="10" d="M140.827,86.752
		c0,0,6.39-10.166,8.714-7.552c2.324,2.614,0.581,21.495,0,22.947c-0.581,1.452-1.149,15.976-3.77,16.266
		c-2.621,0.29-4.653-1.743-7.558-9.586"/>
</g>
<g id="head">
	<path fill="#DFB28B" stroke="#B08874" stroke-width="1.1619" stroke-linejoin="round" stroke-miterlimit="10" d="M99.871,148.913
		c19.752,0,37.471-27.595,40.085-32.242c2.614-4.648,2.033-14.814,2.033-18.3s2.324-34.857,2.324-34.857S143.926,36.21,99.967,36.21
		h-0.194c-43.958,0-44.344,27.304-44.344,27.304s2.324,31.371,2.324,34.857s-0.581,13.652,2.033,18.3S80.119,148.913,99.871,148.913
		z"/>
</g>
<g id="face_lines">
	
		<path fill="none" stroke="#B08874" stroke-width="1.1619" stroke-linecap="round" stroke-linejoin="round" stroke-miterlimit="10" d="
		M65.11,83.847c0,0-4.261,5.423-3.292,11.425"/>
	
		<path fill="none" stroke="#B08874" stroke-width="1.1619" stroke-linecap="round" stroke-linejoin="round" stroke-miterlimit="10" d="
		M128.433,87.914c0,0,5.423,6.196,4.842,10.07c-0.581,3.873-0.775,9.101-0.775,9.101"/>
	
		<path fill="none" stroke="#B08874" stroke-width="1.1619" stroke-linecap="round" stroke-linejoin="round" stroke-miterlimit="10" d="
		M68.79,117.155c0,0,5.615,13.362,10.263,15.299"/>
	
		<path fill="none" stroke="#B08874" stroke-width="1.1619" stroke-linecap="round" stroke-linejoin="round" stroke-miterlimit="10" d="
		M83.895,90.624c-4.454,6.003-5.228,8.133-7.165,9.489c-1.937,1.356,1.162,12.394,1.162,12.394"/>
	
		<path fill="none" stroke="#B08874" stroke-width="1.1619" stroke-linecap="round" stroke-linejoin="round" stroke-miterlimit="10" d="
		M116.233,92.561c0,0,3.873,7.358,6.39,9.005c2.518,1.646,0.775,8.811,0,9.972"/>
</g>
<g id="lips">
	<path fill="#CB8C84" d="M99.871,109.481c3.848,0,18.228-2.324,18.228-2.324s-10.602,0.799-12.635,0.509
		c-2.033-0.29-2.542-0.871-3.486-0.509c-0.943,0.363-2.203,0.572-2.203,0.572s-1.065-0.209-2.009-0.572
		c-0.943-0.363-1.452,0.218-3.486,0.509c-2.033,0.29-12.635-0.509-12.635-0.509S96.022,109.481,99.871,109.481z"/>
	<path fill="#CB8C84" d="M114.386,107.706c-5.915,3.623-14.612,3.832-14.612,3.832s-8.697-0.209-14.612-3.832"/>
</g>
<g id="bandana">
	<path fill="#FF0003" stroke="#5C0003" stroke-width="1.1619" stroke-linejoin="round" stroke-miterlimit="10" d="M99.774,20.524
		c26.82,0,40.86,18.881,43.184,23.819c2.324,4.938,2.324,19.171,2.324,19.171s-6.197-19.171-45.508-19.171
		S55.428,63.514,55.428,63.514s0-14.233,2.324-19.171S72.953,20.524,99.774,20.524z"/>
</g>
<g id="beard">
	<path fill="#3C2415" d="M122.818,123.738c-0.387-1.839,0.387-9.78,0.581-14.137c0.194-4.357-3.099-5.519-3.099-5.519
		s-10.844-6.777-12.781-8.714c-1.937-1.937-6.1-1.258-7.746,2.42c-1.646-3.68-5.809-4.357-7.746-2.42
		c-1.937,1.937-12.781,8.714-12.781,8.714s-3.292,1.162-3.099,5.519c0.194,4.357,0.968,12.296,0.581,14.137
		c-0.387,1.839-2.05,13.071-0.589,14.718c1.46,1.646,10.756,13.265,23.633,13.265s22.172-11.619,23.633-13.265
		C124.867,136.809,123.205,125.578,122.818,123.738z M118.17,129.838c-2.324,1.646-10.651-2.42-10.651-2.42s1.065,6.003,0,6.196
		c-1.065,0.193-1.839-4.938-7.746-4.938c-5.906,0-6.681,5.132-7.746,4.938c-1.065-0.194,0-6.196,0-6.196s-8.327,4.067-10.651,2.42
		s-3.001-24.4-1.258-24.013c1.743,0.387,19.656-1.839,19.656-1.839s17.913,2.227,19.656,1.839
		C121.171,105.438,120.494,128.193,118.17,129.838z"/>
</g>
<path fill="#FFFFFF" d="M74.877,44.287l-0.625-2.989l0.8-0.167l-1.532-7.332l-0.8,0.167l-0.629-3.009l9.788-2.045l0.74,3.542
	l-2.989,0.625l-0.111-0.533l-2.342,0.489l0.45,2.152l0.533-0.111l-0.107-0.515l3.009-0.629l0.843,4.037l-3.009,0.629l-0.107-0.514
	l-0.533,0.111l0.454,2.171l1.542-0.322l0.625,2.989L74.877,44.287z M80.484,42.777l-0.493-2.361l-1.543,0.322l-0.585-2.8
	l1.181-0.247l0.111,0.533l2.361-0.493l-0.712-3.409l-2.361,0.493l0.111,0.533l-1.181,0.247l-0.589-2.818l2.971-0.621l0.111,0.533
	l2.361-0.493l-0.605-2.894l-9.14,1.91l0.493,2.361l0.78-0.163l1.663,7.96l-0.78,0.163l0.493,2.361L80.484,42.777z M75.464,43.389
	l-0.318-1.524l0.781-0.163l-1.838-8.798l-0.781,0.163l-0.318-1.523l8.322-1.739l0.43,2.057l-1.542,0.322l-0.111-0.533l-3.79,0.792
	l0.76,3.637l1.999-0.418l-0.111-0.533l1.523-0.318l0.541,2.59l-1.523,0.318l-0.112-0.534l-1.999,0.418l0.76,3.637l1.523-0.318
	l0.318,1.524L75.464,43.389z"/>
<path fill="#FFFFFF" d="M84.072,30.094l-0.451-3.041l5.311-0.787l0.451,3.041l-0.809,0.12l1.035,6.986l0.486,0.361l1.982-0.294
	l0.361-0.486l-1.035-6.986l-0.808,0.12l-0.451-3.041l5.331-0.79l0.451,3.041l-0.828,0.123l1.226,8.274l-1.817,2.472l-5.928,0.879
	l-2.474-1.836l-1.226-8.274L84.072,30.094z M85.139,29.601l1.264,8.525l2.188,1.623l5.812-0.861l1.607-2.165l-1.266-8.545
	l0.789-0.117l-0.354-2.386l-4.657,0.69l0.354,2.386l0.828-0.123l1.092,7.371l-0.593,0.776l-2.117,0.314l-0.795-0.59l-1.09-7.351
	l0.808-0.12l-0.354-2.386l-4.658,0.69l0.354,2.386L85.139,29.601z M84.711,29.232l-0.228-1.539l3.83-0.568l0.228,1.539l-0.808,0.12
	l1.195,8.064l0.949,0.704l2.637-0.391l0.722-0.972l-1.192-8.044l-0.809,0.12l-0.228-1.539l3.83-0.568l0.228,1.539l-0.808,0.12
	l1.284,8.66l-1.508,2.033l-5.196,0.77l-2.055-1.525L85.5,29.115L84.711,29.232z"/>
<path fill="#FFFFFF" d="M98.181,38.936l0.354-3.033l0.811,0.095l0.867-7.44l-0.811-0.095l0.356-3.053l4.387,0.511l3.006,6.638
	l0.367-3.15l-0.811-0.095l0.356-3.053l5.333,0.622l-0.356,3.053l-0.811-0.095l-0.867,7.44l0.811,0.095l-0.354,3.033l-4.463-0.52
	l-2.947-6.474l-0.351,3.015l0.811,0.095l-0.354,3.033L98.181,38.936z M103.221,39.211l0.282-2.415l-0.811-0.095l0.523-4.483
	l3.331,7.381l3.98,0.464l0.282-2.415l-0.811-0.095l0.942-8.077l0.811,0.095l0.279-2.396l-4.675-0.545l-0.279,2.396l0.811,0.095
	l-0.539,4.619l-3.395-7.506l-3.903-0.455l-0.279,2.396l0.792,0.092l-0.942,8.077l-0.792-0.092l-0.282,2.415L103.221,39.211z
	 M99.022,38.271l0.18-1.547l0.793,0.092l1.041-8.927l-0.793-0.092l0.18-1.546l3.111,0.363l4.036,8.893l0.789-6.764l-0.83-0.097
	l0.18-1.546l3.864,0.451l-0.18,1.546L110.562,29l-1.041,8.927l0.83,0.097l-0.18,1.547l-3.227-0.376l-3.937-8.725l-0.771,6.609
	l0.811,0.095l-0.18,1.547L99.022,38.271z"/>
<path fill="#FFFFFF" d="M112.14,41.638l0.677-2.978l0.797,0.181l1.66-7.304l-0.797-0.181l0.681-2.997l5.235,1.19l-0.681,2.997
	l-0.797-0.181l-0.427,1.878l2.306-1.451l-0.323-0.073l0.681-2.997l6.299,1.431l-0.681,2.997l-1.101-0.25l-4.424,2.785l2.858,4.54
	l1.007,0.229l-0.677,2.978l-6.299-1.431l0.677-2.978l0.36,0.082l-0.996-1.584l-0.746,0.469l-0.155,0.683l0.798,0.181l-0.677,2.978
	L112.14,41.638z M117.145,42.437l0.534-2.352l-0.817-0.186l0.241-1.062l1.165-0.733l1.553,2.468l-0.758-0.172l-0.534,2.352
	l5.633,1.28l0.534-2.352l-0.797-0.181l-3.092-4.913l4.818-3.035l0.892,0.203l0.534-2.352l-5.654-1.285l-0.534,2.352l0.758,0.172
	l-3.632,2.287l0.673-2.96l0.797,0.181l0.534-2.352l-4.59-1.043l-0.534,2.352l0.777,0.176l-1.802,7.93l-0.777-0.176l-0.534,2.352
	L117.145,42.437z M113.047,41.067l0.345-1.518l0.778,0.177l1.992-8.764l-0.778-0.177l0.345-1.518l3.775,0.858l-0.345,1.518
	l-0.797-0.181l-1,4.401l5.402-3.401l-1.403-0.319l0.345-1.518l4.837,1.099l-0.345,1.518L125.4,33.06l-5.377,3.387l3.386,5.378
	l0.797,0.181l-0.345,1.518l-4.837-1.099l0.345-1.518l1.423,0.323l-2.357-3.767l-1.681,1.074l-0.384,1.688l0.817,0.186l-0.345,1.518
	L113.047,41.067z"/>
</svg>
