<?xml version="1.0" encoding="utf-8"?>
<!-- Generator: Adobe Illustrator 21.0.2, SVG Export Plug-In . SVG Version: 6.00 Build 0)  -->
<svg version="1.1" id="Layer_2" xmlns="http://www.w3.org/2000/svg" xmlns:xlink="http://www.w3.org/1999/xlink" x="0px" y="0px"
	 width="200px" height="200px" viewBox="0 0 200 200" enable-background="new 0 0 200 200" xml:space="preserve">
<linearGradient id="SVGID_1_" gradientUnits="userSpaceOnUse" x1="100" y1="181.6667" x2="100" y2="18.3333">
	<stop  offset="0" style="stop-color:#6A0011"/>
	<stop  offset="1" style="stop-color:#AA0004"/>
</linearGradient>
<path fill="url(#SVGID_1_)" d="M190.167,181.667H9.833c-2.2,0-4-1.8-4-4V22.333c0-2.2,1.8-4,4-4h180.333c2.2,0,4,1.8,4,4v155.333
	C194.167,179.867,192.367,181.667,190.167,181.667z"/>
<path fill="#FFFFFF" d="M68.744,91.326c0,0.468-0.13,0.845-0.39,1.13c-0.261,0.286-0.624,0.429-1.091,0.429h-13.33
	c-0.988,0-1.637-0.493-1.949-1.481l-7.795-20.97c-0.156-0.416-0.403-0.714-0.741-0.896c-0.338-0.182-0.871-0.273-1.598-0.273H36.47
	c-0.312,0-0.545,0.091-0.701,0.273c-0.156,0.183-0.234,0.377-0.234,0.585V90.78c0,0.78-0.183,1.325-0.546,1.637
	c-0.364,0.312-0.962,0.468-1.793,0.468H21.581c-0.676,0-1.144-0.143-1.403-0.429c-0.261-0.285-0.39-0.741-0.39-1.364V36.679
	c0-1.091,0.441-1.637,1.325-1.637h25.257c7.275,0,12.914,1.417,16.917,4.249c4.001,2.833,6.002,6.821,6.002,11.966
	c0,3.69-0.975,6.912-2.923,9.667c-1.949,2.755-4.457,4.677-7.522,5.769c-0.261,0.104-0.39,0.364-0.39,0.779
	c0,0.261,0.026,0.468,0.078,0.624l10.056,22.451C68.691,90.963,68.744,91.222,68.744,91.326z M51.048,57.104
	c1.299-1.143,1.949-2.754,1.949-4.833c0-2.183-0.715-3.871-2.144-5.067c-1.43-1.195-3.262-1.793-5.496-1.793h-8.186
	c-0.624,0-1.052,0.104-1.286,0.312c-0.234,0.208-0.351,0.573-0.351,1.091v10.446c0,0.572,0.078,0.975,0.234,1.208
	c0.156,0.234,0.467,0.351,0.935,0.351h8.653C47.852,58.818,49.749,58.247,51.048,57.104z"/>
<path fill="#FFFFFF" d="M87.569,89.961c-4.028-2.468-7.146-5.925-9.355-10.368c-2.209-4.443-3.313-9.575-3.313-15.396
	c0-5.976,1.156-11.226,3.469-15.747c2.312-4.521,5.547-8.016,9.705-10.485c4.157-2.468,8.938-3.703,14.344-3.703
	c4.312,0,8.186,0.793,11.615,2.378c3.43,1.586,6.209,3.664,8.342,6.236c2.129,2.573,3.508,5.289,4.131,8.146l0.156,1.247
	c0,0.468-0.092,0.78-0.273,0.936s-0.48,0.261-0.896,0.312l-11.85,1.793c-0.52,0-0.857-0.09-1.014-0.273
	c-0.154-0.182-0.311-0.558-0.467-1.13c-0.416-2.546-1.48-4.65-3.195-6.314c-1.717-1.663-4.004-2.495-6.861-2.495
	c-3.534,0-6.21,1.456-8.029,4.366c-1.82,2.911-2.729,7.666-2.729,14.266c0,6.913,0.961,11.81,2.884,14.694
	c1.922,2.885,4.729,4.327,8.42,4.327c2.598,0,4.701-0.636,6.314-1.91c1.609-1.273,2.754-3.001,3.43-5.184l0.156-1.481
	c0.104-0.312,0.154-0.519,0.154-0.624c0-0.415-0.285-0.624-0.857-0.624h-8.34c-0.521,0-0.885-0.104-1.092-0.312
	c-0.209-0.207-0.312-0.624-0.312-1.247v-6.704c0-0.78,0.494-1.169,1.482-1.169l21.359,0.156c0.83,0,1.467,0.195,1.91,0.585
	c0.439,0.39,0.662,0.896,0.662,1.52v25.881c0,0.364-0.117,0.663-0.352,0.896c-0.232,0.234-0.533,0.351-0.896,0.351h-2.729
	c-0.986,0-1.742-0.468-2.26-1.403l-2.729-4.989c-0.105-0.208-0.223-0.299-0.352-0.273c-0.129,0.027-0.271,0.144-0.428,0.351
	c-1.977,2.132-4.158,3.847-6.549,5.145s-5.613,1.949-9.666,1.949C96.261,93.665,91.596,92.431,87.569,89.961z"/>
<path fill="#FFFFFF" d="M133.445,36.679c0-0.468,0.143-0.858,0.429-1.169c0.285-0.312,0.714-0.468,1.286-0.468h45.76
	c0.571,0,1,0.156,1.286,0.468c0.285,0.312,0.429,0.702,0.429,1.169v8.263c0,0.884-0.521,1.325-1.56,1.325h-14.188
	c-0.572,0-0.857,0.261-0.857,0.779v44.279c0,1.04-0.468,1.559-1.403,1.559H151.53c-0.884,0-1.325-0.493-1.325-1.481V47.359
	c0-0.416-0.052-0.702-0.155-0.857c-0.105-0.156-0.312-0.234-0.624-0.234h-14.344c-1.092,0-1.637-0.441-1.637-1.325V36.679z"/>
<path fill="#FFFFFF" d="M20.436,106.89c0.208-0.254,0.497-0.382,0.868-0.382h11.661c0.786,0,1.18,0.44,1.18,1.318v39.078
	c0,0.324,0.057,0.556,0.173,0.694c0.115,0.139,0.312,0.208,0.59,0.208h21.517c0.972,0,1.458,0.394,1.458,1.18v7.635
	c0,0.417-0.139,0.753-0.417,1.007c-0.277,0.255-0.671,0.382-1.18,0.382H21.79c-0.648,0-1.088-0.127-1.319-0.382
	c-0.232-0.254-0.347-0.659-0.347-1.215v-48.447C20.124,107.504,20.228,107.145,20.436,106.89z"/>
<path fill="#FFFFFF" d="M62.22,157.663c-0.208-0.231-0.312-0.556-0.312-0.972c0-0.323,0.069-0.647,0.208-0.972l17.075-47.754
	c0.184-0.556,0.417-0.938,0.694-1.146c0.278-0.208,0.694-0.312,1.25-0.312h12.077c1.111,0,1.897,0.579,2.36,1.735l16.866,47.615
	c0.047,0.139,0.07,0.37,0.07,0.693c0,0.417-0.082,0.764-0.244,1.042c-0.162,0.277-0.404,0.416-0.729,0.416H99.528
	c-0.741,0-1.227-0.37-1.458-1.11l-3.054-9.023c-0.139-0.277-0.267-0.474-0.382-0.59c-0.116-0.115-0.336-0.174-0.659-0.174H78.219
	c-0.51,0-0.833,0.255-0.972,0.764l-3.263,9.162c-0.232,0.648-0.741,0.972-1.527,0.972h-9.37
	C62.717,158.01,62.428,157.895,62.22,157.663z M90.852,136.562c0.462,0,0.694-0.231,0.694-0.694c0-0.277-0.024-0.486-0.07-0.625
	l-4.997-13.951c-0.047-0.277-0.186-0.416-0.417-0.416c-0.186,0-0.324,0.139-0.417,0.416l-5.067,13.951
	c-0.093,0.186-0.139,0.417-0.139,0.694c0,0.416,0.278,0.625,0.833,0.625H90.852z"/>
<path fill="#FFFFFF" d="M180.007,106.959c0.348,0.302,0.521,0.706,0.521,1.215c0,0.186-0.047,0.463-0.14,0.833l-14.09,47.406
	c-0.232,0.556-0.521,0.961-0.867,1.215c-0.348,0.255-0.845,0.382-1.492,0.382h-8.538c-0.648,0-1.157-0.127-1.526-0.382
	c-0.371-0.254-0.649-0.659-0.833-1.215l-7.913-27.277c-0.139-0.509-0.277-0.764-0.416-0.764c-0.186,0-0.371,0.302-0.556,0.902
	l-7.982,27.139c-0.277,1.065-1.041,1.597-2.29,1.597H125c-1.204,0-1.967-0.531-2.29-1.597l-14.16-47.406
	c-0.046-0.185-0.069-0.439-0.069-0.764c0-0.556,0.162-0.982,0.486-1.284c0.323-0.301,0.809-0.451,1.457-0.451h10.134
	c0.602,0,1.053,0.104,1.354,0.312s0.521,0.544,0.66,1.006l8.12,28.527c0.14,0.556,0.301,0.833,0.486,0.833
	c0.139,0,0.254-0.184,0.347-0.555l8.052-28.806c0.092-0.462,0.301-0.798,0.625-1.006c0.323-0.208,0.809-0.312,1.457-0.312h8.607
	c0.601,0,1.052,0.104,1.354,0.312c0.3,0.208,0.521,0.544,0.659,1.006l8.398,29.083c0.092,0.324,0.219,0.51,0.382,0.556
	c0.161,0.046,0.288-0.093,0.382-0.417l7.912-29.222c0.14-0.878,0.81-1.318,2.014-1.318h7.148
	C179.162,106.508,179.66,106.658,180.007,106.959z"/>
</svg>
