<?xml version="1.0" encoding="utf-8"?>
<!-- Generator: Adobe Illustrator 21.0.2, SVG Export Plug-In . SVG Version: 6.00 Build 0)  -->
<svg version="1.1" id="love" xmlns="http://www.w3.org/2000/svg" xmlns:xlink="http://www.w3.org/1999/xlink" x="0px" y="0px"
	 width="200px" height="200px" viewBox="0 0 200 200" enable-background="new 0 0 200 200" xml:space="preserve">
<g>
	<path fill="#B08874" d="M123.863,166.173c0,0-3.184,9.949,2.587,12.933c5.77,2.985,1.99,3.433,4.775,7.387
		c2.786,3.954,7.959,1.367,9.352,6.143c0,0,0.995-5.969-2.388-7.362s6.268-1.368,8.009,3.594c1.741,4.962,12.685-0.808,10.496-3.594
		c-2.189-2.786,3.781-2.786,6.168,2.189c0,0,2.388-3.184,0-6.168s2.786,0.995,6.367,0.398s1.592-7.362,5.173-2.288
		s2.081-6.865-6.918-12.436c0,0-12.59-7.373-10.392-28.942c2.198-21.568,0.995-35.924-3.979-39.108S123.863,166.173,123.863,166.173
		z"/>
	<path fill="#B08874" d="M37.06,137.023c0,0-0.324,7.047-5.385,10.612s-12.821,8.788-2.673,20.13c0,0-7.163-9.103-1.194-12.834
		s13.282,0.814,16.863-16.904"/>
	<path fill="#B08874" d="M36.015,126.577c0,0-22.086,4.178-6.865,25.817c0,0-10.521-19.368,5.969-22.982"/>
	<path fill="#B08874" d="M26.166,154.633c0,0-1.676-16.581,9.849-21.191h1.791c-11.525,4.609-9.849,21.191-9.849,21.191"/>
	<path fill="#ED8C8C" stroke="#C95B5B" stroke-miterlimit="10" d="M66.085,23.682c0,0-16.117,20.295-18.505,34.92
		s-6.058,26.234-7.462,30.443c-2.388,7.163-0.704,12.189-2.388,16.117c-4.477,10.446-9.252,25.668-2.388,39.994
		s7.163,36.114,5.671,41.188c-1.492,5.074,19.169,10.792,25.145,10.794c24.175,0.006,56.932-10.197,65.587-33.179
		c0,0,5.372-11.64,6.268-15.818s3.88-0.597,7.76-4.775s5.372-9.252,8.954-16.117c3.582-6.865,9.849-21.489,5.969-23.578
		c-3.88-2.089,15.222-28.951,2.686-56.708C150.848,19.205,99.811-6.462,66.085,23.682z"/>
	<path fill="none" stroke="#C95B5B" stroke-miterlimit="10" d="M37.806,141.799c6.566,17.012,6.566,19.102,8.357,26.862
		s4.477,13.431,15.52,17.012s25.071-5.372,29.249-11.043c4.178-5.671,14.625-7.76,23.28-25.966"/>
	<path fill="none" stroke="#C95B5B" stroke-miterlimit="10" d="M44.671,180.599c0,0,7.76,17.803,31.338,16.012"/>
	<path fill="none" stroke="#C95B5B" stroke-miterlimit="10" d="M62.28,117.922c-5.671,5.969-18.505,10.745-17.609,16.117
		s2.985,10.745,2.089,14.923"/>
	<path fill="none" stroke="#C95B5B" stroke-miterlimit="10" d="M89.141,126.577c2.686,6.268,4.178,12.535,7.462,15.222
		s5.074,13.132,0,17.311"/>
	<path fill="#3A0000" d="M127.345,109.565c0,0,18.206-5.097,18.654-5.682s0,1.952,0,1.952l-15.072,7.909L127.345,109.565z"/>
	<polygon fill="#3A0000" points="37.806,83.748 43.897,75.175 44.626,72.184 34.672,81.36 	"/>
	<path fill="#3A0000" d="M133.015,109.863c-1.8-0.2-4.604-1.566-6.259-2.446c-2.586-13.471-21.994-17.107-31.874-18.085
		c-4.316-0.752-19.47-5.932-19.47-5.932l0.008,0.017c-6.694-4.325-21.688-12.415-31.539-5.632c-0.073,0.037-0.156,0.083-0.255,0.143
		c-3.432,2.089-5.223,1.343-8.208,2.089s-2.388,5.671-1.772,6.268c0.421,0.408,0.606,4.373,0.681,6.841
		c-3.01,11.417,3.908,19.753,21.911,21.261c9.689,0.812,15.512-6.993,18.846-14.933c2.204-0.596,6.564-1.123,9.141,2.891
		c-1.404,7.668-0.422,16.536,8.199,22.441c20.242,13.864,32.497,8.405,34.374-9.671c1.408-0.898,3.419-1.17,4.128-1.372
		C131.971,113.445,135.702,110.162,133.015,109.863z M56.138,112.8c-21.59-1.809-25.788-14.331-14.965-29.875
		c10.823-15.544,35.721,3.449,35.721,3.449C75.973,92.91,71.012,114.046,56.138,112.8z M76.297,96.265
		c1.234-3.589,1.984-6.966,2.38-9.312l9.824,3.19c-1.103,2.107-2.433,5.105-3.414,8.538C82.49,95.201,78.415,95.696,76.297,96.265z
		 M93.505,123.618c-13.758-9.423-6.292-27.083-3.009-32.827c0,0,35.018,0.274,34.744,19.97S113.475,137.296,93.505,123.618z"/>
	<polygon fill="#4A0F00" points="52.132,137.023 57.778,149.257 68.747,155.727 81.879,154.633 89.738,151.548 91.529,148.166 
		77.601,145.281 61.534,140.157 56.112,137.421 	"/>
	<path fill="#FFFFFF" d="M57.878,138.516c0,0-0.224,5.372,0,6.417s1.865,1.567,1.865,1.567s1.045,2.238,3.358,2.462
		c0,0-0.746,2.388,2.164,3.059c0,0,1.642,0.298,2.537,0s1.865,2.313,5.522,1.418c0,0,1.194-0.448,1.567-1.045
		c0,0,0.224,1.122,1.119,1.233s3.507,0.185,4.029-0.71c0,0,0.224-0.597,1.194-0.075s2.985,0.224,3.507-2.238
		s0.821-3.582-0.522-3.432s-2.835,0.149-2.91,0.672c0,0-0.672-2.238-2.238-2.164s-2.462,1.418-2.462,1.418s-0.672-2.313-2.91-2.686
		c-2.238-0.373-3.582,0.746-3.582,0.746s-0.821-2.612-2.238-2.91s-3.059-0.373-3.656,0.075s0.224-1.716-0.522-2.164
		s-2.164,0-2.164,0S58.624,136.799,57.878,138.516z"/>
	<path fill="#CB8C84" d="M50.043,135.034c0,0,3.082,1.982,5.969,3.407c1.251,0.618,2.622,2.039,3.134,2.761
		c1.691,2.388,6.865,2.736,10.968,3.955c4.104,1.219,13.257,3.407,15.943,4.004s6.566-1.791,6.566-1.791s-10.944-2.288-15.122-4.527
		c-4.178-2.238-6.168-0.647-6.168-0.647s-3.482-4.061-6.765-4.169C61.285,137.919,57.007,136.725,50.043,135.034z"/>
	<path fill="#CB8C84" d="M50.043,135.034c0,0,2.189,3.88,2.885,6.765s3.184,14.525,12.933,16.415s15.421-0.497,19.997-2.985
		s3.758-2.434,5.777-4.377c2.431-2.339,1.828-3.803-0.108-3.722c-0.888,0.037-1.947,2.968-2.386,3.124
		c-1.393,0.497-4.974,2.694-10.944,3.436c-5.969,0.742-5.77,0.643-10.446-0.75s-11.441-10.048-12.336-12.834s-1.5-3.736-2.393-4.15
		C52.129,135.544,50.043,135.034,50.043,135.034z"/>
	<path fill="#B08874" d="M47.954,72.184c0,0-0.597,2.627-1.194,2.992c-0.597,0.365-3.77,1.276-3.77,1.276s2.487-6.731,1.636-12.849
		s1.835-9.551,3.328-14.774s3.283-9.551,4.775-9.998s-0.597-2.835,1.642-7.312S69.741,2.566,106.005,2.865
		c0,0,0.298,1.045,1.791,1.194c1.492,0.149,7.462-2.537,19.549,0.746s15.371,9.103,19.848,10.446
		c4.477,1.343,4.328,4.178,7.312,7.163s7.014,4.477,7.462,7.909s3.88,4.937,4.925,9.333s1.791,6.187,2.238,8.276
		s2.835,9.103,2.089,11.938s1.194,17.311-0.597,19.848s0.298,4.328-2.388,6.715s0.149,4.328-2.238,9.103s-2.186,10.107-4.6,9.157
		s-7.836-0.95-15.198,9.049s-6.168,2.089-4.676-4.178s2.537-16.714,9.7-30.145c7.163-13.431-6.566-23.877-12.834-23.728
		s-39.044-0.57-44.172-12.535c-2.238-5.223-15.072-0.597-19.549-8.805c-4.477-8.208-12.386-0.298-16.565,8.655
		S49.745,60.769,47.954,72.184z"/>
</g>
</svg>
