<?xml version="1.0" encoding="utf-8"?>
<!-- Generator: Adobe Illustrator 22.0.0, SVG Export Plug-In . SVG Version: 6.00 Build 0)  -->
<svg version="1.1" id="Layer_5" xmlns="http://www.w3.org/2000/svg" xmlns:xlink="http://www.w3.org/1999/xlink" x="0px" y="0px"
	 width="200px" height="200px" viewBox="0 0 200 200" enable-background="new 0 0 200 200" xml:space="preserve">
<path id="face" fill="#F4A64A" stroke="#C97F2F" stroke-miterlimit="10" d="M100,38.667L142.583,47l19.75,68.543L153,137.5
	c0,0-36.5,49.347-53,45.674C83.5,186.847,47,137.5,47,137.5l-9.333-21.957L57.417,47C57.417,47,100,38.667,100,38.667z"/>
<path id="sunglasses" fill="#E3ABCE" stroke="#FFFFFF" stroke-miterlimit="10" d="M100,83.479l19.417,0.021
	c23.25-0.667,23.167,14.667,23.167,16.5s-2,15.708-17.375,15.542c-15.375-0.167-23-14.208-23.75-16.25
	c-0.75-2.042-1.458-2.125-1.458-2.125s-0.708,0.083-1.458,2.125c-0.75,2.042-8.375,16.083-23.75,16.25
	C59.417,115.708,57.417,101.833,57.417,100s-0.083-17.167,23.167-16.5C80.583,83.5,100,83.479,100,83.479z"/>
<path id="hair" fill="#F6D700" stroke="#BCA100" stroke-miterlimit="10" d="M30,169.667c0,0,2.833-2.5,0-4.5s-6.167-8.5-2.5-10.167
	s6.833-3.167,2.167-7.167s8.684,0.504,10.833-8.333c3-12.333-7.667-16.333-9.5-22.333c0,0-1.333-7.645,1-17.656
	s-0.254-9.387,1.456-16.032c1.71-6.646,0.21-16.146,12.377-22.312c0,0,5-17,13.667-23.5c0,0,3.546-14.744,20.667-19.167
	c10.333-2.669,9.5-5.333,19.833,0c0,0,3,1.667,8.833,1.167c5.833-0.5,8.167,4.833,12.833,6.5C126.333,27.833,132.5,29,137.333,34.5
	c4.833,5.5,5.333,8.5,9,10.167C150,46.333,151.167,45.5,153,50.333s6-1.5,3.667,5.167c-2.333,6.667,3.667,11.5,6.667,14.833
	c3,3.333-0.333,10.167,1,14c1.333,3.833,6.833,5.587,6.667,8.21S168.834,95,169.667,97.5S164,95,167,100.5s9.841,23.5,4.004,26.833
	S161.5,143,170.167,141.667c8.667-1.333,11.333,16,9.167,19c-2.167,3-2.5,3.833,1.667,3.833s-5.667,6.333-4.833,7.333
	c0.833,1,4.667,0.833,2.5,4.833c-2.167,4-9.333,9.667-19.333,4.333s-12.667-4.833-14.5-9.833c-1.833-5-6-13.833-5-20.167
	s-0.167-11,4.167-11.333c4.333-0.333,8.833-9.5,7.333-19.667c0,0-2,2.5-2.333,1.5s-1-6-2-4.667c-1,1.333-3.833,4.167-3.667-3.333
	c0.167-7.5,5.5-20.833-12.833-32.833c0,0-1.667,0,3.5-5.833c0,0,9.5-18.167-7.667-28.667c0,0,17,20.667,0.667,31.833
	c0,0-1.833,0.167-1.167-9.5c0.667-9.667-10-12.167-12.667-11.833C110.5,57,102.833,55.833,100.5,52.833S99.833,56.5,92,57
	s-18.333-1.333-18.167,10C74,78.333,77.333,78.5,74,78.333c-3.333-0.167-8.5-2.167-8.5-11.667s-1.167-4.5-1.5-0.833
	C63.667,69.5,53.5,86.5,54.167,92.667c0.667,6.167,5,20.167,1.667,26.167c0,0-1.167,1.833-4.667-1.833s-10.667-3.333-6.5,9.167
	s7.667,9.5,10.667,13.333s5.333,13,4.833,17S49.833,179.333,42.5,179.167C35.167,179,30,169.667,30,169.667z"/>
</svg>
