<?xml version="1.0" encoding="utf-8"?>
<!-- Generator: Adobe Illustrator 22.0.0, SVG Export Plug-In . SVG Version: 6.00 Build 0)  -->
<svg version="1.1" id="Layer_2" xmlns="http://www.w3.org/2000/svg" xmlns:xlink="http://www.w3.org/1999/xlink" x="0px" y="0px"
	 width="200px" height="200px" viewBox="0 0 200 200" enable-background="new 0 0 200 200" xml:space="preserve">
<rect x="21.411" y="0.453" fill="#FFFFFF" width="157.182" height="199.224"/>
<path fill="#231F20" d="M100.002,197.103c25.739,0,34.148-10.639,35.006-16.645c0.858-6.006,4.29-5.663,4.29-5.663
	c6.177,1.716,12.87-10.296,17.674-5.148c3.23,3.461-13.385,13.556-2.746,18.704c10.639,5.148,24.367-14.757,24.367-14.757v26.083
	h-78.591H21.411v-26.083c0,0,13.728,19.905,24.367,14.757c10.639-5.148-5.975-15.243-2.746-18.704
	c4.805-5.148,11.497,6.864,17.674,5.148c0,0,3.432-0.343,4.29,5.663C65.854,186.464,74.263,197.103,100.002,197.103z"/>
<path fill="#231F20" d="M21.411,136.615v24.581c0,0-0.3,2.574,4.204,2.574s5.534-2.574,2.317-9.781
	C24.714,146.782,21.411,136.615,21.411,136.615z"/>
<path fill="#231F20" d="M55.215,107.015L43.89,125.891c0,0-5.491,12.183,6.864,2.402c0,0,9.953-7.353,13.213-8.738
	c3.26-1.386,2.574-6.362-1.03-10.48S57.093,103.886,55.215,107.015z"/>
<path fill="#231F20" d="M144.785,107.015l11.325,18.876c0,0,5.491,12.183-6.864,2.402c0,0-9.953-7.353-13.213-8.738
	c-3.26-1.386-2.574-6.362,1.03-10.48S142.907,103.886,144.785,107.015z"/>
<path fill="#231F20" d="M164.093,0.453c0,0,15.958,13.385-3.604,16.988s-38.867,3.089-44.787,14.414s-9.009,27.541-3.089,37.065
	c0,0,6.242,11.132,11.969,15.122c5.727,3.99,3.024,10.682-0.643,7.4c-3.668-3.282-10.939-4.311-15.83-1.737
	s-8.108,2.252-8.108,2.252s-3.217,0.322-8.108-2.252s-12.162-1.544-15.83,1.737c-3.668,3.282-6.371-3.41-0.643-7.4
	S87.39,68.92,87.39,68.92c5.92-9.524,2.831-25.739-3.089-37.065S59.076,21.045,39.514,17.441S35.911,0.453,35.911,0.453h-14.5
	v64.349c0,0,5.234-1.544,10.896,1.287s10.296-1.287,13.127-6.95c2.831-5.663,15.958-4.118,12.612,2.317s-10.553,5.92-9.781,9.91
	c0.772,3.99,3.843,3.217,6.104,3.089c2.261-0.129,12.428-7.722,17.19-12.998s10.553-1.158,6.435,4.247
	c-4.118,5.405-5.92,8.365-9.524,10.811c-3.604,2.445-11.583,14.8-4.247,21.621c7.336,6.821,18.275,6.306,20.592,0.901
	c2.317-5.405,9.91-2.574,10.811-0.129s2.317,3.475,4.376,3.475s3.475-1.03,4.376-3.475c0.901-2.445,8.494-5.277,10.811,0.129
	c2.317,5.405,13.256,5.92,20.592-0.901c7.336-6.821-0.643-19.176-4.247-21.621c-3.604-2.445-5.405-5.405-9.524-10.811
	c-4.118-5.405,1.673-9.524,6.435-4.247c4.762,5.277,14.929,12.87,17.19,12.998c2.261,0.129,5.332,0.901,6.104-3.089
	c0.772-3.99-6.435-3.475-9.781-9.91s9.781-7.979,12.612-2.317c2.831,5.663,7.464,9.781,13.127,6.95s10.896-1.287,10.896-1.287V0.453
	H164.093z M49.81,53.219c-6.95-0.129-4.96-7.464-1.93-7.464c2.703,0,2.445,2.407,2.445,2.407c1.331,1.512,2.188,1.968,5.148,1.711
	c2.96-0.257,4.762-3.861,5.405-4.762c0.643-0.901,4.118-4.376,7.207,0.643S56.76,53.348,49.81,53.219z M150.194,53.219
	c-6.95,0.129-21.364-2.445-18.275-7.464c3.089-5.019,6.564-1.544,7.207-0.643c0.643,0.901,2.445,4.504,5.405,4.762
	c2.96,0.257,3.817-0.199,5.148-1.711c0,0-0.257-2.407,2.445-2.407C155.154,45.755,157.144,53.091,150.194,53.219z"/>
<path fill="#231F20" d="M140.327,135.157c-11.325-3.947-14.243-4.805-17.674-7.722c-3.432-2.917-10.296-2.917-15.958-0.858
	c-5.663,2.059-6.692,1.716-6.692,1.716s-1.03,0.343-6.692-1.716c-5.663-2.059-12.527-2.059-15.958,0.858
	c-3.432,2.917-6.349,3.775-17.674,7.722s12.183,13.728,12.183,13.728c14.071,4.29,22.308,10.811,22.994,12.698
	c0.686,1.888,5.148,1.201,5.148,1.201s4.461,0.686,5.148-1.201s8.923-8.408,22.994-12.698
	C128.144,148.884,151.653,139.103,140.327,135.157z M118.356,142.951c-3.667,2.549-15.5,7.049-18.5,7.049s-14.833-4.5-18.5-7.049
	C77.69,140.403,73.69,137,77.523,136c3.833-1,13.667-2,17,3c3.333,5,5.333,3.833,5.333,3.833s2,1.167,5.333-3.833
	c3.333-5,13.167-4,17-3C126.023,137,122.023,140.403,118.356,142.951z"/>
</svg>
