<?xml version="1.0" encoding="utf-8"?>
<!-- Generator: Adobe Illustrator 21.0.2, SVG Export Plug-In . SVG Version: 6.00 Build 0)  -->
<svg version="1.1" id="Layer_5" xmlns="http://www.w3.org/2000/svg" xmlns:xlink="http://www.w3.org/1999/xlink" x="0px" y="0px"
	 width="200px" height="200px" viewBox="0 0 200 200" enable-background="new 0 0 200 200" xml:space="preserve">
<path d="M150,77.409c0,0,20.731-3.257,29,4c37.045,32.513,2.333,58.333,2.333,58.333s-17,15.333-48.333,14.667
	c-31.333-0.667-72.333-36-93.333-45c-11.472-4.917-9.667-3-23.333-4.333c-13.667-1.333-23-30.667-6-33.667
	c0,0,14.667-2.333,28.667,17.333c0,0,3.667-4,7.667-3.667c0,0,10.667-28.333,14-32.333C64,48.742,74,26.409,77,25.409
	s3.667,4.667,9.667,4.667s11.956-7.667,19-4.871c0,0,43.333,6.871,44,25.871C150.333,70.075,150,77.409,150,77.409z"/>
<path fill="#FFFFFF" d="M52.75,103.78c0,0,24.917-0.371,39.917-5.704c15-5.333,51-1.333,58.333,12.333s-37.667,10.333-55.333,6
	C78,112.075,52.75,103.78,52.75,103.78z"/>
<path fill="none" stroke="#FFFFFF" stroke-width="2" stroke-miterlimit="10" d="M17.5,107.997c0,0,15.5-5.005,24-4.755
	s30.75,3.75,56-10.5s62.75-17.75,69.25-17.25"/>
<path fill="none" stroke="#FFFFFF" stroke-miterlimit="10" d="M39.75,85.742c0,0,18.821-4.125,62.911,4.313"/>
<g>
	<defs>
		<path id="SVGID_1_" d="M52.75,103.78c0,0,24.917-0.371,39.917-5.704c15-5.333,51-1.333,58.333,12.333l49-0.667v65.667H0v-69.667
			L52.75,103.78z"/>
	</defs>
	<clipPath id="SVGID_2_">
		<use xlink:href="#SVGID_1_"  overflow="visible"/>
	</clipPath>
	<path clip-path="url(#SVGID_2_)" fill="#841617" d="M46.495,119.209V95.736h39.355v23.473h-8.987l-0.852,0.154v40.749l-0.852,2.867
		c-3.977,5.474-10.381,7.927-19.213,7.359h-8.599c-1.189-0.052-2.119-0.207-2.789-0.464h-0.697c-0.569-0.053-1.369-0.259-2.402-0.62
		h-0.543l-2.402-0.775l-3.641-1.859c-1.292-0.877-2.428-2.194-3.409-3.95c-0.517-1.55-0.697-3.538-0.542-5.966v-20.142h18.282
		c0.206,0.93,0.283,2.119,0.233,3.563v5.966c2.169,1.033,4.441,1.136,6.817,0.31c0.516-1.446,0.645-3.435,0.388-5.966v-21.072
		c-0.517-0.103-1.098-0.166-1.743-0.193c-0.646-0.025-1.382-0.012-2.208,0.039H46.495z"/>
	<path clip-path="url(#SVGID_2_)" fill="#841617" d="M91.658,119.053V95.89h39.896l1.085,0.155l3.331,0.388
		c0.257,0.104,0.606,0.206,1.046,0.31c0.437,0.104,0.941,0.206,1.511,0.31c3.304,0.878,6.48,2.505,9.528,4.88l0.62,0.465
		l2.092,2.866l0.31,0.62l0.62,2.092v17.43l-0.155,0.698l-0.929,2.324c-1.395,1.964-3.358,3.513-5.888,4.649
		c2.839,2.066,3.976,4.881,3.409,8.444c-0.57,3.513,1.316,5.035,5.655,4.571h2.788v23.085h-14.254l-1.24-0.155h-0.62l-3.487-0.929
		l-1.782-0.698c-1.653-0.982-3.125-2.427-4.415-4.339c-0.259-0.825-0.491-1.833-0.697-3.021v-21.614
		c-0.363-0.361-0.931-0.671-1.705-0.93h-11l-0.31,0.155v8.289c0.515,0.105,1.084,0.168,1.704,0.194
		c0.62,0.026,1.29,0.013,2.014-0.039h6.662v23.085H91.658v-23.085h8.289l0.775-0.155v-26.804L91.658,119.053z M131.089,119.053
		h-13.867c-0.104,0.415-0.167,0.905-0.193,1.473c-0.027,0.569-0.014,1.214,0.039,1.936v3.797l0.154,0.464h13.169
		c0.775,0,1.575-0.103,2.402-0.31l0.853-0.154c0.361-0.051,0.722-0.31,1.084-0.775v-4.803l-0.464-0.93
		c-0.775-0.361-1.679-0.568-2.712-0.62L131.089,119.053z"/>
</g>
</svg>
