<?xml version="1.0" encoding="utf-8"?>
<!-- Generator: Adobe Illustrator 22.0.0, SVG Export Plug-In . SVG Version: 6.00 Build 0)  -->
<svg version="1.1" xmlns="http://www.w3.org/2000/svg" xmlns:xlink="http://www.w3.org/1999/xlink" x="0px" y="0px" width="200px"
	 height="200px" viewBox="0 0 200 200" enable-background="new 0 0 200 200" xml:space="preserve">
<g id="face">
	<path fill="#F9E5E1" stroke="#E0B9AD" stroke-miterlimit="10" d="M89.077,19.348L48.451,42.906L35.798,71.857l3.963,36.029
		c0,0,9.247,27.708,11.448,30.791s5.944,25.098,11.228,31.263c5.284,6.165,13.785,31.043,39.476,22.236s46.167-36.987,51.01-46.894
		c4.844-9.907,8.806-16.457,7.706-32.006c-1.101-15.549-16.072-65.966-16.072-65.966l-26.199-29.502L89.077,19.348z"/>
</g>
<g id="chin">
	<path fill="none" stroke="#E0B9AD" stroke-linecap="round" stroke-miterlimit="10" d="M81.426,140.594
		c0,0-6.901,23.841,12.374,27.143"/>
	<path fill="none" stroke="#E0B9AD" stroke-linecap="round" stroke-miterlimit="10" d="M104.048,167.737
		c2.642,0,0.472-2.642,5.63-3.082c5.158-0.44,11.323-15.411,3.837-23.117"/>
	<path fill="none" stroke="#E0B9AD" stroke-linecap="round" stroke-miterlimit="10" d="M85.554,154.166
		c0,0,1.541-20.774,18.494-15.05"/>
</g>
<g id="lips">
	
		<path fill="#E57399" stroke="#9B3860" stroke-width="0.3302" stroke-linecap="round" stroke-linejoin="round" stroke-miterlimit="10" d="
		M110.521,130.86c4.441,0.908-4.491-3.468-8.607-5.567c-4.116-2.1-7.113,0-7.113,0c-6.44,0.212-12.046,10.686-12.046,10.686
		s5.771-5.675,12.872-5.81C102.727,130.035,101.637,129.044,110.521,130.86z"/>
	
		<path fill="#E57399" stroke="#9B3860" stroke-width="0.3302" stroke-linecap="round" stroke-linejoin="round" stroke-miterlimit="10" d="
		M97.242,128.218c-8.276,1.04-14.644,6.275-14.487,7.761c0.157,1.486,7.588,0.66,12.872,0c5.284-0.66,19.319-4.024,13.209-5.81
		C102.727,128.383,103.81,127.393,97.242,128.218z"/>
</g>
<g id="moustache">
	<path fill="#231F20" d="M87.316,119.082c-2.956,2.782-3.743,7.706-5.944,9.467s-9.027,9.687-7.045,11.669
		c1.981,1.981,3.523-4.403,7.265-6.165s8.366-5.284,9.467-6.825c1.101-1.541,3.302-3.302,1.761-6.165S91.058,115.559,87.316,119.082
		z"/>
	<path fill="#231F20" d="M98.544,115.119c2.123-2.112,5.284-2.422,8.146,1.321c2.862,3.743,5.064,6.479,6.825,8.853
		c1.761,2.375,3.523,3.696,2.642,4.797c-0.881,1.101-1.101,3.963-3.523,0c-2.422-3.963-5.064-9.027-8.586-7.926
		s-5.504,2.202-5.504-1.761S97.586,116.072,98.544,115.119z"/>
</g>
<g id="nose">
	<path fill="none" stroke="#E0B9AD" stroke-linecap="round" stroke-miterlimit="10" d="M79.775,107.908c0,0-2.807,4.458-1.486,7.1
		s1.715,3.192,5.371,3.633"/>
	<path fill="none" stroke="#E0B9AD" stroke-linecap="round" stroke-miterlimit="10" d="M102.892,98.832
		c0,0,5.918,3.297,4.363,11.553"/>
	<path fill="#9B756D" d="M81.426,115.174c1.321-1.156,2.092-1.321,3.137-0.936c1.046,0.385,2.036,1.156,2.752,0.936
		s-0.605,1.321-1.486,1.211c-0.881-0.11-2.147-1.101-3.027-0.936C81.922,115.614,81.426,115.174,81.426,115.174z"/>
	<path fill="#9B756D" d="M103.498,111.266c2.862-1.101,1.376-3.137,0-3.357c-1.376-0.22-5.064,1.156-4.789,3.357
		c0,0,0.707-1.702,3.205-2.036C105.204,108.789,103.498,111.266,103.498,111.266z"/>
</g>
<g id="eye_make_up">
	<path fill="#D79982" d="M49.888,85.397c0,0-0.22,10.898,1.761,14.2c1.981,3.302-1.541,8.806,4.733,8.311
		c6.275-0.495,18.337-0.605,24.415-12.384S77.188,76.59,74.546,75.82c-2.642-0.771-18.163-6.605-20.585-2.532
		C51.539,77.361,50.384,79.232,49.888,85.397z"/>
	<path fill="#D79982" d="M94.966,70.13c0,0-8.791,15.958,4.769,19.768c13.56,3.81,29.577,7.088,30.402,0
		c0.826-7.088-0.165-18.316-11.889-27.398S94.966,70.13,94.966,70.13z"/>
</g>
<g id="hair">
	<path fill="#231F20" d="M42.843,115.339c0,0,2.422,1.761,3.963,1.101c1.541-0.66-5.284-11.889-3.963-25.759
		s-1.321-16.292-1.101-22.456s11.889-7.485,17.393-14.971s9.467-12.109,15.631-20.475s26.86-7.485,31.043-8.806
		s12.99,0.66,14.751,3.963s11.669,14.971,12.99,21.576s15.411,42.051,15.411,44.473s7.372-13.102,9.687,9.247
		c0.456,4.402,0.44,17.613,1.321,19.594s6.605,1.541,7.045-6.825s1.761-15.191-1.321-25.759c-3.082-10.568,0.22-18.273-3.523-25.759
		c-3.743-7.485-5.724-23.557-14.531-33.024s-19.594-21.576-31.483-16.732c0,0-2.642-9.027-20.255-9.687
		c0,0-22.456,1.101-27.52,6.825S49.008,23.091,43.944,32.558S31.175,51.712,31.835,65.803c0.66,14.09,0.44,34.345,2.642,38.748
		c2.202,4.403,10.127,17.173,11.228,20.255C46.806,127.888,42.843,115.339,42.843,115.339z"/>
</g>
<g id="eye_brows">
	<path fill="#231F20" d="M78.95,75.875c-13.433-5.022-24.273-6.44-27.245-5.449c-2.972,0.991-4.293,13.87-2.312,21.136
		c0,0,1.478,1.555,3.302-9.907c1.824-11.462,11.063-6.109,20.97-4.293C83.573,79.177,85.455,78.307,78.95,75.875z"/>
	<path fill="#231F20" d="M90.673,73.728c1.664-5.747,10.733-13.21,15.026-15.026c4.293-1.816,8.917-5.284,13.705,1.816
		s9.742,12.054,9.907,15.521c0.165,3.468-9.907-14.035-17.833-13.705s-12.714,5.284-16.512,9.907
		C91.169,76.866,88.857,80.003,90.673,73.728z"/>
</g>
</svg>
