<?xml version="1.0" encoding="utf-8"?>
<!-- Generator: Adobe Illustrator 21.0.2, SVG Export Plug-In . SVG Version: 6.00 Build 0)  -->
<svg version="1.1" id="mouth" xmlns="http://www.w3.org/2000/svg" xmlns:xlink="http://www.w3.org/1999/xlink" x="0px" y="0px"
	 width="200px" height="200px" viewBox="0 0 200 200" enable-background="new 0 0 200 200" xml:space="preserve">
<g>
	<path fill="#FFDA40" stroke="#B57D00" stroke-width="0.6107" stroke-miterlimit="10" d="M74.536,141.584
		c0,0-0.807,7.25-3.104,10.076c-2.297,2.826-8.448,12.519-12.315,13.842c0,0,3.562,0.611,2.646,1.832
		c-0.916,1.221,0.081,3.664,3.755,2.341c3.674-1.323,0.316,4.682-5.079,3.562c-5.394-1.12,3.47,3.146,10.28-3.664
		c1.221-1.221,4.58,6.819,4.58,6.819s-0.305-2.036,0-2.239c0.305-0.204,2.952,3.46,2.952,3.46s1.73-8.956,11.603-18.727"/>
	<path fill="#FFDA40" stroke="#B57D00" stroke-width="0.6107" stroke-miterlimit="10" d="M68.887,130.287
		c-14.045,7.328-4.885,19.643-4.885,19.643s-6.412-12.213,6.717-17.608"/>
	<path fill="#FFDA40" stroke="#B57D00" stroke-width="0.6107" stroke-miterlimit="10" d="M67.36,128.048
		c-8.574,18.354,7.175,37.894,7.175,37.894s-12.42-17.328-3.609-32.08"/>
	<path fill="#FFDA40" stroke="#B57D00" stroke-width="0.6107" stroke-miterlimit="10" d="M78.149,144.536
		c-21.577,6.107-20.559,20.05-20.559,20.05s0.611-15.979,21.577-18.218"/>
	<path fill="none" stroke="#B57D00" stroke-width="0.6107" stroke-miterlimit="10" d="M68.374,167.945
		c0,0,13.846-9.771,15.169-26.361"/>
	<path fill="none" stroke="#B57D00" stroke-width="0.6107" stroke-miterlimit="10" d="M63.369,165.923
		c0,0,13.846-9.771,15.169-26.361"/>
	<path fill="none" stroke="#B57D00" stroke-width="0.6107" stroke-miterlimit="10" d="M78.537,165.942
		c0,0,7.856-4.511,13.148-19.676"/>
	<path fill="none" stroke="#B57D00" stroke-width="0.6107" stroke-miterlimit="10" d="M78.537,163.337
		c0,0,7.856-4.511,13.148-19.676"/>
	<path fill="#ADADAD" stroke="#000000" stroke-width="0.458" stroke-linejoin="round" stroke-miterlimit="10" d="M11.281,100.873
		c0,0,6.259,3.359,17.099,5.954s24.427,2.748,38.472,6.717c14.045,3.969,6.565-29.312,0-26.106
		C60.287,90.645,19.219,101.331,11.281,100.873z"/>
	<path fill="#DB876C" stroke="#B24528" stroke-width="0.7633" stroke-miterlimit="10" d="M62.873,71.764c0,0-3.978,23.918,0,29.414
		c0,0-0.296,24.121,5.047,29.007c5.343,4.885,8.091,24.121,19.389,29.617c0,0,5.191,12.824,28.396,11.908
		c19.946-0.787,32.365-10.687,34.503-15.572c2.137-4.885,3.664-46.411,0-55.266c-3.664-8.855-8.244-36.945-19.541-36.029
		C119.369,65.76,62.873,71.764,62.873,71.764"/>
	<path fill="none" stroke="#B24528" stroke-width="0.6107" stroke-linecap="round" stroke-miterlimit="10" d="M95.72,108.826
		c3.893,3.664,6.87,8.828,12.594,11.284c0,0,3.893,0.166,3.435,16.882"/>
	<path fill="none" stroke="#B24528" stroke-width="0.6107" stroke-linecap="round" stroke-miterlimit="10" d="M87.309,159.803
		c0,0,2.457,1.232,6.579,1.003c4.122-0.229,48.088-10.382,43.737-42.516"/>
	<path fill="none" stroke="#B24528" stroke-width="0.458" stroke-linecap="round" stroke-miterlimit="10" d="M137.927,110.491
		c1.747,3.053,0.831,5.496,4.953,5.649c4.122,0.153,3.969-5.469,5.038-7.314c1.069-1.846,3.045-5.192,1.628-9.72"/>
	<path fill="none" stroke="#B24528" stroke-width="0.6107" stroke-linecap="round" stroke-miterlimit="10" d="M73.821,112.476
		c0,0,3.306,9.653,0,17.811"/>
	<path fill="none" stroke="#B24528" stroke-width="0.6107" stroke-linecap="round" stroke-miterlimit="10" d="M87.309,147.02
		c0,0,4.58-3.909,14.656-0.754"/>
	<path fill="#FFDA40" stroke="#B57D00" stroke-width="0.6107" stroke-miterlimit="10" d="M172.66,121.878
		c-1.374-4.58,2.29-12.823-8.702-13.281c0,0,0.458-5.065,5.267-2.991s4.809,18.333,4.809,18.333"/>
	<path fill="#FFDA40" stroke="#B57D00" stroke-width="0.6107" stroke-miterlimit="10" d="M111.062,67.836
		c4.36,4.262,11.678,4.809,12.594,7.557s6.641,2.29,6.87,9.389s3.893,7.557,6.183,10.305c2.29,2.748,4.122,2.977,7.328,6.183
		c3.206,3.206,7.328-0.687,5.267,6.183c-2.061,6.87-9.618,14.884-5.496,24.273c4.122,9.389-8.702,18.319-6.183,25.418
		c0,0,0.458-6.87,4.122-8.244c3.664-1.374-0.916,4.122-0.687,8.244c0.229,4.122,5.038,6.183,2.748,11.449
		c-2.29,5.267-2.29,14.884,1.374,19.464c3.664,4.58-1.832,9.389-1.832,9.389s6.641-2.977,8.702-6.87c0,0,4.122,0.916,3.206,4.809
		c0,0,2.327-2.061,0.133-8.244c0,0,1.329-5.725,0.942-13.739c-0.388-8.015,4.421,2.748,4.421,2.748s-0.229-5.267,1.145-5.267
		c1.374,0,4.122-4.351,8.931,0.458s10.076,8.244,10.076,8.244s-7.786-9.389-7.099-16.029c0.687-6.641,6.183-11.22,2.748-16.258
		c-3.435-5.038,2.061-6.183,0.458-12.823c-1.603-6.641,2.977-10.076-3.206-15.342c-6.183-5.267-4.809-10.485-8.244-13.83
		c-3.435-3.345-0.458-5.635-4.809-12.046c-4.351-6.412,0-6.412-4.809-11.449c-4.809-5.038-8.244-14.579-12.365-15.953
		c-4.122-1.374-6.641-4.122-14.197-4.122C121.824,61.73,108.613,65.443,111.062,67.836z"/>
	<path fill="#FFDA40" stroke="#B57D00" stroke-width="0.6107" stroke-miterlimit="10" d="M137.854,78.37
		c6.183,11.907,0.916,18.09,3.206,28.166c0,0,1.534-8.244,4.774-9.16"/>
	<path fill="none" stroke="#B57D00" stroke-width="0.6107" stroke-linecap="round" stroke-miterlimit="10" d="M149.303,107.452
		c-2.977,21.525-3.435,28.166,3.206,33.432s15.113,13.739,11.678,24.502"/>
	<path fill="none" stroke="#B57D00" stroke-width="0.6107" stroke-linecap="round" stroke-miterlimit="10" d="M141.844,76.538
		c6.772,5.954,13.88,13.968,12.12,23.815s-9.011,16.898,6.789,31.92"/>
	<path fill="none" stroke="#B57D00" stroke-width="0.6107" stroke-linecap="round" stroke-miterlimit="10" d="M149.761,177.522
		c-3.435-8.931-0.916-11.907,3.664-16.029s4.822-12.823-5.26-19.464"/>
	<path fill="none" stroke="#B57D00" stroke-width="0.6107" stroke-linecap="round" stroke-miterlimit="10" d="M127.32,74.019
		c5.496,7.328,13.722,10.111,13.525,20.152"/>
	<path fill="none" stroke="#B57D00" stroke-width="0.6107" stroke-linecap="round" stroke-miterlimit="10" d="M162.126,122.336
		c5.725,10.991,10.991,9.847,9.618,22.899c-1.374,13.052-6.488,15.384,4.084,26.469"/>
	<path fill="#F3EDEF" stroke="#000000" stroke-width="0.458" stroke-linejoin="round" stroke-miterlimit="10" d="M137.384,50.646
		l-5.191-14.961c0,0-1.221-4.58-8.397-8.397c-7.175-3.817-36.029-24.121-70.38,2.595l4.335,50.837l55.142-17.234
		C112.894,63.486,129.903,51.867,137.384,50.646z"/>
	<path fill="#EE351B" stroke="#000000" stroke-width="0.458" stroke-linejoin="round" stroke-miterlimit="10" d="M53.417,77.21
		c0,0,27.633-11.908,60.762-14.503c0,0,16.335-10.534,19.541-10.839c3.206-0.305-33.231-12.213-72.568,10.839"/>
	<path fill="#F3EDEF" stroke="#000000" stroke-width="0.458" stroke-linejoin="round" stroke-miterlimit="10" d="M22.214,96.689
		c-6.606,0.874-11.239-0.701-15.361,0.825s-3.664,3.664-0.916,4.122c2.748,0.458,13.435,0,13.435,0s17.099-3.053,47.479-14.198
		s53.369-27.327,67.065-25.801s29.726,43.052,30.031,43.968c0.305,0.916,14.656-8.549,24.121-20.152s12.977-25.648-2.443-38.319
		s-35.459-5.98-44.426-1.069S87.003,75.484,73.416,80.087C59.829,84.69,42.307,94.032,22.214,96.689z"/>
	<path fill="#F3EDEF" stroke="#000000" stroke-width="0.458" stroke-linejoin="round" stroke-miterlimit="10" d="M112.894,61.189
		c-42.134,8.244-90.68,35.5-90.68,35.5s27.753-5.496,48.454-13.052C91.369,76.08,112.894,61.189,112.894,61.189z"/>
	<path fill="#D6D6D6" stroke="#000000" stroke-width="0.458" stroke-linejoin="round" stroke-miterlimit="10" d="M109.14,68.813
		c0,0,47.033-29.6,64.207-22.96s24.273,22.441,15.571,34.234c-8.702,11.793-20.227,22.555-24.807,23.929
		S151.593,70.05,138.77,68.905C125.946,67.76,109.14,68.813,109.14,68.813z"/>
	<path fill="#FFFFFF" stroke="#231F20" stroke-width="0.7987" stroke-miterlimit="10" d="M72.602,100.354
		c0,0,5.943-5.697,14.742-3.935s-0.377,2.924-0.377,2.924s-9.819-0.516-13.009,4.554C70.769,108.967,72.602,100.354,72.602,100.354z
		"/>
	<path fill="#FFFFFF" stroke="#231F20" stroke-width="0.6888" stroke-miterlimit="10" d="M49.264,98.814
		c0.479,3.388,5.076,19.009,8.497,22.189c0,0,14.188-1.585,17.938-4.945c3.75-3.36,3.248-15.355,1.557-18.128
		c-1.692-2.773-3.653-7.054-6.716-7.263C67.63,90.468,48.854,95.913,49.264,98.814z"/>
	<path fill="#231F20" stroke="#FFFFFF" stroke-width="0.1722" stroke-miterlimit="10" d="M52.711,100.275
		c0.377,2.669,3.999,14.975,6.694,17.48c0,0,11.177-1.248,14.131-3.895c2.954-2.647,3.932-12.622,2.599-14.806
		s-4.25-5.031-6.663-5.196C67.179,93.7,52.387,97.99,52.711,100.275z"/>
	<path fill="#FFFFFF" stroke="#231F20" stroke-width="0.7778" stroke-miterlimit="10" d="M113.741,82.437
		c1.498,3.138,5.703,18.904,3.747,23.463c0,0-17.009,6.356-23.276,5.537s-12.923-11.281-12.679-14.555
		c0.244-3.274-0.114-7.975,3.226-9.816C87.932,85.316,112.458,79.749,113.741,82.437z"/>
	<path fill="#231F20" stroke="#FFFFFF" stroke-width="0.1944" stroke-miterlimit="10" d="M110.721,85.549
		c1.18,2.472,4.493,14.892,2.952,18.483c0,0-13.399,5.007-18.336,4.362s-12.05-8.588-11.858-11.168
		c0.192-2.579,1.78-6.581,4.411-8.031C90.389,87.817,109.71,83.432,110.721,85.549z"/>
	<path fill="#231F20" d="M37.081,51.409L34.639,32.02c0,0,35.342-23.892,68.777-29.465l3.282,22.213l-8.626,2.214l3.893,38.793
		l-21.359,7.099l-11.449-8.03l-2.916-23.205l5.114-1.527l9.313,3.588l-0.687-9.16c0,0-17.022,3.588-16.946,5.114
		c0.076,1.527,4.198,38.218,4.198,38.218l-18.702,6.743c0,0-8.702-6.107-8.855-9.084s-3.282-20.076-2.214-20.61
		c1.069-0.534,2.214-1.985,3.817-1.45s10.152,4.962,10.152,4.962l-1.069-12.977L37.081,51.409z"/>
	<path fill="#FFFFFF" stroke="#231F20" stroke-miterlimit="10" d="M33.57,31.664c0,0,26.564-14.758,28.294-13.536
		c1.73,1.221,2.341,2.341,2.341,2.341l0.611,14.351l-5.394,2.341l3.868,38.777l-14.096,5.191l-10.127-4.784l-2.85-19.643
		c0,0-0.204-1.934,2.748-0.712c2.952,1.221,8.753,2.85,8.753,2.85l-1.12-14.961c0,0-0.305-1.12-2.646,0
		c-2.341,1.12-5.598,2.85-5.598,2.85s-0.204,0.305-1.12-0.204c-0.916-0.509-2.239-1.12-2.443-2.341
		C34.588,42.961,33.57,31.664,33.57,31.664z"/>
	<polygon fill="#EE351B" points="35.911,32.478 37.438,42.554 47.819,38.28 50.262,61.383 39.371,58.432 41.509,73.393 
		47.514,77.871 57.488,74.106 54.842,34.717 61.152,32.478 60.643,20.672 	"/>
	<path fill="#FFFFFF" d="M65.579,18.636c0,0,31.5-13.994,33.231-12.773c1.73,1.221,2.341,2.341,2.341,2.341l0.814,15.725
		l-7.175,1.985l4.173,38.167l-17.76,4.02l-10.127-4.784l-2.85-19.643c0,0-0.204-1.934,2.748-0.712
		c2.952,1.221,11.348,3.002,11.348,3.002l-1.425-16.641l-10.839,3.46c0,0-0.204,0.305-1.12-0.204
		c-0.916-0.509-1.934-0.204-2.137-1.425C66.597,29.934,65.579,18.636,65.579,18.636z"/>
	<polygon fill="#EE351B" points="67.92,19.451 69.447,29.527 82.423,25.405 84.866,48.508 71.381,45.404 73.518,60.366 
		79.523,64.844 95.609,61.782 90.973,23.318 98.759,20.672 97.08,8.968 	"/>
	<path fill="#231F20" d="M78.149,135.071c0,0,3.023,2.84,4.274,4.015c1.25,1.175,13.741,0.362,13.741,0.362
		s9.364-5.242,10.839-7.582s1.985-4.071,1.069-4.046c-0.916,0.025-22.697,3.13-22.697,3.13L78.149,135.071z"/>
	<path fill="#FFFFFF" d="M81.202,132.246c0,0,0.534,3.282,2.137,3.282s18.623-4.765,20.763-4.593s0.992-3.041,0.992-3.041
		l-13.587,1.374L81.202,132.246z"/>
	<path fill="#F7776D" d="M78.149,135.071c0,0,2.137-7.023,9.465-5.725c0,0,4.198-2.748,9.694-2.672
		c5.496,0.076,11.755,0.458,10.763,1.145c-0.992,0.687-10.152,1.298-12.748,1.756c-2.595,0.458-3.053,1.45-5.114,2.137
		c-2.061,0.687-4.122-0.458-5.496,0.382C83.339,132.933,82.118,132.704,78.149,135.071z"/>
	<path fill="#F7776D" d="M80.999,137.748c2.061,1.145,3.791,1.14,4.707,0.605s2.824-0.101,4.046,0.255s6.717-1.095,8.702-2.545
		c1.985-1.45,9.084-5.191,8.549-4.198s-4.809,8.32-10,9.542c-5.191,1.221-8.931,2.214-12.748-0.687
		C80.439,137.819,80.999,137.748,80.999,137.748z"/>
</g>
</svg>
