<?xml version="1.0" encoding="utf-8"?>
<!-- Generator: Adobe Illustrator 21.0.2, SVG Export Plug-In . SVG Version: 6.00 Build 0)  -->
<svg version="1.1" xmlns="http://www.w3.org/2000/svg" xmlns:xlink="http://www.w3.org/1999/xlink" x="0px" y="0px" width="200px"
	 height="200px" viewBox="0 0 200 200" enable-background="new 0 0 200 200" xml:space="preserve">
<g id="barbershop_pole">
	<g>
		<g>
			<path fill="#FFFFFF" d="M74.099,199.46c-1.93,0-3.5-1.57-3.5-3.5V64.102c0-1.93,1.57-3.5,3.5-3.5h51.803c1.93,0,3.5,1.57,3.5,3.5
				V195.96c0,1.93-1.57,3.5-3.5,3.5H74.099z"/>
			<path fill="#808285" d="M125.901,61.102c1.654,0,3,1.346,3,3V195.96c0,1.654-1.346,3-3,3H74.099c-1.654,0-3-1.346-3-3V64.102
				c0-1.654,1.346-3,3-3H125.901 M125.901,60.102H74.099c-2.2,0-4,1.8-4,4V195.96c0,2.2,1.8,4,4,4h51.803c2.2,0,4-1.8,4-4V64.102
				C129.902,61.902,128.102,60.102,125.901,60.102L125.901,60.102z"/>
		</g>
		<g>
			<defs>
				<path id="SVGID_1_" d="M125.901,199.96H74.099c-2.2,0-4-1.8-4-4V64.102c0-2.2,1.8-4,4-4h51.803c2.2,0,4,1.8,4,4V195.96
					C129.901,198.16,128.101,199.96,125.901,199.96z"/>
			</defs>
			<clipPath id="SVGID_2_">
				<use xlink:href="#SVGID_1_"  overflow="visible"/>
			</clipPath>
			<polygon clip-path="url(#SVGID_2_)" fill="#FF0000" points="140.942,88.478 61.358,106.419 61.358,75.597 140.942,57.656 			"/>
			<polygon clip-path="url(#SVGID_2_)" fill="#FF0000" points="140.942,147.141 61.358,165.082 61.358,134.26 140.942,116.319 			
				"/>
			<polygon clip-path="url(#SVGID_2_)" fill="#FF0000" points="140.942,202.803 61.358,220.744 61.358,189.923 140.942,171.982 			
				"/>
		</g>
		
			<radialGradient id="SVGID_3_" cx="100" cy="-561.1633" r="72.288" gradientTransform="matrix(0.4496 0 0 0.4046 55.0408 260.5656)" gradientUnits="userSpaceOnUse">
			<stop  offset="0" style="stop-color:#FFFFFF"/>
			<stop  offset="1" style="stop-color:#999999"/>
		</radialGradient>
		<circle fill="url(#SVGID_3_)" stroke="#BCBCBC" stroke-width="0.46" stroke-miterlimit="10" cx="100" cy="33.5" r="32.5"/>
		<g>
			<path fill="#C8DCE7" d="M71.5,91.792c-1.923,0-3.488-1.565-3.488-3.488V64.102c0-1.923,1.565-3.488,3.488-3.488h57
				c1.923,0,3.488,1.565,3.488,3.488v24.202c0,1.923-1.565,3.488-3.488,3.488H71.5z"/>
			<path fill="#95B5C4" d="M128.5,61.125c1.641,0,2.977,1.335,2.977,2.977v24.202c0,1.641-1.335,2.977-2.977,2.977h-57
				c-1.641,0-2.977-1.335-2.977-2.977V64.102c0-1.641,1.335-2.977,2.977-2.977H128.5 M128.5,60.102h-57c-2.2,0-4,1.8-4,4v24.202
				c0,2.2,1.8,4,4,4h57c2.2,0,4-1.8,4-4V64.102C132.5,61.902,130.7,60.102,128.5,60.102L128.5,60.102z"/>
		</g>
		<g>
			<path fill="#C8DCE7" d="M71.5,199.488c-1.923,0-3.488-1.565-3.488-3.488v-2.021c0-1.923,1.565-3.488,3.488-3.488h57
				c1.923,0,3.488,1.565,3.488,3.488V196c0,1.923-1.565,3.488-3.488,3.488H71.5z"/>
			<path fill="#95B5C4" d="M128.5,191.002c1.641,0,2.977,1.335,2.977,2.977V196c0,1.641-1.335,2.977-2.977,2.977h-57
				c-1.641,0-2.977-1.335-2.977-2.977v-2.022c0-1.641,1.335-2.977,2.977-2.977H128.5 M128.5,189.978h-57c-2.2,0-4,1.8-4,4V196
				c0,2.2,1.8,4,4,4h57c2.2,0,4-1.8,4-4v-2.022C132.5,191.778,130.7,189.978,128.5,189.978L128.5,189.978z"/>
		</g>
	</g>
</g>
<g id="blade">
	<g>
		<g>
			<path fill="#BCBEC0" stroke="#494949" stroke-width="0.6214" stroke-miterlimit="10" d="M92.961,120.305
				c3.808-3.808,4.248-2.197,9.825,0.451c5.578,2.648,3.21-5.578,4.089-12.315c0.879-6.737,2.49-5.712,6.371-3.003l0.313,0.313
				c0,0,56.243-56.243,69.205-69.205s0-8.642,0-8.642c-9.227,2.49-22.702,8.934-42.036,28.268
				c-19.334,19.334-34.273,34.273-34.273,34.273s-3.369,3.662-0.659,7.543l-17.576,17.576"/>
			<g>
				<path fill="#F1F2F2" d="M24.215,190.757c-1.673,0-3.242-0.647-4.418-1.823c-2.436-2.436-2.436-6.4,0-8.836l63.713-63.713
					c1.175-1.176,2.745-1.823,4.418-1.823s3.243,0.647,4.418,1.823c2.436,2.436,2.436,6.4,0,8.836l-63.713,63.713
					C27.458,190.11,25.889,190.757,24.215,190.757z"/>
				<path d="M87.928,115.062c1.473,0,2.947,0.559,4.064,1.677l0,0c2.235,2.235,2.235,5.893,0,8.129L28.28,188.581
					c-1.118,1.118-2.591,1.677-4.064,1.677s-2.947-0.559-4.064-1.677h0c-2.235-2.235-2.235-5.893,0-8.129l63.713-63.713
					C84.982,115.621,86.455,115.062,87.928,115.062 M87.928,114.062c-1.807,0-3.502,0.699-4.772,1.969l-63.713,63.713
					c-2.631,2.631-2.631,6.912,0,9.543c1.27,1.27,2.965,1.969,4.772,1.969c1.807,0,3.502-0.699,4.772-1.969L92.7,125.575
					c2.631-2.631,2.631-6.912,0-9.543C91.43,114.762,89.735,114.062,87.928,114.062L87.928,114.062z"/>
			</g>
			<g>
				<defs>
					<path id="SVGID_4_" d="M20.151,188.581L20.151,188.581c2.235,2.235,5.893,2.235,8.129,0l63.713-63.713
						c2.235-2.235,2.235-5.893,0-8.129l0,0c-2.235-2.235-5.893-2.235-8.129,0l-63.713,63.713
						C17.916,182.687,17.916,186.345,20.151,188.581z"/>
				</defs>
				<clipPath id="SVGID_5_">
					<use xlink:href="#SVGID_4_"  overflow="visible"/>
				</clipPath>
				<polygon clip-path="url(#SVGID_5_)" fill="#FF0000" points="70.242,113.443 102.099,123.33 109.569,115.86 77.712,105.974 				
					"/>
				<polygon clip-path="url(#SVGID_5_)" fill="#FF0000" points="57.026,126.659 88.883,136.546 96.353,129.076 64.496,119.19 				
					"/>
				<polygon clip-path="url(#SVGID_5_)" fill="#FF0000" points="43.81,139.876 75.667,149.762 83.137,142.292 51.28,132.406 				"/>
				<polygon clip-path="url(#SVGID_5_)" fill="#FF0000" points="30.594,153.092 62.451,162.978 69.92,155.508 38.064,145.622 				
					"/>
				<polygon clip-path="url(#SVGID_5_)" fill="#FF0000" points="17.378,166.308 49.235,176.194 56.704,168.724 24.848,158.838 				
					"/>
				<polygon clip-path="url(#SVGID_5_)" fill="#FF0000" points="4.162,179.524 36.018,189.41 43.488,181.941 11.632,172.054 				"/>
			</g>
		</g>
		<g>
			<path fill="#BCBEC0" stroke="#494949" stroke-width="0.6214" stroke-miterlimit="10" d="M107.039,120.305
				c-3.808-3.808-4.248-2.197-9.825,0.451c-5.578,2.648-3.21-5.578-4.089-12.315c-0.879-6.737-2.49-5.712-6.371-3.003l-0.313,0.313
				c0,0-56.243-56.243-69.205-69.205s0-8.642,0-8.642c9.227,2.49,22.702,8.934,42.036,28.268s34.273,34.273,34.273,34.273
				s3.369,3.662,0.659,7.543l17.576,17.576"/>
			<path fill="#FFFFFF" stroke="#6D6E71" stroke-miterlimit="10" d="M94.203,97.989c2.71-3.881-0.659-7.543-0.659-7.543
				s-14.94-14.94-34.273-34.273S26.462,30.395,17.235,27.905L94.203,97.989z"/>
			<g>
				<path fill="#F1F2F2" d="M175.785,190.757c-1.673,0-3.243-0.647-4.418-1.823l-63.713-63.713c-2.436-2.436-2.436-6.4,0-8.836
					c1.175-1.176,2.745-1.823,4.418-1.823s3.243,0.647,4.418,1.823l63.713,63.713c2.436,2.436,2.436,6.4,0,8.836
					C179.027,190.11,177.458,190.757,175.785,190.757z"/>
				<path d="M112.072,115.062c1.473,0,2.947,0.559,4.064,1.677l63.713,63.713c2.235,2.235,2.235,5.893,0,8.129v0
					c-1.118,1.118-2.591,1.677-4.064,1.677s-2.947-0.559-4.064-1.677l-63.713-63.713c-2.235-2.235-2.235-5.893,0-8.129
					C109.125,115.621,110.598,115.062,112.072,115.062 M112.072,114.062c-1.807,0-3.502,0.699-4.772,1.969
					c-1.27,1.27-1.969,2.965-1.969,4.772s0.699,3.502,1.969,4.772l63.713,63.713c1.27,1.27,2.965,1.969,4.772,1.969
					s3.501-0.699,4.772-1.969c1.27-1.27,1.969-2.965,1.969-4.772c0-1.807-0.699-3.501-1.969-4.772l-63.713-63.713
					C115.573,114.762,113.879,114.062,112.072,114.062L112.072,114.062z"/>
			</g>
			<g>
				<defs>
					<path id="SVGID_6_" d="M179.849,188.581L179.849,188.581c-2.235,2.235-5.893,2.235-8.129,0l-63.713-63.713
						c-2.235-2.235-2.235-5.893,0-8.129l0,0c2.235-2.235,5.893-2.235,8.129,0l63.713,63.713
						C182.084,182.687,182.084,186.345,179.849,188.581z"/>
				</defs>
				<clipPath id="SVGID_7_">
					<use xlink:href="#SVGID_6_"  overflow="visible"/>
				</clipPath>
				<polygon clip-path="url(#SVGID_7_)" fill="#FF0000" points="129.758,113.443 97.901,123.33 90.431,115.86 122.288,105.974 				
					"/>
				<polygon clip-path="url(#SVGID_7_)" fill="#FF0000" points="142.974,126.659 111.117,136.546 103.647,129.076 135.504,119.19 
									"/>
				<polygon clip-path="url(#SVGID_7_)" fill="#FF0000" points="156.19,139.876 124.333,149.762 116.863,142.292 148.72,132.406 
									"/>
				<polygon clip-path="url(#SVGID_7_)" fill="#FF0000" points="169.406,153.092 137.549,162.978 130.08,155.508 161.936,145.622 
									"/>
				<polygon clip-path="url(#SVGID_7_)" fill="#FF0000" points="182.622,166.308 150.765,176.194 143.296,168.724 175.152,158.838 
									"/>
				<polygon clip-path="url(#SVGID_7_)" fill="#FF0000" points="195.838,179.524 163.982,189.41 156.512,181.941 188.368,172.054 
									"/>
			</g>
		</g>
		<circle fill="#E6E7E8" stroke="#808285" stroke-width="0.6214" stroke-miterlimit="10" cx="100.027" cy="112.262" r="3.728"/>
		<circle fill="#808285" stroke="#E6E7E8" stroke-width="0.4332" stroke-miterlimit="10" cx="100.027" cy="112.262" r="2.599"/>
	</g>
	<path fill="#FFFFFF" stroke="#6D6E71" stroke-miterlimit="10" d="M105.797,97.989c0,0,57.167-61.318,71.185-68.153
		c0,0-16.384,7.211-30.433,20.738s-40.093,39.872-40.093,39.872S103.345,93.978,105.797,97.989z"/>
</g>
</svg>
