<?xml version="1.0" encoding="utf-8"?>
<!-- Generator: Adobe Illustrator 21.0.2, SVG Export Plug-In . SVG Version: 6.00 Build 0)  -->
<svg version="1.1" id="hair" xmlns="http://www.w3.org/2000/svg" xmlns:xlink="http://www.w3.org/1999/xlink" x="0px" y="0px"
	 width="200px" height="200px" viewBox="0 0 200 200" enable-background="new 0 0 200 200" xml:space="preserve">
<g>
	<g>
		<path fill="#F12A3E" d="M148.559,154.888c-0.257,0-0.526-0.146-0.674-0.356c-0.675-0.955-1.304-11.113,1.984-20.414
			c1.58-4.469,1.074-7.908-0.573-13.481c-0.938-3.174-0.74-4.817-0.529-6.556c0.187-1.547,0.399-3.302-0.152-6.618
			c-0.803-4.844-16.05-24.803-24.241-35.525c-4.879-6.388-6.475-8.504-6.693-9.113c-0.109-0.307-0.064-0.639,0.125-0.91
			c0.921-1.326,7.537-1.637,26.95-1.899c4.131-0.056,8.033-0.108,11.206-0.2c0.365-0.01,0.719-0.016,1.063-0.016
			c11.139,0,12.482,5.297,12.644,6.666l0.25,0.302c1.368,1.672,2.356,2.879,7.28,3.474c2.71,0.327,3.788,0.732,4.119,1.546
			c0.309,0.76-0.212,1.407-0.632,1.927c-0.229,0.285-0.467,0.58-0.569,0.852c-0.749,1.999-3.084,3.748-5.552,4.159
			c-0.608,0.102-0.916,0.628-1.453,1.628c-0.747,1.391-1.769,3.296-4.674,4.18c-0.595,0.181-0.983,0.327-1.234,0.438
			c0.214,0.115,0.468,0.239,0.683,0.343c0.671,0.327,1.431,0.697,2.085,1.195c0.309,0.235,0.609,0.481,0.908,0.726
			c1.236,1.012,2.303,1.886,3.792,1.886c0.548,0,1.124-0.115,1.761-0.352c1.213-0.451,2.523-0.679,3.893-0.679
			c2.609,0,5.044,0.834,6.514,2.231c1.481,1.407,3.959,3.761,6.383,3.761c0.539,0,1.04-0.113,1.532-0.345
			c0.951-0.447,1.231-0.485,1.419-0.485c0.209,0,0.438,0.098,0.586,0.247c0.148,0.148,0.259,0.364,0.259,0.574
			c0,1.222-3.83,2.546-5.108,2.546c-0.329,0-0.633-0.042-0.904-0.125c-0.541-0.164-1.238-0.304-1.935-0.406
			c0.959,0.57,1.508,1.176,1.517,1.946c0.013,1.129-1.192,1.787-2.099,2.184c-1.81,0.792-3.813,1.193-5.955,1.193
			c-0.365,0-0.737-0.012-1.114-0.035c1.833,0.767,3.911,1.479,4.978,1.479l0.205-0.003c1.475,0,2.134,0.863,2.134,1.718
			c0,1.338-1.535,2.722-4.103,2.722c-0.395,0-0.809-0.033-1.23-0.099c-1.109-0.172-2.033-0.26-2.747-0.26
			c-0.74,0-1.081,0.095-1.221,0.153c0.06,0.142,0.241,0.456,0.787,0.989c1.227,1.199,1.209,2.043,1.096,2.74
			c-0.007,0.04-0.015,0.078-0.02,0.115c0.117,0.099,0.505,0.335,1.776,0.743c2.474,0.795,3.225,1.578,4.02,2.406
			c0.671,0.699,1.364,1.421,3.394,2.392c3.065,1.466,3.632,2.822,4.006,3.72c0.206,0.491,0.254,0.587,0.561,0.696
			c0.25,0.088,0.915,0.323,0.797,1.011c-0.065,0.38-0.461,0.672-0.846,0.672c-0.322,0-1.085-0.133-2.879-0.461
			c-1.521-0.278-3.244-0.593-4.131-0.677c-0.164-0.016-0.335-0.021-0.513-0.021c-0.446,0-0.927,0.038-1.419,0.075
			c-0.56,0.043-1.134,0.086-1.694,0.086c-0.594,0-1.331-0.043-2.05-0.286c1.409,3.582,5.26,11.015,7.083,11.122
			c0.399,0.023,0.717,0.341,0.743,0.739s-0.25,0.753-0.643,0.827c-0.041,0.008-1.001,0.186-2.279,0.186
			c-3.606,0-5.963-1.393-6.638-3.922c-0.909-3.407-8.688-13.625-11.502-16.232c0.003,0.042,0.007,0.084,0.01,0.126
			c0.266,3.159,0.667,7.933,2.78,10.452c2.62,3.124,8.117,10.605,8.955,13.747c0.13,0.487,0.076,0.889-0.16,1.196
			c-0.121,0.157-0.4,0.422-0.915,0.422c-2.217,0-10.245-6.916-11.302-9.736c-1.559-4.158-4.965-11.073-6.221-11.812
			c-0.428,0.725-0.084,4.335,1.194,6.253c1.649,2.473,2.896,9.963,1.22,12.98c-0.185,0.333-0.494,0.889-1.084,0.889
			c-0.214,0-0.469-0.11-0.618-0.264c-0.362-0.374-0.345-0.888-0.296-2.414c0.072-2.206,0.205-6.312-1.396-8.394
			c-2.078-2.702-3.713-5.758-4.498-7.917c-0.347,1.661-0.574,4.388-0.024,8.009c0.897,5.91-1.411,9.476-3.266,12.341
			c-0.69,1.066-1.287,1.988-1.618,2.879l-0.399,1.062c-1.131,2.991-2.107,5.574-2.022,9.319c0.021,0.923-0.041,1.246-0.289,1.499
			C148.991,154.794,148.772,154.888,148.559,154.888L148.559,154.888z"/>
		<path d="M157.026,60.59c11.873,0,11.874,6.186,11.874,6.186c1.628,1.934,2.471,3.558,8.204,4.25
			c5.733,0.692,2.866,1.68,2.273,3.262c-0.593,1.581-2.57,3.262-4.942,3.657c-2.372,0.395-1.68,4.448-6.227,5.832
			c-4.547,1.384-0.791,1.779,1.285,3.361c1.622,1.236,3.002,2.773,5.179,2.773c0.609,0,1.28-0.12,2.036-0.401
			c1.164-0.432,2.406-0.63,3.618-0.63c2.389,0,4.658,0.767,5.97,2.013c1.61,1.53,4.205,3.978,6.928,3.978
			c0.619,0,1.246-0.127,1.869-0.42c0.622-0.293,0.96-0.409,1.082-0.409c0.479,0-2.332,1.785-4.263,1.785
			c-0.241,0-0.469-0.028-0.674-0.09c-1.206-0.367-3.164-0.628-4.337-0.628c-1.038,0-1.462,0.204-0.209,0.718
			c2.669,1.096,4.645,2.282,1.483,3.666c-1.801,0.788-3.699,1.127-5.637,1.127c-1.466,0-2.955-0.194-4.444-0.534
			c-0.283-0.065-0.482-0.094-0.607-0.094c-1.392,0,6.28,3.654,8.915,3.654c0.032,0,0.063-0.001,0.094-0.002
			c0.038-0.001,0.075-0.002,0.112-0.002c2.384,0,1.514,2.859-1.968,2.859c-0.344,0-0.714-0.028-1.108-0.089
			c-1.14-0.177-2.104-0.269-2.868-0.269c-2.218,0-2.75,0.776-0.986,2.499c2.372,2.317-1.186,2.387,3.163,3.785
			c4.349,1.398,2.768,2.584,7.314,4.758c4.547,2.174,2.965,3.855,4.645,4.448c0.293,0.103,0.343,0.147,0.214,0.147
			c-0.61,0-5.221-0.972-6.935-1.135c-0.188-0.018-0.384-0.025-0.588-0.025c-0.954,0-2.059,0.162-3.113,0.162
			c-1.209,0-2.35-0.213-3.118-1.125c-0.092-0.109-0.157-0.16-0.198-0.16c-0.659,0,5.137,13.515,8.303,13.702
			c0,0-0.914,0.172-2.132,0.172c-2.107,0-5.122-0.516-5.874-3.335c-1.081-4.056-11.366-17.396-12.947-17.396
			c-0.153,0-0.225,0.125-0.198,0.395c0.297,3.064,0.494,8.994,3.064,12.058s8.006,10.477,8.797,13.442
			c0.115,0.433-0.009,0.624-0.31,0.624c-1.761,0-9.549-6.522-10.562-9.223c-1.186-3.163-5.239-12.157-6.919-12.355
			c-0.03-0.004-0.06-0.005-0.089-0.005c-1.569,0-0.97,5.188,0.583,7.517c1.581,2.372,2.669,9.489,1.186,12.157
			c-0.185,0.333-0.31,0.483-0.393,0.483c-0.581,0,0.912-7.388-1.683-10.762c-2.965-3.855-4.843-8.204-4.843-9.587
			c0-0.186-0.041-0.277-0.109-0.277c-0.439,0-2.005,3.797-0.978,10.557c1.186,7.808-3.558,11.367-4.843,14.826
			c-1.285,3.459-2.57,6.326-2.471,10.675c0.015,0.641-0.021,0.935-0.079,0.935c-0.335,0-1.422-9.879,2.055-19.715
			c1.632-4.615,1.153-8.171-0.56-13.969c-1.713-5.799,0.527-5.93-0.659-13.079c-1.186-7.149-30.311-42.93-30.97-44.775
			c-0.659-1.845,24.644-1.581,37.559-1.953C156.342,60.595,156.688,60.59,157.026,60.59 M157.026,59.008
			c-0.352,0-0.714,0.005-1.086,0.016c-3.165,0.091-7.062,0.144-11.187,0.199c-23.193,0.313-26.55,0.734-27.596,2.239
			c-0.336,0.484-0.416,1.077-0.22,1.627c0.252,0.705,1.515,2.397,6.81,9.328c8.149,10.668,23.318,30.524,24.089,35.174
			c0.532,3.205,0.336,4.826,0.146,6.394c-0.22,1.822-0.428,3.543,0.556,6.874c1.598,5.408,2.093,8.731,0.586,12.994
			c-3.344,9.459-2.813,19.82-1.884,21.134c0.296,0.419,0.806,0.69,1.32,0.69c0.426,0,0.849-0.179,1.146-0.484
			c0.508-0.52,0.533-1.186,0.513-2.069c-0.082-3.592,0.87-6.109,1.972-9.023c0.132-0.35,0.266-0.704,0.4-1.065
			c0.301-0.81,0.875-1.697,1.54-2.725c1.826-2.82,4.326-6.683,3.384-12.889c-0.294-1.933-0.358-3.577-0.306-4.919
			c0.919,1.804,2.123,3.743,3.419,5.429c1.428,1.856,1.301,5.778,1.232,7.885c-0.055,1.68-0.077,2.375,0.518,2.99
			c0.315,0.325,0.736,0.504,1.187,0.504c1.055,0,1.56-0.908,1.775-1.296c1.863-3.354,0.578-11.057-1.253-13.803
			c-0.652-0.979-1.049-2.519-1.19-3.737c1.456,2.303,3.607,6.783,4.818,10.012c1.085,2.895,9.309,10.249,12.043,10.249
			c0.623,0,1.185-0.266,1.542-0.731c0.27-0.352,0.541-0.964,0.296-1.882c-0.95-3.563-7.012-11.546-9.113-14.051
			c-1.543-1.84-2.109-5.117-2.406-7.921c3.337,3.748,9.001,11.487,9.748,14.286c0.775,2.908,3.404,4.509,7.402,4.509
			c1.35,0,2.382-0.191,2.425-0.2c0.785-0.148,1.336-0.858,1.285-1.655c-0.05-0.783-0.667-1.409-1.445-1.475
			c-0.387-0.135-1.817-1.371-4.057-5.581c-0.698-1.311-1.31-2.607-1.788-3.702c0.256,0.018,0.499,0.024,0.725,0.024
			c0.601,0,1.188-0.045,1.755-0.089c0.491-0.038,0.954-0.073,1.358-0.073c0.152,0,0.298,0.005,0.438,0.018
			c0.853,0.081,2.634,0.407,4.065,0.668c1.922,0.351,2.629,0.474,3.019,0.474c0.96,0,1.516-0.689,1.626-1.329
			c0.069-0.403,0.08-1.389-1.294-1.884c-0.034-0.07-0.078-0.177-0.114-0.262c-0.512-1.225-1.315-2.655-4.395-4.128
			c-1.9-0.909-2.543-1.578-3.164-2.226c-0.828-0.863-1.684-1.755-4.348-2.611c-0.575-0.185-0.939-0.325-1.167-0.425
			c0.047-0.774-0.142-1.686-1.159-2.767c0.622,0.022,1.391,0.104,2.291,0.244c0.461,0.072,0.916,0.108,1.352,0.108
			c3.063,0,4.893-1.786,4.893-3.513c0-1.208-0.915-2.509-2.925-2.509c-0.055,0-0.111,0.001-0.168,0.003c0,0,0,0-0.001,0
			c-0.253,0-0.57-0.044-0.931-0.123c1.154-0.209,2.258-0.543,3.302-0.999c0.641-0.281,2.593-1.135,2.573-2.918
			c-0.003-0.234-0.038-0.454-0.101-0.661c0.202,0.031,0.414,0.046,0.632,0.046c1.426,0,5.899-1.384,5.899-3.336
			c0-0.903-0.718-1.611-1.635-1.611c0,0,0,0-0.001,0c-0.358,0-0.76,0.092-1.755,0.56c-0.385,0.181-0.776,0.269-1.195,0.269
			c-2.109,0-4.444-2.218-5.839-3.543c-1.614-1.533-4.253-2.448-7.059-2.448c-1.464,0-2.867,0.245-4.168,0.729
			c-0.547,0.203-1.033,0.302-1.486,0.302c-1.149,0-1.999-0.649-3.292-1.707c-0.306-0.25-0.613-0.502-0.929-0.743
			c-0.39-0.297-0.815-0.553-1.229-0.777c2.8-1.046,3.867-3.034,4.587-4.376c0.394-0.734,0.65-1.182,0.886-1.222
			c2.773-0.462,5.307-2.379,6.163-4.662c0.057-0.153,0.272-0.419,0.444-0.633c0.461-0.572,1.232-1.53,0.748-2.721
			c-0.525-1.29-2.077-1.71-4.757-2.033c-4.608-0.556-5.465-1.604-6.763-3.19c-0.038-0.047-0.077-0.094-0.116-0.141
			C170.088,64.245,168.178,59.008,157.026,59.008L157.026,59.008z"/>
	</g>
	
		<path fill="#F12A3E" stroke="#000000" stroke-width="1.5814" stroke-linecap="round" stroke-linejoin="round" stroke-miterlimit="10" d="
		M150.605,80.613c6.236,0.791,9.003-0.198,12.66-1.483"/>
	
		<path fill="#F12A3E" stroke="#000000" stroke-width="1.5814" stroke-linecap="round" stroke-linejoin="round" stroke-miterlimit="10" d="
		M167.022,77.549c4.547-1.285,3.163-1.384,5.14-1.977c1.977-0.593,4.024-1.676,4.843-3.064"/>
	
		<path fill="#F12A3E" stroke="#000000" stroke-width="1.5814" stroke-linecap="round" stroke-linejoin="round" stroke-miterlimit="10" d="
		M147.847,76.659c0,0,1.581-2.273,5.832-2.57c4.25-0.297,15.221-1.186,16.803-3.262"/>
	
		<path fill="#F12A3E" stroke="#000000" stroke-width="1.5814" stroke-linecap="round" stroke-linejoin="round" stroke-miterlimit="10" d="
		M155.556,111.748c-2.866,8.204-4.349,9.291-2.768,15.32s-4.728,17.338-3.945,22.803"/>
	
		<path fill="#F12A3E" stroke="#000000" stroke-width="1.5814" stroke-linecap="round" stroke-linejoin="round" stroke-miterlimit="10" d="
		M152.591,99.294c2.076,4.25,1.285,6.227,5.535,9.489c4.25,3.262,4.983,6.606,3.974,9.727"/>
	
		<path fill="#F12A3E" stroke="#000000" stroke-width="1.5814" stroke-linecap="round" stroke-linejoin="round" stroke-miterlimit="10" d="
		M159.905,100.282c0.988,2.372,1.68,5.14,3.855,6.622c2.174,1.483,5.634,7.71,5.634,7.71"/>
	
		<path fill="#F12A3E" stroke="#000000" stroke-width="1.5814" stroke-linecap="round" stroke-linejoin="round" stroke-miterlimit="10" d="
		M155.062,96.724c4.25-0.198,10.774-0.099,13.838,3.558c3.064,3.657,9.895,4.535,10.977,7.061"/>
	
		<path fill="#F12A3E" stroke="#000000" stroke-width="1.5814" stroke-linecap="round" stroke-linejoin="round" stroke-miterlimit="10" d="
		M164.847,105.422c1.878,1.68,3.855,2.459,6.573,1.921c2.718-0.538,8.201,2.273,9.364,4.179"/>
	
		<path fill="#F12A3E" stroke="#000000" stroke-width="1.5814" stroke-linecap="round" stroke-linejoin="round" stroke-miterlimit="10" d="
		M172.161,109.968c1.087,2.965,3.954,3.657,4.349,5.337c0.395,1.68,5.448,3.712,5.93,5.93"/>
	
		<path fill="#F12A3E" stroke="#000000" stroke-width="1.5814" stroke-linecap="round" stroke-linejoin="round" stroke-miterlimit="10" d="
		M153.876,93.265c3.064,1.186,8.105,1.878,10.971,0.988c2.866-0.89,1.583,0,4.053,0.988c2.47,0.988,11.372,6.265,14.727,6.763"/>
	
		<path fill="#F12A3E" stroke="#000000" stroke-width="1.5814" stroke-linecap="round" stroke-linejoin="round" stroke-miterlimit="10" d="
		M155.062,89.904c0,0,5.239-2.076,8.599,0c3.361,2.076,7.413,2.866,11.564,3.361"/>
	
		<path fill="#F12A3E" stroke="#000000" stroke-width="1.5814" stroke-linecap="round" stroke-linejoin="round" stroke-miterlimit="10" d="
		M152.591,87.729c7.71-1.779,6.529-4.303,13.692-3.14"/>
	
		<path fill="#F12A3E" stroke="#000000" stroke-width="1.5814" stroke-linecap="round" stroke-linejoin="round" stroke-miterlimit="10" d="
		M170.481,68.586c-3.657-1.811-7.611-2.107-9.192-1.02c-1.581,1.087-8.698,4.052-13.442,1.977"/>
	<path fill="#8096F9" stroke="#000000" stroke-width="1.5814" stroke-miterlimit="10" d="M88.51,72.706
		c0,0,4.481-8.566,31.497-8.434c27.016,0.132,37.032,17.132,37.032,17.132s6.589,14.628-10.411,36.768c0,0,4.217,7.116,1.186,13.969
		c-3.031,6.853-10.806,20.559-16.605,21.613c-5.799,1.054-22.667,6.721-24.644,6.062c-1.977-0.659-11.049-5.353-9.544-12.033
		c1.505-6.68-11.07-23.417-11.07-23.417L88.51,72.706z"/>
	<path fill="#231F20" d="M117.206,139.522c4.161-4.077,9.956-5.93,14.153-12.256c4.198-6.326,9.865-7.248,12.764-10.411
		c2.899-3.163,12.86-16.375,10.309-11.432s-9.65,14.456-10.441,16.502c-0.791,2.047-6.458,5.444-9.093,8.885
		c-2.636,3.441-5.125,2.387-8.097,5.681C123.829,139.785,115.054,141.631,117.206,139.522z"/>
	<path fill="#231F20" d="M96.73,143.76c5.354,2.614,8.819,2.087,10.447,2.746c1.628,0.659,15.612-3.954,19.624-7.248
		c4.012-3.295,0.638,0.791-2.683,2.899s-10.569,6.062-13.6,5.93s-8.698-0.389-10.148,0.003c-1.45,0.392-3.35-0.308-3.35-0.308"/>
	<path fill="#231F20" d="M115.625,151.514c2.337-2.312,3.606-4.085,6.498-5.008s9.877-5.333,8.295-3.392s-4.823,2.542-6.299,3.955
		c-1.476,1.413-3.058,1.552-4.244,2.801C118.689,151.119,113.229,153.884,115.625,151.514z"/>
	
		<path fill="none" stroke="#231F20" stroke-width="1.1861" stroke-linecap="round" stroke-linejoin="round" stroke-miterlimit="10" d="
		M126.801,109.968c0,0,9.547,0.626,12.183-4.547"/>
	
		<path fill="none" stroke="#231F20" stroke-width="1.1861" stroke-linecap="round" stroke-linejoin="round" stroke-miterlimit="10" d="
		M128.968,109.992c0,0,7.38-4.801,9.225-9.908"/>
	
		<path fill="none" stroke="#231F20" stroke-width="1.1861" stroke-linecap="round" stroke-linejoin="round" stroke-miterlimit="10" d="
		M132.633,109.488c0,0,7.801-6.049,7.274-11.597"/>
	<path fill="#FFFFFF" stroke="#231F20" stroke-width="1.5814" stroke-linejoin="round" stroke-miterlimit="10" d="M59.517,93.528
		c-0.584-6.619,7.38-16.276,25.171-16.539c17.791-0.264,6.458,25.171,3.558,26.423C85.347,104.664,61.098,111.451,59.517,93.528z"/>
	<path fill="#231F20" d="M85.742,87.645c0.791,2.193-0.778,3.417-2.888,4.106c-2.11,0.689-4.029,0.468-4.754-1.612
		c-0.725-2.08,0.778-3.417,2.888-4.106C83.098,85.344,84.95,85.452,85.742,87.645z"/>
	<path fill="#DBDBDB" d="M79.746,89.245c0,0,0.461-1.845,2.768-1.977c2.306-0.132,0.683,2.043-0.581,2.24
		C80.669,89.706,79.746,90.299,79.746,89.245z"/>
	<path fill="#FFFB76" stroke="#000000" stroke-width="1.5814" stroke-linejoin="round" stroke-miterlimit="10" d="M62.858,85.081
		c-2.471-6.523-2.584-7.038,10.661-12.87s25.995,0.099,25.995,6.326c0,6.227-4.782,10.682-6.542,7.12
		c-1.76-3.562-2.749-8.038-13.917-7.283C67.885,79.13,62.858,85.081,62.858,85.081z"/>
	<path fill="#EEB32C" stroke="#000000" stroke-width="1.5814" stroke-linejoin="round" stroke-miterlimit="10" d="M7.198,151.119
		c0,0,6.194-34.264,16.473-38.482s20.163-6.721,33.21-6.853c13.047-0.132,30.574-4.876,32.551-7.248s3.426,14.628,26.357,13.179
		c0,0,12.124,1.845,17.791,0.923c5.667-0.923-0.132,5.535-6.853,8.698s-19.636,21.086-27.28,22.404
		c-7.644,1.318-49.552,9.357-58.381,11.993s-28.729,3.558-27.807,2.109c0.923-1.45,17.132-15.683,14.628-15.683
		S6.352,155.267,7.198,151.119z"/>
	<path fill="#231F20" d="M26.373,131.417c0,0-0.923-2.57,0-3.295c0.923-0.725,3.361-2.043,4.744-2.24
		c1.384-0.198,4.283-2.306,4.085-0.988c-0.198,1.318-1.845,2.798-4.019,3.046s-4.085,1.039-4.151,2.093S26.768,133.2,26.373,131.417
		z"/>
	<path fill="#231F20" d="M20.376,119.161c-1.091,1.22-1.911,1.581-1.713,3.624c0.198,2.043,0.461,3.295-0.857,4.019
		c-1.318,0.725-2.174,2.438,0,0.988s3.031-2.109,3.229-4.547S21.594,117.799,20.376,119.161z"/>
	<path fill="#EA3917" stroke="#000000" stroke-width="1.5814" stroke-linejoin="round" stroke-miterlimit="10" d="M41.495,139.225
		c-3.211,3.122-2.866,2.593-5.733,4.866s-5.14,1.477-6.622,3.692c-1.483,2.215-3.361,4.192-1.581,4.489s4.829,0.297,7.653-0.494
		c2.824-0.791,12.411-2.651,16.661-3.994c4.25-1.343,9.686-4.225,14.332-4.464c4.645-0.24,21.349-5.775,24.216-7.257
		c2.866-1.483,7.314-6.326,7.314-6.326s-5.792,2.175-8.896,2.866s-18.582,7.215-23.623,4.744c-5.041-2.471-11.861-6.428-15.716-5.24
		S46.05,134.798,41.495,139.225z"/>
	<path fill="#231F20" d="M22.748,126.013c0,0,2.174-3.361,3.756-4.151c1.581-0.791-1.45,1.845-2.24,2.965
		C23.473,125.948,21.845,127.296,22.748,126.013z"/>
	<path fill="#231F20" d="M27.888,120.281c0,0,7.578-7.973,13.179-8.896c5.601-0.923,15.221-3.888,22.074-2.833
		s-3.558,0.461-5.799,1.054c-2.24,0.593-12.388,1.516-14.694,2.636c-2.306,1.12-4.942,0.461-8.237,3.756
		C31.117,119.292,26.264,121.874,27.888,120.281z"/>
	
		<path fill="none" stroke="#000000" stroke-width="1.5814" stroke-linecap="round" stroke-linejoin="round" stroke-miterlimit="10" d="
		M27.888,142.157c0,0,12.919-4.806,18.254-8.119"/>
	<g>
		<path fill="#F12A3E" d="M5.172,128.182c-0.394,0-0.891-0.243-0.997-0.928c-0.283-1.838,5.097-10.675,7.97-13.53
			c-0.005,0-0.009,0-0.014,0c-1.198,0-3.147,0.172-4.699,0.657c-1.502,0.469-2.604,0.707-3.275,0.707c-0.188,0-0.757,0-1.044-0.429
			c-0.231-0.345-0.155-0.811,0.174-1.065l0.282-0.218c2.844-2.201,6.069-4.696,9.329-4.696c0.087,0,0.175,0.002,0.262,0.005
			c0.184,0.008,0.38,0.011,0.587,0.011c3.255,0,9.262-0.91,12.127-2.084c0.068-0.027,0.139-0.046,0.212-0.054
			c1.271-0.143,2.714-0.371,3.698-0.592c-0.166-0.092-0.327-0.185-0.486-0.277c-1.196-0.688-2.433-1.4-4.606-1.487
			c-3.654-0.146-11.431-3.449-12.464-7.583l-0.036-0.144c-0.307-1.227-0.362-1.448-0.084-1.804c0.15-0.192,0.395-0.312,0.639-0.312
			c0.403,0,0.615,0.245,0.884,0.554c0.54,0.621,1.803,2.076,3.983,2.076c0.183,0,0.372-0.01,0.568-0.031
			c1.908-0.206,4.116-0.32,6.217-0.32c3.282,0,7.528,0.268,9.123,1.543c0.956,0.765,6.042,1.866,9.543,2.277
			c-0.114-0.053-0.229-0.106-0.345-0.16c-2.683-1.244-5.458-2.531-6.606-3.888c-0.652-0.771-3.776-1.812-5.843-2.502
			c-3.282-1.095-4.388-1.464-4.217-2.487c0.021-0.125,0.169-0.75,1.037-0.75c0.941,0,3.366,0.696,7.247,1.842
			c1.318,0.39,2.801,0.828,4.033,1.163c-0.962-0.689-1.742-1.424-1.648-2.298c0.076-0.712,0.56-0.965,0.952-0.965
			c0.418,0,0.736,0.251,1.218,0.632c0.925,0.731,2.475,1.956,5.074,1.956c5.255,0,11.738,0.364,15.257,3.207
			c2.593,2.095,13.107,5.083,16.828,5.083c0.196,0,0.347-0.009,0.463-0.021c-0.403-0.739-1.313-1.661-2.067-2.426
			c-1.267-1.284-2.032-2.06-1.678-2.905c0.195-0.466,0.651-0.702,1.355-0.702l0.19,0.004c1.529,0.073,3.475,1.213,5.356,2.316
			c1.382,0.81,2.948,1.728,3.658,1.728c1.309-0.62,5.053-1.76,6.438-1.76c0.746,0,1.035,0.342,1.146,0.628
			c0.11,0.286,0.127,0.732-0.421,1.23c-0.325,0.296-0.809,0.89-1.369,1.578c-1.792,2.201-4.499,5.527-7.795,6.378
			c-3.717,0.959-6.144,4.335-6.261,6.914c-0.078,1.702-1.123,4.958-2.529,4.958c-0.289,0-0.557-0.123-0.753-0.346
			c-0.298-0.339-0.537-0.941-0.269-3.035c0.334-2.606,1.112-4.653,1.626-6.008c0.017-0.044,0.034-0.089,0.051-0.134
			c-2.072,0.989-5.526,2.636-7.806,2.846c-2.656,0.244-9.298,3.005-9.735,4.046c-0.071,0.214-0.265,0.794-0.872,0.794
			c-0.392,0-0.734-0.3-0.791-0.688c-0.083-0.557,1.312-4.603,8.358-7.688c-1.948,0.015-4.738,0.217-7.405,1.052
			c-1.455,0.456-2.93,0.677-4.512,0.677c0,0,0,0,0,0c-2.338,0-4.473-0.481-6.537-0.947c-1.319-0.297-2.565-0.578-3.768-0.708
			c-0.57-0.061-1.171-0.092-1.788-0.092c-4.083,0-8.44,1.318-11.37,3.439c-2.513,1.819-5.589,3.483-8.563,5.091
			c-1.592,0.862-3.097,1.675-4.41,2.459c-1.781,1.062-3.822,3.398-5.462,5.275C6.626,127.428,5.928,128.182,5.172,128.182z"/>
		<path d="M37.674,91.204c0.534,0,2.359,2.588,6.292,2.588c4.613,0,11.334,0.264,14.76,3.031c2.736,2.21,13.451,5.259,17.325,5.259
			c0.978,0,1.521-0.195,1.388-0.646c-0.646-2.197-5.727-5.407-3.316-5.407c0.048,0,0.099,0.001,0.153,0.004
			c2.549,0.121,7.111,4.045,9.051,4.045c0.166,0,0.313-0.029,0.438-0.091c1.167-0.583,4.772-1.669,6.001-1.669
			c0.437,0,0.573,0.137,0.193,0.483c-1.45,1.318-4.744,6.721-8.83,7.775c-4.085,1.054-6.721,4.744-6.853,7.644
			c-0.085,1.88-1.168,4.203-1.739,4.203c-0.31,0-0.469-0.683-0.237-2.49c0.589-4.595,2.653-7.505,1.859-7.505
			c-0.094,0-0.228,0.041-0.41,0.125c-1.713,0.791-5.93,2.965-8.434,3.196c-2.504,0.231-9.884,2.998-10.411,4.58
			c-0.059,0.177-0.105,0.258-0.124,0.258c-0.15,0,1.392-5.122,11.457-8.165c0,0-1.48-0.212-3.65-0.212
			c-2.196,0-5.097,0.217-7.881,1.089c-1.484,0.465-2.907,0.641-4.276,0.641c-3.739,0-7.085-1.313-10.22-1.651
			c-0.602-0.065-1.228-0.097-1.873-0.097c-3.947,0-8.547,1.211-11.832,3.589c-3.822,2.768-9.159,5.271-12.915,7.512
			c-3.368,2.009-7.425,8.099-8.417,8.099c-0.114,0-0.188-0.081-0.215-0.257c-0.264-1.713,6.589-12.652,8.566-13.508
			c1.024-0.444,0.139-0.693-1.391-0.693c-1.425,0-3.41,0.216-4.935,0.693c-1.757,0.549-2.619,0.671-3.039,0.671
			c-0.335,0-0.388-0.078-0.388-0.078c2.829-2.186,6.035-4.749,9.128-4.749c0.076,0,0.153,0.002,0.229,0.005
			c0.194,0.008,0.401,0.012,0.62,0.012c3.353,0,9.458-0.927,12.427-2.143c0,0,6.853-0.768,5.008-1.559
			c-1.845-0.791-3.163-2.24-6.458-2.372c-3.295-0.132-10.806-3.295-11.729-6.985c-0.234-0.934-0.324-1.277-0.249-1.277
			c0.207,0,1.679,2.63,4.867,2.63c0.21,0,0.428-0.011,0.653-0.036c1.785-0.193,3.976-0.315,6.133-0.315
			c3.737,0,7.374,0.367,8.627,1.37c1.492,1.194,9.596,2.613,12.285,2.613c0.873,0,1.176-0.15,0.498-0.505
			c-2.768-1.45-7.644-3.295-9.093-5.008c-1.45-1.713-10.016-3.558-9.884-4.349c0.01-0.061,0.1-0.089,0.257-0.089
			c1.768,0,12.083,3.557,13.768,3.557c0.102,0,0.173-0.013,0.208-0.041c0.659-0.527-3.69-2.287-3.558-3.516
			C37.528,91.281,37.582,91.204,37.674,91.204 M37.674,89.623c-0.751,0-1.614,0.523-1.738,1.671
			c-0.034,0.319-0.001,0.614,0.086,0.892c-0.503-0.147-0.998-0.293-1.46-0.43c-4.315-1.275-6.459-1.875-7.471-1.875
			c-1.093,0-1.7,0.708-1.817,1.411c-0.282,1.69,1.294,2.216,4.748,3.368c1.722,0.574,4.926,1.644,5.491,2.265
			c0.541,0.639,1.377,1.248,2.373,1.837c-1.874-0.415-3.434-0.868-3.872-1.198c-1.421-1.137-4.656-1.714-9.613-1.714
			c-2.129,0-4.368,0.115-6.303,0.324c-0.163,0.018-0.326,0.027-0.483,0.027c-1.82,0-2.878-1.219-3.387-1.804
			c-0.302-0.348-0.716-0.825-1.478-0.826c-0.001,0-0.002,0-0.003,0c-0.487,0-0.962,0.231-1.261,0.615
			c-0.516,0.66-0.383,1.194-0.06,2.484l0.036,0.143c1.202,4.81,9.758,8.044,13.2,8.181c1.149,0.046,2.001,0.279,2.742,0.597
			c-0.46,0.068-0.937,0.13-1.406,0.183c-0.145,0.016-0.288,0.053-0.423,0.108c-2.784,1.14-8.644,2.025-11.828,2.025
			c-0.196,0-0.381-0.003-0.554-0.011c-0.098-0.004-0.197-0.006-0.295-0.006c-3.53,0-6.867,2.582-9.811,4.86l-0.284,0.219
			c-0.658,0.508-0.81,1.439-0.348,2.13c0.238,0.356,0.727,0.781,1.703,0.781c0.762,0,1.91-0.243,3.511-0.743
			c0.776-0.243,1.709-0.409,2.595-0.509c-1.102,1.368-2.248,3.076-3.202,4.588c-2.626,4.164-3.861,6.909-3.668,8.159
			c0.145,0.941,0.876,1.598,1.778,1.598c1.154,0,1.974-0.939,3.956-3.207c1.519-1.738,3.599-4.118,5.271-5.115
			c1.298-0.774,2.794-1.584,4.378-2.44c2.998-1.622,6.098-3.298,8.654-5.149c2.801-2.029,6.98-3.289,10.905-3.289
			c0.589,0,1.162,0.03,1.704,0.088c1.158,0.125,2.383,0.401,3.679,0.693c2.008,0.453,4.284,0.966,6.71,0.966
			c1.663,0,3.217-0.233,4.749-0.714c1.16-0.363,2.347-0.603,3.475-0.757c-4.322,2.732-5.603,5.699-5.447,6.754
			c0.115,0.776,0.789,1.363,1.573,1.363c0.424,0,1.179-0.162,1.581-1.218c0.901-1.046,6.829-3.417,9.099-3.626
			c1.838-0.169,4.319-1.182,6.335-2.102c-0.409,1.219-0.839,2.756-1.064,4.511c-0.253,1.97-0.124,2.995,0.46,3.658
			c0.344,0.39,0.834,0.614,1.346,0.614c2.179,0,3.243-4.032,3.319-5.713c0.104-2.298,2.301-5.315,5.668-6.184
			c3.548-0.916,6.354-4.364,8.212-6.645c0.517-0.635,1.005-1.235,1.287-1.491c0.96-0.873,0.758-1.76,0.626-2.1
			c-0.132-0.341-0.579-1.134-1.883-1.134c-1.557,0-5.153,1.122-6.528,1.75c-0.605-0.106-2.137-1.004-3.168-1.609
			c-1.964-1.151-3.995-2.342-5.718-2.424c-0.08-0.004-0.156-0.006-0.228-0.006c-1.382,0-1.899,0.744-2.085,1.187
			c-0.557,1.331,0.503,2.405,1.844,3.766c0.283,0.287,0.643,0.652,0.983,1.024c-4.252-0.475-12.936-3.045-15.147-4.831
			c-3.712-2.998-10.369-3.382-15.754-3.382c-2.325,0-3.739-1.118-4.584-1.785C38.838,89.995,38.367,89.623,37.674,89.623
			C37.674,89.623,37.674,89.623,37.674,89.623C37.674,89.623,37.674,89.623,37.674,89.623L37.674,89.623z"/>
	</g>
	<path fill="none" stroke="#000000" stroke-width="1.1861" stroke-linecap="round" stroke-miterlimit="10" d="M13.523,113.626
		c0,0,7.116-2.438,11.004-3.097"/>
	<path fill="none" stroke="#000000" stroke-width="1.1861" stroke-linecap="round" stroke-miterlimit="10" d="M41.067,94.978
		c0,0,1.384,1.713,4.547,1.516c3.163-0.198,11.465-0.923,16.869,5.271"/>
	<path fill="none" stroke="#000000" stroke-width="1.1861" stroke-linecap="round" stroke-miterlimit="10" d="M38.497,106.641
		c5.535,0.791,8.237-0.593,11.004-0.264c2.768,0.329,6.523,0.49,8.105-0.052"/>
	<path fill="none" stroke="#000000" stroke-width="1.1861" stroke-linecap="round" stroke-miterlimit="10" d="M60.703,106.326
		c3.097,0.315,4.415,0.315,5.403-0.278"/>
	<path fill="none" stroke="#000000" stroke-width="1.1861" stroke-linecap="round" stroke-miterlimit="10" d="M68.94,106.048
		c1.779-1.054,2.768-0.791,3.954-0.593"/>
	<path fill="#E1426C" stroke="#000000" stroke-width="1.5814" stroke-linejoin="round" stroke-miterlimit="10" d="M87.159,133.394
		c-4.942,10.279-0.099,14.529,5.337,17.495c5.436,2.965,7.512,9.686-2.669,11.07s-15.913-4.151-19.373-9.686
		s1.779-14.628,1.779-14.628s3.064,0.297,6.029-0.494C81.229,136.359,87.159,133.394,87.159,133.394z"/>
	<path fill="#231F20" d="M78.263,137.149c-0.231,2.702-2.076,6.655-2.383,8.5c-0.307,1.845,2.547,6.326,1.361,5.206
		s-2.043-3.954-2.636-5.535s2.043-7.838,2.043-7.838L78.263,137.149z"/>
	<path fill="#FFFFFF" stroke="#231F20" stroke-width="1.5814" stroke-linejoin="round" stroke-miterlimit="10" d="M100.799,83.381
		c-5.868,0.364-14.035,2.174-10.378,17.099c1.032,4.21,5.352,6.806,8.894,8.771c9.015,5,21.653,3.751,26.194-1.358
		C131.835,100.776,113.549,82.59,100.799,83.381z"/>
	
		<ellipse transform="matrix(0.7734 -0.6339 0.6339 0.7734 -38.2144 84.1628)" fill="#231F20" cx="98.625" cy="95.538" rx="3.855" ry="4.25"/>
	
		<ellipse transform="matrix(0.7734 -0.6339 0.6339 0.7734 -37.5521 83.6435)" fill="#DBDBDB" cx="98.229" cy="94.352" rx="1.24" ry="1.367"/>
	<path fill="#FFFB76" stroke="#000000" stroke-width="1.5814" stroke-linejoin="round" stroke-miterlimit="10" d="M133.215,99.484
		c0.896-8.368-5.334-22.33-20.556-23.417C89.47,74.41,95.363,85.16,95.363,85.16s10.191-3.62,19.427,2.984
		s12.415,15.012,10.719,19.75C123.813,112.63,132.527,105.916,133.215,99.484z"/>
	<path fill="none" stroke="#231F20" stroke-width="1.1861" stroke-linecap="round" stroke-miterlimit="10" d="M113.055,81.404
		c0,0,1.285,0.297,2.57,1.087"/>
	<path fill="none" stroke="#231F20" stroke-width="1.1861" stroke-linecap="round" stroke-miterlimit="10" d="M118.689,83.776
		c0,0,16.442,8.71,8.863,24.864"/>
	<path fill="none" stroke="#231F20" stroke-width="1.1861" stroke-linecap="round" stroke-miterlimit="10" d="M117.206,80.712
		c0,0,17.879,8.413,14.079,23.777"/>
	<g>
		<path fill="#F12A3E" d="M77.441,84.17c-0.068-0.002-6.824-0.465-6.807-2.091c0.01-0.895,1.044-0.914,1.486-0.922
			c4.785-0.089,8.859-3.299,13.311-7.169c2.688-2.338,6.738-2.863,9.992-3.285c1.415-0.184,3.554-0.461,3.802-0.861
			c-0.026-0.42-0.268-1.086-0.523-1.792c-0.903-2.491-2.416-6.66,2.83-10.324c6.021-4.206,9.909-9.752,9.453-13.489
			c-0.103-0.843-0.029-1.317,0.255-1.638c0.179-0.202,0.424-0.313,0.691-0.313c0.624,0,1.038,0.595,1.33,1.114
			c0.973,1.73,2.425,6.534,0.627,9.873c0.053-0.034,0.106-0.068,0.158-0.101c1.483-0.947,3.328-2.125,4.966-2.489
			c3.444-0.765,6.418-1.426,12.484-4.103c1.553-0.685,2.903-1.557,4.332-2.48c4.167-2.693,8.89-5.745,21.343-6.776
			c2.372-0.196,3.896-0.288,4.797-0.288c0.697,0,1.651,0,1.792,0.818c0.152,0.889-0.528,1.128-3.796,2.279
			c-4.114,1.449-11.772,4.146-13.388,7.332c-1.044,2.058-2.966,3.649-5.166,4.871c1.619-0.523,2.923-0.779,3.97-0.779
			c1.148,0,1.85,0.301,2.414,0.542c0.426,0.182,0.734,0.314,1.189,0.314c0.27,0,0.576-0.046,0.935-0.141
			c2.275-0.603,5.782-1.321,9.563-1.321c1.44,0,2.823,0.106,4.109,0.316c2.679,0.437,5.417,0.498,7.977,0.498
			c0.855,0,1.733-0.007,2.641-0.015c0.978-0.008,1.99-0.016,3.046-0.016c0.785,0,1.594,0.004,2.43,0.017
			c0.871,0.013,1.858,0.028,1.948,0.893c0.102,0.984-0.597,1.175-6.989,2.617c-2.047,0.462-4.815,1.086-6.538,1.586
			c0.3,0.052,0.574,0.087,0.834,0.121c1.199,0.155,2.146,0.278,3.332,1.687c0.703,0.834,5.962,2.502,11.024,2.502
			c3.021,0,5.204-0.63,6.145-1.773c1.052-1.278,1.395-1.485,1.807-1.485c0.404,0,0.79,0.355,0.833,0.757
			c0.11,1.033-3.073,5.623-5.223,6.086c-0.474,0.102-1.321,0.352-2.395,0.667c-3.309,0.974-8.848,2.604-12.769,2.604
			c-1.285,0-2.301-0.167-3.105-0.513c-0.066-0.029-5.852-2.556-10.912-2.556c-1.042,0-1.988,0.108-2.812,0.321
			c-3.893,1.007-10.337,1.035-15.516,1.057c-1.414,0.006-2.72,0.012-3.812,0.038c1.371,0.364,2.519,1.117,3.411,2.692
			c0.566,1,0.757,1.336,0.491,1.794c-0.142,0.243-0.416,0.4-0.697,0.4c0,0,0,0-0.001,0c-0.364,0-0.562-0.185-0.996-0.59
			c-0.406-0.379-1.484-1.387-2.068-1.387c-0.546,0.205-0.682,0.331-0.869,0.506c-0.562,0.525-1.175,0.956-3.951,1.713
			c-1.496,0.408-2.691,0.881-3.746,1.298c-1.615,0.639-3.009,1.19-4.708,1.19c-0.416,0-0.828-0.032-1.262-0.098
			c-1.56-0.236-2.634-0.929-3.497-1.485c-0.779-0.502-1.394-0.898-2.169-0.898c-0.303,0-0.625,0.058-0.982,0.177
			c-0.524,0.175-1.051,0.375-1.577,0.574c-1.532,0.581-3.117,1.181-4.655,1.181c-1.143,0-2.124-0.322-2.997-0.986
			c-0.447-0.34-0.802-0.505-1.086-0.505c-0.312,0-0.661,0.189-1.145,0.45c-0.866,0.467-2.051,1.107-4.073,1.204
			c-2.243,0.106-8.2,0.391-9.327,2.455c-0.829,1.52-2.954,2.492-4.829,3.351c-0.815,0.373-1.931,0.884-2.118,1.146
			c-0.78,1.228-2.304,3.628-5.057,3.628L77.441,84.17z"/>
		<path d="M161.968,37.827c5.523,0-13.204,3.577-16.098,9.28c-3.361,6.622-16.902,8.204-16.902,8.204s0.403,0.04,1.143,0.04
			c1.85,0,5.804-0.252,10.816-2.017c2.11-0.743,3.479-0.986,4.452-0.986c1.829,0,2.263,0.857,3.603,0.857
			c0.318,0,0.687-0.048,1.137-0.167c2.445-0.647,5.832-1.294,9.362-1.294c1.321,0,2.662,0.091,3.982,0.306
			c2.613,0.427,5.226,0.508,8.103,0.508c1.774,0,3.649-0.031,5.686-0.031c0.782,0,1.588,0.005,2.421,0.017
			c6.523,0.099-16.407,3.657-13.442,4.645c2.965,0.988,3.855,0.099,5.436,1.977c0.996,1.183,6.703,2.783,11.628,2.783
			c2.891,0,5.513-0.551,6.756-2.061c0.704-0.855,1.074-1.196,1.196-1.196c0.462,0-2.603,4.858-4.557,5.279
			c-2.031,0.438-9.941,3.254-14.997,3.254c-1.095,0-2.055-0.132-2.794-0.448c0,0-5.929-2.62-11.223-2.62
			c-1.045,0-2.065,0.102-3.01,0.346c-5.733,1.483-17.593,0.791-21.349,1.186s-7.512,0.988-3.459,1.087
			c4.052,0.099,6.721-0.297,8.401,2.669c0.421,0.743,0.55,1.015,0.481,1.015c-0.187,0-1.821-1.977-3.063-1.977
			c-0.133,0-0.261,0.023-0.383,0.073c-1.68,0.692-0.297,0.988-4.645,2.174c-3.814,1.04-5.652,2.461-8.247,2.461
			c-0.364,0-0.742-0.028-1.143-0.089c-2.759-0.418-3.75-2.392-5.785-2.392c-0.371,0-0.776,0.065-1.233,0.218
			c-2.021,0.674-4.088,1.715-5.982,1.715c-0.885,0-1.732-0.227-2.518-0.825c-0.637-0.484-1.123-0.666-1.565-0.666
			c-1.271,0-2.174,1.508-5.255,1.655c-4.151,0.198-8.797,0.692-9.983,2.866c-1.186,2.174-6.227,3.361-6.919,4.448
			c-0.677,1.064-2.017,3.265-4.391,3.265c-0.051,0-0.103-0.001-0.155-0.003c-2.471-0.099-8.006-1.384-5.337-1.433
			c4.983-0.092,9.213-3.362,13.815-7.364c4.602-4.001,14.157-2.399,14.058-4.758c-0.099-2.359-4.25-7.103,1.977-11.452
			c6.227-4.349,10.279-10.18,9.785-14.233c-0.091-0.744-0.011-1.065,0.161-1.065c0.767-0.001,3.383,6.347,1.124,10.059
			c-0.799,1.313-0.922,1.794-0.608,1.794c0.775,0,4.205-2.912,6.736-3.474c3.558-0.791,6.584-1.483,12.632-4.151
			c6.048-2.669,8.717-7.808,25.421-9.192C159.556,37.92,161.077,37.827,161.968,37.827 M161.968,36.245
			c-0.924,0-2.468,0.092-4.862,0.291c-12.651,1.048-17.672,4.293-21.707,6.9c-1.402,0.906-2.726,1.761-4.222,2.421
			c-5.995,2.645-8.934,3.298-12.337,4.054c-1.149,0.255-2.356,0.857-3.48,1.516c0.63-3.255-0.533-6.856-1.409-8.415
			c-0.233-0.415-0.853-1.517-2.019-1.517c-0.49,0-0.957,0.212-1.283,0.58c-0.56,0.633-0.54,1.496-0.448,2.257
			c0.415,3.404-3.421,8.764-9.121,12.745c-5.743,4.011-4.037,8.714-3.121,11.241c0.139,0.384,0.282,0.776,0.373,1.094
			c-0.677,0.202-1.995,0.373-3.01,0.505c-3.182,0.413-7.54,0.978-10.409,3.472c-4.333,3.767-8.287,6.892-12.806,6.976
			c-1.953,0.036-2.256,1.084-2.262,1.705c-0.017,1.553,1.701,1.92,3.519,2.309c1.163,0.249,2.837,0.532,4.047,0.58
			c0.073,0.003,0.146,0.004,0.219,0.004c3.181,0,4.926-2.739,5.673-3.915c0.277-0.219,1.171-0.628,1.832-0.931
			c1.987-0.909,4.239-1.94,5.193-3.691c0.417-0.764,2.259-1.739,8.67-2.044c2.201-0.105,3.531-0.823,4.411-1.298
			c0.278-0.15,0.658-0.355,0.769-0.355c0.001,0,0.168,0.009,0.608,0.344c1.002,0.761,2.171,1.147,3.475,1.147
			c1.683,0,3.337-0.627,4.936-1.233c0.536-0.203,1.043-0.395,1.546-0.563c0.276-0.092,0.515-0.137,0.732-0.137
			c0.519,0,0.954,0.265,1.741,0.772c0.927,0.597,2.08,1.34,3.807,1.602c0.473,0.072,0.924,0.106,1.38,0.106
			c1.85,0,3.309-0.577,4.999-1.246c1.036-0.41,2.21-0.874,3.664-1.271c2.951-0.805,3.637-1.294,4.283-1.898
			c0.13-0.121,0.193-0.18,0.394-0.273c0.248,0.099,0.75,0.487,1.464,1.154c0.461,0.431,0.859,0.803,1.535,0.803
			c0.563,0,1.097-0.306,1.381-0.793c0.496-0.851,0.105-1.54-0.486-2.583c-0.352-0.621-0.739-1.129-1.157-1.545
			c0.287-0.001,0.579-0.003,0.876-0.004c5.222-0.023,11.72-0.051,15.708-1.082c0.76-0.196,1.639-0.296,2.614-0.296
			c4.886,0,10.528,2.46,10.585,2.485c0.92,0.395,2.038,0.583,3.432,0.583c4.035,0,9.643-1.651,12.993-2.637
			c1.015-0.299,1.892-0.557,2.337-0.653c1.18-0.254,2.501-1.313,3.926-3.146c2.041-2.625,1.947-3.507,1.916-3.797
			c-0.089-0.834-0.785-1.464-1.618-1.464c-0.825,0-1.388,0.523-2.417,1.773c-0.777,0.944-2.794,1.485-5.535,1.485
			c-4.867,0-9.762-1.596-10.439-2.243c-0.517-0.615-1.017-1.02-1.505-1.294c1.213-0.289,2.467-0.572,3.466-0.797
			c1.699-0.383,3.303-0.745,4.508-1.058c1.674-0.435,3.256-0.847,3.094-2.412c-0.162-1.563-1.891-1.589-2.723-1.602
			c-0.842-0.013-1.655-0.017-2.445-0.017c-1.058,0-2.073,0.008-3.052,0.016c-0.906,0.007-1.781,0.015-2.634,0.015
			c-2.526,0-5.225-0.059-7.848-0.487c-1.328-0.217-2.753-0.327-4.237-0.327c-3.866,0-7.445,0.733-9.766,1.347
			c-0.288,0.076-0.534,0.115-0.732,0.115c-0.282,0-0.462-0.072-0.878-0.251c-0.597-0.256-1.414-0.606-2.724-0.606
			c-0.134,0-0.271,0.004-0.412,0.011c0.95-0.865,1.748-1.845,2.311-2.955c1.473-2.903,9.222-5.632,12.946-6.943
			c3.424-1.206,4.577-1.612,4.313-3.158C164.286,36.245,162.662,36.245,161.968,36.245L161.968,36.245z"/>
	</g>
	
		<path fill="none" stroke="#231F20" stroke-width="1.1861" stroke-linecap="round" stroke-linejoin="round" stroke-miterlimit="10" d="
		M110.577,47.332c0,0-0.19,6.397-4.803,9.955c-4.613,3.558-2.109,11.07-2.109,11.07"/>
	
		<path fill="none" stroke="#231F20" stroke-width="1.1861" stroke-linecap="round" stroke-linejoin="round" stroke-miterlimit="10" d="
		M108.41,66.248c3.163-3.954,6.985-10.411,12.388-11.07s17.971-12.52,29.808-17"/>
	
		<path fill="none" stroke="#231F20" stroke-width="1.1861" stroke-linecap="round" stroke-linejoin="round" stroke-miterlimit="10" d="
		M113.549,64.667c2.372-3.426,14.154-9.709,24.644-11.202"/>
	
		<path fill="none" stroke="#231F20" stroke-width="1.1861" stroke-linecap="round" stroke-linejoin="round" stroke-miterlimit="10" d="
		M116.613,67.566c4.645-1.977,9.39-4.547,13.442-4.547c4.052,0,6.425-3.855,8.5-4.744c2.076-0.89,7.512-3.459,10.576-3.558
		c3.064-0.099,14.532-3.004,19.769-2.985"/>
</g>
</svg>
