<?xml version="1.0" encoding="utf-8"?>
<!-- Generator: Adobe Illustrator 22.0.0, SVG Export Plug-In . SVG Version: 6.00 Build 0)  -->
<svg version="1.1" xmlns="http://www.w3.org/2000/svg" xmlns:xlink="http://www.w3.org/1999/xlink" x="0px" y="0px" width="200px"
	 height="200px" viewBox="0 0 200 200" enable-background="new 0 0 200 200" xml:space="preserve">
<g id="Layer_3">
	<g>
		<g>
			<rect x="95.394" y="17.327" fill="#EC1C24" width="12.626" height="7.541"/>
			<rect x="95.394" y="27.658" fill="#EC1C24" width="12.626" height="18.959"/>
		</g>
		<path fill="#EC1C24" d="M89.692,33.379c-0.912-5.093-4.332-8.842-4.332-8.842c3.241-2.633,2.025-9.116,2.025-9.116
			c-2.025-7.495-8.508-6.888-8.508-6.888H52.34v38.084c0,0,22.68,0,33.495,0C89.121,46.618,90.746,39.268,89.692,33.379z
			 M70.565,36.106h-5.058v-2.937h5.058c0,0,2.032-0.159,2.032,1.482C72.598,36.291,70.565,36.106,70.565,36.106z M70.565,22.106
			h-5.058v-2.937h5.058c0,0,2.032-0.159,2.032,1.482C72.598,22.291,70.565,22.106,70.565,22.106z"/>
		<g>
			<path fill="#EC1C24" d="M133.756,45.332v-2.604c-2.662,3.018-5.62,4.379-9.231,4.379c-3.49,0-6.388-1.301-8.696-3.905
				c-2.25-2.662-3.372-6.034-3.372-10.177c0-4.791,1.123-8.578,3.312-11.478c2.19-2.9,5.148-4.319,8.756-4.319
				c3.729,0,6.687,1.539,9.231,4.794v-3.847h13.904v25.56c0,2.662-0.118,4.615-0.354,5.916c-0.236,1.303-0.593,2.486-1.125,3.551
				c-2.544,5.148-8.756,7.809-18.459,7.809c-5.386,0-10.059-0.947-13.904-2.78l3.134-9.645c3.315,2.072,6.451,3.076,9.585,3.076
				C131.27,51.662,133.756,49.415,133.756,45.332z M126.833,32.433c0,2.308,1.421,3.787,3.611,3.787
				c2.187,0,3.666-1.479,3.666-3.787c0-2.305-1.479-3.844-3.666-3.844C128.312,28.588,126.833,30.128,126.833,32.433z"/>
		</g>
	</g>
</g>
<g id="Layer_2">
	<path fill="none" d="M99.152,56.471c1.189-0.115,2.4-0.206,3.626-0.271v-3.837C98.669,51.914,98.925,55.25,99.152,56.471z"/>
	<path fill="none" d="M134.83,45.233c-4.701-0.235-4.389,3.369-4.389,3.369c0,2.493,3.335,3.149,5.393,3.317
		c1.249-0.996,2.611-1.983,4.072-2.906C138.298,45.831,134.83,45.233,134.83,45.233z"/>
	<path fill="#231F20" d="M163.125,61.319c0.773-13.606-5.828-24.339-5.828-24.339c-2.599,3.841-7.632,6.895-10.454,8.397
		c-1.233,0.657-2.046,1.018-2.046,1.018c-1.227,0.537-2.408,1.147-3.538,1.8c-0.46,0.266-0.91,0.539-1.352,0.818
		c-1.461,0.923-2.823,1.91-4.072,2.906c-5.311,4.235-8.57,8.6-8.57,8.6c-1.946-1.049-4.018-1.874-6.163-2.516
		c-2.104-0.63-4.28-1.084-6.489-1.388c-3.927-0.542-7.951-0.618-11.833-0.414c-1.226,0.064-2.437,0.156-3.626,0.271
		c-3.898,0.377-7.561,0.996-10.724,1.657c-1.346,0.281-2.601,0.57-3.746,0.851c-4.351,1.069-7.094,2.027-7.094,2.027
		c-1.898-2.251-3.754-4.169-5.532-5.815c-1.123-1.039-2.215-1.968-3.264-2.795c-7.229-5.7-12.47-6.649-12.47-6.649
		c-8.767-3.084-12.07-6.046-12.07-6.046c-0.969,1.676,0.859,6.261,0.859,6.261c2.332,6.629,0.982,12.89,0.982,12.89
		c-0.132,0.942-0.198,1.872-0.218,2.789c-0.258,11.856,8.197,21.271,8.197,21.271c1.596,2.455-0.246,4.419-0.246,4.419
		c-10.434,11.293-6.015,28.602-6.015,28.602c3.806,13.013,18.291,21.729,18.291,21.729c8.102,4.542,13.38,18.413,13.38,18.413
		c5.892,14.485,17.309,13.135,17.309,13.135c10.312-0.368,13.995-5.646,13.995-5.646c10.188-12.03,16.448-15.099,16.448-15.099
		c29.217-14.854,29.333-34.032,29.333-34.032c2.953-17.648-3.006-28.262-3.006-28.262c-0.162-1.948,2.11-4.546,2.11-4.546
		C160.765,74.764,162.761,67.723,163.125,61.319z"/>
	<path fill="#D0D2D3" d="M101.465,117.912c0,0,1.71,0.214,1.816-0.854c0,0,0.214-0.534,0.534-0.854c0,0,1.389,0.427,1.816-0.321
		c0,0,1.496,0.428,2.137-0.106c0,0-0.001,0.962,1.281,0.854c0,0,0.001,0.855,1.496,1.39c0,0,1.068,1.175,1.068,1.923
		c0,0-0.214,1.282-0.214,1.923c0,0.641,0,0.641,0,0.641s-0.32,2.03-0.961,2.671c0,0-0.214,2.352-2.137,3.099
		c0,0-5.128,0.641-6.624-4.06C101.679,124.216,100.183,121.331,101.465,117.912z"/>
	<path fill="#231F20" d="M135.989,169.534h9.298v-8.341h-9.298v-11.455c-3.526,3.82-13.076,4.701-13.076,4.701v6.754h-6.224v8.341
		h6.224v12.234c0,0-0.928,9.876,7.942,9.876c9.11,0,11.599-2.529,11.599-2.529c0.883-2.058,2.646-9.697,2.646-9.697
		c-9.874,4.68-9.11-2.645-9.11-2.645V169.534z"/>
	<path fill="#231F20" d="M78.73,167.99c0,0,2.025-19.852-14.991-20.46c0,0-20.663-1.215-22.998,21.474
		c0,0-2.729,19.649,19.352,21.675c0,0,19.042,0.405,18.434-16.206c0,0-5.47,3.444-12.965,3.241c0,0-7.495,0.608-7.495-7.9
		c0-8.508,9.318-7.495,9.318-7.495S73.058,161.711,78.73,167.99z"/>
	<path fill="#D0D2D3" d="M145.283,65.226c0,0-0.573-4.713,9.579-14.286c0,0,0.973,8.604-2.273,15.909c0,0-0.605,1.53-1.408,1.189
		c0,0-0.401,0.031-0.216-1.607c0,0,0.309-4.638-1.145-4.576c0,0-1.112-0.031-2.721,3.246c0,0-0.72,1.599-1.361,1.392
		C145.738,66.493,145.38,66.419,145.283,65.226z"/>
	<path fill="#D0D2D3" d="M61.614,67.841c0,0,0.791-4.747-8.46-13.269c0,0-2.153,7.833,1.094,15.138c0,0,0.604,1.53,1.407,1.19
		c0,0,0.402,0.031,0.217-1.608c0,0-0.309-4.638,1.145-4.576c0,0,1.112-0.031,2.721,3.247c0,0,0.649,1.453,1.36,1.392
		C61.098,69.355,61.736,69.424,61.614,67.841z"/>
	<path fill="#77787B" d="M80.145,94.024c-0.433,2.945-2.869,5.203-5.817,5.203c-3.254,0-5.893-2.748-5.893-6.138
		c0-2.438,1.369-4.539,3.347-5.529c-0.779-0.713-1.26-1.214-1.26-1.214c-4.787,1.719-4.174,8.102-4.174,8.102
		c0.614,6.874,6.997,7.12,6.997,7.12c5.524,0.859,8.716-4.787,8.716-4.787C81.503,95.698,80.831,94.786,80.145,94.024z"/>
	<radialGradient id="SVGID_1_" cx="74.2903" cy="93.3941" r="5.844" gradientUnits="userSpaceOnUse">
		<stop  offset="0" style="stop-color:#FFF100"/>
		<stop  offset="0.1578" style="stop-color:#FAEF03"/>
		<stop  offset="0.357" style="stop-color:#EAE90B"/>
		<stop  offset="0.5785" style="stop-color:#D0DF19"/>
		<stop  offset="0.8142" style="stop-color:#ACD22D"/>
		<stop  offset="1" style="stop-color:#8BC53F"/>
	</radialGradient>
	<path fill="url(#SVGID_1_)" d="M68.436,93.09c0,3.39,2.639,6.138,5.893,6.138c2.948,0,5.384-2.258,5.817-5.203
		c-1.878-2.085-3.853-3.012-3.853-3.012c-1.78-1.069-3.433-2.465-4.51-3.451C69.805,88.551,68.436,90.652,68.436,93.09z"/>
	<path fill="#231F20" d="M72.943,89.661c0,0-1.105,1.813-1.105,4.051s1.105,4.051,1.105,4.051s1.105-1.814,1.105-4.051
		S72.943,89.661,72.943,89.661z"/>
	<path fill="#77787B" d="M118.521,85.856c0,0-0.557,0.416-1.532,1.08c2.125,0.927,3.618,3.113,3.618,5.663
		c0,3.39-2.638,6.138-5.892,6.138c-2.974,0-5.426-2.297-5.828-5.278c-0.711,0.86-1.382,1.815-1.906,2.832
		c0,0,3.192,5.646,8.716,4.787c0,0,6.384-0.245,6.998-7.119C122.694,93.958,123.308,87.574,118.521,85.856z"/>
	<radialGradient id="SVGID_2_" cx="114.7466" cy="92.8362" r="5.8801" gradientUnits="userSpaceOnUse">
		<stop  offset="0" style="stop-color:#FFF100"/>
		<stop  offset="0.1578" style="stop-color:#FAEF03"/>
		<stop  offset="0.357" style="stop-color:#EAE90B"/>
		<stop  offset="0.5785" style="stop-color:#D0DF19"/>
		<stop  offset="0.8142" style="stop-color:#ACD22D"/>
		<stop  offset="1" style="stop-color:#8BC53F"/>
	</radialGradient>
	<path fill="url(#SVGID_2_)" d="M114.715,98.737c3.254,0,5.892-2.748,5.892-6.138c0-2.55-1.493-4.736-3.618-5.663
		c-0.865,0.588-2.059,1.369-3.501,2.234c0,0-2.479,1.722-4.601,4.288C109.289,96.44,111.741,98.737,114.715,98.737z"/>
	<path fill="#231F20" d="M114.013,89.17c0,0-1.104,1.814-1.104,4.051c0,2.237,1.104,4.051,1.104,4.051s1.105-1.814,1.105-4.051
		C115.118,90.984,114.013,89.17,114.013,89.17z"/>
	<path fill="#FFFFFF" d="M72.28,92.774c-0.164,0-0.297,0.249-0.297,0.557c0,0.307,0.133,0.557,0.297,0.557
		c0.164,0,0.296-0.249,0.296-0.557C72.577,93.023,72.444,92.774,72.28,92.774z"/>
	<path fill="#FFFFFF" d="M113.513,92.44c-0.164,0-0.297,0.249-0.297,0.557c0,0.308,0.133,0.557,0.297,0.557
		c0.163,0,0.296-0.249,0.296-0.557C113.809,92.689,113.676,92.44,113.513,92.44z"/>
	<path fill="#D0D2D3" d="M87.813,111.052c2.34,1.243,5.114,0.449,5.133,0.444c2.517-0.797,4.076-0.532,5.024-0.04
		c0.4-2.547-0.314-4.922-0.314-4.922c-0.32,0.4-0.56,1.439-0.56,1.439c-0.615,1.217-2.639,1.279-2.639,1.279
		c-3.519,0.4-3.599-1.519-3.599-1.519c-0.64,1.839-3.279,1.68-3.279,1.68c-2.879-0.16-2.719-2.479-2.719-2.479
		c-0.4,1.119-0.96,1.279-0.96,1.279c-1.345,0.825-1.558,1.977-1.473,2.86C84.277,109.577,87.614,110.965,87.813,111.052z"/>
	<path fill="#D1232A" d="M86.041,120.508c0.001,0.006,0.003,0.021,0.007,0.044c0.001,0.006,0.003,0.011,0.004,0.018L86.041,120.508z
		"/>
	<path fill="#D1232A" d="M94.275,120.728l0.002-0.004c0.006-0.021,0.014-0.037,0.02-0.058L94.275,120.728z"/>
	<path fill="#C3161C" d="M82.059,112.373c0,0-0.879,1.759,2.799,4.158c0,0,0.88,0.64,1.68,3.919c0,0,0.239,2.08,3.599,2.16
		c0,0,2.96,0.479,3.68-2.08c0,0,1.439-3.359,3.439-4.158c0,0,2.479-1.36,1.6-3.359c0,0-0.96-2.56-5.758-1.04
		c0,0-2.96,0.88-5.519-0.479C87.578,111.493,83.259,109.654,82.059,112.373z"/>
	<path fill="#F39BC2" d="M89.737,115.092c0,0-0.24-1.6-2.799-2.079c0,0-2.479-0.48-2.24,0.8c0,0,0.001,1.119,1.44,2.079
		c0,0,1.36,0.88,1.36,2.96c0,0,0.08,2.239,1.52,2.079c0,0,0.88,0,0.88-1.76C89.897,119.171,90.058,116.932,89.737,115.092z"/>
	<path fill="#77787B" d="M87.498,116.212c0,0-0.24-0.48,0.399-0.48c0,0,0.88,0.64,0.88,1.439c0,0,0.08,0.72-0.479,0.96
		c0,0-0.4-0.159-0.4-0.799C87.897,117.332,87.738,116.291,87.498,116.212z"/>
	<path fill="#F39BC2" d="M91.177,119.491c0,0-0.56-3.2,0.88-5.279c0,0,0.8-0.88,2.399-0.399c0,0,1.359,0.56,0.8,1.6
		c0,0-0.72,0.96-1.12,1.359c0,0-0.72,0.48-0.64,1.92c0,0,0.08,1.679-1.12,2.159C91.177,121.33,91.177,119.491,91.177,119.491z"/>
	<path fill="#77787B" d="M92.057,117.892c0-0.33-0.16-1.92,0.96-1.92c0,0,0.72-0.08,0.479,0.48c0,0-0.88,0.72-0.72,1.52
		C92.776,117.972,92.057,119.251,92.057,117.892z"/>
	<path fill="#D0D2D3" d="M157.819,39.743l-0.537-0.92l-0.363,1.001c-1.702,4.681-7.975,9.373-8.037,9.42
		c-13.791,10.121-14.286,25.087-14.29,25.237c-0.299,3.883-6.87,5.499-6.937,5.515c-24.196,7.879-29.122,25.853-28.856,25.926
		c0.266,0.072,0.542-0.084,0.614-0.35c0.047-0.169,4.896-16.923,28.513-24.615c0.262-0.06,7.309-1.791,7.665-6.427
		c0.005-0.172,0.501-14.661,13.885-24.482c0.252-0.186,5.75-4.301,7.955-8.881c1.115,2.297,3.535,8.745,3.824,17.172
		c0.437,12.653-7.708,23.724-7.483,23.883c0.226,0.159,0.538,0.105,0.697-0.12C169.675,60.57,157.94,39.949,157.819,39.743z"/>
	<path fill="#D0D2D3" d="M152.563,82.618c-0.387,0.257-0.649,0.377-0.82,0.72c-8.015-7.605-15.062-6.639-15.04-6.365
		c0.023,0.275,0.264,0.479,0.539,0.458c0.063-0.005,6.441-0.411,14.36,7.4c0.129,0.127,0.837,0.791,0.866,0.612
		c0.363-2.179,1.316-2.675,1.162-2.905C153.478,82.31,152.792,82.465,152.563,82.618z"/>
	<path fill="#D0D2D3" d="M77.46,88.713c-6.152-3.993-6.823-7.765-6.87-7.964c-0.107-12.803-1.384-15.813-1.598-16.228
		c-4.369-12.157-13.149-14.7-13.521-14.802c-3.799-1.374-7.953-5.547-7.993-5.588c-0.068-0.07,0.089,0.022,0,0
		c-0.775-0.641-2.268-1.95-2.524-2.939c0,0-0.231,2.187,0.529,4.162c2.01,4.826,1.631,11.159,1.627,11.223
		c-1.878,15.644,8.576,26.093,8.682,26.197l0.111,0.109l0.154,0.026c6.144,1.06,10.157-1.211,10.325-1.309
		c0.239-0.138,0.32-0.443,0.183-0.682c-0.138-0.239-0.433,0.003-0.672,0.141c-0.038,0.021-3.758,1.548-9.438,0.619
		c-1.113-1.166-10.062-10.715-8.35-25.01c0.02-0.283,0.37-6.143-1.455-11.073c0.07-0.196,0.006-0.948,0.669-0.272
		c1.169,1.125,3.101,3.398,7.849,5.349c0.123,0.035,8.72,2.549,12.899,14.229l0.014,0.039l0.026,0.045
		c0.056,0.1,1.377,2.611,1.484,15.835l0.01,0.094c0.033,0.166-0.355,2.929,7.302,8.63l0.029,0.02l0.033,0.017
		c0.073,0.037,7.185,3.699,7.701,16.41C84.677,106.263,86.574,94.519,77.46,88.713z"/>
	<path fill="#D0D2D3" d="M74.065,81.948c0.003,0.207,0.208,0.354,0.414,0.331c0.206-0.023,0.354-0.208,0.332-0.414
		c-0.003-0.026-0.407-2.887,0.599-6.624C75.21,75.187,74.021,78.535,74.065,81.948z"/>
	<path fill="#D0D2D3" d="M75.618,82.419c0.014,0.206,0.188,0.365,0.395,0.353c0.207-0.012,0.365-0.188,0.354-0.395
		c-0.003-0.043-0.326-4.576,0.635-6.881C76.811,75.416,75.429,79.702,75.618,82.419z"/>
	<path fill="#D0D2D3" d="M77.106,84.47c0.012,0.207,0.187,0.366,0.394,0.355c0.207-0.011,0.366-0.187,0.355-0.394
		c-0.002-0.047-0.33-4.95,0.834-7.976C78.496,76.381,76.837,79.702,77.106,84.47z"/>
	<path fill="#D0D2D3" d="M78.273,84.72c-0.01,0.207,0.155,0.38,0.362,0.387c0.207,0.007,0.381-0.155,0.388-0.362
		c0.001-0.047,0.142-4.995,1.578-6.848C80.438,77.771,78.487,80.225,78.273,84.72z"/>
	<path fill="#D0D2D3" d="M79.642,85.739c-0.014,0.206,0.168,0.375,0.375,0.375c0.207,0,0.375-0.168,0.375-0.375
		c0-0.044,0.018-4.694,2.063-6.891C82.303,78.706,79.977,80.547,79.642,85.739z"/>
	<path fill="#D0D2D3" d="M81.019,87.519c0.206,0.025,0.392-0.123,0.417-0.328c0.005-0.043,0.468-4.592,1.857-6.868
		c-1.885,1.93-2.58,6.597-2.602,6.779C80.666,87.308,80.813,87.495,81.019,87.519z"/>
	<path fill="#D0D2D3" d="M82.024,87.269c-0.029,0.205,0.085,0.402,0.287,0.446c0.203,0.043,0.402-0.085,0.446-0.288
		c0.007-0.035,0.694-3.772,1.98-6.15C84.556,81.178,82.512,83.887,82.024,87.269z"/>
	<path fill="#D0D2D3" d="M100.05,94.828c-0.023,0.206,0.125,0.391,0.33,0.414c0.206,0.023,0.392-0.126,0.415-0.331
		c0.003-0.036,0.314-3.844,2.002-8.004C101.05,88.257,100.066,94.679,100.05,94.828z"/>
	<path fill="#D0D2D3" d="M102.229,93.508c0.204,0.032,0.396-0.108,0.428-0.312c0.01-0.06,0.859-6.229,2.545-9.599
		c-1.74,2.31-3.248,9.236-3.286,9.483C101.884,93.284,102.024,93.476,102.229,93.508z"/>
	<path fill="#D0D2D3" d="M104.204,91.506c0.203,0.044,0.402-0.084,0.446-0.286c0.017-0.073,1.567-7.565,4.291-11.586
		c-3.229,3.444-4.957,11.124-5.023,11.426C103.874,91.262,104.003,91.462,104.204,91.506z"/>
	<path fill="#D0D2D3" d="M105.79,90.437c0.199,0.052,0.404-0.069,0.456-0.269c0.021-0.077,1.979-7.976,5.36-12.657
		c-3.912,4.501-6.004,12.151-6.086,12.47C105.468,90.181,105.589,90.386,105.79,90.437z"/>
	<path fill="#D0D2D3" d="M107.645,88.547c-0.034,0.204,0.104,0.397,0.309,0.432c0.204,0.034,0.397-0.104,0.432-0.308
		c0.013-0.079,1.378-8.198,6.421-13.112C109.342,80.653,107.7,88.216,107.645,88.547z"/>
	<path fill="#D0D2D3" d="M109.78,86.658c-0.047,0.202,0.077,0.403,0.278,0.451c0.202,0.047,0.404-0.077,0.451-0.279
		c0.017-0.069,1.795-7.062,5.681-10.101C111.05,80.62,109.851,86.362,109.78,86.658z"/>
	<path fill="#D0D2D3" d="M112.036,85.249c-0.016,0.206,0.138,0.386,0.344,0.403c0.206,0.017,0.387-0.137,0.403-0.343
		c0.005-0.049,0.603-5.382,7.549-10.527C113.316,79.398,112.054,85.036,112.036,85.249z"/>
	<path fill="#D0D2D3" d="M113.931,84.198c-0.082,0.189,0.005,0.411,0.194,0.493c0.19,0.083,0.411-0.005,0.493-0.194
		c0.027-0.06,2.832-6.444,6.657-8.357C116.94,78.226,114.042,83.942,113.931,84.198z"/>
	<path fill="#D0D2D3" d="M74.48,116.525c0,0,1.243-0.311,1.554-1.503c0,0,2.612-2.527,5.975,1.817c0,0,1.401,1.401,0.701,4.624
		c0,0-0.707,3.642-5.612,2.94c0,0-0.14-0.28-0.841-0.14c0,0-1.682,0.14-1.822-1.682c0,0-0.701-1.401-1.261-1.822
		c0,0,1.401-0.42-0.28-1.821C72.895,118.939,74.62,117.926,74.48,116.525z"/>
	<path fill="#231F20" d="M78.64,117.397c0-0.31-0.188-0.561-0.42-0.561s-0.42,0.251-0.42,0.561c0,0.31,0.188,0.561,0.42,0.561
		S78.64,117.706,78.64,117.397z"/>
	<path fill="#231F20" d="M79.201,119.078c-0.31,0-0.561,0.251-0.561,0.561c0,0.31,0.251,0.561,0.561,0.561
		c0.31,0,0.561-0.251,0.561-0.561C79.761,119.329,79.51,119.078,79.201,119.078z"/>
	<path fill="#231F20" d="M107.727,122.177c-0.31,0-0.561,0.251-0.561,0.561s0.251,0.561,0.561,0.561s0.561-0.251,0.561-0.561
		S108.036,122.177,107.727,122.177z"/>
	<path fill="#231F20" d="M80.042,118.377c0.155,0,0.28-0.25,0.28-0.56c0-0.311-0.125-0.561-0.28-0.561
		c-0.155,0-0.28,0.25-0.28,0.561C79.761,118.127,79.887,118.377,80.042,118.377z"/>
	<path fill="#231F20" d="M76.818,119.499c0.155,0,0.28-0.126,0.28-0.28c0-0.155-0.125-0.28-0.28-0.28s-0.28,0.125-0.28,0.28
		C76.538,119.373,76.664,119.499,76.818,119.499z"/>
	<path fill="#231F20" d="M74.458,118.18c0.155,0,0.28-0.126,0.28-0.28c0-0.155-0.126-0.28-0.28-0.28c-0.155,0-0.28,0.125-0.28,0.28
		C74.178,118.054,74.303,118.18,74.458,118.18z"/>
	<path fill="#231F20" d="M76.333,117.416c0.155,0,0.28-0.126,0.28-0.28c0-0.155-0.125-0.28-0.28-0.28s-0.28,0.125-0.28,0.28
		C76.052,117.29,76.178,117.416,76.333,117.416z"/>
	<path fill="#231F20" d="M78.415,115.75c0.155,0,0.28-0.126,0.28-0.28c0-0.155-0.125-0.28-0.28-0.28c-0.154,0-0.28,0.125-0.28,0.28
		C78.135,115.624,78.261,115.75,78.415,115.75z"/>
	<path fill="#231F20" d="M77.659,120.62c-0.155,0-0.28,0.125-0.28,0.28c0,0.154,0.125,0.28,0.28,0.28s0.28-0.126,0.28-0.28
		C77.939,120.745,77.814,120.62,77.659,120.62z"/>
	<path fill="#231F20" d="M74.674,122.148c-0.154,0-0.28,0.125-0.28,0.28c0,0.154,0.126,0.28,0.28,0.28c0.155,0,0.28-0.126,0.28-0.28
		C74.954,122.273,74.829,122.148,74.674,122.148z"/>
	<path fill="#231F20" d="M106.726,125.245c-0.155,0-0.281,0.126-0.281,0.28c0,0.155,0.126,0.28,0.281,0.28
		c0.154,0,0.279-0.125,0.279-0.28C107.005,125.371,106.88,125.245,106.726,125.245z"/>
	<path fill="#231F20" d="M108.435,125.886c-0.155,0-0.28,0.126-0.28,0.28c0,0.155,0.125,0.28,0.28,0.28
		c0.154,0,0.28-0.125,0.28-0.28C108.715,126.012,108.589,125.886,108.435,125.886z"/>
	<path fill="#231F20" d="M108.755,123.856c-0.154,0-0.279,0.126-0.279,0.28c0,0.155,0.125,0.28,0.279,0.28
		c0.155,0,0.281-0.125,0.281-0.28C109.036,123.982,108.91,123.856,108.755,123.856z"/>
	<circle fill="#231F20" cx="107.794" cy="118.58" r="0.28"/>
	<path fill="#231F20" d="M80.182,121.04c-0.232,0-0.42,0.188-0.42,0.421c0,0.232,0.188,0.42,0.42,0.42s0.42-0.188,0.42-0.42
		C80.602,121.229,80.414,121.04,80.182,121.04z"/>
	<path fill="#231F20" d="M78.78,122.302c-0.232,0-0.42,0.188-0.42,0.42s0.188,0.421,0.42,0.421c0.232,0,0.42-0.189,0.42-0.421
		S79.013,122.302,78.78,122.302z"/>
	<path fill="#231F20" d="M76.959,122.302c-0.232,0-0.421,0.188-0.421,0.42s0.188,0.421,0.421,0.421c0.232,0,0.42-0.189,0.42-0.421
		S77.19,122.302,76.959,122.302z"/>
	<path fill="#231F20" d="M75.557,120.76c-0.232,0-0.42,0.188-0.42,0.421c0,0.232,0.188,0.42,0.42,0.42c0.232,0,0.42-0.188,0.42-0.42
		C75.978,120.948,75.789,120.76,75.557,120.76z"/>
	<path fill="#231F20" d="M108.677,119.906c-0.232,0-0.42,0.188-0.42,0.42s0.188,0.421,0.42,0.421s0.42-0.189,0.42-0.421
		S108.909,119.906,108.677,119.906z"/>
	<path fill="#231F20" d="M109.317,121.722c-0.232,0-0.42,0.188-0.42,0.42c0,0.232,0.187,0.421,0.42,0.421
		c0.232,0,0.421-0.188,0.421-0.421C109.738,121.909,109.55,121.722,109.317,121.722z"/>
	<path fill="#231F20" d="M107.074,120.866c-0.232,0-0.42,0.188-0.42,0.421c0,0.232,0.188,0.42,0.42,0.42s0.421-0.188,0.421-0.42
		C107.495,121.055,107.307,120.866,107.074,120.866z"/>
	<path fill="#231F20" d="M106.326,119.264c-0.232,0-0.421,0.188-0.421,0.42c0,0.232,0.188,0.421,0.421,0.421s0.42-0.188,0.42-0.421
		C106.746,119.451,106.559,119.264,106.326,119.264z"/>
	<path fill="#231F20" d="M104.83,118.409c-0.231,0-0.42,0.188-0.42,0.42c0,0.232,0.188,0.421,0.42,0.421
		c0.233,0,0.421-0.189,0.421-0.421C105.251,118.597,105.063,118.409,104.83,118.409z"/>
	<path fill="#231F20" d="M102.907,120.012c-0.232,0-0.42,0.188-0.42,0.42c0,0.233,0.188,0.421,0.42,0.421s0.42-0.188,0.42-0.421
		C103.327,120.199,103.14,120.012,102.907,120.012z"/>
	<path fill="#231F20" d="M104.083,121.721c-0.233,0-0.421,0.188-0.421,0.421c0,0.232,0.188,0.42,0.421,0.42
		c0.232,0,0.42-0.187,0.42-0.42C104.503,121.909,104.315,121.721,104.083,121.721z"/>
	<path fill="#231F20" d="M105.792,116.593c-0.233,0-0.421,0.188-0.421,0.42s0.188,0.421,0.421,0.421c0.233,0,0.42-0.189,0.42-0.421
		S106.024,116.593,105.792,116.593z"/>
	<path fill="#231F20" d="M107.821,116.913c-0.232,0-0.42,0.188-0.42,0.42c0,0.232,0.188,0.421,0.42,0.421
		c0.233,0,0.421-0.188,0.421-0.421C108.242,117.102,108.055,116.913,107.821,116.913z"/>
	<path fill="#231F20" d="M109.959,118.302c-0.233,0-0.421,0.188-0.421,0.421c0,0.232,0.188,0.42,0.421,0.42
		c0.233,0,0.42-0.188,0.42-0.42C110.379,118.49,110.191,118.302,109.959,118.302z"/>
	<path fill="#231F20" d="M110.706,120.226c-0.231,0-0.42,0.188-0.42,0.42c0,0.232,0.188,0.421,0.42,0.421
		c0.232,0,0.421-0.188,0.421-0.421C111.127,120.413,110.938,120.226,110.706,120.226z"/>
	<path fill="#231F20" d="M106.112,123.431c-0.232,0-0.421,0.188-0.421,0.42c0,0.232,0.188,0.421,0.421,0.421
		c0.232,0,0.421-0.188,0.421-0.421C106.533,123.618,106.345,123.431,106.112,123.431z"/>
	<path fill="#231F20" d="M74.377,119.58c-0.232,0-0.42,0.188-0.42,0.42s0.188,0.421,0.42,0.421c0.232,0,0.421-0.188,0.421-0.421
		S74.609,119.58,74.377,119.58z"/>
	<path fill="#D0D2D3" d="M75.131,114.478c-2.672-3.55-8.71-5.715-8.785-5.522c4.211,1.631,8.198,5.993,8.236,6.035
		c0.142,0.151,0.379,0.159,0.53,0.018C75.264,114.866,75.255,114.644,75.131,114.478z"/>
	<path fill="#D0D2D3" d="M73.473,116.075c-7.958-4.007-14.076-4.187-14.101-3.981c5.482,0.686,13.704,4.624,13.785,4.662
		c0.188,0.087,0.411,0.006,0.498-0.183C73.742,116.386,73.658,116.169,73.473,116.075z"/>
	<path fill="#D0D2D3" d="M72.518,117.585c-9.23-0.854-14.945,0.45-17.294,0.728c7.34-0.871,17.111,0.005,17.207,0.017
		c0.206,0.023,0.392-0.124,0.416-0.33C72.87,117.795,72.724,117.604,72.518,117.585z"/>
	<path fill="#D0D2D3" d="M72.413,119.693c-0.163-0.034-8.548-0.68-15.09,1.422c10.698-1.646,14.895-0.696,14.934-0.688
		c0.203,0.043,0.401-0.086,0.444-0.289C72.743,119.935,72.615,119.737,72.413,119.693z"/>
	<path fill="#D0D2D3" d="M73.364,122.071c-10.491-0.312-14.095,3.252-13.99,3.431c6.255-3.671,13.819-2.697,13.892-2.688
		c0.206,0.027,0.394-0.117,0.421-0.323C73.714,122.285,73.571,122.076,73.364,122.071z"/>
	<path fill="#D0D2D3" d="M73.529,123.722c-0.066-0.196-0.28-0.301-0.476-0.233c-0.555,0.189-4.423,1.205-6.167,3.562
		c0.75-0.857,4.955-2.355,6.41-2.853C73.492,124.131,73.597,123.918,73.529,123.722z"/>
	<path fill="#D0D2D3" d="M76.474,125.126c-0.065-0.196-0.278-0.303-0.475-0.237c-4.243,1.414-8.014,5.802-7.865,5.946
		c0.038-0.039,4.037-3.88,8.102-5.234C76.433,125.534,76.539,125.323,76.474,125.126z"/>
	<path fill="#D0D2D3" d="M101.731,117.042c-0.008,0.206,0.151,0.381,0.357,0.39c0.207,0.01,0.382-0.15,0.392-0.357
		c0.003-0.048,0.357-5.167,6.937-9.69C103.46,110.936,101.741,116.829,101.731,117.042z"/>
	<path fill="#D0D2D3" d="M104.343,115.593c-0.101,0.181-0.036,0.409,0.145,0.51c0.182,0.102,0.409,0.037,0.511-0.144
		c0.041-0.073,4.377-7.697,11.812-9.453C109.118,107.667,104.517,115.282,104.343,115.593z"/>
	<path fill="#D0D2D3" d="M106.706,115.145c-0.113,0.174-0.063,0.405,0.11,0.519c0.174,0.112,0.405,0.062,0.518-0.11
		c0.037-0.057,3.978-6.056,11.86-8.441C112.476,108.001,106.861,114.905,106.706,115.145z"/>
	<path fill="#D0D2D3" d="M108.636,115.78c-0.175,0.111-0.227,0.344-0.115,0.518c0.111,0.175,0.343,0.227,0.517,0.115
		c0.094-0.059,9.79-6.215,19.388-6.006C118.245,109.905,108.73,115.719,108.636,115.78z"/>
	<path fill="#D0D2D3" d="M111.149,117.353c-0.191,0.08-0.281,0.3-0.201,0.491c0.081,0.191,0.301,0.28,0.492,0.2
		c9.221-3.877,16.965-4.458,17.039-4.461C128.474,113.376,120.507,113.418,111.149,117.353z"/>
	<path fill="#D0D2D3" d="M112.399,119.147c-0.203,0.038-0.337,0.234-0.299,0.439c0.038,0.203,0.234,0.337,0.438,0.299
		c0.101-0.02,10.479-2.18,17.92-1.342C124.826,117.066,112.501,119.127,112.399,119.147z"/>
	<path fill="#D0D2D3" d="M112.341,121.064c-0.207,0.012-0.365,0.189-0.353,0.397c0.012,0.207,0.19,0.364,0.396,0.352
		c10.667-0.628,16.415,1.278,16.468,1.299C128.93,122.919,123.196,120.425,112.341,121.064z"/>
	<path fill="#D0D2D3" d="M111.923,123.199c-0.206,0.007-0.369,0.18-0.363,0.387c0.007,0.207,0.18,0.37,0.387,0.363
		c0.102-0.003,10.591-0.4,17.358,3.66C124.742,123.047,112.347,123.187,111.923,123.199z"/>
	<path fill="#D0D2D3" d="M111.3,125.444c-0.208-0.003-0.378,0.162-0.38,0.37c-0.003,0.207,0.162,0.377,0.37,0.38
		c7.689,0.104,15.945,5.792,16.023,5.85C127.438,131.877,119.235,125.551,111.3,125.444z"/>
	<path fill="#D0D2D3" d="M110.726,127.159c-0.203-0.039-0.4,0.093-0.44,0.296c-0.039,0.203,0.093,0.4,0.296,0.44
		c0.123,0.024,12.813,2.544,17.269,8.035C124.612,130.618,111.241,127.261,110.726,127.159z"/>
	<path fill="#FFFFFF" d="M81.327,142.045c-2.746-4.25-2.746-9.545-2.746-9.545c-0.038-1.51,0.86-2.061,1.627-2.257
		c0,0,0.988-0.294,1.445,0.033C81.653,130.277,80.804,136.618,81.327,142.045z"/>
	<path fill="#FFFFFF" d="M82.111,130.016l-0.196,2.484c0,0,0.981,0.653,2.288,0l0.196-2.419
		C84.399,130.081,82.373,130.08,82.111,130.016z"/>
	<path fill="#FFFFFF" d="M84.792,129.95l-0.196,2.419c0,0,0.98,0.392,2.288-0.131l0.262-2.484
		C87.146,129.754,84.988,129.754,84.792,129.95z"/>
	<path fill="#FFFFFF" d="M87.603,129.623l-0.261,2.55c0,0,1.634,0.457,2.681-0.589l0.065-2.092
		C90.088,129.492,88.061,129.492,87.603,129.623z"/>
	<path fill="#FFFFFF" d="M90.545,129.492l-0.13,2.223c0,0,1.831,0.654,3.204,0.065l0.131-2.419
		C93.749,129.362,91.722,129.035,90.545,129.492z"/>
	<path fill="#FFFFFF" d="M94.141,129.231l-0.131,2.288c0,0,2.484,0.785,3.857-0.195l0.131-2.158
		C97.999,129.165,95.188,129.362,94.141,129.231z"/>
	<path fill="#FFFFFF" d="M98.391,129.1l-0.131,2.289c0,0,1.961,0.522,2.681,0l0.196-2.158
		C101.137,129.231,99.371,128.708,98.391,129.1z"/>
	<path fill="#FFFFFF" d="M101.398,129.362l-0.196,2.027c0,0,1.635,0.523,2.354,0.065l0.262-1.896
		C103.817,129.558,102.249,129.558,101.398,129.362z"/>
	<path fill="#FFFFFF" d="M104.079,129.689c0,0-0.131,7.257-0.72,9.741c0,0,3.139-1.765,3.399-8.695
		C106.759,130.735,106.824,129.623,104.079,129.689z"/>
	<path fill="#FFFFFF" d="M82.765,145.903c0,0-1.503,5.296,1.634,11.768c0,0,1.111,1.439,2.288,0.72c0,0,0.72-0.458,0.523-2.027
		C87.211,156.364,83.811,152.964,82.765,145.903z"/>
	<radialGradient id="SVGID_3_" cx="92.9407" cy="144.3386" r="10.9161" gradientUnits="userSpaceOnUse">
		<stop  offset="0" style="stop-color:#EB008B"/>
		<stop  offset="0.1621" style="stop-color:#E90186"/>
		<stop  offset="0.3666" style="stop-color:#E30476"/>
		<stop  offset="0.594" style="stop-color:#DA095C"/>
		<stop  offset="0.8361" style="stop-color:#CD1038"/>
		<stop  offset="1" style="stop-color:#C3161C"/>
	</radialGradient>
	<path fill="url(#SVGID_3_)" d="M87.603,155.187c0,0-3.662-2.876-4.511-10.722c0,0-1.7-10.657,3.661-10.854
		c0,0,2.027-0.196,3.988,1.504c0,0,2.354,2.223,4.642-0.589c0,0,1.962-2.353,4.642-1.765c0,0,2.876-0.131,2.941,7.715
		c0,0,0.981,11.964-3.987,14.383C98.979,154.86,90.479,157.213,87.603,155.187z"/>
	<path fill="#B41218" d="M85.772,135.05c0,0,3.53-0.85,4.185,2.354c0,0,0.981,4.316,0.915,6.865c0,0,0.131,3.399,1.765,3.465
		c0,0,2.615,0.393,2.223-3.53c0,0-0.588-5.623,0.262-6.865c0,0,1.111-2.55,3.792-3.465c0,0-1.242-0.262-4.185,1.961
		c0,0-1.504,0.981-3.465,0.327c0,0-0.589-0.131-1.438-0.98C89.826,135.181,88.911,134.003,85.772,135.05z"/>
	<path fill="#77787B" d="M92.507,126.158c-4.493,0.043-7.24,2.041-8.608,3.421c1.777-0.527,3.567-0.438,3.567-0.438
		c0.499-0.143,2.999-0.149,2.999-0.149c1.097-0.38,2.916-0.157,3.427-0.09c0.986,0.123,4.191-0.249,4.218-0.251
		c1.11-0.443,2.971,0.041,3.169,0.1c0,0,0.526,0.167,0.613,0.189C98.031,126.257,92.507,126.158,92.507,126.158z"/>
	<path fill="#EB008B" d="M86.492,128.643c0,0,10.068-0.001,12.161-0.262C98.652,128.381,91.853,127.073,86.492,128.643z"/>
	<path fill="#FFFFFF" d="M87.461,156.287c0,0,0.001,1.487,0.073,2.023c0,0,0.585,0.438,2.242,0.146l-0.048-2.218
		C89.728,156.24,88.412,155.873,87.461,156.287z"/>
	<path fill="#FFFFFF" d="M89.801,156.264l0.024,2.193c0,0,1.023,0.243,2.169-0.073l-0.048-2.097
		C91.946,156.287,91.142,156.044,89.801,156.264z"/>
	<path fill="#FFFFFF" d="M92.141,156.287l0.024,2.121c0,0,1.56,0.268,2.559-0.098l-0.049-2.072
		C94.675,156.239,93.676,155.947,92.141,156.287z"/>
	<path fill="#FFFFFF" d="M94.871,158.286l-0.049-2.048c0,0,1.097-0.365,2.535-0.219l-0.024,2.096
		C97.332,158.115,96.601,158.481,94.871,158.286z"/>
	<path fill="#FFFFFF" d="M97.527,155.995l-0.049,2.096c0,0,2.436,0,3.241-0.95l-0.098-1.853
		C100.622,155.288,99.185,154.948,97.527,155.995z"/>
	<path fill="#FFFFFF" d="M100.671,155.459c0,0,0.073-0.78,1.219-2.389c0,0,1.364-1.413,1.56-8.555c0,0,1.364,2.876,1.243,9.505
		c0,0-0.244,2.657-2.705,3.389C101.987,157.409,100.427,158.043,100.671,155.459z"/>
	<path fill="#D1232A" d="M106.638,152.217c0,0.005,0,0.018,0,0.019C106.639,152.325,106.638,152.255,106.638,152.217z"/>
	<path fill="#D0D2D3" d="M109.346,132.338c-0.192-0.078-0.411,0.014-0.49,0.205c-2.519,6.157-2.952,18.928-2.971,19.469
		c0.133,7.585-3.333,9.177-3.368,9.189c-6.228,3.385-13.868,0.857-13.943,0.834c-5.302-2.122-6.315-9.84-6.325-9.917
		c-0.705-3.673-1.808-6.041-1.854-6.14c-3.007-8.48-2.908-14.903-2.907-14.968c0.004-0.207-0.16-0.378-0.367-0.383
		c-0.207-0.004-0.378,0.16-0.383,0.367c-0.001,0.066-0.105,6.615,2.965,15.269c0.025,0.058,1.124,2.422,1.807,5.971
		c0.037,0.311,1.07,8.209,6.815,10.508c0.349,0.108,7.973,2.653,14.473-0.846c0.221-0.076,3.842-1.946,3.842-9.66
		c0-0.058,0-0.045,0-0.019c0.016-0.436,0.476-13.434,2.912-19.39C109.629,132.636,109.537,132.416,109.346,132.338z"/>
	<path fill="#77787B" d="M86.041,158.964c0,0-0.367,0.681,0.733,1.152c0,0,1.466,0.785,2.146,1.151c0,0,2.095,1.362,7.017,1.205
		c0,0,6.283-0.523,8.011-3.403c0,0,0.785-1.676,0.053-1.78c0,0-0.263-0.053-1.204,0.732c0,0-1.833,1.152-3.875,1.257
		c0,0-4.817,1.361-10.838,0.053C88.083,159.331,86.302,158.389,86.041,158.964z"/>
	<path fill="#F16522" d="M87.873,159.54c0,0,3.351,2.356,10.943,0.891c0,0,4.241-0.419,4.659-2.514c0,0-1.885,1.78-4.816,1.78
		C98.659,159.698,93.423,160.954,87.873,159.54z"/>
	<path fill="#231F20" d="M107.543,169.974c-3.046,0.927-9.4,0.662-9.4,0.662c-5.826-0.132-10.725-1.986-10.725-1.986
		c-1.721,2.383-4.105,7.68-4.105,7.68c-0.265,1.191,0.53,1.456,0.53,1.456c1.853,0.133,2.913-1.721,2.913-1.721
		c3.575-3.973,7.679-3.442,7.679-3.442c5.465,0,6.424,3.169,6.587,4.476c-1.376-0.808-3.89-1.63-8.441-1.695
		c0,0-9.768,0.794-9.768,8.209c0,7.414,9.371,8.605,9.371,8.605s5.433,0.695,8.871-1.476v1.74h12.842v-18.801
		C113.898,168.782,107.543,169.974,107.543,169.974z M99.996,186.788c0,0-4.767,1.324-4.767-1.985c0-3.31,4.767-1.589,4.767-1.589
		V186.788z"/>
</g>
</svg>
