<?xml version="1.0" encoding="utf-8"?>
<!-- Generator: Adobe Illustrator 21.0.2, SVG Export Plug-In . SVG Version: 6.00 Build 0)  -->
<svg version="1.1" id="Layer_7" xmlns="http://www.w3.org/2000/svg" xmlns:xlink="http://www.w3.org/1999/xlink" x="0px" y="0px"
	 width="200px" height="200px" viewBox="0 0 200 200" enable-background="new 0 0 200 200" xml:space="preserve">
<g>
	<polygon fill="#D1D7DC" points="186.312,58.24 100.447,171.103 14.582,58.24 	"/>
	<path fill="#0092CA" d="M10.76,57.124l89.565,115.607L189.24,57.124H10.76z M100.305,167.988L16.36,59.635H183.64L100.305,167.988z
		"/>
	<path fill="#0092CA" d="M42.478,46.487L19.226,97.611l18.043,18.4l7.043-3.913l0.698-3.213l2.023,1.603l12.974-5.721l0.151-0.744
		l0.546-0.07v0.604l10.138-3.185l60.398,1.093l7.775,2.279l0.5-0.767l0.43,0.023v1.116c0,0,8.185,2.186,22.415,11.579l12.323-12.603
		l6.185-6.464L168.36,69.586l-6.045-4.232l2.232-4.278l-6.65-14.59l-18.275-6.709l-4.511,3.302l-1.069,2.837l-8.835-2l-1.07,4.697
		l-0.883-4.883l-19.95-1.86l-4.79,4.836l-0.325,2.837l-0.884-7.533l-9.812,0.326l-0.325,3.487l-0.884-3.302L77.03,43.87
		l-1.023,5.906l-1.256-5.627l-8.371,2.232l-1.535-3.302l-7.627-3.72l-2,4.976l-1.023-2.604L42.478,46.487z"/>
	<polygon points="58.717,61.798 52.404,67.727 57.217,75.644 59.937,65.564 	"/>
	<polygon points="44.487,74.981 38.872,80.038 41.487,84.084 44.6,75.112 	"/>
	<polygon points="108.417,51.247 114.59,51.535 112.288,71.912 109.533,71.912 	"/>
	<polygon points="129.436,78.329 128.181,71.726 129.623,70.029 131.297,71.738 129.739,78.329 	"/>
	<polygon points="157.489,79.236 155.85,75.016 143.992,71.284 142.771,74.04 140.783,67.448 142.213,63.681 159.338,75.853 	"/>
	<polygon points="153.164,57.368 163.209,60.751 161.082,64.797 152.397,59.007 	"/>
	<path d="M149.805,90.327l-7.813,13.998c0,0,13.253,5.674,20.229,10.649l12.231-12.556
		C174.452,102.418,162.081,94.42,149.805,90.327z"/>
	<path d="M145.714,88.839l-7.068,14.23l-9.674-2.232l5.861-15.113C134.832,85.723,145.295,88.56,145.714,88.839z"/>
	<polygon points="119.717,82.747 117.95,90.652 123.878,95.81 125.856,96.558 129.587,84.45 	"/>
	<polygon points="103.953,81.492 103.953,85.747 116.532,89.652 117.95,82.399 	"/>
	<polygon points="99.209,85.77 102.837,85.886 102.837,80.841 99.209,77.33 	"/>
	<polygon points="94.745,85.863 94.745,81.399 85.003,82.236 85.863,88.933 	"/>
	<polygon points="80.375,83.003 82.189,90.909 74.353,96.722 70.493,84.794 	"/>
	<polygon points="65.174,86.026 70.493,100.163 61.507,103.285 54.462,89.141 	"/>
	<polygon points="50.346,90.118 58.263,104.174 48.288,108.673 38.313,94.931 	"/>
	<polygon points="31.478,98.105 42.813,111.358 37.825,114.462 25.269,102.081 	"/>
	<ellipse fill="#0092CA" cx="100.256" cy="121.647" rx="36.476" ry="36.337"/>
	<ellipse fill="#FC8344" cx="100.256" cy="121.647" rx="34.942" ry="34.808"/>
	<path fill="#0092CA" d="M79.329,148.968c0,0,1.604,2.488,2.069,2.813c0.465,0.326-3.092-1.72-3.092-1.72l-0.535-1.325
		L79.329,148.968z"/>
	<path fill="#0092CA" stroke="#0092CA" stroke-width="0.279" d="M89.723,88.514c0,0,3.557,1.953,4.255,2.232
		c0.698,0.279,7.172,2.629,14.997,3.418c8.998,0.907,18.415,5.511,22.112,10.603l4.046,9.696c0,0-3.337-8.968-10.951-14.09
		c-7.673-5.162-22.321-5.092-29.576-8.44c0,0-4.743-1.604-7.045-3.418C87.56,88.514,88.07,87.617,89.723,88.514z"/>
	<path fill="none" stroke="#0092CA" stroke-width="1.3951" d="M76.155,95.193c0,0,13.707-1.239,30.17,11.875
		c17.008,13.549,20.543,26.367,22.461,35.296l0.186,0.466"/>
	<path fill="none" stroke="#0092CA" stroke-width="1.5346" d="M78.655,149.34c0,0-4.314-9.079-4.79-15.95
		c-0.419-6.045-1.441-17.299,7.209-29.669c8.65-12.37,18.694-14.788,24.368-17.299"/>
	<path fill="none" stroke="#0092CA" stroke-width="1.5346" d="M66.564,110.231c0,0,7.069-7.72,12.091-6.883
		c5.022,0.837,7.072,2.752,9.862,7.03s4.461,15.29,4.74,16.035c0.279,0.744,3.441,13.672,7.905,20.647
		c4.464,6.975,6.138,8.65,6.138,8.65"/>
	<path fill="#0092CA" d="M106.438,153.455c0,0,1.91,2.781,2.781,2.119l-2.59,0.811l-0.541-2.284L106.438,153.455z"/>
	<polygon fill="#FC8344" points="43.406,47.358 51.916,44.08 44.452,62.983 52.474,56.217 57.961,41.22 63.637,43.917 
		59.054,59.914 50.974,67.518 54.81,73.9 50.242,89.141 39.534,93.396 45.812,75.121 44.417,73.482 38.139,79.027 31.164,97.059 
		24.676,101.209 20.735,97.372 	"/>
	<polygon fill="#FC8344" points="73.725,45.87 76.05,56.705 78.003,45.126 84.746,44.196 80.282,81.77 71.446,83.444 73.306,72.795 
		70.563,58.611 64.703,85.072 55.217,87.676 65.913,47.822 	"/>
	<polygon fill="#FC8344" points="95.813,43.404 94.511,80.281 85.49,80.932 88.745,43.636 	"/>
	<polygon fill="#FC8344" points="116.624,73.282 117.357,81.269 103.656,80.428 99.767,76.283 99.767,47.358 103.86,43.404 
		113.253,43.917 113.951,50.381 107.347,50.149 108.371,72.75 	"/>
	<polygon fill="#FC8344" points="115.346,44.197 122.182,45.081 125.298,61.961 129.576,56.427 126.786,45.871 134.087,47.359 
		136.967,57.962 133.759,62.336 139.479,67.217 145.059,87.492 135.337,84.609 132.457,71.169 129.248,68.379 127.109,71.262 
		129.155,83.074 120.18,81.633 	"/>
	<path fill="#FC8344" d="M156.87,47.406l5.162,11.626l-9.161-2.79l-2.279-5.72l-5.72-2l3.162,8.882l19.206,12.789l12.23,26.972
		l-4.185,4.511c0,0-10.835-7.069-24.739-12.23l-5.022-16.23l9.44,2.651l2.557,7.161l7.208,3.348l-4.371-11.161l-18.09-12.881
		l-5.72-18.508l3.255-2.558L156.87,47.406z"/>
	<polygon fill="#0092CA" points="67.471,43.871 70.749,31.85 73.307,31.036 74.237,33.059 74.818,30.641 77.585,29.943 
		74.748,42.336 71.865,42.824 73.121,37.732 72.33,35.895 70.144,43.404 	"/>
	<polygon fill="#0092CA" points="79.306,29.641 77.027,41.883 82.548,41.188 82.887,38.546 80.399,38.848 80.724,36.362 
		83.259,36.175 83.7,33.733 81.136,33.895 81.492,31.408 84.142,30.989 84.421,28.711 	"/>
	<polygon fill="#0092CA" points="85.932,28.2 84.421,39.593 85.49,40.662 88.607,40.662 89.723,39.546 90.652,40.337 93.396,40.29 
		94.931,38.639 95.582,27.548 93.35,27.548 92.66,37.343 91.211,37.407 91.955,27.827 89.676,27.874 88.607,37.686 87.118,37.779 
		88.28,28.037 	"/>
	<polygon fill="#0092CA" points="99.767,27.269 99.767,35.244 101.441,37.035 101.441,40.104 103.953,40.104 103.953,36.977 
		105.627,35.477 105.627,27.269 103.395,27.269 103.36,34.314 101.999,34.349 101.999,27.269 	"/>
	<path fill="#0092CA" d="M113.09,29.484l-1.325-1.657l-3.487-0.163l-1.256,1.139l0.558,9.87l1.395,1.709h4.081l1.029-1.683
		L113.09,29.484z M109.968,37.872l-0.436-7.813l0,0h1.395l0.442,7.813H109.968z"/>
	<path fill="#0092CA" d="M122.612,37.349l-0.919-1.045l0.483-0.455l-0.628-4.517l-1.709-2.18l-5.005-0.791v0.093l1.697,12.439
		l2.575,0.36l-0.505-3.639l1.604,0.023l0.54,3.807l2.633,0.308L122.612,37.349z M117.973,34.349l-0.436-3.087l1.029,0.192
		l0.54,0.279l0.448,2.673L117.973,34.349z"/>
	<polygon fill="#0092CA" points="123.1,29.944 125.768,42.243 128.306,42.837 127.495,39.267 129.127,39.497 129.936,43.103 
		132.796,44.01 131.262,38.255 130.203,37.209 130.773,36.302 129.553,31.838 127.181,31.071 128.348,36.312 126.825,36.095 
		125.507,30.617 	"/>
</g>
</svg>
