<?xml version="1.0" encoding="utf-8"?>
<!-- Generator: Adobe Illustrator 21.0.2, SVG Export Plug-In . SVG Version: 6.00 Build 0)  -->
<svg version="1.1" xmlns="http://www.w3.org/2000/svg" xmlns:xlink="http://www.w3.org/1999/xlink" x="0px" y="0px" width="200px"
	 height="200px" viewBox="0 0 200 200" enable-background="new 0 0 200 200" xml:space="preserve">
<g id="left_ear">
	<path fill="#F0BEB4" stroke="#CB8C84" stroke-linejoin="round" stroke-miterlimit="10" d="M129.538,98c0,0,3.459,11,8.063,11
		c4.604,0,11.937-2.667,13.271-13c0.219-1.693-0.482-4.7-0.203-6.841c1.428-10.924,3.356-24.345-9.464-18.492"/>
</g>
<g id="neck">
	<path fill="#F0BEB4" stroke="#CB8C84" stroke-linejoin="round" stroke-miterlimit="10" d="M144.396,73.667
		c0,0-8.396,58.25-5.396,70.458s-52.333,31.542-52.333,31.542L64.424,138.25l21.91-39.917"/>
</g>
<g id="Layer_3">
	<path fill="#D669FF" stroke="#A900C1" stroke-linejoin="round" stroke-miterlimit="10" d="M67.333,130.667c0,0-9,19.667-7,36
		s10,30,10,30S77.524,193.714,82,187c10-15,22.284-16.58,19.333-17.667C99.75,168.75,87,162,78.333,152S65.333,140,67.333,130.667z"
		/>
	<path fill="#D669FF" stroke="#A900C1" stroke-linejoin="round" stroke-miterlimit="10" d="M103.25,171c0,0,0.5-2,1.625-1.375
		s9.875,4.5,13.875,9.875s15.75,14.625,15.75,14.625s9.125-19.042,9.375-30.458c0.25-11.417,1.375-15.667-0.75-21.542
		s-2.375-11.25-3.75-12.625s0.375,1.375-1.375,6.25s-29.125,29.875-32.375,31.375S103.25,171,103.25,171z"/>
</g>
<g id="right_ear">
	<path fill="#F0BEB4" stroke="#CB8C84" stroke-linejoin="round" stroke-miterlimit="10" d="M53,67.75c0,0-3.5,3.75-2.75,6.75
		s1.895,9.125,1.322,12.25C51,89.875,48.25,95,50.75,99.25s4.087,10.875,9.293,10.625s0-44,0-44L53,67.75z"/>
</g>
<g id="Layer_5">
</g>
<g id="face">
	<path fill="#F0BEB4" stroke="#CB8C84" stroke-linejoin="round" stroke-miterlimit="10" d="M137.5,109.25c0,3.5-1.75,10.5-1.75,10.5
		c-1.75,14-7.5,16-14.5,22.25s-15.5,8.75-23.25,9s-22.5-10-27.5-13.25s-8.25-17.75-10.457-20.5C57.837,114.5,57,102,56.25,98.5
		s-0.5-7,0-9.5s0-6.5,0-6.5s-1.5-45,6.5-50.25s12-9.25,25.75-10.5s36.75-1.25,43.75,4.75s9.75,36,9.75,36"/>
	<path fill="#F0BEB4" stroke="#CB8C84" stroke-linejoin="round" stroke-miterlimit="10" d="M82.5,96c-2.5,5.5-8.75,14-10,15.75
		s-3.25,7.5,2,12"/>
	<path fill="#F0BEB4" stroke="#CB8C84" stroke-linejoin="round" stroke-miterlimit="10" d="M107,100c0,0,4,7.25,9,9.875
		s7.5,5.625,4.75,12.125"/>
	<path fill="#CB8C84" stroke="#AF645F" stroke-linejoin="round" stroke-miterlimit="10" d="M110.375,120.012
		c0,0-1.625,4.988-3.5,6.113s-6,4.542-10.75,4.542s-8.875-3.417-10.75-4.542s-3.5-6.113-3.5-6.113H110.375z"/>
	<path fill="#CB8C84" stroke="#AF645F" stroke-linejoin="round" stroke-miterlimit="10" d="M99.75,117.75c3.125-1.125,8,0.75,15,1.5
		c0,0-2.823,1.625-5.411,1.5c-2.589-0.125-6.089-0.736-7.089,0.007s-4.75,1.868-6.125,1.868S91,121.5,90,120.757
		s-4.5-0.132-7.089-0.007c-2.589,0.125-5.411-1.5-5.411-1.5c7-0.75,11.875-2.625,15-1.5S96.625,118.875,99.75,117.75z"/>
	<path fill="#F0BEB4" stroke="#CB8C84" stroke-linejoin="round" stroke-miterlimit="10" d="M98,138.25c0,0-1.75,3.875,0,5.875"/>
</g>
<g id="hair">
	<path fill="#898989" d="M59.167,18.167C47.693,27.443,53,66.833,53,72s3.5,17.833,3.5,17.833s2-14.5,2.833-19.833
		c0.833-5.333,5.333-14.5,5.333-22.333S65.833,36.167,68,37s20.021,11.833,28,11.667c7.979-0.167,27.333-9.833,31-10
		c3.667-0.167,5.333,2.167,4.167,8.333c-1.167,6.167-2.669,15,0.332,17s8.334,17.667,9.001,21s9.667-11.167,9.5-16.667
		s-3.667-3.5-2-21.333s-5.833-27-15.333-31s-31.5-16.833-37.833-14.167C88.5,4.5,76.342,2.972,70,10.833
		C66.8,14.8,67,11.833,59.167,18.167z"/>
</g>
</svg>
