<?xml version="1.0" encoding="utf-8"?>
<!-- Generator: Adobe Illustrator 21.0.2, SVG Export Plug-In . SVG Version: 6.00 Build 0)  -->
<svg version="1.1" id="glasses_original_copy" xmlns="http://www.w3.org/2000/svg" xmlns:xlink="http://www.w3.org/1999/xlink"
	 x="0px" y="0px" width="200px" height="200px" viewBox="0 0 200 200" enable-background="new 0 0 200 200" xml:space="preserve">
<path fill="#8F00FF" d="M153.409,146.413c-2.915,0-5.044-0.348-5.883-0.512c-3.624-0.141-34.313-2.197-47.494-30.754
	c-12.977,28.568-43.924,30.614-47.56,30.754c-3.747,0.734-33.272,5.14-43.467-34.247C-1.25,72.037,21.79,62.767,30.463,59.278
	c0.519-0.209,0.987-0.397,1.394-0.571c15.921-6.828,120.366-6.828,136.287,0c0.406,0.174,0.875,0.363,1.395,0.571
	c8.673,3.49,31.711,12.761,21.456,52.377C183.08,142.228,163.52,146.413,153.409,146.413z M100,59.907
	c-29.311,0-58.622,1.514-65.681,4.541c-0.445,0.191-0.957,0.397-1.524,0.625c-7.966,3.205-26.622,10.711-17.742,45.015
	c9.307,35.957,35.203,29.944,36.3,29.669c0.242-0.06,0.49-0.091,0.739-0.093c1.434-0.012,35.353-0.689,44.903-34.376
	c0.38-1.34,1.6-2.267,2.992-2.272c0.004,0,0.009,0,0.013,0c1.387,0,2.608,0.915,2.998,2.247c9.898,33.825,44.562,34.4,44.91,34.401
	c0.249,0.002,0.497,0.033,0.738,0.093c1.09,0.262,27.047,6.081,36.301-29.669c8.879-34.303-9.775-41.809-17.741-45.015
	c-0.567-0.229-1.08-0.435-1.525-0.626C158.622,61.421,129.311,59.907,100,59.907z"/>
<path fill="#8F00FF" d="M100,96.576c7.333,0,9.357,3.166,12.333,11.333c8.356,22.93,19,23.333,39.333,25
	c20.333,1.667,27-18.667,27-18.667c9.333-29.667-3-42-11.667-45s-125.333-3-134,0s-21,15.333-11.667,45c0,0,6.667,20.333,27,18.667
	c20.333-1.667,33.333-1.333,39.333-25C89.803,99.484,92.667,96.576,100,96.576z"/>
<g>
	<defs>
		<path id="SVGID_1_" d="M100,96.576c7.333,0,9.357,3.166,12.333,11.333c8.356,22.93,19,23.333,39.333,25
			c20.333,1.667,27-18.667,27-18.667c9.333-29.667-3-42-11.667-45s-125.333-3-134,0s-21,15.333-11.667,45
			c0,0,6.667,20.333,27,18.667c20.333-1.667,33.333-1.333,39.333-25C89.803,99.484,92.667,96.576,100,96.576z"/>
	</defs>
	<clipPath id="SVGID_2_">
		<use xlink:href="#SVGID_1_"  overflow="visible"/>
	</clipPath>
	<g clip-path="url(#SVGID_2_)">
		<polygon fill="#FF00DB" points="27.684,130.857 26.072,129.025 25.069,116.587 25.477,108.377 25.013,95.414 24.786,93.354 
			25.765,92.249 24.411,88.064 23.071,72.871 26.037,69.84 30.18,68.786 34.344,72.476 36.215,81.311 40.383,92.849 41.769,96.367 
			42.185,96.973 42.958,94.798 43.601,89.339 44.827,85.447 45.463,79.922 47.669,70.748 49.998,67.804 56.319,67.891 
			59.149,70.497 59.808,96.462 61.811,113.549 62.125,117.38 62.407,127.63 59.756,130.728 57.543,130.861 53.839,128.419 
			51.022,107.703 50.846,107.236 48.226,115.954 46.072,117.694 39.91,117.524 37.796,116.254 35.535,110.56 34.825,107.504 
			34.674,107.968 35.306,122.448 35.089,126.858 35.314,128.867 31.184,132.101 		"/>
		<path d="M50.477,68.81l5.447,0.075l2.237,2.06l0.648,25.542l2.008,17.178l0.312,3.797l0.268,9.81l-2.125,2.482l-1.456,0.088
			l-3.047-2.008l-2.77-20.379l-1.259-3.336l-3.381,11.251l-1.627,1.315l-5.531-0.152l-1.599-0.962l-2.109-5.312l-0.875-3.766
			l-1.197-0.983l-0.753,2.32l0.64,14.661l-0.221,4.398l0.172,1.534L31,130.974l-2.737-0.972l-1.221-1.388l-0.971-12.043l0.405-8.145
			l-0.463-13.049l-0.185-1.692l1.065-1.202l-1.496-4.621l-1.289-14.622l2.448-2.502l3.357-0.854l3.521,3.12l1.817,8.579
			l4.192,11.604l1.437,3.65l1.069,1.559l0.601,0.532l1.388-3.903l0.645-5.478l1.227-3.893l0.64-5.56l2.141-8.901L50.477,68.81
			 M49.519,66.797l-0.611,0.773l-1.886,2.385L46.749,70.3l-0.103,0.428l-2.141,8.901l-0.028,0.118l-0.014,0.121l-0.618,5.37
			l-1.169,3.71l-0.057,0.18l-0.022,0.187l-0.582,4.945l-0.7-1.778l-4.135-11.447l-1.788-8.444l-0.137-0.645l-0.493-0.437
			l-3.521-3.12l-0.793-0.703l-1.027,0.261l-3.357,0.854l-0.544,0.138l-0.393,0.401l-2.448,2.502L22.035,72.5l0.081,0.917
			l1.289,14.622l0.02,0.225l0.07,0.215l1.144,3.534l-0.307,0.346l-0.588,0.663l0.096,0.881l0.177,1.619l0.458,12.89l-0.4,8.06
			l-0.006,0.13l0.01,0.13l0.971,12.043l0.053,0.662l0.439,0.499l1.221,1.388l0.343,0.39l0.489,0.174l2.737,0.972l1.036,0.368
			l0.866-0.678l3.258-2.551l0.879-0.688l-0.124-1.109l-0.154-1.373l0.213-4.236l0.005-0.094l-0.004-0.094l-0.353-8.085l0.79,1.989
			l0.249,0.628l0.579,0.348l1.599,0.962l0.45,0.271l0.525,0.014l5.531,0.152l0.738,0.02l0.574-0.464l1.627-1.315l0.48-0.388
			l0.178-0.591l1.281-4.264l2.232,16.422l0.122,0.9l0.759,0.5l3.047,2.008l0.556,0.367l0.665-0.04l1.456-0.088l0.847-0.051
			l0.552-0.645l2.125-2.482l0.501-0.585l-0.021-0.77l-0.268-9.81l-0.001-0.055l-0.004-0.054l-0.312-3.797l-0.003-0.034l-0.004-0.034
			l-1.998-17.087L60.16,70.895l-0.021-0.847l-0.623-0.574l-2.237-2.06l-0.563-0.518l-0.765-0.01l-5.447-0.075L49.519,66.797
			L49.519,66.797z"/>
	</g>
	<g clip-path="url(#SVGID_2_)">
		<path fill="#FF00DB" d="M61.688,121.842l-2.668-2.249l-0.155-4.452l0.646-1.45l0.17-4.203l0.875-4.711l-0.023-2.993l1.037-4.408
			l-0.253-3.227l0.649-12.609l0.618-6.732l2.265-2.973l5.905-0.57l2.698,3.353l0.195,1.021l0.878,0.782l0.511,3.308l1.52,1.477
			l1.558,4.118l1.741,5.167l0.928,1.052l1.303,5.414l1.13,1.414l0.991,3.619l1.145,1.219l0.327,1.963l1.355,1.09l0.593,3.905
			l2.012,3.328l-1.093,3.2l-1.234,2.006l-4.449,0.687l-3.401-5.341l-1.12-4.226l-1.236-0.98l-2.818,0.444l-0.962-0.683l-4.087,1.396
			l-1.279,1.965l-0.07,4.924l-0.683,2.197l-2.609,2.889L61.688,121.842z M70.945,100.589l2.83-0.068l0.477-0.469l-0.023-0.173
			l-0.463-0.308l-0.904-2.702l-1.498-1.893l-0.347-2.074l-0.688-1.304l-0.06,3.611l-1.069,3.045l0.124,0.918l0.472,1.023
			L70.945,100.589z"/>
		<path d="M70.313,72.312l2.203,2.738l0.212,1.109l0.863,0.769l0.508,3.284l1.601,1.555l1.478,3.91l1.793,5.324l0.897,1.017
			l1.297,5.389l1.14,1.427l1.002,3.66l1.107,1.179l0.34,2.04l1.349,1.085l0.564,3.716l1.874,3.099l-0.906,2.653l-0.933,1.516
			l-3.347,0.517l-2.967-4.659l-1.166-4.397l-1.84-1.458l-2.849,0.449l-1.048-0.744l-4.898,1.674l-1.625,2.496l-0.072,5.069
			l-0.574,1.849l-2.146,2.376l-2.098-0.095l-2.069-1.744l-0.132-3.777l0.63-1.414l0.175-4.324l0.879-4.735l-0.023-2.968l1.045-4.444
			l-0.26-3.317l0.646-12.544l0.589-6.406l1.826-2.397L70.313,72.312 M70.791,101.593l3.403-0.081l1.116-1.098l-0.151-1.118
			l-0.554-0.368l-0.851-2.542l-1.447-1.828l-0.332-1.979l-1.869-3.543l-0.752,0.987l-0.083,5.009l-1.095,3.119l0.176,1.305
			l0.714,1.549L70.791,101.593 M71.195,70.218l-1.074,0.104l-4.933,0.476l-0.869,0.084l-0.529,0.695l-1.826,2.397l-0.348,0.457
			l-0.053,0.572l-0.589,6.406l-0.004,0.04l-0.002,0.04l-0.646,12.544l-0.007,0.13l0.01,0.129l0.236,3.006l-0.974,4.14l-0.055,0.233
			l0.002,0.24l0.021,2.777l-0.844,4.547l-0.026,0.141l-0.006,0.143l-0.16,3.94l-0.474,1.064l-0.188,0.422l0.016,0.462l0.132,3.777
			l0.031,0.887l0.679,0.572l2.069,1.744l0.52,0.438l0.679,0.031l2.098,0.095l0.942,0.043l0.632-0.7l2.146-2.376l0.295-0.327
			l0.131-0.421l0.574-1.849l0.086-0.276l0.004-0.289l0.064-4.491l0.933-1.433l3.276-1.119l0.213,0.151l0.664,0.472l0.805-0.127
			l1.982-0.313l0.632,0.501l0.996,3.755l0.08,0.3l0.167,0.262l2.967,4.659l0.702,1.101l1.29-0.199l3.347-0.517l0.914-0.141
			l0.485-0.787l0.933-1.516l0.117-0.19l0.072-0.212l0.906-2.653l0.301-0.883l-0.483-0.798l-1.668-2.758l-0.504-3.323l-0.117-0.77
			l-0.607-0.488l-0.755-0.607l-0.215-1.288l-0.1-0.598l-0.415-0.442l-0.767-0.817l-0.871-3.181l-0.109-0.398l-0.258-0.322
			l-0.862-1.079l-1.193-4.956l-0.116-0.483l-0.328-0.372l-0.63-0.714l-1.664-4.942l-0.012-0.035l-0.013-0.034l-1.478-3.91
			l-0.158-0.417l-0.319-0.31l-1.12-1.088l-0.406-2.622l-0.11-0.71l-0.536-0.478l-0.356-0.317l-0.084-0.442l-0.094-0.49l-0.313-0.389
			l-2.203-2.738L71.195,70.218L71.195,70.218z M70.223,98.359l0.782-2.226l0.964,1.219l0.734,2.195L71.1,99.585l-0.576-0.196
			l-0.229-0.498L70.223,98.359L70.223,98.359z"/>
	</g>
	<g clip-path="url(#SVGID_2_)">
		<path fill="#FF00DB" d="M80.956,91.389l1.597-4.915c-1.123-0.25-2.673-1.165-3.093-4.241c-0.552-4.041-4.694-12.767-4.736-12.855
			l-0.617-1.294l1.427-0.132c0.049-0.005,1.225-0.111,3.039-0.111c5.656,0,18.949,1.108,20.238,11.375
			c1.598,12.73-12.896,23.79-13.513,24.254l-1.217,0.916L80.956,91.389z M84.573,75.377c1.297,2.947,4.479,10.906,3.751,16.581
			c0.466-0.681,0.97-1.468,1.48-2.338c2.013-3.436,2.552-5.521,2.402-6.264c-0.242-1.194-0.289-2.362-0.331-3.393
			c-0.105-2.62-0.229-3.801-2.055-4.329c-0.991-0.287-2.052-0.432-3.153-0.432C85.844,75.203,85.123,75.286,84.573,75.377z"/>
		<path d="M78.573,68.841c5.763,0,18.067,1.112,19.245,10.5c1.544,12.301-13.122,23.33-13.122,23.33L81.994,91.43l1.93-5.939
			c0,0-0.236,0.069-0.587,0.069c-0.878,0-2.473-0.433-2.886-3.463c-0.579-4.242-4.824-13.15-4.824-13.15
			S76.784,68.841,78.573,68.841 M86.439,95.626c0.966,0,7.376-9.36,6.747-12.468c-0.772-3.818,0.579-7.423-3.087-8.484
			c-1.222-0.354-2.401-0.471-3.431-0.471c-2.058,0-3.516,0.471-3.516,0.471s6.297,13.047,3.627,19.301
			C86.282,95.138,86.219,95.626,86.439,95.626 M78.573,66.841c-1.86,0-3.08,0.111-3.131,0.116l-2.854,0.264l1.233,2.588
			c1.144,2.401,4.208,9.337,4.648,12.56c0.385,2.822,1.655,4.12,2.836,4.71l-1.213,3.733l-0.174,0.537l0.132,0.549l2.702,11.241
			l0.712,2.962l2.435-1.831c0.637-0.479,15.574-11.879,13.904-25.178C98.825,71.306,91.087,66.841,78.573,66.841L78.573,66.841z
			 M86.016,76.222c0.208-0.012,0.426-0.019,0.653-0.019c1.007,0,1.974,0.132,2.875,0.393c1.012,0.293,1.22,0.595,1.334,3.409
			c0.043,1.068,0.092,2.278,0.349,3.55c0.055,0.329-0.192,1.819-1.873,4.84c-0.184-2.061-0.676-4.398-1.474-7.001
			C87.262,79.384,86.571,77.572,86.016,76.222L86.016,76.222z"/>
	</g>
	<g clip-path="url(#SVGID_2_)">
		<polygon fill="#FF00DB" points="110.474,98.064 108.614,96.333 107.561,91.754 106.983,90.804 106.742,89.004 106.285,88.119 
			105.76,85.161 105.273,83.638 104.621,88.396 104.361,95.249 103.05,97.231 101.69,97.703 100.126,97.601 97.974,94.841 
			98.919,88.226 99.778,74.941 100.052,72.756 101.062,64.421 102.519,63.808 104.979,64.344 107.193,68.126 107.425,69.982 
			108.202,71.352 109.876,76.576 110.773,69.173 110.883,65.966 112.428,64.291 115.612,64.357 116.397,66.956 116.565,70.632 
			116.916,74.157 115.588,86.456 115.202,95.181 113.967,97.298 112.585,98.139 		"/>
		<path d="M102.615,64.853l1.723,0.375l1.889,3.226l0.23,1.85l0.824,1.452l1.817,5.67l0.483,2.654l0.559,0.823l0.218,0.014
			l1.409-11.623l0.102-2.922l0.988-1.071l2.008,0.041l0.539,1.784l0.163,3.552l0.344,3.474l-1.317,12.196l-0.38,8.542l-0.983,1.685
			l-0.91,0.553l-1.44-0.051l-1.361-1.268l-1.022-4.437l-0.553-0.91l-0.236-1.765l-0.466-0.904l-0.511-2.875l-1.054-3.302
			l-0.486-0.601l-0.647,0.57l-0.915,6.672l-0.257,6.671l-0.971,1.467l-0.848,0.294l-0.914-0.059l-1.615-2.071l0.884-6.194
			l0.867-13.361l0.268-2.125l0.942-7.763L102.615,64.853 M102.422,62.764l-0.584,0.246l-0.629,0.265l-1.069,0.451L100,64.877
			l-0.942,7.763l-0.267,2.116l-0.008,0.06l-0.004,0.06l-0.862,13.284l-0.873,6.118l-0.12,0.842l0.523,0.671l1.615,2.071l0.552,0.708
			l0.896,0.058l0.914,0.059l0.403,0.026l0.381-0.132l0.848-0.294l0.64-0.222l0.374-0.565l0.971-1.467l0.309-0.467l0.022-0.56
			l0.232-6.029l0.17,0.33l0.19,1.421l0.056,0.416l0.218,0.358l0.385,0.634l0.949,4.122l0.137,0.597l0.448,0.418l1.361,1.268
			l0.547,0.509l0.747,0.026l1.44,0.051l0.598,0.021l0.511-0.311l0.91-0.553l0.433-0.263l0.255-0.438l0.983-1.685l0.249-0.426
			l0.022-0.493l0.377-8.479l1.31-12.134l0.022-0.206l-0.02-0.206l-0.339-3.422l-0.16-3.499l-0.011-0.249l-0.072-0.238l-0.539-1.784
			l-0.42-1.391l-1.453-0.03l-2.008-0.041l-0.901-0.019l-0.611,0.662l-0.988,1.071l-0.502,0.545l-0.026,0.741l-0.099,2.837
			l-0.337,2.781l-0.248-0.774l-0.063-0.197l-0.102-0.18l-0.628-1.107l-0.181-1.455l-0.051-0.408l-0.208-0.355l-1.889-3.226
			l-0.443-0.757l-0.857-0.187l-1.723-0.375L102.422,62.764L102.422,62.764z"/>
	</g>
	<g clip-path="url(#SVGID_2_)">
		<polygon fill="#FF00DB" points="116.379,102.62 114.977,100.123 117.286,84.79 119.393,75.375 120.139,70.383 121.176,68.444 
			122.06,67.303 124.366,66.336 128.77,67.723 133.038,68.327 133.633,69.975 134.979,70.152 134.658,72.645 132.854,73.502 
			126.123,73.09 126.036,73.141 124.948,78.503 124.7,80.122 124.975,81.688 125.123,81.869 130.722,83.015 132.12,85.696 
			130.759,88.493 128.9,89.198 123.457,88.573 122.955,89.544 122.982,93.508 122.361,95.35 122.08,97.336 126.599,97.714 
			128.993,98.088 130.619,99.195 131.552,101.192 130.927,103.016 128.88,104.553 		"/>
		<path d="M124.415,67.4l4.133,1.301l3.754,0.532l0.597,1.655l0.962,0.126l-0.124,0.962l-1.078,0.513l-6.78-0.415l-0.735,0.432
			l-1.176,5.799l-0.281,1.828l0.348,1.987l0.54,0.658l5.48,1.121L131,85.712l-0.967,1.987l-1.259,0.478l-5.888-0.676l-0.932,1.804
			l0.028,4.043l-0.597,1.77l-0.357,2.518l0.539,0.66l4.949,0.415l2.101,0.33l1.213,0.827l0.645,1.383l-0.395,1.151l-1.464,1.099
			l-11.604-1.794l-0.996-1.774l2.258-14.993l2.093-9.344l0.733-4.892l0.916-1.713l0.671-0.866L124.415,67.4 M124.318,65.273
			l-0.675,0.283l-1.727,0.723l-0.486,0.204l-0.323,0.417l-0.671,0.866l-0.103,0.133l-0.079,0.149l-0.916,1.713l-0.163,0.305
			l-0.051,0.342l-0.723,4.821l-2.077,9.275l-0.016,0.069l-0.011,0.07l-2.258,14.993l-0.102,0.679l0.336,0.598l0.996,1.774
			l0.476,0.849l0.962,0.149l11.604,1.794l0.833,0.129l0.674-0.506l1.464-1.099l0.491-0.369l0.199-0.581l0.395-1.151l0.262-0.764
			l-0.342-0.732l-0.645-1.383l-0.232-0.498l-0.454-0.309l-1.213-0.827l-0.372-0.253l-0.444-0.07l-2.101-0.33l-0.071-0.011
			l-0.072-0.006l-3.464-0.29l0.12-0.846l0.538-1.594l0.107-0.318l-0.002-0.336l-0.025-3.55l0.072-0.139l4.517,0.519l0.483,0.056
			l0.455-0.173l1.259-0.478l0.741-0.282l0.347-0.713l0.967-1.987l0.441-0.906l-0.466-0.894l-0.945-1.813l-0.44-0.844l-0.933-0.191
			l-4.586-0.938l-0.156-0.89l0.224-1.456l0.917-4.519l5.682,0.348l0.515,0.032l0.466-0.222l1.078-0.513l0.985-0.468l0.14-1.082
			l0.124-0.962l0.256-1.98l-1.733-0.227l-0.183-0.509l-0.409-1.133l-1.192-0.169l-3.591-0.509l-3.976-1.251L124.318,65.273
			L124.318,65.273z"/>
	</g>
	<g clip-path="url(#SVGID_2_)">
		<polygon fill="#FF00DB" points="160.669,131.789 156.641,129.48 152.41,125.188 150.255,121.1 151.324,113.013 154.697,111.042 
			158.834,112.336 160.563,115.941 160.442,119.319 163.603,122.032 166.788,121.979 169.64,118.931 170.778,114.239 
			171.279,110.493 170.203,106.065 169.646,105.165 161.32,102.335 157.518,98.774 155.064,94.753 154.362,89.729 156.112,76.809 
			160.012,71.325 165.457,67.587 170.606,66.512 176.995,67.968 180.681,70.275 183.166,75.029 183.452,78.744 181.973,79.902 
			181.54,83.229 179.533,84.693 177.707,84.573 174.006,78.402 173.51,77.664 168.716,77.965 165.824,83.67 165.617,89.814 
			165.468,91.228 168.467,94.541 174.111,96.558 178.362,102.827 177.274,115.375 178.191,117.357 177.057,125.818 172.631,130.953 
			167.462,132.032 163.062,132.062 		"/>
		<path d="M170.597,67.535l6.012,1.37l3.311,2.073l2.265,4.332l0.23,2.976l-1.38,1.081l-0.431,3.306l-1.367,0.998l-0.941-0.062
			l-3.432-5.722l-0.843-1.258l-5.939,0.373l-3.25,6.413l-0.214,6.365l-0.191,1.787l3.467,3.829l5.574,1.992l3.868,5.705
			l-1.08,12.459l0.906,1.958l-1.056,7.878l-4.011,4.653l-4.739,0.99l-4.241,0.029l-2.128-0.244l-3.73-2.138l-4.032-4.09
			l-1.938-3.676l0.964-7.287l2.569-1.501l3.301,1.032l1.435,2.991l-0.13,3.614l3.814,3.274l3.99-0.068l3.321-3.549l1.212-4.998
			l0.533-3.984l-1.159-4.765l-0.83-1.341l-8.461-2.876l-3.546-3.321l-2.275-3.728l-0.654-4.683l1.698-12.539l3.653-5.138
			l5.134-3.524L170.597,67.535 M170.615,65.488l-0.428,0.089l-4.739,0.99l-0.392,0.082l-0.33,0.227l-5.134,3.524l-0.293,0.201
			l-0.206,0.289l-3.653,5.138l-0.286,0.402l-0.066,0.489l-1.698,12.539l-0.037,0.273l0.038,0.272l0.654,4.683l0.057,0.411
			l0.216,0.354l2.275,3.728l0.142,0.232l0.199,0.186l3.546,3.321l0.315,0.295l0.409,0.139l7.781,2.645l0.285,0.46l0.995,4.091
			l-0.469,3.507l-1.064,4.385l-2.383,2.547l-2.382,0.041l-2.506-2.152l0.096-2.651l0.018-0.493l-0.213-0.444l-1.435-2.991
			l-0.376-0.784l-0.83-0.26l-3.301-1.032l-0.843-0.264l-0.763,0.446l-2.569,1.501l-0.845,0.494l-0.128,0.971l-0.964,7.287
			l-0.084,0.631l0.297,0.563l1.938,3.676l0.138,0.261l0.207,0.21l4.032,4.09l0.192,0.195l0.238,0.136l3.73,2.138l0.358,0.205
			l0.409,0.047l2.128,0.244l0.12,0.014l0.121-0.001l4.241-0.029l0.2-0.001l0.196-0.041l4.739-0.99l0.663-0.139l0.442-0.513
			l4.011-4.653l0.388-0.451l0.079-0.59l1.056-7.878l0.077-0.577l-0.244-0.528l-0.683-1.476l1.034-11.929l0.061-0.707l-0.398-0.588
			l-3.868-5.705l-0.367-0.541l-0.615-0.22l-5.101-1.823l-2.529-2.793l0.096-0.897l0.008-0.072l0.002-0.073l0.199-5.923l2.533-4.998
			l3.65-0.23l0.175,0.261l3.407,5.679l0.539,0.898l1.045,0.069l0.941,0.062l0.725,0.048l0.587-0.428l1.367-0.998l0.693-0.506
			l0.111-0.851l0.325-2.495l0.736-0.576l0.843-0.66l-0.082-1.068l-0.23-2.976l-0.032-0.409l-0.19-0.364l-2.265-4.332l-0.251-0.481
			l-0.46-0.288l-3.311-2.073l-0.287-0.18l-0.33-0.075l-6.012-1.37L170.615,65.488L170.615,65.488z"/>
	</g>
	<g clip-path="url(#SVGID_2_)">
		<polygon fill="#FF00DB" points="139.991,134.093 137.692,133.812 133.842,131.562 129.817,127.411 127.777,123.464 
			128.869,115.696 132.147,113.817 136.134,115.1 137.772,118.59 137.631,121.813 140.606,124.411 143.622,124.385 146.354,121.51 
			147.479,117.042 147.985,113.471 146.993,109.238 146.479,108.392 138.538,105.619 134.915,102.171 132.59,98.29 131.956,93.46 
			133.734,81.091 137.521,75.858 142.776,72.314 147.73,71.321 153.851,72.77 157.376,75.016 159.727,79.604 159.974,83.193 
			158.545,84.294 158.104,87.475 156.145,88.882 154.36,88.75 150.854,82.794 150.4,82.106 145.857,82.354 143.061,87.762 
			142.814,93.632 142.663,94.968 145.487,98.14 150.878,100.117 154.913,106.176 153.773,118.182 154.636,120.086 153.48,128.201 
			149.185,133.103 144.211,134.099 		"/>
		<path d="M147.713,72.344l5.744,1.359l3.153,2.01l2.134,4.164l0.197,2.85l-1.329,1.024l-0.438,3.161l-1.316,0.945l-0.9-0.067
			l-3.24-5.504l-0.797-1.211l-5.688,0.311L142.07,87.5l-0.255,6.091l-0.196,1.709l3.288,3.693l5.319,1.951l3.658,5.491
			l-1.131,11.917l0.852,1.882l-1.072,7.533l-3.876,4.422l-4.544,0.911l-4.059-0.005l-2.035-0.25l-3.554-2.076l-3.827-3.947
			l-1.826-3.533l0.979-6.967l2.47-1.417l3.151,1.014l1.35,2.875l-0.153,3.458l3.625,3.164l3.819-0.034l3.207-3.371l1.2-4.774
			l0.542-3.809l-1.072-4.57l-0.784-1.29l-8.076-2.819l-3.368-3.206l-2.148-3.586l-0.589-4.488l1.723-11.989l3.537-4.89l4.942-3.333
			L147.713,72.344 M147.748,70.298l-0.428,0.086l-4.544,0.911l-0.393,0.079l-0.332,0.224l-4.942,3.333l-0.294,0.198l-0.208,0.288
			l-3.537,4.89l-0.289,0.4l-0.07,0.488l-1.723,11.989l-0.039,0.272l0.036,0.273l0.589,4.488l0.054,0.411l0.213,0.356l2.148,3.586
			l0.14,0.233l0.197,0.188l3.368,3.206l0.313,0.298l0.407,0.142l7.398,2.582l0.246,0.404l0.913,3.895l-0.474,3.333l-1.046,4.163
			l-2.26,2.376l-2.212,0.02l-2.327-2.031l0.11-2.496l0.022-0.492l-0.21-0.446l-1.35-2.875l-0.37-0.787l-0.828-0.266L132.874,113
			l-0.841-0.271l-0.766,0.439l-2.47,1.417l-0.849,0.487l-0.136,0.97l-0.979,6.967l-0.089,0.631l0.292,0.566l1.826,3.533l0.136,0.262
			l0.205,0.212l3.827,3.947l0.191,0.197l0.236,0.138l3.554,2.076l0.356,0.208l0.409,0.05l2.035,0.25l0.12,0.015l0.121,0l4.059,0.005
			l0.2,0l0.196-0.039l4.544-0.911l0.664-0.133l0.447-0.51l3.876-4.422l0.392-0.447l0.084-0.589l1.072-7.533l0.082-0.576l-0.24-0.53
			l-0.633-1.397l1.081-11.388l0.067-0.707l-0.394-0.591l-3.658-5.491l-0.362-0.544l-0.614-0.225l-4.848-1.778l-2.359-2.649
			l0.094-0.82l0.008-0.072l0.003-0.073l0.236-5.649l2.432-4.704l3.397-0.186l0.137,0.209l3.215,5.461l0.531,0.902l1.044,0.078
			l0.9,0.067l0.724,0.054l0.59-0.424l1.316-0.945l0.697-0.5l0.118-0.85l0.326-2.351l0.681-0.524l0.849-0.654l-0.074-1.069
			l-0.197-2.85l-0.028-0.409l-0.187-0.365l-2.134-4.164l-0.247-0.483l-0.457-0.292l-3.153-2.01l-0.285-0.182l-0.329-0.078
			l-5.744-1.359L147.748,70.298L147.748,70.298z"/>
	</g>
</g>
</svg>
