<?xml version="1.0" encoding="utf-8"?>
<!-- Generator: Adobe Illustrator 21.0.2, SVG Export Plug-In . SVG Version: 6.00 Build 0)  -->
<svg version="1.1" xmlns="http://www.w3.org/2000/svg" xmlns:xlink="http://www.w3.org/1999/xlink" x="0px" y="0px" width="200px"
	 height="200px" viewBox="0 0 200 200" enable-background="new 0 0 200 200" xml:space="preserve">
<g id="head">
	<path fill="#DF7E56" stroke="#9E493D" stroke-miterlimit="10" d="M56,70c-3.934,3.014-6.25,2.75-6.5,6.75s-1.5,12.5,0,15.5
		s1.25,12.5,6.5,13.25c0,0,3,11,3.5,15.75s-3.25,16.5,0,19.75s37,40.346,37,40.346L109,194.5c0,0,7.928,1.31,8.454,0.772
		C117.979,194.733,132,158.25,132,158.25s-2.984-22.083,0.25-31.083c0,0,0.375-15.167,5.375-21.792s0.129-7.25,0.877-11.5
		S142.25,77,140.5,69.125s-9.5-39.25-9.5-39.25L66.125,19.25L57,48.75L56,70z"/>
	<path fill="none" stroke="#9E493D" stroke-linecap="round" stroke-miterlimit="10" d="M66.667,100.5c0,0-0.333,8,4.833,12.5
		s7.667,9.333,8.833,12.5c1.167,3.167,2.208,10.167,7.104,11.833c4.896,1.667,14.229,6.833,21.396,2.833c7.167-4,5-7.333,9.167-14.5
		s8.333-8.833,10.167-22"/>
	<path fill="none" stroke="#9E493D" stroke-linecap="round" stroke-miterlimit="10" d="M87.167,84.333c0,0-17.333,14.5-13.5,23.167"
		/>
	<path fill="none" stroke="#9E493D" stroke-linecap="round" stroke-miterlimit="10" d="M109.5,84.333c0,0-1,1.333,6.167,7.167
		c7.167,5.833,10.276,8.167,9.388,12.333"/>
	<path fill="none" stroke="#9E493D" stroke-linecap="round" stroke-miterlimit="10" d="M58,77c0,0,2.167,6.833,0,9.333
		S55.833,93,57.333,95.167c1.5,2.167-0.553,9.333-1.333,10.333"/>
	<path fill="none" stroke="#9E493D" stroke-linecap="round" stroke-miterlimit="10" d="M137.667,71.333c0,0-0.75,10.75-1.917,13.75
		s-0.263,17.164,1.07,21.497"/>
	<path fill="#E5615F" d="M100,106.417c2.667-0.25,2.833-3.833,7.5-1.417s11.583,1.75,11.583,1.75s2.193,0.833-7.333,1.583
		c-4.441,0.35-7.333,1.399-11.667,1.418c-4.333,0.019-7.225-1.069-11.667-1.418c-9.527-0.75-7.333-1.583-7.333-1.583
		S88,107.417,92.667,105C97.333,102.583,97.333,106.667,100,106.417z"/>
	<g>
		<path fill="#FFFFFF" d="M100.733,119.29c-8.868,0-16.421-7.516-20.299-12.25c3.654,1.449,9.527,3.079,17.458,3.079
			c0.954,0,1.929-0.024,2.898-0.072c9.021-0.444,14.608-2.042,17.784-3.364C115.835,111.319,109.805,119.29,100.733,119.29z"/>
		<path fill="#E5615F" d="M115.759,108.912c-3.058,4.247-8.115,9.223-15.026,9.223c-6.614,0-12.521-4.494-16.561-8.639
			c3.555,0.984,8.149,1.779,13.721,1.779c0.973,0,1.967-0.025,2.954-0.074C107.51,110.872,112.346,109.931,115.759,108.912
			 M121.333,103.888c0,0-5.006,4.236-20.601,5.006c-0.975,0.048-1.922,0.071-2.84,0.071c-13.78,0-21.226-5.076-21.226-5.076
			s10.397,16.557,24.066,16.557S121.333,103.888,121.333,103.888L121.333,103.888z"/>
	</g>
</g>
<g id="hair">
	<path fill="#EAC66C" d="M59.75,83.25C62,71,59.25,67,64,62.75s-5.75-8.5-2.625-17.5S64.75,27,71.75,26.25s12.118,1.75,18.434,2
		C96.5,28.5,109,34,115.25,34.5s15,3.75,16.75,11s1,20,3.5,23.5s0,13.25,0,13.25s7.25-10,6.75-15.75s1.254-26-3.748-34
		s-4.97-11.25-8.236-13S115.275,4,100.512,6.25S81.25,9,75.25,9.25s-15.25,3-16.5,6s-0.278,6-5.014,8.75S47.75,49.75,49,50.5
		s2.5,2.75,0.75,5.5s-2,13,0,14.5S59.75,83.25,59.75,83.25z"/>
</g>
<g id="collar">
	<path fill="#F4948D" stroke="#CC6562" stroke-miterlimit="10" d="M108,196c2.221,0.453,7-0.833,4.833-1.5
		c-2.167-0.667-10.333-25.667-11.333-28.667s0.333-13.5-11.333-13.833s-27.333-14.333-28.833-16.667
		c-1.5-2.333,0.167-7.17-2.667-7.167c-4.836,0.006-3.167,5.5-3.167,5.5c0.667,5.5-2.333,10.5-1.667,12
		c0.667,1.5,21.667,21.667,25.833,29C83.833,182,84.167,188.833,86,187c0.755-0.755,1.483-2.869,2.065-5.654
		C88.065,181.346,99.833,194.333,108,196z"/>
	<path fill="none" stroke="#CC6562" stroke-miterlimit="10" d="M88.065,181.346c0,0-3.204-30.722,4.865-29.034"/>
	<path fill="#F4948D" stroke="#CC6562" stroke-miterlimit="10" d="M116.333,194.5c0,0,7.333-20.5,7-25.667
		c-0.042-0.646-0.151-1.203-0.302-1.697c-1.057-3.454-4.156-3.783-0.365-9.47c4.333-6.5,10.079-19.5,8.412-23.833
		c-1.667-4.333,7.588,7.333,7.421,11.5c-0.167,4.167-0.333,22.333-7.667,29.333c-7.333,7-10.333,12.833-11.167,16.333
		C118.833,194.5,116.5,197,116.333,194.5z"/>
	<path fill="none" stroke="#CC6562" stroke-miterlimit="10" d="M138.373,148.676c0,0,1.46-10.51-6.54,0
		c-4.33,5.688-4.391,13.185-9.779,16.421"/>
</g>
</svg>
