<?xml version="1.0" encoding="utf-8"?>
<!-- Generator: Adobe Illustrator 22.0.0, SVG Export Plug-In . SVG Version: 6.00 Build 0)  -->
<svg version="1.1" id="Layer_1" xmlns="http://www.w3.org/2000/svg" xmlns:xlink="http://www.w3.org/1999/xlink" x="0px" y="0px"
	 width="15px" height="15px" viewBox="0 0 15 15" enable-background="new 0 0 15 15" xml:space="preserve">
<path opacity="0.8" fill="#231F20" d="M7.712,1.622c-3.29,0-5.957,2.667-5.957,5.957c0,3.29,2.667,5.957,5.957,5.957
	S13.67,10.87,13.67,7.58C13.67,4.289,11.002,1.622,7.712,1.622z M10.963,9.23c0.44,0.44,0.44,1.16,0,1.601
	c-0.44,0.44-1.16,0.44-1.601,0l-1.65-1.65l-1.65,1.65c-0.44,0.44-1.16,0.44-1.601,0c-0.44-0.44-0.44-1.161,0-1.601l1.65-1.65
	l-1.65-1.65c-0.44-0.44-0.44-1.16,0-1.601c0.44-0.44,1.16-0.44,1.601,0l1.65,1.65l1.65-1.65c0.44-0.44,1.16-0.44,1.601,0
	c0.44,0.44,0.44,1.16,0,1.601l-1.65,1.65L10.963,9.23z"/>
<circle fill="#FFFFFF" cx="7.288" cy="7.42" r="5.029"/>
<g>
	<path fill="#FF0000" d="M7.288,1.463c-3.29,0-5.957,2.667-5.957,5.957c0,3.29,2.667,5.957,5.957,5.957s5.957-2.667,5.957-5.957
		C13.245,4.13,10.578,1.463,7.288,1.463z M10.538,9.07c0.44,0.44,0.44,1.16,0,1.601c-0.44,0.44-1.16,0.44-1.601,0l-1.65-1.65
		l-1.65,1.65c-0.44,0.44-1.16,0.44-1.601,0c-0.44-0.44-0.44-1.161,0-1.601l1.65-1.65l-1.65-1.65c-0.44-0.44-0.44-1.16,0-1.601
		c0.44-0.44,1.16-0.44,1.601,0l1.65,1.65l1.65-1.65c0.44-0.44,1.16-0.44,1.601,0c0.44,0.44,0.44,1.16,0,1.601l-1.65,1.65
		L10.538,9.07z"/>
</g>
</svg>
