<?xml version="1.0" encoding="utf-8"?>
<!-- Generator: Adobe Illustrator 22.0.0, SVG Export Plug-In . SVG Version: 6.00 Build 0)  -->
<svg version="1.1" id="Layer_2" xmlns="http://www.w3.org/2000/svg" xmlns:xlink="http://www.w3.org/1999/xlink" x="0px" y="0px"
	 width="200px" height="200px" viewBox="0 0 200 200" enable-background="new 0 0 200 200" xml:space="preserve">
<g>
	<g>
		<g>
			<path stroke="#000000" stroke-linecap="round" stroke-linejoin="round" stroke-miterlimit="10" d="M42.041,44.509H30.55V31.541
				h38.248v12.968H57.307v45.635H42.041V44.509z"/>
			<path stroke="#000000" stroke-linecap="round" stroke-linejoin="round" stroke-miterlimit="10" d="M71.801,38.764h13.385v18.854
				h8.203V38.764h13.385v51.38H93.389V68.988h-8.203v21.156H71.801V38.764z"/>
			<path stroke="#000000" stroke-linecap="round" stroke-linejoin="round" stroke-miterlimit="10" d="M113.103,38.764h30.439v10.938
				h-17.055v8.779h15.976v10.506h-15.976v10.218h17.702v10.938h-31.087V38.764z"/>
		</g>
		<g>
			<path stroke="#000000" stroke-linecap="round" stroke-linejoin="round" stroke-miterlimit="10" d="M34.325,104.502h34.719v12.477
				H49.592v10.012h18.221v11.984H49.592v24.131H34.325V104.502z"/>
			<path stroke="#000000" stroke-linecap="round" stroke-linejoin="round" stroke-miterlimit="10" d="M72.856,111.725h13.385v51.381
				H72.856V111.725z"/>
			<path stroke="#000000" stroke-linecap="round" stroke-linejoin="round" stroke-miterlimit="10" d="M92.068,111.725h14.968
				l8.636,31.664h0.144v-31.664h12.521v51.381h-14.681l-8.923-31.734h-0.144v31.734H92.068V111.725z"/>
			<path stroke="#000000" stroke-linecap="round" stroke-linejoin="round" stroke-miterlimit="10" d="M134.162,111.725h13.385
				v19.719h0.145l9.931-19.719h14.248l-12.953,22.453l14.536,28.928h-15.256l-7.844-17.918l-2.807,4.316v13.602h-13.385V111.725z"/>
		</g>
	</g>
	<g>
		<path d="M14.167,26.5h-2.304c-1.116-3.24,5.798-6.873,0.971-5.667C7.5,22.167,7.167,27.5,7.167,27.5v4.083v4.083
			c0,0.55,0.45,1,1,1h6c0.55,0,1-0.45,1-1V27.5C15.167,26.95,14.717,26.5,14.167,26.5z"/>
		<path d="M25.858,26.5h-2.304c-1.116-3.24,5.798-6.873,0.971-5.667c-5.333,1.333-5.667,6.667-5.667,6.667v4.083v4.083
			c0,0.55,0.45,1,1,1h6c0.55,0,1-0.45,1-1V27.5C26.858,26.95,26.408,26.5,25.858,26.5z"/>
	</g>
	<g>
		<path d="M187.192,115.583h2.304c1.116,3.24-5.798,6.873-0.971,5.667c5.333-1.333,5.667-6.667,5.667-6.667V110.5v-4.083
			c0-0.55-0.45-1-1-1h-6c-0.55,0-1,0.45-1,1v8.167C186.192,115.133,186.642,115.583,187.192,115.583z"/>
		<path d="M175.5,115.583h2.304c1.116,3.24-5.798,6.873-0.971,5.667c5.333-1.333,5.667-6.667,5.667-6.667V110.5v-4.083
			c0-0.55-0.45-1-1-1h-6c-0.55,0-1,0.45-1,1v8.167C174.5,115.133,174.95,115.583,175.5,115.583z"/>
	</g>
</g>
<g>
	<g>
		<g>
			<path fill="#FFF200" stroke="#FFF200" stroke-linecap="round" stroke-linejoin="round" stroke-miterlimit="10" d="M40.041,42.509
				H28.55V29.541h38.248v12.968H55.307v45.635H40.041V42.509z"/>
			<path fill="#FFF200" stroke="#FFF200" stroke-linecap="round" stroke-linejoin="round" stroke-miterlimit="10" d="M69.801,36.764
				h13.385v18.854h8.203V36.764h13.385v51.38H91.389V66.988h-8.203v21.156H69.801V36.764z"/>
			<path fill="#FFF200" stroke="#FFF200" stroke-linecap="round" stroke-linejoin="round" stroke-miterlimit="10" d="
				M111.103,36.764h30.439v10.938h-17.055v8.779h15.976v10.506h-15.976v10.218h17.702v10.938h-31.087V36.764z"/>
		</g>
		<g>
			<path fill="#FFF200" stroke="#FFF200" stroke-linecap="round" stroke-linejoin="round" stroke-miterlimit="10" d="
				M32.325,102.502h34.719v12.477H47.592v10.012h18.221v11.984H47.592v24.131H32.325V102.502z"/>
			<path fill="#FFF200" stroke="#FFF200" stroke-linecap="round" stroke-linejoin="round" stroke-miterlimit="10" d="
				M70.856,109.725h13.385v51.381H70.856V109.725z"/>
			<path fill="#FFF200" stroke="#FFF200" stroke-linecap="round" stroke-linejoin="round" stroke-miterlimit="10" d="
				M90.068,109.725h14.968l8.636,31.664h0.144v-31.664h12.521v51.381h-14.681l-8.923-31.734h-0.144v31.734H90.068V109.725z"/>
			<path fill="#FFF200" stroke="#FFF200" stroke-linecap="round" stroke-linejoin="round" stroke-miterlimit="10" d="
				M132.162,109.725h13.385v19.719h0.145l9.931-19.719h14.248l-12.953,22.453l14.536,28.928h-15.256l-7.844-17.918l-2.807,4.316
				v13.602h-13.385V109.725z"/>
		</g>
	</g>
	<g>
		<path fill="#FFF200" d="M12.167,24.5H9.862c-1.116-3.24,5.798-6.873,0.971-5.667C5.5,20.167,5.167,25.5,5.167,25.5v4.083v4.083
			c0,0.55,0.45,1,1,1h6c0.55,0,1-0.45,1-1V25.5C13.167,24.95,12.717,24.5,12.167,24.5z"/>
		<path fill="#FFF200" d="M23.858,24.5h-2.304c-1.116-3.24,5.798-6.873,0.971-5.667c-5.333,1.333-5.667,6.667-5.667,6.667v4.083
			v4.083c0,0.55,0.45,1,1,1h6c0.55,0,1-0.45,1-1V25.5C24.858,24.95,24.408,24.5,23.858,24.5z"/>
	</g>
	<g>
		<path fill="#FFF200" d="M185.192,113.583h2.304c1.116,3.24-5.798,6.873-0.971,5.667c5.333-1.333,5.667-6.667,5.667-6.667V108.5
			v-4.083c0-0.55-0.45-1-1-1h-6c-0.55,0-1,0.45-1,1v8.167C184.192,113.133,184.642,113.583,185.192,113.583z"/>
		<path fill="#FFF200" d="M173.5,113.583h2.304c1.116,3.24-5.798,6.873-0.971,5.667c5.333-1.333,5.667-6.667,5.667-6.667V108.5
			v-4.083c0-0.55-0.45-1-1-1h-6c-0.55,0-1,0.45-1,1v8.167C172.5,113.133,172.95,113.583,173.5,113.583z"/>
	</g>
</g>
</svg>
