<?xml version="1.0" encoding="utf-8"?>
<!-- Generator: Adobe Illustrator 21.0.2, SVG Export Plug-In . SVG Version: 6.00 Build 0)  -->
<svg version="1.1" xmlns="http://www.w3.org/2000/svg" xmlns:xlink="http://www.w3.org/1999/xlink" x="0px" y="0px" width="200px"
	 height="200px" viewBox="0 0 200 200" enable-background="new 0 0 200 200" xml:space="preserve">
<g id="Layer_1">
	<rect fill="#FFFFFF" width="200" height="200"/>
	<polyline fill="#D11D23" points="200,80 110,80 110,0 90,0 90,80 0,80 0,120 90,120 90,200 110,200 110,120 200,120 	"/>
	<path fill="#D11D23" d="M133.333,133.333h14.907L200,185.093V200 M66.667,66.667H51.759L0,14.907V0L66.667,66.667z M66.667,133.333
		h14.907L14.907,200H0L66.667,133.333z M133.333,66.667h-14.907L185.093,0H200L133.333,66.667z"/>
	<path fill="#00305C" d="M0,133.333v44.306l44.306-44.306 M200,133.333v44.306l-44.306-44.306H200z M0,66.667V22.361l44.306,44.306
		H0z M200,66.667V22.361l-44.306,44.306H200z M83.333,200v-60.973L22.361,200H83.333z M116.667,200v-60.973L177.639,200H116.667z
		 M83.333,0v60.973L22.361,0H83.333z M116.667,0v60.973L177.639,0H116.667z"/>
</g>
<g id="Layer_2">
	<g>
		<path fill="#FFFFFF" d="M6.573,86.311h16.504c2.886,0,5.161,0.587,6.827,1.759c1.665,1.173,2.499,2.898,2.499,5.173
			c0,1.126-0.211,2.088-0.634,2.885c-0.422,0.798-0.939,1.455-1.548,1.971c-0.61,0.516-1.249,0.915-1.918,1.196
			c-0.669,0.282-1.249,0.47-1.742,0.563v0.352c0.516,0.047,1.149,0.158,1.9,0.334c0.751,0.176,1.466,0.493,2.147,0.95
			c0.68,0.457,1.261,1.091,1.742,1.9c0.48,0.809,0.721,1.871,0.721,3.185c0,1.314-0.27,2.423-0.809,3.326
			c-0.54,0.903-1.267,1.636-2.182,2.199c-0.915,0.563-1.977,0.968-3.185,1.214c-1.209,0.246-2.481,0.369-3.818,0.369H6.573v-5.771
			h2.111V92.082H6.573V86.311z M20.437,97.853c0.68,0,1.19-0.176,1.531-0.528c0.34-0.352,0.51-0.927,0.51-1.724v-1.267
			c0-0.797-0.17-1.372-0.51-1.724c-0.34-0.352-0.851-0.528-1.531-0.528h-1.9v5.771H20.437z M20.684,107.918
			c0.68,0,1.19-0.176,1.531-0.528c0.34-0.352,0.51-0.927,0.51-1.724v-1.548c0-0.797-0.171-1.372-0.51-1.724
			c-0.34-0.352-0.851-0.528-1.531-0.528h-2.147v6.053H20.684z"/>
		<path fill="#FFFFFF" d="M59.357,103.871c0,1.9-0.264,3.501-0.792,4.803c-0.528,1.302-1.285,2.364-2.27,3.185
			c-0.985,0.822-2.176,1.414-3.572,1.777c-1.396,0.364-2.95,0.545-4.663,0.545c-1.759,0-3.349-0.182-4.768-0.545
			c-1.42-0.364-2.628-0.956-3.625-1.777c-0.997-0.821-1.772-1.882-2.323-3.185c-0.551-1.302-0.827-2.903-0.827-4.803V92.082h-2.111
			v-5.771H47.78v5.771h-1.408v13.583c0,0.798,0.17,1.372,0.51,1.724c0.34,0.352,0.85,0.528,1.531,0.528
			c0.68,0,1.19-0.176,1.531-0.528c0.34-0.352,0.51-0.927,0.51-1.724V92.082h-1.407v-5.771h12.422v5.771h-2.111V103.871z"/>
		<path fill="#FFFFFF" d="M62.524,86.311h15.202v5.771h-3.237v15.835h3.167v-3.237h7.003v9.008H62.524v-5.771h2.111V92.082h-2.111
			V86.311z"/>
		<path fill="#FFFFFF" d="M86.136,86.311h15.202v5.771H98.1v15.835h3.167v-3.237h7.003v9.008H86.136v-5.771h2.111V92.082h-2.111
			V86.311z"/>
		<path fill="#FFFFFF" d="M109.818,86.311h14.639c1.806,0,3.489,0.229,5.05,0.686c1.56,0.458,2.915,1.226,4.064,2.305
			c1.149,1.079,2.053,2.493,2.71,4.24c0.656,1.748,0.985,3.901,0.985,6.457c0,2.581-0.329,4.739-0.985,6.475
			c-0.657,1.736-1.56,3.144-2.71,4.223c-1.15,1.08-2.504,1.848-4.064,2.305c-1.56,0.458-3.244,0.686-5.05,0.686h-14.639v-5.771
			h2.111V92.082h-2.111V86.311z M123.823,107.918c0.797,0,1.395-0.205,1.795-0.616c0.399-0.41,0.598-1.073,0.598-1.988V94.686
			c0-0.915-0.211-1.578-0.634-1.988c-0.422-0.41-1.009-0.616-1.759-0.616h-2.041v15.835H123.823z"/>
		<path fill="#FFFFFF" d="M165.487,100c0,2.581-0.317,4.768-0.95,6.563c-0.634,1.795-1.531,3.255-2.692,4.381
			c-1.161,1.126-2.575,1.948-4.24,2.463c-1.666,0.516-3.519,0.774-5.56,0.774c-2.041,0-3.895-0.258-5.56-0.774
			c-1.666-0.516-3.079-1.337-4.24-2.463c-1.161-1.126-2.059-2.586-2.692-4.381c-0.634-1.795-0.95-3.982-0.95-6.563
			c0-2.557,0.317-4.738,0.95-6.545c0.633-1.806,1.531-3.273,2.692-4.399s2.574-1.947,4.24-2.463c1.665-0.516,3.519-0.774,5.56-0.774
			c2.041,0,3.894,0.258,5.56,0.774c1.665,0.516,3.079,1.337,4.24,2.463c1.161,1.126,2.059,2.593,2.692,4.399
			C165.171,95.262,165.487,97.443,165.487,100z M152.045,107.918c0.797,0,1.395-0.205,1.795-0.616
			c0.399-0.41,0.598-1.073,0.598-1.988V94.686c0-0.915-0.2-1.578-0.598-1.988c-0.399-0.41-0.997-0.616-1.795-0.616
			c-0.798,0-1.396,0.206-1.795,0.616c-0.399,0.411-0.598,1.073-0.598,1.988v10.627c0,0.915,0.199,1.578,0.598,1.988
			C150.649,107.712,151.247,107.918,152.045,107.918z"/>
		<path fill="#FFFFFF" d="M180.97,99.648h12.457v5.243h-1.759v7.038c-0.54,0.258-1.167,0.522-1.882,0.792
			c-0.716,0.27-1.537,0.51-2.463,0.721c-0.927,0.211-1.965,0.387-3.114,0.528c-1.149,0.141-2.428,0.211-3.836,0.211
			c-2.111,0-4.012-0.258-5.701-0.774c-1.689-0.516-3.126-1.337-4.311-2.463c-1.185-1.126-2.094-2.586-2.727-4.381
			c-0.634-1.795-0.95-3.982-0.95-6.563c0-2.557,0.317-4.738,0.95-6.545c0.633-1.806,1.536-3.273,2.71-4.399
			c1.173-1.126,2.604-1.947,4.293-2.463c1.689-0.516,3.577-0.774,5.666-0.774c1.431,0,2.727,0.07,3.888,0.211
			c1.162,0.141,2.205,0.323,3.132,0.545c0.926,0.223,1.747,0.47,2.463,0.739c0.715,0.27,1.343,0.534,1.882,0.792v8.41h-8.797v-1.654
			c0-1.008-0.206-1.724-0.616-2.147c-0.411-0.422-1.062-0.633-1.953-0.633c-0.892,0-1.543,0.211-1.953,0.633
			c-0.411,0.422-0.616,1.138-0.616,2.147v10.276c0,1.009,0.205,1.724,0.616,2.146c0.41,0.422,1.061,0.634,1.953,0.634
			c0.891,0,1.542-0.211,1.953-0.634c0.41-0.422,0.616-1.137,0.616-2.146v-0.246h-1.901V99.648z"/>
	</g>
</g>
</svg>
