<?xml version="1.0" encoding="utf-8"?>
<!-- Generator: Adobe Illustrator 21.0.2, SVG Export Plug-In . SVG Version: 6.00 Build 0)  -->
<svg version="1.1" xmlns="http://www.w3.org/2000/svg" xmlns:xlink="http://www.w3.org/1999/xlink" x="0px" y="0px"
	 width="201.096px" height="200px" viewBox="0 0 201.096 200" enable-background="new 0 0 201.096 200" xml:space="preserve">
<g id="ear">
	<path fill="#F1DBCB" stroke="#CEA28B" stroke-width="0.3662" stroke-miterlimit="10" d="M60.576,95.439
		c0,0-6.104-14.649-9.033-13.428s-5.371,0.692-1.465,19.512s2.686,23.458,16.846,27.12"/>
	<path fill="none" stroke="#CEA28B" stroke-width="0.3662" stroke-miterlimit="10" d="M51.298,97.392c0,0,0.988-7.344-0.977-10.01
		c-1.964-2.666,4.639,0,11.475,12.451"/>
	<path fill="none" stroke="#CEA28B" stroke-width="0.3662" stroke-miterlimit="10" d="M51.253,99.528c0,0,0.641,7.645,7.37,10.163"
		/>
</g>
<g id="head">
	<path fill="#F1DBCB" stroke="#CEA28B" stroke-width="0.3662" stroke-miterlimit="10" d="M58.867,98.857
		c0,0,2.441,17.09,2.686,20.264c0.244,3.174,7.08,22.217,7.08,24.171c0,1.953,1.465,18.555,0,20.752
		c-1.465,2.197,31.251,26.856,40.04,30.762c8.789,3.906,27.589-11.231,30.274-14.405s16.114-21.241,19.288-34.913
		c3.174-13.672,2.93-23.682,1.709-34.913s-2.197-35.89-2.441-41.749c-0.244-5.86-5.371-34.913-25.391-50.05
		S94.757,7.302,86.7,10.231S47.636,25.613,58.867,98.857z"/>
	<path fill="#1E0800" d="M101.946,92.291c-19.025-13.849-29.738,0.275-29.738,0.275s5.895-4.643,11.522-2.146
		C89.358,92.916,107.871,96.604,101.946,92.291z"/>
	<path fill="#1E0800" d="M151.219,84.387c-5.392-14.997-24.277,7.54-24.277,7.54s4.89,4.283,15.444-6.591
		C148.477,79.059,151.219,84.387,151.219,84.387z"/>
	<path fill="none" stroke="#CEA28B" stroke-width="0.3662" stroke-miterlimit="10" d="M70.098,146.465
		c0,0,17.09,40.284,44.923,37.843s30.77-13.34,30.77-13.34"/>
	<path fill="none" stroke="#CEA28B" stroke-width="0.3662" stroke-miterlimit="10" d="M98.419,167.706
		c0,0,10.254,12.451,27.344,10.742s21.485-25.88,21.485-25.88"/>
	<path fill="none" stroke="#CEA28B" stroke-width="0.3662" stroke-miterlimit="10" d="M112.335,172.589
		c0,0,16.846,8.789,24.659-5.615"/>
	<path fill="none" stroke="#CEA28B" stroke-width="0.3662" stroke-miterlimit="10" d="M104.767,114.726
		c0,0-10.254,14.649-13.428,16.358c-3.174,1.709,0.977,11.475,0.977,11.475"/>
	<path fill="none" stroke="#CEA28B" stroke-width="0.3662" stroke-miterlimit="10" d="M129.67,113.017c0,0,6.348,8.301,11.719,10.01
		c5.371,1.709,9.033,3.174,5.86,9.033"/>
</g>
<g id="hair">
	<path fill="#1E0800" d="M60.454,104.609c0,0-6.559-13.579-9.201-17.075s-4.555-42.207,3.685-54.109S75.041,16.8,75.041,16.8
		s-14.038,19.921-14.77,36.584S58.806,100.718,60.454,104.609z"/>
	<path fill="#1E0800" d="M126.943,15.238c0,0,10.051,16.479,15.666,21.85s14.215,13.136,16.263,59.792
		c0,0,3.241-16.334,1.912-25.123s-4.015-11.231-3.771-19.043S148.143,18.535,126.943,15.238z"/>
	<path opacity="0.1" fill="#1E0800" d="M117.951,11.452c-7.324,14.649-15.015,15.381-19.593,15.015
		c-4.578-0.366-17.212-13.733-17.212-13.733s4.212-5.951,19.593-5.768S117.951,11.452,117.951,11.452z"/>
</g>
<g id="mouth">
	<polygon fill="#FFFFFF" points="97.455,140.362 138.459,135.601 126.007,146.465 111.298,147.564 	"/>
	
		<path fill="#DB9C94" stroke="#CB8C84" stroke-width="0.3662" stroke-linecap="round" stroke-linejoin="round" stroke-miterlimit="10" d="
		M97.455,140.362c0,0,4.936,3.296,11.16,3.845c6.223,0.549,9.336,1.282,12.266,0.916c2.93-0.366,9.705-4.761,11.536-5.31
		s4.395-3.845,6.043-4.212s-2.564,13.184-16.846,15.564C107.33,153.545,97.455,140.362,97.455,140.362z"/>
	
		<path fill="#DB9C94" stroke="#CB8C84" stroke-width="0.3662" stroke-linecap="round" stroke-linejoin="round" stroke-miterlimit="10" d="
		M119.873,136.974c1.465-0.732,6.043-0.183,9.796-0.916s8.789-0.458,8.789-0.458s-5.86,2.197-8.331,2.197
		c-2.472,0-10.256,1.984-10.256,1.984c-2.38,0.549-5.217,0.03-10.344,0.579c-5.127,0.549-12.073,0-12.073,0s-0.013-0.366,1.91-0.458
		s15.423-3.168,18.76-2.38C119.097,137.753,119.873,136.974,119.873,136.974z"/>
</g>
</svg>
