<?xml version="1.0" encoding="utf-8"?>
<!-- Generator: Adobe Illustrator 21.0.2, SVG Export Plug-In . SVG Version: 6.00 Build 0)  -->
<svg version="1.1" id="millertime" xmlns="http://www.w3.org/2000/svg" xmlns:xlink="http://www.w3.org/1999/xlink" x="0px" y="0px"
	 width="200px" height="200px" viewBox="0 0 200 200" enable-background="new 0 0 200 200" xml:space="preserve">
<g>
	<path fill-rule="evenodd" clip-rule="evenodd" fill="#FFC130" d="M190.874,95.716c0,50.188-40.687,90.874-90.873,90.874
		c-50.188,0-90.874-40.687-90.874-90.874c0-51.418,42.102-90.452,92.058-90.529C149.954,5.113,190.874,46.163,190.874,95.716
		L190.874,95.716z"/>
	<path fill-rule="evenodd" clip-rule="evenodd" fill="#FFFFFF" d="M100.001,14.87c44.65,0,80.846,36.196,80.846,80.846
		c0,44.651-36.196,80.85-80.846,80.85c-44.651,0-80.846-36.199-80.846-80.85C19.155,51.066,55.35,14.87,100.001,14.87L100.001,14.87
		z"/>
	<path fill="#D1705D" d="M100.001,172.843h0.008c21.435-0.001,40.843-8.636,54.887-22.593c14.04-13.951,22.727-33.228,22.73-54.517
		v-0.017v-0.008c-0.001-21.293-8.691-40.574-22.736-54.528c-14.042-13.95-33.444-22.582-54.873-22.585h-0.017h-0.008
		c-21.434,0.001-40.841,8.635-54.886,22.591c-14.04,13.951-22.728,33.227-22.732,54.513v0.017v0.008
		c0.001,21.294,8.692,40.577,22.737,54.531c14.043,13.952,33.445,22.584,54.872,22.588H100.001L100.001,172.843z M100.009,174.638
		h-0.008h-0.017c-21.916-0.004-41.764-8.836-56.135-23.113c-14.375-14.281-23.267-34.012-23.27-55.801v-0.008v-0.017
		c0.005-21.782,8.896-41.506,23.264-55.783c14.371-14.279,34.225-23.115,56.149-23.117h0.008h0.017
		c21.918,0.004,41.768,8.838,56.136,23.111c14.375,14.28,23.266,34.011,23.269,55.797v0.008v0.017
		c-0.004,21.783-8.895,41.508-23.263,55.786C141.788,165.8,121.932,174.636,100.009,174.638L100.009,174.638z"/>
	<polygon fill-rule="evenodd" clip-rule="evenodd" fill="#FFFFFF" points="94.003,183.661 92.989,183.661 92.989,179.674 
		91.526,179.674 91.526,178.818 95.466,178.818 95.466,179.674 94.003,179.674 94.003,183.661 	"/>
	<polygon fill-rule="evenodd" clip-rule="evenodd" fill="#FFFFFF" points="100.71,183.657 99.767,183.657 99.767,179.61 
		99.755,179.61 98.855,183.657 97.864,183.657 96.984,179.61 96.968,179.61 96.968,183.657 96.029,183.657 96.029,178.818 
		97.5,178.818 98.375,182.634 98.387,182.634 99.251,178.818 100.71,178.818 100.71,183.657 	"/>
	<path fill-rule="evenodd" clip-rule="evenodd" fill="#FFC130" d="M161.246,163.677c0,20.908-11.269,33.136-30.528,33.136
		c-19.268,0-30.528-12.227-30.528-33.136c0-20.904,11.26-33.137,30.528-33.137C149.977,130.54,161.246,142.772,161.246,163.677
		L161.246,163.677z"/>
	<path fill-rule="evenodd" clip-rule="evenodd" fill="#486782" d="M158.69,163.629c0,19.188-10.338,30.409-28.016,30.409
		c-17.678,0-28.014-11.221-28.014-30.409c0-19.184,10.337-30.409,28.014-30.409C148.353,133.22,158.69,144.445,158.69,163.629
		L158.69,163.629z"/>
	<path fill-rule="evenodd" clip-rule="evenodd" fill="#FFFFFF" d="M151.321,163.613c0,14.341-7.594,22.728-20.582,22.728
		c-12.997,0-20.588-8.387-20.588-22.728c0-14.332,7.591-22.727,20.588-22.727C143.727,140.886,151.321,149.281,151.321,163.613
		L151.321,163.613z"/>
	<path fill-rule="evenodd" clip-rule="evenodd" fill="#D1705D" d="M150.01,163.581c0,13.449-7.123,21.313-19.307,21.313
		c-12.185,0-19.302-7.864-19.302-21.313c0-13.441,7.118-21.312,19.302-21.312C142.886,142.269,150.01,150.14,150.01,163.581
		L150.01,163.581z"/>
	<path fill-rule="evenodd" clip-rule="evenodd" fill="#FFFFFF" d="M108.026,165.001c0.646,0.241,0.762,0.298,0.813,0.298
		c0.055,0,0.091-0.04,0.086-0.168l0.108-0.003l0.003,1.645h-0.103c-0.027-0.131-0.063-0.186-0.206-0.241
		c-0.202-0.083-4.094-1.637-4.146-1.637c-0.064,0-0.08,0.099-0.088,0.187h-0.107l-0.008-2.423l0.107-0.003
		c0.008,0.102,0.028,0.17,0.115,0.17c0.072-0.003,2.707-1.153,4.051-1.731c0.21-0.092,0.262-0.147,0.262-0.262h0.107l0.003,1.832
		h-0.102c-0.012-0.132-0.056-0.179-0.108-0.179c-0.035,0-0.681,0.281-0.797,0.317L108.026,165.001L108.026,165.001z M107.322,164.77
		l-0.009-1.723l-2.096,0.908L107.322,164.77L107.322,164.77z"/>
	<path fill-rule="evenodd" clip-rule="evenodd" fill="#FFFFFF" d="M109.834,155.832l-0.104-0.027c0.041-0.23-0.011-0.27-0.087-0.294
		l-3.199-0.844l-0.405,1.541c-0.028,0.1,0.005,0.147,0.194,0.226l-0.028,0.108l-1.521-0.401l0.027-0.107
		c0.207,0.023,0.258,0,0.282-0.099l1.173-4.431c0.023-0.099-0.008-0.147-0.198-0.222l0.027-0.11l1.522,0.403l-0.028,0.108
		c-0.206-0.025-0.257,0-0.281,0.099l-0.409,1.542l3.195,0.845c0.078,0.019,0.142,0.008,0.221-0.21l0.103,0.027L109.834,155.832
		L109.834,155.832z"/>
	<path fill-rule="evenodd" clip-rule="evenodd" fill="#FFFFFF" d="M111.61,150.034c0.071,0.039,0.138,0.044,0.269-0.146l0.092,0.051
		l-0.944,1.662l-0.091-0.052c0.099-0.21,0.06-0.266-0.012-0.306l-3.583-2.029c-0.067-0.036-0.135-0.044-0.265,0.151l-0.091-0.055
		l1.672-2.954c0.679-1.193,1.364-1.474,2.244-0.979c0.705,0.4,0.809,1.098,0.607,1.867l1.815-0.227
		c0.138-0.019,0.221-0.067,0.269-0.158l0.096,0.052l-0.952,1.681l-0.095-0.052c0.055-0.119,0.055-0.206-0.036-0.257
		c-0.071-0.04-1.617,0.218-1.835,0.229l-0.448,0.789L111.61,150.034L111.61,150.034z M109.505,148.84l0.77-1.355
		c0.27-0.476,0.15-0.734-0.072-0.86c-0.221-0.127-0.507-0.095-0.776,0.381l-0.765,1.355L109.505,148.84L109.505,148.84z"/>
	<path fill-rule="evenodd" clip-rule="evenodd" fill="#FFFFFF" d="M114.447,140.235c-0.051-0.063-0.115-0.091-0.301,0.049
		l-0.071-0.083l1.455-1.242l0.067,0.084c-0.163,0.162-0.147,0.226-0.095,0.289l1.542,1.795c1.011,1.181,0.475,2.311-0.602,3.234
		c-1.078,0.924-2.279,1.276-3.29,0.096l-1.538-1.8c-0.052-0.06-0.115-0.088-0.301,0.047l-0.072-0.078l1.455-1.242l0.067,0.08
		c-0.162,0.163-0.146,0.23-0.095,0.29l1.543,1.799c0.439,0.516,0.943,0.444,1.506-0.036c0.563-0.483,0.71-0.966,0.27-1.485
		L114.447,140.235L114.447,140.235z"/>
	<path fill-rule="evenodd" clip-rule="evenodd" fill="#FFFFFF" d="M122.438,139.047l-0.102,0.039
		c-0.067-0.099-0.159-0.154-0.334-0.086l-1.609,0.63l0.301,0.765l2.775-1.091c0.094-0.035,0.114-0.091,0.059-0.304l0.102-0.044
		l0.563,1.435l-0.107,0.039c-0.08-0.13-0.13-0.158-0.226-0.119l-4.312,1.689l-0.036-0.099c0.206-0.099,0.21-0.166,0.182-0.242
		l-1.502-3.837c-0.032-0.071-0.079-0.119-0.301-0.052l-0.039-0.099l4.312-1.692c0.096-0.036,0.115-0.092,0.067-0.29l0.104-0.044
		l0.558,1.435l-0.103,0.04c-0.099-0.179-0.151-0.206-0.245-0.171l-2.775,1.09l0.27,0.682l1.606-0.631
		c0.174-0.067,0.202-0.174,0.186-0.29l0.102-0.043L122.438,139.047L122.438,139.047z"/>
	<path fill-rule="evenodd" clip-rule="evenodd" fill="#FFFFFF" d="M129.572,139.316c0.005,0.08,0.033,0.138,0.266,0.155v0.102
		l-1.911,0.036l-0.003-0.107c0.234-0.02,0.262-0.083,0.257-0.163l-0.075-4.114c0-0.079-0.032-0.143-0.262-0.154l-0.003-0.108
		l3.321-0.058c1.173-0.02,1.788,0.657,1.803,1.442c0.012,0.789-0.579,1.479-1.747,1.498l-1.67,0.032L129.572,139.316
		L129.572,139.316z M129.53,136.938l1.411-0.023c0.503-0.008,0.748-0.171,0.74-0.543c-0.003-0.345-0.257-0.48-0.761-0.472
		l-1.407,0.023L129.53,136.938L129.53,136.938z"/>
	<path fill-rule="evenodd" clip-rule="evenodd" fill="#FFFFFF" d="M134.139,139.724l0.017-0.107
		c0.229,0.016,0.265-0.039,0.278-0.119l0.61-4.071c0.011-0.078-0.008-0.142-0.234-0.194l0.016-0.107l1.891,0.285l-0.017,0.104
		c-0.234-0.016-0.269,0.039-0.281,0.119l-0.607,4.07c-0.011,0.079,0.005,0.143,0.231,0.198l-0.016,0.104L134.139,139.724
		L134.139,139.724z"/>
	<path fill-rule="evenodd" clip-rule="evenodd" fill="#FFFFFF" d="M139.394,139.78l2.989,1.121c0.099,0.036,0.147,0.008,0.246-0.174
		l0.103,0.04l-0.544,1.455l-0.102-0.039c0.035-0.183,0.019-0.238-0.08-0.274l-4.538-1.696l0.04-0.099
		c0.222,0.064,0.27,0.016,0.298-0.06l1.438-3.853c0.028-0.075,0.024-0.142-0.186-0.241l0.036-0.099l1.792,0.669l-0.036,0.099
		c-0.226-0.063-0.273-0.016-0.301,0.06L139.394,139.78L139.394,139.78z"/>
	<path fill-rule="evenodd" clip-rule="evenodd" fill="#FFFFFF" d="M144.269,141.156l0.044,0.091
		c-0.044,0.023-0.079,0.072-0.13,0.135c-0.147,0.187,0.389,1.114,1.145,1.712c0.73,0.574,1.19,0.666,1.431,0.361
		c0.405-0.516-3.048-2.311-1.994-3.65c0.547-0.693,1.626-0.622,2.7,0.221c0.999,0.789,1.49,1.649,1.689,1.805
		c0.091,0.075,0.182,0.067,0.278,0.05l0.059,0.092l-1.265,0.566l-0.055-0.111l0.059-0.075c0.138-0.174-0.539-1.022-1.225-1.562
		c-0.635-0.499-0.987-0.507-1.115-0.345c-0.483,0.615,3.131,2.236,1.871,3.833c-0.468,0.598-1.462,0.883-3.044-0.365
		c-1.22-0.955-1.505-1.7-1.676-1.835c-0.056-0.044-0.139-0.032-0.215-0.024l-0.071-0.088L144.269,141.156L144.269,141.156z"/>
	<path fill-rule="evenodd" clip-rule="evenodd" fill="#FFFFFF" d="M151.198,143.953c0.067-0.043,0.103-0.099-0.003-0.304
		l0.091-0.056l1.193,1.887l-0.092,0.06c-0.122-0.179-0.19-0.186-0.234-0.16c-0.083,0.052-0.602,2.275-0.828,3.187l1.993-1.261
		c0.088-0.055,0.088-0.143,0.033-0.249l0.087-0.056l0.908,1.435l-0.091,0.056c-0.139-0.186-0.206-0.174-0.273-0.135l-3.481,2.2
		c-0.067,0.044-0.103,0.099,0.005,0.304l-0.091,0.06l-0.94-1.49l0.092-0.059c0.087,0.142,0.142,0.163,0.193,0.13
		c0.096-0.063,0.072-0.317,0.967-3.781l-2.346,1.482c-0.068,0.044-0.104,0.099,0.003,0.306l-0.091,0.055l-0.939-1.49l0.091-0.056
		c0.139,0.186,0.207,0.179,0.274,0.135L151.198,143.953L151.198,143.953z"/>
	<path fill-rule="evenodd" clip-rule="evenodd" fill="#FFFFFF" d="M153.474,155.167l-0.032-0.108
		c0.102-0.059,0.17-0.146,0.115-0.325l-0.483-1.657l-0.789,0.23l0.836,2.862c0.028,0.095,0.08,0.119,0.301,0.087l0.032,0.107
		l-1.479,0.428l-0.032-0.107c0.135-0.072,0.171-0.119,0.139-0.214l-1.297-4.45l0.103-0.028c0.083,0.218,0.146,0.226,0.226,0.206
		l3.956-1.149c0.075-0.019,0.127-0.068,0.079-0.293l0.103-0.028l1.297,4.448c0.027,0.094,0.083,0.118,0.286,0.091l0.031,0.107
		l-1.479,0.428l-0.031-0.107c0.19-0.083,0.221-0.131,0.19-0.23l-0.833-2.862l-0.706,0.207l0.484,1.656
		c0.051,0.179,0.154,0.218,0.273,0.21l0.031,0.107L153.474,155.167L153.474,155.167z"/>
	<path fill-rule="evenodd" clip-rule="evenodd" fill="#FFFFFF" d="M152.729,159.456c-0.08,0.008-0.139,0.039-0.139,0.273
		l-0.107,0.008l-0.155-1.907l0.108-0.008c0.035,0.23,0.099,0.254,0.177,0.246l4.103-0.337c0.079-0.003,0.138-0.039,0.138-0.27
		l0.107-0.011l0.274,3.389c0.111,1.367-0.301,1.99-1.305,2.073c-0.808,0.063-1.288-0.456-1.549-1.206l-1.375,1.209
		c-0.108,0.095-0.143,0.183-0.135,0.282l-0.107,0.011l-0.155-1.926l0.103-0.008c0.019,0.127,0.071,0.198,0.177,0.19
		c0.08-0.008,1.213-1.085,1.388-1.225l-0.071-0.903L152.729,159.456L152.729,159.456z M155.139,159.257l0.127,1.558
		c0.043,0.543,0.286,0.693,0.543,0.67c0.254-0.02,0.467-0.207,0.423-0.75l-0.122-1.557L155.139,159.257L155.139,159.257z"/>
	<path fill-rule="evenodd" clip-rule="evenodd" fill="#FFFFFF" d="M118.836,185.532c0.032-0.075,0.027-0.142-0.179-0.249l0.044-0.1
		l3.246,1.4c0.919,0.4,1.45,1.015,1.106,1.815c-0.21,0.488-0.681,0.643-1.201,0.532l-0.008,0.016
		c0.508,0.393,0.801,0.864,0.539,1.467c-0.281,0.646-1.03,0.979-2.239,0.455l-3.289-1.414l0.044-0.099
		c0.218,0.075,0.27,0.031,0.301-0.044L118.836,185.532L118.836,185.532z M119.521,187.442l1.161,0.5
		c0.729,0.317,0.939,0.348,1.077,0.023c0.143-0.321-0.024-0.452-0.757-0.768l-1.157-0.5L119.521,187.442L119.521,187.442z
		 M118.745,189.245l1.446,0.622c0.594,0.258,0.892,0.23,1.047-0.127c0.154-0.356-0.028-0.587-0.627-0.844l-1.446-0.626
		L118.745,189.245L118.745,189.245z"/>
	<path fill-rule="evenodd" clip-rule="evenodd" fill="#FFFFFF" d="M128.729,190.982l-0.111-0.012
		c-0.011-0.119-0.067-0.214-0.253-0.234l-1.717-0.19l-0.088,0.816l2.962,0.329c0.099,0.012,0.143-0.028,0.193-0.246l0.111,0.012
		l-0.166,1.53l-0.111-0.012c-0.011-0.151-0.043-0.202-0.146-0.21l-4.602-0.511l0.008-0.107c0.234,0.011,0.27-0.049,0.278-0.127
		l0.452-4.099c0.008-0.079-0.011-0.143-0.242-0.187l0.012-0.102l4.601,0.507c0.103,0.012,0.142-0.028,0.194-0.226l0.111,0.012
		l-0.166,1.529l-0.111-0.016c-0.008-0.202-0.04-0.249-0.138-0.262l-2.965-0.328l-0.08,0.729l1.717,0.19
		c0.186,0.02,0.257-0.06,0.301-0.171l0.107,0.012L128.729,190.982L128.729,190.982z"/>
	<path fill-rule="evenodd" clip-rule="evenodd" fill="#FFFFFF" d="M135.86,190.7l-0.111,0.012c-0.04-0.111-0.116-0.191-0.298-0.175
		l-1.716,0.179l0.083,0.817l2.96-0.306c0.104-0.008,0.135-0.055,0.138-0.281l0.111-0.012l0.159,1.53l-0.11,0.012
		c-0.044-0.147-0.088-0.187-0.187-0.175l-4.606,0.476l-0.011-0.108c0.23-0.039,0.254-0.107,0.246-0.185l-0.42-4.095
		c-0.008-0.079-0.044-0.138-0.274-0.13l-0.011-0.107l4.605-0.477c0.099-0.008,0.13-0.059,0.138-0.26l0.111-0.012l0.155,1.53
		l-0.111,0.011c-0.047-0.202-0.087-0.242-0.19-0.229l-2.962,0.304l0.075,0.729l1.717-0.177c0.182-0.016,0.238-0.111,0.254-0.23
		l0.111-0.012L135.86,190.7L135.86,190.7z"/>
	<path fill-rule="evenodd" clip-rule="evenodd" fill="#FFFFFF" d="M141.5,190.716c0.031,0.075,0.079,0.119,0.301,0.049l0.039,0.099
		l-1.764,0.737l-0.04-0.095c0.206-0.107,0.21-0.174,0.179-0.249l-1.594-3.798c-0.027-0.075-0.078-0.118-0.301-0.047l-0.039-0.099
		l3.131-1.312c1.268-0.532,1.985-0.337,2.374,0.594c0.313,0.749-0.032,1.364-0.662,1.852l1.578,0.927
		c0.119,0.075,0.215,0.083,0.309,0.044l0.039,0.099l-1.78,0.746l-0.04-0.1c0.116-0.055,0.166-0.127,0.127-0.222
		c-0.032-0.075-1.411-0.82-1.593-0.944l-0.84,0.353L141.5,190.716L141.5,190.716z M140.564,188.485l1.439-0.607
		c0.503-0.21,0.566-0.488,0.467-0.721c-0.099-0.237-0.342-0.384-0.845-0.174l-1.438,0.602L140.564,188.485L140.564,188.485z"/>
	<path fill-rule="evenodd" clip-rule="evenodd" fill="#FFC130" d="M125.577,170.581c0.005,0.004-1.569,6.358-5.592,9.298
		c-0.789-0.527-1.507-1.462-1.514-1.482c4.522-2.576,6.108-7.887,6.148-8.173C124.619,170.225,125.182,170.467,125.577,170.581
		L125.577,170.581z"/>
	<path fill-rule="evenodd" clip-rule="evenodd" fill="#FFC130" d="M127.421,171.053c0.003,0.003-1.079,6.5-3.769,10.048
		c-0.686-0.334-1.11-0.662-1.515-0.947c3.286-3.552,4.265-9.331,4.265-9.331C126.762,170.906,126.917,170.962,127.421,171.053
		L127.421,171.053z"/>
	<path fill-rule="evenodd" clip-rule="evenodd" fill="#FFC130" d="M129.379,171.323c-0.02,1.022-0.02,7.384-2.597,11.847
		c-0.753-0.202-1.491-0.428-2.164-0.721c3.163-4.764,3.694-11.244,3.694-11.244C128.693,171.263,129.379,171.323,129.379,171.323
		L129.379,171.323z"/>
	<path fill-rule="evenodd" clip-rule="evenodd" fill="#FFC130" d="M135.808,170.581c-0.005,0.004,1.573,6.358,5.592,9.298
		c0.789-0.527,1.51-1.462,1.519-1.482c-4.524-2.576-6.112-7.887-6.148-8.173C136.771,170.225,136.208,170.467,135.808,170.581
		L135.808,170.581z"/>
	<path fill-rule="evenodd" clip-rule="evenodd" fill="#FFC130" d="M133.964,171.053c0,0.003,1.082,6.5,3.769,10.048
		c0.69-0.334,1.11-0.662,1.518-0.947c-3.285-3.552-4.268-9.331-4.268-9.331C134.623,170.906,134.472,170.962,133.964,171.053
		L133.964,171.053z"/>
	<path fill-rule="evenodd" clip-rule="evenodd" fill="#FFC130" d="M132.007,171.323c0.019,1.022,0.019,7.384,2.6,11.847
		c0.749-0.202,1.49-0.428,2.164-0.721c-3.167-4.764-3.698-11.244-3.698-11.244C132.692,171.263,132.007,171.323,132.007,171.323
		L132.007,171.323z"/>
	<path fill-rule="evenodd" clip-rule="evenodd" fill="#FFC130" d="M130.671,171.374c0.166,0,0.558-0.012,0.558-0.012
		s-0.06,5.93,0.587,11.752c0,0-0.532,0.103-1.189,0.103c-0.508,0-0.96-0.048-1.248-0.108c0.74-5.644,0.737-11.743,0.737-11.743
		S130.5,171.374,130.671,171.374L130.671,171.374z"/>
	<path fill-rule="evenodd" clip-rule="evenodd" fill="#FFC130" d="M142.522,165.714c0.154-0.072,0.48-0.412,0.293-0.987
		c0.052,0.024,0.737,0.201,0.864,1.189c0.817,0.163,1.513,0.483,2.151,0.888l-0.011,0.072l-0.662-0.132
		c1.034,1.066,1.629,2.28,1.653,3.385c0,0.008-0.654-0.448-0.654-0.448s0.119,0.536,0.119,1.364c0,1.728-0.674,3.04-1.641,4.169
		c-0.075-0.036-0.301-0.388-0.392-0.524c-0.23,0.659-0.555,1.138-0.955,1.72c-0.075-0.024-0.789-1.018-0.789-1.018
		c-0.096,0.095-0.246,0.254-0.262,0.249c-0.052,0-0.837-0.975-1.19-1.427c-0.13,0.158-0.229,0.428-0.305,0.487
		c-1.95-1.613-2.013-3.73-2.065-4.016c-0.139,0.183-0.159,0.524-0.254,0.892c-0.448-1.522-0.19-2.303-0.127-2.615
		c-0.254,0.17-0.431,0.439-0.535,0.737h-0.024c0.146-1.752,1.783-3.017,1.946-3.136c-0.127-0.023-0.643,0.052-1.035,0.21
		l-0.099,0.005c0.448-0.539,1.593-0.888,2.278-1.054c0,0-0.452-0.072-1.145-0.072c-0.658,0-1.637,0.317-1.637,0.317
		c0.305-0.416,0.682-0.911,1.09-1.256C140.484,164.715,141.555,165.143,142.522,165.714L142.522,165.714z M140.921,167.279
		c0.087,0.321,0.305,0.619,0.494,0.821c0,0,0.163-0.63,0.472-1.122C141.888,166.978,141.456,167.045,140.921,167.279
		L140.921,167.279z M143.628,166.97c0.19,0.417,0.693,1.963,2.026,2.347C145.439,167.945,144.619,167.263,143.628,166.97
		L143.628,166.97z M142.609,166.887c-0.102,0.067-0.353,0.785-0.416,0.999c0.436,1.439,1.118,1.894,1.118,1.894
		s0.186-1.731-0.472-2.897C142.72,166.879,142.668,166.883,142.609,166.887L142.609,166.887z M140.346,167.597
		c-0.29,0.234-1.03,0.74-1.03,1.941c0,0.393,0.067,0.635,0.138,0.912c0.103-0.179,0.08-0.611,1.312-2.077
		C140.45,167.893,140.382,167.656,140.346,167.597L140.346,167.597z M141.238,168.944l-0.139,0.21
		c-0.143,0.702-0.135,1.776,0.611,2.449c0.304-0.594,0.341-1.76,0.115-2.235C141.607,169.202,141.448,169.099,141.238,168.944
		L141.238,168.944z M144.076,169.214c0,0,0.102,0.614-0.127,1.344c0.392,0.262,1.026,0.698,1.514,1.606
		c0.1-0.448,0.075-0.88,0.064-1.32C145.499,170.2,144.29,169.309,144.076,169.214L144.076,169.214z M140.266,170.244
		c-0.214,0.524-0.403,0.936-0.403,1.728c0,0.587,0.546,1.257,0.713,1.364c0.305-0.908,0.229-1.435,0.138-1.922
		C140.536,171.056,140.266,170.244,140.266,170.244L140.266,170.244z M142.728,170.415c-0.016,0.475-0.099,0.86-0.229,1.272
		c0.126,0.547,0.317,1.066,0.714,1.459c0.558-0.825,0.546-1.745,0.507-1.911C143.363,170.973,143.077,170.713,142.728,170.415
		L142.728,170.415z M144.354,171.818c-0.064,0.582-0.135,0.776-0.191,0.947c-0.003,0.02,0.23,0.952,0.484,1.308
		c0.296-0.475,0.384-0.88,0.395-1.189C144.928,172.483,144.686,172.091,144.354,171.818L144.354,171.818z M141.467,172.425
		c0,0-0.027,0.662-0.091,0.792c0.241,0.591,0.804,1.154,0.853,1.141c0,0,0.13-0.333,0-1.272c-0.008-0.075-0.044-0.21-0.083-0.282
		C142.074,172.765,141.836,172.674,141.467,172.425L141.467,172.425z M143.478,173.835c-0.123,0.132-0.231,0.27-0.27,0.27
		c-0.047,0-0.202-0.102-0.289-0.15c-0.028,0.214-0.052,0.44-0.08,0.666l0.345,0.599
		C143.184,175.219,143.553,174.774,143.478,173.835L143.478,173.835z"/>
	<path fill-rule="evenodd" clip-rule="evenodd" fill="#FFC130" d="M122.264,164.715c0.409,0.345,0.785,0.84,1.09,1.256
		c0,0-0.979-0.317-1.637-0.317c-0.689,0-1.145,0.072-1.145,0.072c0.686,0.166,1.832,0.515,2.279,1.054l-0.099-0.005
		c-0.392-0.158-0.908-0.234-1.035-0.21c0.163,0.119,1.804,1.384,1.947,3.136h-0.025c-0.102-0.298-0.281-0.567-0.535-0.737
		c0.064,0.312,0.325,1.093-0.127,2.615c-0.091-0.368-0.114-0.709-0.254-0.892c-0.051,0.285-0.11,2.402-2.061,4.016
		c-0.08-0.059-0.179-0.329-0.309-0.487c-0.353,0.452-1.134,1.427-1.189,1.427c-0.012,0.005-0.167-0.155-0.258-0.249
		c0,0-0.717,0.994-0.792,1.018c-0.401-0.582-0.721-1.062-0.952-1.72c-0.091,0.135-0.321,0.488-0.397,0.524
		c-0.967-1.129-1.64-2.441-1.64-4.169c0-0.828,0.119-1.364,0.119-1.364s-0.655,0.456-0.655,0.448
		c0.025-1.106,0.619-2.319,1.654-3.385l-0.659,0.132l-0.016-0.072c0.638-0.405,1.336-0.725,2.152-0.888
		c0.127-0.987,0.813-1.165,0.864-1.189c-0.185,0.574,0.143,0.915,0.295,0.987C119.846,165.143,120.916,164.715,122.264,164.715
		L122.264,164.715z M119.513,166.978c0.313,0.492,0.472,1.122,0.472,1.122c0.19-0.202,0.408-0.5,0.499-0.821
		C119.945,167.045,119.513,166.978,119.513,166.978L119.513,166.978z M115.748,169.317c1.331-0.384,1.835-1.93,2.025-2.347
		C116.786,167.263,115.962,167.945,115.748,169.317L115.748,169.317z M118.562,166.883c-0.654,1.165-0.472,2.897-0.472,2.897
		s0.686-0.455,1.123-1.894c-0.067-0.214-0.317-0.932-0.42-0.999C118.733,166.883,118.685,166.879,118.562,166.883L118.562,166.883z
		 M120.635,168.373c1.233,1.466,1.209,1.899,1.312,2.077c0.072-0.278,0.139-0.519,0.139-0.912c0-1.201-0.738-1.708-1.031-1.941
		C121.023,167.656,120.953,167.893,120.635,168.373L120.635,168.373z M119.581,169.369c-0.23,0.475-0.194,1.641,0.115,2.235
		c0.741-0.673,0.749-1.747,0.611-2.449l-0.143-0.21C119.954,169.099,119.794,169.202,119.581,169.369L119.581,169.369z
		 M115.874,170.843c-0.011,0.44-0.035,0.872,0.064,1.32c0.487-0.908,1.121-1.344,1.514-1.606c-0.23-0.729-0.127-1.344-0.127-1.344
		C117.111,169.309,115.902,170.2,115.874,170.843L115.874,170.843z M120.686,171.414c-0.087,0.488-0.166,1.015,0.139,1.922
		c0.166-0.107,0.713-0.777,0.713-1.364c0-0.792-0.186-1.204-0.404-1.728C121.135,170.244,120.865,171.056,120.686,171.414
		L120.686,171.414z M117.682,171.235c-0.036,0.166-0.047,1.087,0.511,1.911c0.392-0.393,0.583-0.912,0.713-1.459
		c-0.135-0.412-0.218-0.797-0.229-1.272C118.325,170.713,118.039,170.973,117.682,171.235L117.682,171.235z M116.358,172.884
		c0.016,0.309,0.099,0.713,0.397,1.189c0.253-0.356,0.487-1.288,0.483-1.308c-0.055-0.171-0.127-0.365-0.19-0.947
		C116.715,172.091,116.473,172.483,116.358,172.884L116.358,172.884z M119.256,172.805c-0.04,0.072-0.072,0.207-0.083,0.282
		c-0.127,0.939,0,1.272,0,1.272c0.05,0.012,0.61-0.55,0.852-1.141c-0.063-0.13-0.087-0.792-0.087-0.792
		C119.565,172.674,119.327,172.765,119.256,172.805L119.256,172.805z M118.221,175.219l0.34-0.599
		c-0.027-0.226-0.052-0.452-0.075-0.666c-0.091,0.048-0.245,0.15-0.293,0.15c-0.04,0-0.146-0.138-0.27-0.27
		C117.848,174.774,118.221,175.219,118.221,175.219L118.221,175.219z"/>
	<path fill-rule="evenodd" clip-rule="evenodd" fill="#FFC130" d="M146.743,163.133c-1.063-0.504-2.267-0.511-2.843-0.935
		c-0.039-0.031,0.207-0.127,0.864-0.127c2.026,0,3.834,1.668,3.834,1.668s-0.005-0.602-0.02-0.872c0-0.107-1.934-1.502-3.789-1.502
		c-0.777,0-1.423,0.262-1.637,0.345c-0.191,0.047-0.409,0.039-0.409,0.039s0.812-0.955,2.316-0.955c1.085,0,2.873,0.955,3.495,1.312
		c-0.016-0.334-0.036-0.646-0.06-0.944c-3.694-1.902-6.528-1.118-6.631-1.106c3.686-2.652,5.969-3.183,5.969-3.183
		s-0.218-0.535-0.333-0.801c-0.813,0.262-1.562,0.658-2.327,0.991c0,0-0.905,0.389-3.04,0.464c0.127-0.179,0.241-0.301,0.432-0.511
		c0.419-0.036,0.987-0.103,1.427-0.222c0.789-0.209,3.099-1.423,3.174-1.446c-0.102-0.234-0.17-0.392-0.305-0.646
		c-0.804,0.397-1.514,0.745-2.402,1.161c-0.733,0.254-0.801,0.298-1.273,0.334c0.912-0.92,3.374-2.089,3.374-2.089
		c-0.103-0.187-0.238-0.444-0.329-0.622c0,0-1.206,0.511-2.763,1.454c-0.467,0.282-0.92,0.619-1.198,1.066
		c-0.317,0.44-0.963,1.4-1.617,1.688c0.19-0.986,0.84-2.1,1.375-2.516c1.51-1.186,3.718-2.489,3.718-2.489
		c-0.118-0.207-0.325-0.452-0.439-0.604c-0.008,0.009-2.597,1.364-5.529,3.813c1.628-2.208,3.769-5.692,4.272-6.484
		c-0.269-0.163-0.293-0.194-0.781-0.508c-1.973,3.211-2.1,3.631-5.097,4.535c0,0-0.028-0.262,0.04-0.535
		c0.127-0.048,1.304-0.536,2.112-1.424c0.785-0.86,2.215-3.036,2.215-3.036s-0.748-0.468-0.756-0.472
		c-0.052-0.008-2.252,3.655-3.33,3.841c1.055-2.601,2.449-4.254,2.498-4.34c-0.215-0.139-0.575-0.35-0.682-0.405
		c-0.187,0.229-2.937,3.48-2.989,6.726c-0.226,0.143-0.337,0.199-0.519,0.31c-0.285-0.833-0.357-2.526-0.028-3.172
		c1.074-2.113,2.719-4.328,2.719-4.328c-0.265-0.154-0.59-0.321-0.844-0.464c-1.839,2.711-3.583,5.45-4.622,7.943l0.008-9.656
		l-0.911-0.003c0,0,0,3.9,0,4.055c-0.003,0.472,0.171,1.879-1.479,3.207c-0.119-0.223-0.19-0.353-0.348-0.627
		c0.919-1.05,0.943-2.58,0.943-2.58c0,0.016,0,0.016-0.003-4.055h-0.944v4.055c-0.027,1.01-0.511,1.689-0.511,1.689
		c-0.052-0.072-0.408-0.436-0.444-1.689v-4.055h-0.892c0,0-0.003,2.854-0.003,4.055c0,0.678,0.111,1.331,0.337,1.902
		c0.213,0.539,0.678,1.102,1.244,1.982c-0.138,0.214-0.297,0.448-0.396,0.685c-1.971-2.053-1.942-2.62-2.033-3.225
		c-0.024-0.833-0.012-5.395-0.012-5.395h-0.927l-0.04,10.115c-1.007-2.616-2.854-5.524-4.803-8.403
		c-0.254,0.143-0.583,0.31-0.848,0.464c0,0,1.645,2.215,2.719,4.328c0.329,0.646,0.257,2.339-0.024,3.172
		c-0.186-0.111-0.298-0.168-0.524-0.31c-0.052-3.246-2.799-6.496-2.988-6.726c-0.107,0.055-0.464,0.265-0.682,0.405
		c0.049,0.087,1.443,1.739,2.501,4.34c-1.082-0.187-3.282-3.85-3.332-3.841c-0.004,0.004-0.754,0.472-0.754,0.472
		s1.431,2.176,2.216,3.036c0.809,0.888,1.986,1.375,2.113,1.424c0.063,0.273,0.035,0.535,0.035,0.535
		c-2.996-0.903-3.123-1.323-5.096-4.535c-0.488,0.314-0.511,0.345-0.778,0.508c0.5,0.792,2.644,4.276,4.273,6.484
		c-2.932-2.449-5.526-3.804-5.534-3.813c-0.114,0.152-0.317,0.397-0.439,0.604c0,0,2.211,1.303,3.721,2.489
		c0.531,0.417,1.182,1.53,1.372,2.516c-0.651-0.289-1.297-1.248-1.617-1.688c-0.277-0.447-0.73-0.784-1.193-1.066
		c-1.562-0.943-2.767-1.454-2.767-1.454c-0.087,0.179-0.226,0.436-0.328,0.622c0,0,2.461,1.168,3.373,2.089
		c-0.469-0.036-0.536-0.08-1.273-0.334c-0.883-0.416-1.593-0.764-2.402-1.161c-0.13,0.254-0.201,0.412-0.304,0.646
		c0.075,0.023,2.39,1.237,3.179,1.446c0.436,0.119,1.007,0.186,1.427,0.222c0.186,0.21,0.305,0.333,0.432,0.511
		c-2.14-0.075-3.045-0.464-3.045-0.464c-0.761-0.333-1.51-0.729-2.327-0.991c-0.115,0.266-0.333,0.801-0.333,0.801
		s2.287,0.531,5.969,3.183c-0.099-0.012-2.933-0.796-6.631,1.106c-0.023,0.298-0.039,0.61-0.06,0.944
		c0.626-0.357,2.41-1.312,3.497-1.312c1.502,0,2.315,0.955,2.315,0.955s-0.218,0.008-0.405-0.039
		c-0.218-0.083-0.861-0.345-1.641-0.345c-1.855,0-3.789,1.395-3.789,1.502c-0.012,0.27-0.016,0.872-0.016,0.872
		s1.803-1.668,3.833-1.668c0.654,0,0.9,0.096,0.86,0.122c-0.571,0.428-1.78,0.436-2.843,0.939c-0.765,0.361-1.375,0.967-1.839,1.645
		c0.008,0.313,0.028,0.619,0.041,0.936c0,0,0.558-1.178,1.922-1.843c1.823-0.813,3.163-0.646,3.702-1.364
		c0.019-0.028,0.067-0.06,0.067-0.06s0.816,0.088,1.078,0.08c0,0-1.225,0.923-1.962,1.106c-3.627,0.911-4.555,2.921-4.709,3.17
		c0.032,0.309,0.075,0.69,0.127,1.011c0.102-0.072,0.154-0.179,0.218-0.274c0.725-1.118,2.112-2.854,4.927-3.326
		c0.74-0.126,1.886-0.058,2.493-0.182c1.225-0.246,1.565-0.615,1.832-0.769c1.204,0.971,1.835,1.783,2.151,2.719
		c0.357,0.099,1.055,0.278,1.066,0.265c-0.848-2.588-3.123-4.169-3.218-4.257c-0.258-0.234-0.762-0.745-0.762-0.745
		s1.681,0.246,2.418,0.702c0.666,0.408,2.002,2.359,2.327,4.463c0.333,0.075,0.789,0.143,1.149,0.206c0,0-0.412-2.83-2.675-5.858
		c-0.409-0.547-0.472-1.344-0.817-1.926c0.761,0.883,2.303,1.613,2.675,2.061c0.29,0.353,1.265,1.51,1.527,5.814
		c0.269,0.036,0.598,0.067,1.109,0.104c-0.237-4.134-1.173-6.029-1.236-6.23c-0.091-0.321-0.143-0.718-0.052-1.058
		c0.21-0.778,0.218-1.634,0.067-2.545c0.312,0.686,0.805,1.43,1.209,2.041c0.472,0.808,0.598,1.838,0.662,2.862
		c-0.052,1.604,0.011,3.325-0.052,4.966c0,0,0.107,0.028,0.575,0.028c0.61,0,0.606-0.036,0.606-0.036
		c0-0.368-0.008-0.788-0.008-1.074c0.036-1.676-0.052-3.207,0.179-4.776c0.036-0.805,0.329-1.458,0.698-2.065
		c0.306-0.535,0.574-1.082,0.817-1.653l0.206-0.504c-0.182,0.995-0.19,1.922,0.032,2.755c0.096,0.34,0.04,0.737-0.047,1.058
		c-0.067,0.201-1.003,2.097-1.24,6.23c0.511-0.036,0.84-0.068,1.113-0.104c0.257-4.304,1.233-5.462,1.526-5.814
		c0.373-0.447,1.911-1.178,2.672-2.061c-0.345,0.582-0.404,1.378-0.812,1.926c-2.267,3.028-2.675,5.858-2.675,5.858
		c0.361-0.063,0.812-0.13,1.145-0.206c0.329-2.104,1.661-4.055,2.33-4.463c0.738-0.456,2.418-0.702,2.418-0.702
		s-0.503,0.511-0.761,0.745c-0.096,0.087-2.374,1.669-3.219,4.257c0.009,0.012,0.706-0.166,1.066-0.265
		c0.318-0.936,0.948-1.748,2.148-2.719c0.27,0.154,0.607,0.523,1.831,0.769c0.607,0.124,1.756,0.056,2.498,0.182
		c2.81,0.472,4.198,2.208,4.922,3.326c0.064,0.096,0.116,0.202,0.218,0.274c0.056-0.321,0.1-0.702,0.127-1.011
		c-0.151-0.249-1.077-2.259-4.709-3.17c-0.737-0.182-1.957-1.106-1.957-1.106c0.261,0.008,1.074-0.08,1.074-0.08
		s0.05,0.032,0.071,0.06c0.535,0.718,1.879,0.55,3.697,1.364c1.364,0.665,1.927,1.843,1.927,1.843
		c0.012-0.317,0.028-0.622,0.036-0.936C148.119,164.101,147.512,163.494,146.743,163.133L146.743,163.133z M121.015,153.407
		c0.825,0.583,3.056,1.019,3.461,1.606c-0.012,0.249-0.024,0.499-0.024,0.757c-0.508-0.202-2.204-0.765-2.814-1.388
		C121.436,154.049,121.205,153.728,121.015,153.407L121.015,153.407z M123.41,159.594c-0.334-0.333-0.713-0.614-1.082-0.9
		c-0.915-0.61-0.944-1.664-0.98-1.807C122.962,158.172,123.41,159.594,123.41,159.594L123.41,159.594z M118.241,158.172
		c0.535,0.075,1.212,0.039,1.763,0.182c0.456,0.142,1.023,0.579,1.201,0.717c-0.431-0.035-1.042,0.025-1.502-0.083
		C119.105,158.893,118.241,158.172,118.241,158.172L118.241,158.172z M119.041,161.152c-0.241-0.202-0.531-0.357-0.812-0.524
		c1.748-0.088,3.017,1.248,3.056,1.295c-0.207-0.023-1.035-0.118-1.276-0.177C119.617,161.651,119.35,161.378,119.041,161.152
		L119.041,161.152z M119.414,163.384c0.174-0.155,0.825-0.599,1.284-0.671c0.348-0.05,0.8,0.1,1.002,0.135
		C121.269,163.062,120.984,163.296,119.414,163.384L119.414,163.384z M120.572,159.713c0.642,0.067,1.375,0.095,1.959,0.309
		c0.317,0.249,0.638,0.488,0.903,0.785C123.319,160.735,121.828,160.712,120.572,159.713L120.572,159.713z M125.367,158.564
		c-1.747-0.872-2.481-2.449-2.66-2.664c0.559,0.321,1.209,0.535,1.795,0.833c0.329,0.202,0.651,0.392,0.956,0.63
		C125.419,157.707,125.367,158.12,125.367,158.564L125.367,158.564z M126.228,154.731c-0.012,0.261-0.151,1.145-0.464,1.799
		c-0.143-0.083-0.281-0.166-0.369-0.286c0,0-0.154-0.685-0.028-1.411c0.123-0.701,0.318-1.415,0.243-2.2
		C126.256,153.64,126.232,154.628,126.228,154.731L126.228,154.731z M127.163,159.498l-0.064,0.238
		c-0.281-0.202-0.535-0.44-0.851-0.594c-0.052-1.149,0.265-2.125,0.582-3.088c0.08-0.249,0.143-0.531,0.091-0.829
		C126.921,155.226,127.742,157.181,127.163,159.498L127.163,159.498z M129.102,152.678c0.693,0.809,1.728,1.986,1.831,2.581
		c-0.116,0.202-0.243,0.392-0.345,0.594h-0.036c-0.44-0.631-2.077-2.014-2.077-4C128.475,151.849,128.721,152.229,129.102,152.678
		L129.102,152.678z M130.933,158.6c-0.127,0.185-0.183,0.32-0.329,0.59c-0.947-1.656-1.772-2.779-1.974-4.249
		C131.142,157.728,130.933,158.6,130.933,158.6L130.933,158.6z M131.52,157.684c-0.119-0.349-0.23-0.63-0.368-0.939
		c0.594-1.253,1.22-1.51,1.485-2.077C132.586,154.953,132.542,156.253,131.52,157.684L131.52,157.684z M131.507,154.572
		c-0.155-0.286-0.281-0.571-0.448-0.831c1.066-1.725,1.998-2.387,1.998-2.387C133.022,152.146,133.267,152.947,131.507,154.572
		L131.507,154.572z M141.376,158.354c0.547-0.143,1.225-0.107,1.76-0.182c0,0-0.865,0.721-1.463,0.816
		c-0.46,0.108-1.071,0.048-1.502,0.083C140.351,158.932,140.917,158.496,141.376,158.354L141.376,158.354z M140.033,156.887
		c-0.039,0.142-0.067,1.196-0.979,1.807c-0.373,0.286-0.753,0.567-1.082,0.9C137.972,159.594,138.419,158.172,140.033,156.887
		L140.033,156.887z M140.362,153.407c-0.19,0.321-0.42,0.643-0.622,0.975c-0.61,0.622-2.302,1.189-2.813,1.388
		c0-0.258-0.012-0.508-0.025-0.757C137.31,154.426,139.537,153.99,140.362,153.407L140.362,153.407z M135.134,159.142
		c-0.321,0.155-0.575,0.392-0.853,0.594l-0.066-0.238c-0.58-2.318,0.245-4.273,0.245-4.273c-0.052,0.298,0.012,0.58,0.088,0.829
		C134.864,157.018,135.186,157.993,135.134,159.142L135.134,159.142z M135.617,156.53c-0.312-0.654-0.455-1.538-0.468-1.799
		c-0.003-0.104-0.023-1.091,0.618-2.098c-0.075,0.785,0.119,1.499,0.243,2.2c0.13,0.726-0.025,1.411-0.025,1.411
		C135.894,156.364,135.756,156.447,135.617,156.53L135.617,156.53z M136.01,158.564c0.003-0.444-0.052-0.856-0.088-1.201
		c0.306-0.238,0.622-0.428,0.955-0.63c0.583-0.298,1.233-0.511,1.792-0.833C138.491,156.114,137.762,157.692,136.01,158.564
		L136.01,158.564z M137.944,160.807c0.27-0.298,0.587-0.536,0.903-0.785c0.588-0.214,1.32-0.242,1.963-0.309
		C139.553,160.712,138.059,160.735,137.944,160.807L137.944,160.807z M141.967,163.384c-1.574-0.088-1.859-0.321-2.291-0.536
		c0.202-0.035,0.654-0.185,1.002-0.135C141.143,162.785,141.789,163.229,141.967,163.384L141.967,163.384z M141.368,161.747
		c-0.241,0.06-1.07,0.154-1.272,0.177c0.035-0.047,1.303-1.383,3.056-1.295c-0.282,0.166-0.575,0.321-0.817,0.524
		C142.03,161.378,141.765,161.651,141.368,161.747L141.368,161.747z"/>
	<path fill-rule="evenodd" clip-rule="evenodd" fill="#FFC130" d="M130.639,170.656h-0.043c-0.563,0-6.509-0.241-6.509-2.018
		c0-0.234,0.103-0.344,0.103-0.344s2.636,1.181,6.44,1.181h0.02c3.809,0,6.441-1.181,6.441-1.181s0.102,0.11,0.102,0.344
		c0,1.777-5.945,2.018-6.508,2.018H130.639L130.639,170.656z"/>
	<path fill-rule="evenodd" clip-rule="evenodd" fill="#FFC130" d="M130.639,168.798h-0.043c-0.563,0-6.509-0.246-6.509-2.023
		c0-0.234,0.103-0.34,0.103-0.34s2.636,1.181,6.44,1.181h0.02c3.809,0,6.441-1.181,6.441-1.181s0.102,0.107,0.102,0.34
		c0,1.777-5.945,2.023-6.508,2.023H130.639L130.639,168.798z"/>
	<path fill-rule="evenodd" clip-rule="evenodd" fill="#D1705D" d="M120.67,41.426c0.789-0.812,1.403-1.913,1.264-2.961
		c-0.047-0.114-0.159-0.197-0.293-0.174c-0.673,0.306-0.903,1.118-1.251,1.696c-0.223,0.607-0.555,1.197-0.5,1.871
		c0.06,0.111,0.234,0.052,0.321-0.008c0.158-0.127,0.325-0.29,0.472-0.444l0.558,1.347c-0.456,0.393-0.963,0.785-1.439,1.086
		c-0.154,0.15-0.154,0.329-0.094,0.519c0.083,0.412,0.439,0.789,0.895,0.848c1.256,0,1.962-1.038,2.691-1.946
		c0.754-1.248,1.725-2.462,2.062-3.805c0.507-1.791,0.919-3.607,1.312-5.433l0.206-0.27l3.064-1.558
		c0.147-0.044,0.313-0.198,0.448-0.063c0.011,0.563-0.251,1.098-0.21,1.656c0.052,0.06,0.11-0.008,0.159-0.043
		c0.618-0.9,1.303-1.896,2.034-2.708c0.138-0.096,0.257,0.032,0.328,0.124c0.357,0.725,1.178,1.454,2.078,1.402
		c0.423,0.025,0.872-0.127,1.304-0.13c0.126,0.095,0.016,0.265-0.005,0.392c-0.55,1.479-1.684,3.056-3.425,3.242
		c-0.654,0.087-1.229-0.257-1.78-0.622c-0.579-0.052-0.848,0.674-1.102,1.086c-1.018,2.175-1.308,4.478-1.85,6.749
		c-0.032,0.21-0.254,0.318-0.4,0.44l-2.957,1.514c-0.08,0.043-0.238,0.087-0.282-0.012c-0.011-0.579,0.234-1.11,0.179-1.704
		c-0.047-0.111-0.138,0.015-0.202,0.056c-1.355,1.752-2.6,3.745-4.732,4.344c-1.106,0.254-2.117-0.21-2.898-0.947
		c-0.372,0.019-0.483,0.527-0.677,0.792c-0.519,0.829-1.082,1.693-1.732,2.454c-0.657,0.773-1.407,1.435-2.299,1.835
		c-0.836,0.337-1.708,0.227-2.397-0.245c-0.171-0.012-0.29,0.119-0.397,0.234c-1.014,1.355-2.053,2.742-3.603,3.337
		c-0.836,0.254-1.604,0-2.266-0.464l-0.191,0.048c-1.11,1.455-2.203,3.025-3.983,3.476c-0.801,0.221-1.538-0.266-2.026-0.833
		c-0.138-0.095-0.223,0.083-0.325,0.143c-1.209,1.863-2.659,3.718-4.638,4.585c-0.872,0.29-1.744,0.269-2.453-0.237
		c-1.395-1.157-1.071-3.401-0.915-4.991c0.102-0.689,0.281-1.367,0.444-2.045c0.044-0.182,0.087-0.361,0.127-0.543l1.395-5.034
		c0.326-1.394,0.777-2.869,0.202-4.316c-0.154-0.266-0.317-0.571-0.669-0.666l-0.214,0.055c-0.809,0.762-1.562,1.595-2.316,2.451
		l-0.118,0.281c-0.012,2.822-0.436,5.569-1.035,8.28c-0.495,2.232-1.102,4.435-1.697,6.647c-0.384,1.458-0.9,2.906-1.328,4.359
		c-0.408,0.484-1.077,0.654-1.606,0.996l-4.038,2.073c-0.124,0.023-0.306,0.182-0.385,0.035c0.179-0.856,0.469-1.703,0.765-2.528
		c1.003-3.5,2.038-6.984,2.819-10.524c0.361-1.633,0.662-3.277,0.883-4.942c0.124-1.193,0.171-2.75-0.63-3.71
		c-0.11-0.075-0.262-0.127-0.369-0.039c-0.911,0.916-1.827,1.863-2.631,2.906c0.102,1.541,0.206,3.08-0.036,4.554
		c-0.103,0.619-0.222,1.233-0.361,1.839c-0.586,2.568-1.474,5.082-2.41,7.578c-0.963,2.529-1.894,5.062-3.012,7.567l-0.333,0.265
		c-1.971,0.987-3.885,2.07-5.875,3.032c-0.094,0.02-0.182,0.075-0.281,0.071c-0.103-0.209,0.127-0.428,0.159-0.637
		c1.585-3.644,3.056-7.305,4.613-10.945c0.706-1.982,1.479-3.952,2.07-5.949c0.483-1.633,0.848-3.282,0.963-4.986
		c0.028-2.196-1.043-4.09-3.08-5.002c-1.645-0.729-3.448-0.919-5.332-0.475c-2.418,0.547-4.447,1.697-6.219,3.207
		c-1.97,1.914-3.409,4.439-2.66,7.083c0.381,1.241,1.407,2.366,2.687,2.81c0.281,0.095,0.571,0.163,0.872,0.186
		c1.066,0.111,2.153-0.241,2.945-0.924c0.155-0.135,0.298-0.282,0.428-0.44c0.543-0.765,0.622-1.629,0.488-2.504
		c0.036-0.207,0.282-0.241,0.428-0.365c2.006-1.046,3.987-2.144,6.024-3.143c0.099-0.004,0.21,0,0.242,0.102
		c0.274,1.32-0.035,2.561-0.475,3.766c-0.21,0.48-0.46,0.932-0.745,1.347c-1.331,1.963-3.437,3.222-5.763,3.841
		c-2.469,0.598-4.757,0.257-6.794-0.991c-0.147-0.108-0.29-0.222-0.428-0.342c-1.331-1.153-2.133-2.714-2.148-4.554
		c-0.028-1.76,0.467-3.468,1.601-4.955c0.753-1.098,1.634-1.942,2.573-2.743c0.166-0.005,0.166-0.194,0.297-0.246
		c2.866-2.398,6.603-3.848,10.615-4.071c2.544,0.032,5.272,0.555,7.039,2.62c0.456,0.547,0.908,1.09,1.288,1.692
		c0.096,0.075,0.258,0.056,0.345-0.027l1.895-2.021l3.812-4.091c0.278-0.254,0.519-0.583,0.853-0.758
		c0.796,0.104,1.161,0.853,1.697,1.305c0.404,0.488,0.717,1.03,0.966,1.601c0.08,0.08,0.202,0.055,0.262-0.012l4.626-4.756
		c0.365-0.313,0.638-0.768,1.063-0.983c0.151-0.016,0.17-0.068,0.309,0c0.82,0.313,1.665,1.3,2.026,1.894
		c0.471,0.785,0.804,1.494,0.86,2.695c0.111,2.451-0.761,4.733-1.32,7.075c-0.317,1.004-0.606,2.015-0.868,3.029
		c-0.246,0.947-0.472,1.898-0.678,2.854c-0.035,0.535-0.293,1.324,0.381,1.597c0.77,0.012,1.209-0.689,1.645-1.259
		c0.801-1.218,1.424-2.47,1.732-3.786c0.044-0.19,0.079-0.376,0.111-0.566l0.994-4.162l0.202-0.214l3.222-1.688
		c0.119-0.036,0.282-0.163,0.384-0.033l0.004,0.27c-0.401,1.911-0.876,3.793-1.304,5.692c-0.055,0.246-0.111,0.492-0.162,0.741
		c-0.044,0.423-0.202,0.883,0.008,1.316c0.126,0.163,0.348,0.163,0.546,0.083c1.007-0.467,1.4-1.617,1.772-2.556
		c0.036-0.091,0.067-0.175,0.104-0.258c0.103-0.463,0.207-0.927,0.34-1.395l1.74-7.214c0.412-1.562,0.721-3.127,1.189-4.673
		l0.183-0.183c1.121-0.634,2.299-1.196,3.456-1.783c0.083-0.004,0.179-0.008,0.198,0.096c-0.265,1.505-0.634,2.989-0.97,4.483
		l-1.894,7.966l-0.412,1.979c0,0.071,0.008,0.146,0.028,0.218c0.032,0.119,0.095,0.221,0.234,0.257
		c0.301-0.044,0.53-0.222,0.729-0.444c0.171-0.19,0.321-0.412,0.475-0.61c0.737-1.115,1.173-2.272,1.502-3.468l1.725-7.075
		l1.141-4.538c0.036-0.29,0.301-0.448,0.53-0.588l3.104-1.569c0.063-0.027,0.135-0.016,0.174,0.048l-0.104,0.717l-2.117,9.251
		c-0.281,1.32-0.677,2.62-0.844,3.972c-0.004,0.218,0.016,0.428,0.115,0.61c0.108,0.139,0.274,0.135,0.417,0.067
		c0.823-0.59,1.201-1.593,1.578-2.429c0.586-1.678,0.27-2.937,1.505-5.284c0.972-1.847,2.426-3.214,4.305-3.983
		c0.637-0.191,1.283-0.194,1.791,0.19c0.677,0.464,0.809,1.49,0.591,2.203c-0.428,1.486-1.479,2.819-2.684,3.862L120.67,41.426
		L120.67,41.426z"/>
	<path fill-rule="evenodd" clip-rule="evenodd" fill="#D1705D" d="M99.933,42.627c0.444-0.34,1.212-0.559,1.739-0.325
		c0.432,0.174,0.599,0.575,0.63,0.983c0.072,0.967-0.701,1.974-1.573,2.387c-0.397,0.186-0.892,0.234-1.261,0.063
		c-0.475-0.221-0.693-0.701-0.666-1.204C98.836,43.821,99.327,43.06,99.933,42.627L99.933,42.627z"/>
	<path fill-rule="evenodd" clip-rule="evenodd" fill="#486782" d="M121.373,126.176c-0.555,0.119-1.13,0.183-1.721,0.179
		c-4.281-0.028-7.74-3.453-7.84-7.701l0.02-0.635l0.012-39.006l3.789-0.729c0,0,7.376-1.074,7.119-8.712l-10.864,2.101l0.063-14.321
		L95.755,66.01L95.7,74.805l-5.371,1.03l0.003,7.341l5.323-1.031l0.012,49.022l23.848-4.638L121.373,126.176L121.373,126.176z"/>
	<path fill-rule="evenodd" clip-rule="evenodd" fill="#486782" d="M82.497,77.349l0.024,43.928l0.012,2.918
		c-0.028,4.356,3.368,7.966,7.724,7.991l-2.073,0.408l-21.931,4.237l0.016-43.703l0.044-3.132c0.028-4.36-2.41-8.125-6.769-8.153
		L82.497,77.349L82.497,77.349z"/>
	<path fill-rule="evenodd" clip-rule="evenodd" fill="#486782" d="M95.759,135.487c-4.768,4.07-12.671,5.863-12.671,5.863
		l-33.698,6.33c1.819-1.435,3.408-5.95,3.425-8.451l0.043-4.958l0.012-67.227l-22.573,4.368l-1.494,0.34
		c4.36,0.028,7.848,3.58,7.821,7.94l-0.02,3.132l0.028,61.316l-0.012,3.758c-0.028,4.356-2.699,11.307-6.857,11.522l0.047,0.186
		l50.437-6.421L95.759,135.487L95.759,135.487z"/>
	<path fill-rule="evenodd" clip-rule="evenodd" fill="#D1705D" d="M56.559,139.669c0.721-1.499,0.571-3.163,0.571-3.163
		l0.028-70.287l-2.386,0.444l0.036,74.655C54.807,141.318,55.91,141.013,56.559,139.669L56.559,139.669z"/>
	<path fill-rule="evenodd" clip-rule="evenodd" fill="#D1705D" d="M85.121,126.637c-0.53-1.071-0.535-3.167-0.535-3.167
		l-0.003-46.517l2.26-0.448l0.008,51.804C86.85,128.309,85.783,127.976,85.121,126.637L85.121,126.637z"/>
	<polygon fill-rule="evenodd" clip-rule="evenodd" fill="#D1705D" points="114.099,69.318 114.099,56.377 116.327,55.129 
		116.319,68.847 114.099,69.318 	"/>
	<path fill-rule="evenodd" clip-rule="evenodd" fill="#D1705D" d="M116.275,80.136l0.016,42.533c0,0-1.071-0.337-1.732-1.672
		c-0.527-1.074-0.53-3.172-0.53-3.172l-0.052-37.245L116.275,80.136L116.275,80.136z"/>
	<path fill-rule="evenodd" clip-rule="evenodd" fill="#486782" d="M160.624,62.363l-35.419,6.818l-0.095,31.765
		c0,0-0.078,1.668,0.159,4.217c0.186,2.026,0.947,7.012,3.655,10.321c2.636,3.214,6.829,5.748,9.952,6.573
		c2.252,0.594,4.864,0.895,7.599,0.444c7.776-1.292,13.802-10.032,16.326-15.514c0,0-2.469,2.203-6.652,3.686
		c-6.317,2.243-11.102-0.928-12.961-4.76c-1.038-2.133-2.144-5.982-2.029-10.369c0,0,5.336,0.234,12.133-3.749
		c3.523-2.065,5.449-4.161,6.976-6.33c1.521-2.172,2.94-4.844,3.824-9.278c0.868-4.36-1.019-10.227-2.75-12.803
		C161.124,63.06,160.886,62.72,160.624,62.363L160.624,62.363z"/>
	<path fill-rule="evenodd" clip-rule="evenodd" fill="#FFFFFF" d="M146.842,69.343l-5.367,1.169l-0.032,19.766
		c0,0,9.679,0.282,9.524-13.056C150.968,77.222,150.949,68.874,146.842,69.343L146.842,69.343z"/>
	<path fill-rule="evenodd" clip-rule="evenodd" fill="#D1705D" d="M145.202,72.037l-1.816,0.412l0.003,15.609
		c0,0,2.347-0.381,2.609-4.733l0.011-9.838C146.01,73.489,146.141,72.156,145.202,72.037L145.202,72.037z"/>
	<path fill-rule="evenodd" clip-rule="evenodd" fill="#D1705D" d="M149.732,109.435c-1.867-1.118-4.325-4.356-4.293-12.311
		l-2.541,0.574c0.634,9.731,5.842,11.534,5.842,11.534L149.732,109.435L149.732,109.435z"/>
	<path fill-rule="evenodd" clip-rule="evenodd" fill="#D1705D" d="M156.291,119.327c5.497-3.21,9.173-9.148,11.451-15.284
		l-2.612,1.756c-1.879,4.621-5.668,10.67-9.869,14.266L156.291,119.327L156.291,119.327z"/>
	<polygon fill-rule="evenodd" clip-rule="evenodd" fill="#D1705D" points="86.96,152.392 102.779,134.167 99.719,134.738 
		84.146,152.698 86.96,152.392 	"/>
	<path fill-rule="evenodd" clip-rule="evenodd" fill="#D1705D" d="M162.61,84.816c3.047-4.042,4.276-5.996,5.16-10.432
		c0.867-4.36-1.022-10.226-2.752-12.803l0.049-0.032l-2.28,0.444l0.591,0.996c1.728,2.576,3.619,8.442,2.75,12.802
		c-0.884,4.436-2.302,7.107-3.824,9.279L162.61,84.816L162.61,84.816z"/>
	<path fill-rule="evenodd" clip-rule="evenodd" fill="#D1705D" d="M133.362,41.312h-0.381v-1.775h0.666
		c0.46,0,0.729,0.13,0.729,0.535c0,0.329-0.194,0.448-0.428,0.464l0.452,0.776h-0.447l-0.412-0.745h-0.179V41.312L133.362,41.312z
		 M133.699,40.266c0.171,0,0.27-0.036,0.27-0.234c0-0.183-0.194-0.194-0.342-0.194h-0.265v0.428H133.699L133.699,40.266z
		 M133.635,42.077c-0.875,0-1.656-0.607-1.656-1.65c0-1.046,0.781-1.653,1.656-1.653c0.877,0,1.657,0.607,1.657,1.653
		C135.292,41.47,134.512,42.077,133.635,42.077L133.635,42.077z M133.635,39.16c-0.654,0-1.181,0.507-1.181,1.267
		c0,0.758,0.527,1.269,1.181,1.265v0.003c0.638,0,1.182-0.511,1.182-1.269C134.817,39.667,134.273,39.16,133.635,39.16
		L133.635,39.16z"/>
</g>
</svg>
