<?xml version="1.0" encoding="utf-8"?>
<!-- Generator: Adobe Illustrator 21.0.2, SVG Export Plug-In . SVG Version: 6.00 Build 0)  -->
<svg version="1.1" id="Layer_2" xmlns="http://www.w3.org/2000/svg" xmlns:xlink="http://www.w3.org/1999/xlink" x="0px" y="0px"
	 width="200px" height="200px" viewBox="0 0 200 200" enable-background="new 0 0 200 200" xml:space="preserve">
<linearGradient id="SVGID_1_" gradientUnits="userSpaceOnUse" x1="100.268" y1="141.7517" x2="100.268" y2="58.6143">
	<stop  offset="0" style="stop-color:#A01C24"/>
	<stop  offset="0.5" style="stop-color:#FF4800"/>
	<stop  offset="1" style="stop-color:#A01C24"/>
</linearGradient>
<path fill="url(#SVGID_1_)" d="M195.039,141.752H37.405c-17.55,0-31.908-14.359-31.908-31.908V90.522
	c0-17.55,14.359-31.908,31.908-31.908h146.999c5.85,0,10.636,4.786,10.636,10.636V141.752z"/>
<path fill="none" stroke="#83FF00" stroke-width="0.2455" stroke-miterlimit="10" d="M78.375,135.556h-39.55
	c-14.989,0-27.253-12.264-27.253-27.253V91.801c0-14.989,12.264-27.253,27.253-27.253h39.55c14.989,0,27.253,12.264,27.253,27.253
	v16.502C105.627,123.292,93.364,135.556,78.375,135.556z"/>
<path fill="#231F20" d="M111.641,58.614H21.183c-8.627,0-15.686,7.059-15.686,15.686v51.765c0,8.627,7.059,15.686,15.686,15.686
	h90.458V58.614z"/>
<polygon fill="#FFFFFF" points="69.418,70.771 60.658,75.782 75.172,102.314 65.023,107.866 50.614,81.526 42.206,86.335 
	57.036,112.265 46.993,118.008 32.163,92.078 28.503,103.059 40.421,125.374 45.708,128.583 87.85,105.281 "/>
<path fill="#FFFFFF" d="M111.641,105.063c2.179,0.349,15.425,10.806,26.928,11.503c11.503,0.697,19.085-11.678,19.085-11.678V83.712
	c-9.586,15.686-19.782,15.251-26.754,11.068c-5.399-3.239-19.259-9.76-19.259-9.76V105.063z"/>
<polygon fill="#FFFFFF" points="153.341,142.667 160.268,125.804 183.798,125.804 177.917,142.667 "/>
<path fill="#FFFFFF" d="M90.987,64.549H26.213c-8.052,0-14.641,6.588-14.641,14.641v41.726c0,8.052,6.588,14.641,14.641,14.641
	h64.774c8.052,0,14.641-6.588,14.641-14.641V79.189C105.627,71.137,99.039,64.549,90.987,64.549z M101.706,120.915
	c0,5.91-4.809,10.719-10.719,10.719H26.213c-5.91,0-10.719-4.809-10.719-10.719V79.189c0-5.91,4.809-10.719,10.719-10.719h64.774
	c5.91,0,10.719,4.809,10.719,10.719V120.915z"/>
<path fill="#FFFFFF" d="M196.039,63.843c0-2.876-2.353-5.229-5.229-5.229h-9.187L177,75.085l-8.235,41.51h13.203l14.072-26.61
	V63.843z"/>
</svg>
