<?xml version="1.0" encoding="utf-8"?>
<!-- Generator: Adobe Illustrator 21.0.2, SVG Export Plug-In . SVG Version: 6.00 Build 0)  -->
<svg version="1.1" id="Layer_2" xmlns="http://www.w3.org/2000/svg" xmlns:xlink="http://www.w3.org/1999/xlink" x="0px" y="0px"
	 width="200px" height="200px" viewBox="0 0 200 200" enable-background="new 0 0 200 200" xml:space="preserve">
<g>
	<g>
		<path d="M165.21,114.408c-29.489-1.076-73.292,17.758-73.292,17.758l0.323,9.794c0,0,48.862-18.942,72.97-16.789"/>
		<path d="M91.306,79.612c4.825-6.997,8.751-11.425,11.703-14.214c-0.472-0.542-0.968-1.108-1.482-1.689
			c-6.491,4.88-11.117,13.246-11.117,13.246c3.517-7.428,6.591-12.348,9.019-15.584c-0.664-0.729-3.268,1.653-3.949,0.93
			c-3.858,6.036-5.661,11.253-5.661,11.253c2.096-7.353,4.17-12.502,5.951-16.074c-0.299-0.306-0.597-0.607-0.892-0.902
			c-3.705,6.355-7.359,17.278-7.359,17.278c1.721-9.462,3.746-15.452,5.42-19.155c-0.519-0.483-1.021-0.933-1.503-1.345
			c-3.443,5.633-6.188,21.231-6.188,21.231c0.408-13.067,2.323-19.873,3.675-23.114c-1.083-0.651-1.892-0.837-2.276-0.349
			c-2.368,3.013-5.18,44.04-7.534,58.109c-2.354,14.069-5.704,20.995-5.704,20.995c-0.484,1.453,2.26,2.26,2.48,2.26
			c0.22,0,0.749-2.26,0.749-2.26s-0.377,7.318-0.323,7.695c0.054,0.377,1.345,1.453,2.206,0c0.861-1.453,3.928-66.135,28.951-67.265
			c0,0-0.88-1.074-2.279-2.723C97.652,71.551,91.306,79.612,91.306,79.612z"/>
		<path d="M51.37,94.067c-0.646-2.906-10.574-14.126-14.449-14.449S19.406,92.049,19.406,92.049
			c-5.408,5.005-6.619,3.794-9.363,5.489s-3.955,17.274-3.309,18.162c0.646,0.888,8.718-2.502,8.718-2.502
			c1.372,3.39-9.606,37.453-9.767,38.583c-0.161,1.13,2.825,5.031,2.825,5.031c2.502,2.771,10.171,7.803,11.543,7.884
			s8.233-6.054,11.301-9.363c2.953-3.186,18-40.601,18-40.601C51.532,108.354,52.016,96.973,51.37,94.067z M33.693,127.323
			C27.457,138.69,22.5,149.709,22.5,149.709c-0.969,1.507-4.09,0.215-1.722-7.964c2.368-8.179,8.493-26.101,8.924-30.729
			c0,0-0.206-9.953,3.776-11.46c3.982-1.507,5.704-1.614,5.812,4.09C39.397,109.35,37.943,119.576,33.693,127.323z"/>
		<path d="M101.066,99.879c1.994,2.2,10.762,10.117,5.704,19.372c-5.826,10.66-22.171,4.892-22.171,4.892
			c-5.704-2.104-3.229-6.506-1.83-10.488s4.951-7.211,5.812-3.229s5.812,7.426,10.117,4.843c4.305-2.583-2.26-6.78-6.135-9.04
			c-3.874-2.26-3.013-11.301-4.413-8.395c-1.399,2.906-12.484,31.346-15.552,37.561c-3.067,6.215-6.215,3.39-6.538,0.484
			c-0.323-2.906-1.695-0.161-1.695-0.161c-4.197,9.525-11.301,13.238-16.951,12.592s-4.52-9.202-1.614-15.982
			c2.906-6.78,6.942-22.278,8.233-26.637s3.067-5.327,3.067-5.327s9.417-6.188,10.278-4.144c0.861,2.045,0.108,4.628-1.399,7.426
			c-1.507,2.798-15.606,37.453-10.547,34.44c5.058-3.014,6.027-6.996,8.61-14.206c2.583-7.211,6.35-20.987,6.135-26.26
			s1.184-7.103,3.982-7.534c2.798-0.43,10.224-2.691,9.04,0c-1.184,2.691-3.229,10.547-4.951,14.852
			c-1.722,4.305-8.933,25.184-6.673,24.538c2.26-0.646,7.534-16.359,9.686-22.278c2.152-5.919,5.596-13.023,5.489-15.175
			c-0.108-2.152,0.264-10.136,10.224-9.148c5.306,0.526,7.211,3.444,7.211,3.444s1.291,1.292-1.399,4.628
			S97.82,96.299,101.066,99.879z"/>
		<path d="M117.317,51.77l-11.623-0.646l-1.291-14.852l-8.556,14.206l-11.623-0.807l7.749,8.556l-5.973,12.431l12.108-7.103
			l9.363,8.072l-0.807-13.561L117.317,51.77z M104.241,63.878l-4.359-3.874l-7.426,3.874l3.552-6.78l-3.552-3.874h5.812l3.874-6.619
			l0.646,6.457l6.457,0.888l-5.005,3.148V63.878z"/>
		<path d="M162.304,76.847c-4.396,32.449-21.31,60.055-36.377,71.534c-15.067,11.479-44.987,8.646-49.4,1.866
			c-4.413-6.78,15.39-18.081,15.39-18.081l0.323,9.794c-23.677,12.269,1.399,10.332,18.727,4.951
			c17.326-5.381,31.319-35.516,28.628-33.794c-2.691,1.722-7.641,0.538-7.641,0.538s-11.193,7.857-18.942,1.931
			s-1.184-22.272-1.184-22.272c1.143-3.121-1.507-2.26-3.982-2.26c-2.475,0-1.399-5.274,0-8.264s8.502-2.714,8.502-2.714
			s4.197-11.193,5.919-14.206c1.722-3.013,1.83-3.444,4.197-3.444s8.395-0.753,7.534,1.453c-0.861,2.206-6.565,12.861-4.951,12.861
			c1.614,0,3.659-0.323,3.336,1.184c-0.323,1.507-1.937,8.61-3.444,8.825c-1.507,0.215-4.628,0.215-4.843,0.861
			c-0.215,0.646-4.951,11.516-5.919,17.435c-0.969,5.919-0.426,6.135,0.917,6.35c1.343,0.215,6.401-1.292,7.155-1.292
			s-0.215-6.888,3.767-15.713c3.982-8.825,5.274-18.081,7.964-18.296c2.691-0.215,10.547-1.399,9.579,1.291
			c-0.969,2.691-18.189,26.906-10.009,29.92c8.179,3.013,14.529-26.045,14.852-31.104c0,0,0.43-1.076,3.336-1.184
			C158.645,74.91,162.701,73.92,162.304,76.847z"/>
		<polygon points="156.385,108.588 166.717,118.767 155.578,134.426 175.273,126.839 194.646,136.525 184.637,119.897 
			195.937,109.726 183.184,109.403 178.018,94.874 170.107,108.588 		"/>
	</g>
	<path fill="#F7BE10" stroke="#000000" stroke-width="0.3229" stroke-miterlimit="10" d="M163.596,113.439
		c-29.489-1.076-73.292,17.758-73.292,17.758l0.323,9.794c0,0,48.862-18.942,72.97-16.789"/>
	<path fill="none" stroke="#231F20" stroke-width="0.3229" stroke-miterlimit="10" d="M165.533,115.446
		c-29.489-1.076-75.23,18.404-75.23,18.404"/>
	<path fill="none" stroke="#231F20" stroke-width="0.3229" stroke-miterlimit="10" d="M165.533,118.013
		c-29.489-1.076-75.23,18.404-75.23,18.404"/>
	<path fill="none" stroke="#231F20" stroke-width="0.3229" stroke-miterlimit="10" d="M165.533,121.229
		c-29.489-1.076-75.23,18.404-75.23,18.404"/>
	<path fill="#F7BE10" stroke="#000000" stroke-width="0.3229" stroke-miterlimit="10" d="M89.692,78.644
		c4.825-6.997,8.751-11.425,11.703-14.214c-0.472-0.542-0.968-1.108-1.482-1.689c-6.491,4.88-11.117,13.246-11.117,13.246
		c3.517-7.428,6.591-12.348,9.019-15.584c-0.664-0.729-3.268,1.653-3.949,0.93c-3.858,6.036-5.661,11.253-5.661,11.253
		c2.096-7.353,4.17-12.502,5.951-16.074c-0.299-0.306-0.597-0.607-0.892-0.902c-3.705,6.355-7.359,17.278-7.359,17.278
		c1.721-9.462,3.746-15.452,5.42-19.155c-0.519-0.483-1.021-0.933-1.503-1.345c-3.443,5.633-6.188,21.231-6.188,21.231
		c0.408-13.067,2.323-19.873,3.675-23.114c-1.083-0.651-1.892-0.837-2.276-0.349c-2.368,3.013-5.18,44.04-7.534,58.109
		c-2.354,14.069-5.704,20.995-5.704,20.995c-0.484,1.453,2.26,2.26,2.48,2.26c0.22,0,0.749-2.26,0.749-2.26
		s-0.377,7.318-0.323,7.695c0.054,0.377,1.345,1.453,2.206,0c0.861-1.453,3.928-66.135,28.951-67.265c0,0-0.88-1.074-2.279-2.723
		C96.037,70.582,89.692,78.644,89.692,78.644z"/>
	<g>
		<path fill="#DE4A33" d="M18.415,164.102c-1.496-0.088-9.275-5.211-11.799-8.007c-0.534-0.696-3.093-4.112-2.918-5.336
			c0.037-0.261,0.454-1.641,1.392-4.739c2.479-8.186,8.911-29.415,8.481-33.276c-1.449,0.593-6.262,2.511-7.955,2.511
			c-0.144,0-0.582,0-0.802-0.303c-0.558-0.767-0.081-7.617,0.865-12.424c0.699-3.552,1.557-5.665,2.55-6.278
			c0.949-0.586,1.709-0.834,2.515-1.098c1.518-0.496,3.237-1.058,6.791-4.347c0.546-0.51,13.458-12.536,17.621-12.536
			c0.062,0,0.123,0.002,0.181,0.007c4.241,0.354,14.148,11.881,14.784,14.741c0.662,2.979,0.141,14.518-2.029,20.867
			c-0.623,1.549-15.114,37.535-18.08,40.735c-2.686,2.897-9.833,9.484-11.548,9.484C18.464,164.103,18.415,164.102,18.415,164.102z
			 M35.225,98.083c-0.806,0-1.873,0.342-3.229,0.854c-3.691,1.397-3.536,11.005-3.534,11.102
			c-0.301,3.262-3.277,12.692-5.903,21.012c-1.181,3.74-2.295,7.272-3.035,9.829c-1.54,5.318-0.578,7.169-0.247,7.61
			c0.204,0.271,0.449,0.421,0.69,0.421c0.231,0,0.451-0.136,0.604-0.374c0.023-0.062,5.008-11.114,11.18-22.364
			c3.981-7.258,5.667-17.264,5.55-23.49C37.22,98.438,36.187,98.083,35.225,98.083z"/>
		<path d="M35.157,78.643c0.051,0,0.102,0.002,0.15,0.006c3.875,0.323,13.803,11.543,14.449,14.449
			c0.646,2.906,0.161,14.287-2.018,20.664c0,0-15.047,37.415-18,40.601c-3.047,3.288-9.84,9.364-11.273,9.364
			c-0.009,0-0.019,0-0.028-0.001c-1.372-0.081-9.04-5.112-11.543-7.884c0,0-2.987-3.901-2.825-5.031
			c0.161-1.13,11.139-35.193,9.767-38.583c0,0-6.311,2.651-8.219,2.651c-0.25,0-0.424-0.045-0.499-0.148
			c-0.646-0.888,0.565-16.467,3.309-18.162s3.955-0.484,9.363-5.489C17.791,91.08,31.095,78.643,35.157,78.643 M19.967,149.286
			c0.358,0,0.696-0.199,0.919-0.546c0,0,4.957-11.019,11.193-22.386c4.25-7.747,5.704-17.973,5.596-23.677
			c-0.07-3.721-0.827-4.969-2.45-4.969c-0.865,0-1.977,0.355-3.362,0.879c-3.982,1.507-3.776,11.46-3.776,11.46
			c-0.43,4.628-6.556,22.549-8.924,30.729C17.341,147.071,18.77,149.286,19.967,149.286 M35.157,77.893
			c-4.237,0-16.495,11.345-17.878,12.639c-3.491,3.23-5.097,3.755-6.65,4.263c-0.791,0.259-1.609,0.526-2.595,1.135
			c-0.405,0.25-1.636,1.01-2.721,6.522c-0.826,4.196-1.528,11.72-0.801,12.719c0.221,0.303,0.593,0.457,1.106,0.457
			c1.616,0,5.739-1.585,7.615-2.342c-0.059,4.755-6.339,25.487-8.503,32.628c-1.011,3.337-1.363,4.506-1.403,4.791
			c-0.186,1.301,2.017,4.345,2.972,5.593l0.018,0.024l0.02,0.023c2.447,2.71,10.333,8.028,12.055,8.13l0.022,0.001l0.05,0.001
			c2.042,0,9.677-7.289,11.823-9.604c3.013-3.251,17.529-39.298,18.146-40.831c2.243-6.56,2.741-18.015,2.054-21.107
			C49.84,90.02,39.709,78.264,35.37,77.902C35.301,77.896,35.23,77.893,35.157,77.893L35.157,77.893z M19.967,148.536
			c-0.118,0-0.261-0.099-0.39-0.271c-0.305-0.406-1.184-2.129,0.307-7.281c0.739-2.551,1.853-6.081,3.032-9.818
			c2.632-8.339,5.615-17.79,5.918-21.049l0.004-0.042l-0.001-0.043c-0.053-2.622,0.435-9.663,3.292-10.743
			c1.139-0.431,2.303-0.83,3.096-0.83c0.002,0,0.004,0,0.006,0c0.607,0,1.614,0.014,1.694,4.233
			c0.117,6.178-1.556,16.106-5.504,23.303c-5.941,10.83-10.784,21.477-11.192,22.378C20.151,148.477,20.057,148.536,19.967,148.536
			L19.967,148.536z"/>
	</g>
	<g>
		<path fill="#DE4A33" d="M47.062,147.788c-0.438,0-0.877-0.025-1.304-0.074c-1.542-0.176-2.699-0.91-3.436-2.18
			c-1.959-3.375-0.5-9.612,1.52-14.323c2.268-5.291,5.25-16,7.032-22.399c0.498-1.787,0.906-3.253,1.186-4.197
			c1.32-4.456,3.169-5.508,3.247-5.55c0.261-0.173,7.034-4.604,9.627-4.604c0.749,0,1.053,0.35,1.177,0.644
			c0.814,1.935,0.352,4.469-1.415,7.75c-1.762,3.273-13.001,31.47-11.475,34.025c0.035,0.017,0.07,0.025,0.109,0.025
			c0.075,0,0.165-0.033,0.296-0.111c4.448-2.65,5.615-5.968,7.733-11.99c0.227-0.645,0.463-1.317,0.715-2.021
			c2.691-7.512,6.318-21.083,6.113-26.119c-0.209-5.124,1.036-7.418,4.299-7.919c0.581-0.089,1.391-0.265,2.249-0.45
			c1.844-0.399,3.934-0.852,5.388-0.852c0.958,0,1.532,0.196,1.807,0.616c0.209,0.321,0.208,0.727-0.002,1.207
			c-0.567,1.29-1.355,3.846-2.188,6.552c-0.875,2.842-1.868,6.063-2.757,8.288c-2.092,5.229-7.75,22.233-7.051,24.015
			c1.81-0.792,6.218-13.192,8.35-19.189c0.384-1.079,0.727-2.043,1.014-2.833c0.749-2.059,1.643-4.235,2.507-6.339
			c1.556-3.788,3.026-7.366,2.96-8.689c-0.053-1.055-0.042-4.691,2.323-7.178c1.545-1.625,3.78-2.448,6.642-2.448
			c0.533,0,1.095,0.029,1.671,0.086c5.422,0.538,7.406,3.487,7.488,3.612c0.014,0.002,1.448,1.511-1.421,5.068
			c-0.243,0.302-0.483,0.593-0.716,0.875c-2.342,2.84-3.755,4.554-1.02,7.571c0.158,0.174,0.359,0.385,0.592,0.629
			c2.721,2.85,9.947,10.42,5.163,19.174c-2.376,4.348-6.88,6.646-13.026,6.646c-5.065,0-9.416-1.515-9.599-1.58
			c-1.773-0.654-2.9-1.556-3.45-2.76c-0.926-2.028,0.001-4.489,0.899-6.87c0.169-0.448,0.337-0.895,0.492-1.336
			c0.916-2.604,2.907-5.299,4.654-5.299c0.648,0,1.5,0.367,1.878,2.115c0.648,3,3.607,5.441,6.596,5.441
			c1.035,0,2.032-0.283,2.961-0.841c0.831-0.498,1.232-1.053,1.228-1.696c-0.015-2.414-5.542-5.639-7.359-6.699
			c-2.356-1.375-3.036-4.917-3.485-7.26c-0.103-0.534-0.215-1.121-0.318-1.457c-0.024,0.045-0.052,0.098-0.083,0.162
			c-0.539,1.119-2.596,6.231-4.979,12.15c-3.874,9.625-8.694,21.604-10.575,25.414c-1.601,3.244-3.157,3.925-4.18,3.926h0
			c-1.735,0-2.875-1.837-3.066-3.566c-0.097-0.874-0.275-1.01-0.276-1.011c-0.107,0.038-0.481,0.516-0.711,0.976
			C58.908,144.402,52.068,147.787,47.062,147.788z"/>
		<path d="M93.728,81.821c0.514,0,1.057,0.027,1.634,0.084c5.306,0.526,7.211,3.444,7.211,3.444s1.292,1.292-1.399,4.628
			s-4.968,5.353-1.722,8.933c1.994,2.2,10.762,10.117,5.704,19.372c-2.798,5.119-8.022,6.45-12.697,6.45
			c-5.059,0-9.474-1.558-9.474-1.558c-5.704-2.104-3.229-6.506-1.83-10.488c0.947-2.697,2.882-5.048,4.3-5.048
			c0.676,0,1.234,0.534,1.512,1.819c0.654,3.024,3.666,5.737,6.962,5.737c1.045,0,2.118-0.273,3.154-0.894
			c4.305-2.583-2.26-6.78-6.135-9.041c-3.347-1.952-3.16-8.964-3.949-8.965c-0.124,0-0.273,0.174-0.463,0.57
			c-1.399,2.906-12.484,31.346-15.552,37.561c-1.348,2.731-2.711,3.717-3.844,3.717c-1.445,0-2.513-1.603-2.694-3.232
			c-0.112-1.006-0.349-1.335-0.612-1.335c-0.496,0-1.083,1.173-1.083,1.173c-3.89,8.827-10.277,12.663-15.689,12.663
			c-0.428,0-0.848-0.024-1.262-0.071c-5.65-0.646-4.52-9.202-1.614-15.982c2.906-6.78,6.942-22.278,8.233-26.637
			c1.291-4.359,3.067-5.327,3.067-5.327s6.936-4.558,9.447-4.558c0.415,0,0.709,0.124,0.831,0.414
			c0.861,2.045,0.108,4.628-1.399,7.426c-1.444,2.682-14.453,34.625-11.081,34.625c0.146,0,0.323-0.06,0.534-0.186
			c5.058-3.013,6.027-6.996,8.61-14.206c2.583-7.211,6.35-20.987,6.135-26.26c-0.215-5.274,1.184-7.103,3.982-7.534
			c1.788-0.275,5.466-1.297,7.58-1.297c1.194,0,1.888,0.326,1.461,1.297c-1.184,2.691-3.229,10.547-4.951,14.852
			c-1.696,4.239-8.714,24.553-6.769,24.553c0.03,0,0.062-0.005,0.097-0.015c2.26-0.646,7.534-16.359,9.686-22.278
			c2.153-5.919,5.596-13.023,5.489-15.175C85.036,89.025,85.361,81.821,93.728,81.821 M93.729,81.071L93.729,81.071
			c-2.969,0-5.296,0.863-6.915,2.565c-2.467,2.594-2.481,6.362-2.426,7.455c0.062,1.239-1.46,4.944-2.932,8.527
			c-0.866,2.108-1.762,4.289-2.513,6.355c-0.288,0.791-0.631,1.756-1.015,2.837c-1.618,4.55-5.672,15.955-7.655,18.498
			c0.295-3.667,4.957-17.809,7.058-23.061c0.896-2.24,1.848-5.331,2.769-8.321c0.83-2.694,1.614-5.239,2.172-6.508
			c0.331-0.751,0.168-1.265-0.026-1.563c-0.46-0.705-1.431-0.787-2.121-0.787c-1.494,0-3.605,0.457-5.468,0.86
			c-0.852,0.184-1.657,0.359-2.226,0.446c-3.452,0.531-4.833,3.015-4.617,8.306c0.204,4.99-3.41,18.493-6.091,25.977
			c-0.252,0.705-0.489,1.378-0.716,2.023c-2.081,5.915-3.231,9.185-7.52,11.761c-0.087-0.829,0.165-4.126,4.721-16.515
			c2.884-7.842,6.148-15.647,6.818-16.894c1.824-3.387,2.291-6.027,1.43-8.073c-0.137-0.326-0.518-0.873-1.522-0.873
			c-2.638,0-9.027,4.135-9.84,4.669c-0.329,0.194-2.107,1.414-3.393,5.753c-0.281,0.948-0.681,2.384-1.187,4.202
			c-1.78,6.39-4.759,17.085-7.016,22.353c-2.055,4.795-3.528,11.164-1.499,14.659c0.8,1.378,2.051,2.173,3.718,2.364
			c0.441,0.05,0.895,0.076,1.347,0.076c7.813,0,13.582-6.773,16.375-13.111c0.06-0.118,0.139-0.249,0.22-0.37
			c0.015,0.088,0.03,0.192,0.043,0.312c0.21,1.89,1.487,3.9,3.44,3.9c1.129,0,2.83-0.717,4.516-4.135
			c1.334-2.704,4.138-9.49,7.036-16.639c-0.109,0.975-0.028,1.92,0.376,2.805c0.594,1.3,1.79,2.266,3.656,2.955
			c0.195,0.069,4.605,1.604,9.733,1.604c6.291,0,10.909-2.365,13.355-6.84c4.916-8.995-2.448-16.709-5.22-19.613
			c-0.231-0.242-0.43-0.45-0.586-0.623c-2.517-2.777-1.331-4.215,1.031-7.08c0.234-0.283,0.475-0.575,0.719-0.878
			c2.794-3.464,1.73-5.176,1.408-5.56c-0.303-0.429-2.455-3.205-7.729-3.729C94.848,81.101,94.273,81.071,93.729,81.071
			L93.729,81.071z M82.464,108.771c1.903-4.727,3.57-8.865,4.373-10.738c0.024,0.122,0.047,0.245,0.07,0.361
			c0.462,2.411,1.161,6.053,3.664,7.514c4.751,2.771,7.164,4.917,7.173,6.377c0.001,0.184,0.005,0.742-1.046,1.373
			c-0.871,0.522-1.802,0.787-2.768,0.787c-2.821,0-5.616-2.308-6.229-5.146c-0.454-2.098-1.601-2.411-2.245-2.411
			C84.426,106.888,83.372,107.656,82.464,108.771L82.464,108.771z"/>
	</g>
	<g>
		<path fill="#DE4A33" d="M96.474,62.784L84.01,70.097l6.155-12.81l-7.945-8.773l11.925,0.828l8.761-14.547l1.323,15.207
			l12.015,0.667l-11.028,6.517l0.825,13.843L96.474,62.784z M102.465,62.55V56.04l4.705-2.959l-6.144-0.845l-0.609-6.09l-3.67,6.271
			h-5.537l3.38,3.688l-3.365,6.425l7.068-3.688L102.465,62.55z"/>
		<path d="M102.788,35.304l1.292,14.852l11.623,0.646l-10.655,6.296l0.807,13.561l-9.363-8.072L84.384,69.69l5.973-12.431
			l-7.749-8.556l11.623,0.807L102.788,35.304 M90.842,62.909l7.426-3.874l4.359,3.874v-6.78l5.005-3.148l-6.458-0.888l-0.646-6.457
			l-3.874,6.619h-5.812l3.552,3.875L90.842,62.909 M103.024,34.287l-0.512,0.851l-8.454,14.037l-11.426-0.793l-0.8-0.056
			l0.538,0.594l7.603,8.395L84.093,69.55l-0.458,0.954l0.913-0.535l11.909-6.986l9.188,7.921l0.578,0.499l-0.045-0.762
			l-0.795-13.364l10.485-6.196l0.916-0.541l-1.062-0.059l-11.344-0.63l-1.267-14.573L103.024,34.287L103.024,34.287z M91.576,52.577
			h5.078h0.185l0.094-0.16l3.373-5.763l0.547,5.47l0.025,0.253l0.252,0.035l5.579,0.767l-4.254,2.676l-0.151,0.095v0.178v6.061
			l-3.821-3.397l-0.166-0.148l-0.197,0.103l-6.513,3.398l3.074-5.868l0.105-0.201l-0.153-0.167L91.576,52.577L91.576,52.577z"/>
	</g>
	<g>
		<path fill="#DE4A33" d="M96.399,155.572c-10.502,0-19.467-2.504-21.8-6.089c-0.687-1.056-0.871-2.271-0.546-3.611
			c1.621-6.691,15.476-14.664,16.065-15l0.541-0.308l0.351,10.652l-0.21,0.109c-8.985,4.656-9.606,6.592-9.456,7.208
			c0.09,0.369,0.74,1.227,4.824,1.227c5.669,0,15.158-1.717,23.075-4.176c15.662-4.864,28.119-29.546,28.683-32.983
			c-0.996,0.572-2.346,0.856-4.006,0.856c-1.613,0-3.029-0.27-3.501-0.37c-0.949,0.639-6.383,4.116-12.179,4.116
			c-2.704,0-5.082-0.77-7.068-2.289c-7.885-6.03-1.577-22.031-1.304-22.709c0.271-0.738,0.321-1.27,0.142-1.526
			c-0.156-0.224-0.553-0.328-1.247-0.328c-0.351,0-0.736,0.025-1.137,0.05c-0.453,0.029-0.925,0.059-1.391,0.059
			c-0.606,0-1.095-0.264-1.413-0.764c-1.067-1.678-0.015-5.708,1.073-8.034c1.24-2.651,6.268-2.937,8.372-2.937
			c0.08,0,0.151,0,0.213,0.001c0.644-1.708,4.256-11.221,5.851-14.012l0.269-0.471c1.488-2.617,1.798-3.162,4.254-3.162
			c0.426,0,0.971-0.025,1.573-0.052c0.756-0.034,1.6-0.072,2.413-0.072c2.197,0,3.375,0.289,3.818,0.938
			c0.153,0.225,0.292,0.606,0.079,1.15c-0.23,0.59-0.773,1.718-1.461,3.146c-1.294,2.685-3.951,8.201-3.755,9.204
			c0.212-0.001,0.431-0.007,0.65-0.014c0.256-0.007,0.512-0.015,0.759-0.015c0.805,0,1.605,0.069,2.012,0.572
			c0.227,0.28,0.293,0.649,0.198,1.095c-0.708,3.306-2.138,8.886-3.758,9.118c-0.431,0.062-0.991,0.106-1.579,0.153
			c-0.957,0.075-2.737,0.216-2.978,0.487c-0.018,0.071-0.165,0.43-0.392,0.984c-1.159,2.822-4.686,11.408-5.497,16.361
			c-0.562,3.43-0.634,5.047-0.25,5.579c0.142,0.198,0.369,0.262,0.856,0.34c0.072,0.012,0.159,0.016,0.256,0.016
			c0.978,0,3.062-0.494,4.584-0.854c1.058-0.25,1.732-0.408,2.097-0.448c0.081-0.265,0.143-0.988,0.203-1.689
			c0.234-2.728,0.669-7.805,3.38-13.813c1.565-3.468,2.698-6.959,3.697-10.04c1.627-5.013,2.702-8.325,4.579-8.476
			c0.347-0.027,0.781-0.072,1.271-0.121c1.348-0.137,3.194-0.324,4.798-0.324c2.104,0,3.306,0.314,3.78,0.989
			c0.17,0.242,0.327,0.654,0.113,1.249c-0.21,0.585-1.044,1.962-2.306,4.048c-3.684,6.089-11.35,18.759-9.631,23.667
			c0.297,0.848,0.854,1.413,1.704,1.726c0.352,0.13,0.709,0.196,1.062,0.196c7.234,0,12.977-26.113,13.287-30.971l0.003-0.06
			l0.022-0.056c0.053-0.133,0.61-1.306,3.671-1.419c0.521-0.02,1.079-0.068,1.642-0.116c0.751-0.064,1.527-0.131,2.234-0.131
			c0.845,0,2.042,0.083,2.672,0.805c0.363,0.416,0.498,0.986,0.402,1.697c-4.562,33.677-22.129,60.817-36.521,71.782
			c-6.557,4.996-16.813,7.861-28.138,7.862C96.401,155.572,96.4,155.572,96.399,155.572z"/>
		<path d="M128.836,61.332c2.14,0,4.06,0.266,3.548,1.577c-0.861,2.206-6.565,12.861-4.951,12.861c0.484,0,1.007-0.029,1.494-0.029
			c1.135,0,2.069,0.158,1.843,1.213c-0.323,1.507-1.937,8.61-3.444,8.825c-1.507,0.215-4.628,0.215-4.843,0.861
			c-0.215,0.646-4.951,11.516-5.919,17.435s-0.426,6.135,0.917,6.35c0.09,0.014,0.196,0.021,0.316,0.021
			c1.683,0,6.136-1.313,6.839-1.313c0.753,0-0.215-6.888,3.767-15.713c3.982-8.825,5.274-18.081,7.964-18.296
			c1.32-0.106,3.883-0.444,6.038-0.444c2.237,0,4.034,0.365,3.54,1.736c-0.969,2.691-18.189,26.906-10.009,29.92
			c0.401,0.148,0.799,0.219,1.191,0.219c7.598,0,13.354-26.512,13.661-31.322c0,0,0.431-1.076,3.336-1.184
			c1.223-0.045,2.65-0.247,3.862-0.247c1.669,0,2.932,0.381,2.703,2.076c-4.396,32.449-21.31,60.055-36.377,71.534
			c-7.335,5.588-18.193,7.785-27.911,7.785c-10.245,0-19.224-2.44-21.489-5.919c-4.413-6.78,15.39-18.081,15.39-18.081l0.323,9.794
			c-12.876,6.672-11.333,9.143-4.459,9.143c5.766,0,15.282-1.738,23.186-4.193c16.846-5.232,30.541-33.865,28.814-33.865
			c-0.049,0-0.111,0.023-0.186,0.071c-1.133,0.725-2.667,0.935-4.062,0.935c-1.92,0-3.579-0.397-3.579-0.397
			s-5.902,4.143-12.102,4.143c-2.338,0-4.718-0.589-6.84-2.212c-7.749-5.926-1.184-22.272-1.184-22.272
			c0.737-2.011-0.102-2.369-1.454-2.369c-0.746,0-1.648,0.109-2.528,0.109c-2.475,0-1.399-5.274,0-8.264
			c1.181-2.524,6.425-2.721,8.033-2.721c0.297,0,0.47,0.007,0.47,0.007s4.197-11.193,5.919-14.206s1.83-3.444,4.197-3.444
			C125.812,61.456,127.375,61.332,128.836,61.332 M128.836,60.582c-0.824,0-1.677,0.039-2.429,0.073
			c-0.588,0.026-1.143,0.052-1.556,0.052c-2.674,0-3.078,0.71-4.58,3.351l-0.268,0.471c-1.544,2.702-4.942,11.596-5.784,13.822
			c-2.203,0.004-7.343,0.327-8.665,3.153c-1.047,2.238-2.258,6.495-1.05,8.394c0.385,0.605,0.999,0.938,1.729,0.938
			c0.482,0,0.956-0.03,1.415-0.059c0.401-0.025,0.779-0.049,1.113-0.049c0.8,0,0.928,0.151,0.94,0.168
			c0.007,0.009,0.158,0.243-0.19,1.193c-0.268,0.667-6.676,16.925,1.432,23.126c2.053,1.57,4.508,2.366,7.296,2.366
			c5.671,0,10.99-3.259,12.256-4.092c0.596,0.119,1.928,0.347,3.424,0.347c1.35,0,2.508-0.184,3.458-0.549
			c-1.64,5.298-13.779,27.449-28.246,31.942c-7.885,2.449-17.328,4.159-22.964,4.159c-3.347,0-4.381-0.615-4.46-0.941
			c-0.044-0.18-0.158-1.904,9.264-6.787l0.42-0.218l-0.016-0.473l-0.323-9.794l-0.041-1.243l-1.08,0.616
			c-0.595,0.339-14.585,8.391-16.243,15.237c-0.35,1.445-0.149,2.759,0.596,3.904c2.399,3.686,11.494,6.26,22.117,6.26
			c11.405,0,21.744-2.894,28.366-7.939c14.451-11.01,32.09-38.247,36.666-72.03c0.111-0.823-0.054-1.494-0.491-1.994
			c-0.73-0.836-2.036-0.933-2.955-0.933c-0.722,0-1.507,0.067-2.265,0.133c-0.574,0.049-1.116,0.096-1.625,0.115
			c-3.23,0.12-3.903,1.399-4.005,1.655l-0.044,0.111l-0.008,0.12c-0.147,2.297-1.629,10.034-4.059,17.274
			c-2.89,8.606-6.034,13.346-8.854,13.346c-0.308,0-0.621-0.058-0.932-0.172c-0.738-0.272-1.223-0.762-1.48-1.498
			c-1.661-4.742,5.944-17.31,9.598-23.35c1.389-2.296,2.124-3.522,2.337-4.114c0.269-0.746,0.062-1.277-0.159-1.592
			c-0.558-0.794-1.819-1.148-4.087-1.148c-1.622,0-3.479,0.188-4.835,0.326c-0.487,0.049-0.918,0.093-1.263,0.121
			c-2.127,0.17-3.232,3.577-4.905,8.734c-0.997,3.071-2.126,6.552-3.683,10.002c-2.737,6.067-3.176,11.185-3.412,13.935
			c-0.045,0.528-0.092,1.069-0.142,1.388c-0.397,0.069-0.984,0.206-1.87,0.416c-1.504,0.356-3.564,0.844-4.498,0.844
			c-0.075,0-0.141-0.003-0.197-0.012c-0.356-0.057-0.548-0.102-0.611-0.189c-0.45-0.623,0.126-4.143,0.315-5.299
			c0.804-4.911,4.318-13.468,5.473-16.279c0.183-0.446,0.293-0.713,0.356-0.875c0.443-0.188,1.895-0.302,2.697-0.365
			c0.594-0.047,1.154-0.091,1.602-0.155c1.407-0.201,2.776-3.367,4.071-9.411c0.15-0.7-0.066-1.153-0.273-1.409
			c-0.505-0.625-1.406-0.711-2.303-0.711c-0.25,0-0.51,0.007-0.77,0.015c-0.08,0.002-0.159,0.005-0.238,0.007
			c0.269-1.555,2.545-6.281,3.691-8.659c0.691-1.435,1.237-2.568,1.473-3.172c0.272-0.696,0.085-1.199-0.119-1.498
			C132.437,60.912,131.202,60.582,128.836,60.582L128.836,60.582z"/>
	</g>
	<g>
		<polygon fill="#DE4A33" points="172.682,126.692 152.553,134.446 163.923,118.462 153.408,108.104 167.431,108.104 175.47,94.167 
			180.715,108.922 193.763,109.252 182.261,119.604 192.487,136.595 		"/>
		<path d="M175.435,94.551l5.166,14.529l12.754,0.323l-11.301,10.171l10.009,16.628l-19.372-9.686l-19.695,7.588l11.139-15.659
			l-10.332-10.179h13.722L175.435,94.551 M175.505,93.784l-0.35,0.606l-7.817,13.552h-13.536h-0.788l0.561,0.553l10.136,9.986
			l-10.98,15.435l-0.622,0.874l1.001-0.386l19.562-7.536l19.245,9.622l0.994,0.497l-0.573-0.952l-9.872-16.4l11.103-9.992
			l0.602-0.542l-0.81-0.021l-12.532-0.317l-5.092-14.32L175.505,93.784L175.505,93.784z"/>
	</g>
</g>
</svg>
