<?xml version="1.0" encoding="utf-8"?>
<!-- Generator: Adobe Illustrator 21.0.2, SVG Export Plug-In . SVG Version: 6.00 Build 0)  -->
<svg version="1.1" id="Layer_2" xmlns="http://www.w3.org/2000/svg" xmlns:xlink="http://www.w3.org/1999/xlink" x="0px" y="0px"
	 width="200px" height="200px" viewBox="0 0 200 200" enable-background="new 0 0 200 200" xml:space="preserve">
<path d="M146.333,93c-5.5-13-9.833-29.167-19.167-40c0,0,2.167,13-4.333,18.833s-15.667,24.5-15,30c0.667,5.5,2.5,11,7.167,12.833
	c4.667,1.833,0.667,4-1.333,2s-7-8.333-7.5-0.5c0,0-4-2.5-6.167-2.5s-6.167,2.5-6.167,2.5c-0.5-7.833-5.5-1.5-7.5,0.5
	s-6-0.167-1.333-2c4.667-1.833,6.5-7.333,7.167-12.833c0.667-5.5-8.5-24.167-15-30S72.833,53,72.833,53
	C63.5,63.833,59.167,80,53.667,93S49,118.875,49,118.875c-0.375-2.75,3.875-9,3.875-9c-3,7.125-0.75,20.75-0.75,20.75
	s6-23.125,3.375-10.125s2.75,24.125,2.75,24.125C57.375,135.875,62.5,129,62.5,129c-2.5,4,0.164,36.72,2.164,25.22
	s9.586-20.72,9.586-20.72s0.75,5.75-6.25,19s1.5,23.25,9,26s9.25,12.154,9.25,12.154C90.25,180.559,100,181,100,181
	s9.75-0.441,13.75,9.654c0,0,1.75-9.404,9.25-12.154s16-12.75,9-26s-6.25-19-6.25-19s7.586,9.22,9.586,20.72S140,133,137.5,129
	c0,0,5.125,6.875,4.25,15.625c0,0,5.375-11.125,2.75-24.125s3.375,10.125,3.375,10.125s2.25-13.625-0.75-20.75
	c0,0,4.25,6.25,3.875,9C151,118.875,151.833,106,146.333,93z M100,121.827c0,0,20.667,11.506,20.5,16.339
	c-0.167,4.833-1.333,8.5-4.667,8.833c-3.333,0.333-28.333,0.333-31.667,0c-3.333-0.333-4.5-4-4.667-8.833
	C79.333,133.333,100,121.827,100,121.827z M65.167,115.167c-15.991-5.214,3.5-43.333,3.5-43.333S82.5,85.833,84,95.667
	C85.5,105.5,80.5,120.167,65.167,115.167z M124.167,163.833c-1,4.667-6.333,5.833-6.333,5.833H82.167c0,0-5.333-1.167-6.333-5.833
	s7-4.833,7-4.833h34.333C117.167,159,125.167,159.167,124.167,163.833z M134.833,115.167c-15.333,5-20.333-9.667-18.833-19.5
	c1.5-9.833,15.333-23.833,15.333-23.833S150.824,109.952,134.833,115.167z"/>
<path d="M37.833,71c0,0,2.667-26.833,14.667-34.167S81.5,36,81.5,36S49.333,35.167,37.833,71z"/>
<path d="M78.5,17c-3.833-1-23.333,16.343-23.333,16.343S77,22.52,88.5,33.343C88.5,33.343,89.576,19.889,78.5,17z"/>
<path d="M158.778,71c0,0-2.667-26.833-14.667-34.167s-29-0.833-29-0.833S147.278,35.167,158.778,71z"/>
<path d="M118.112,17c3.833-1,23.333,16.343,23.333,16.343s-21.833-10.823-33.333,0C108.112,33.343,107.036,19.889,118.112,17z"/>
<path d="M98.667,34.5c0,0,2.5-16.083,10.417-22c0,0-4.833-2.667-9.083-3.155c-3.288-0.377-11.08,0.876-11.38,3.001
	C88.62,12.346,96.75,19.417,98.667,34.5z"/>
<path fill="#E60000" stroke="#E60000" stroke-linejoin="round" stroke-miterlimit="10" d="M111,38.5
	c-3.901,8.681,8.25,31.625,8.25,31.625c-1.75-0.625-8.125-0.875-8.125-0.875c-3.375-3.875-5.125-21.875-5.5-19.25S100,56.5,100,56.5
	c0-1-6.375-9.875-6.375-6.75s-2.5,15.25-4,18.25S79.25,71,79.25,71s11.807-12.375,9.278-31.5c0,0,4.097-0.5,4.847,1.125
	s3,6.125,6.625,7c0,0,4.75-1.75,5.125-6.875L111,38.5z"/>
</svg>
