<?xml version="1.0" encoding="utf-8"?>
<!-- Generator: Adobe Illustrator 21.0.2, SVG Export Plug-In . SVG Version: 6.00 Build 0)  -->
<svg version="1.1" xmlns="http://www.w3.org/2000/svg" xmlns:xlink="http://www.w3.org/1999/xlink" x="0px" y="0px" width="200px"
	 height="200px" viewBox="0 0 200 200" enable-background="new 0 0 200 200" xml:space="preserve">
<g id="bottom_bone_1_">
	<path fill="#FEDAA6" d="M37.421,133.959l-2.416,3.415c-1.804,2.551-5.367,3.162-7.918,1.358l-9-6.365
		c-2.551-1.804-3.162-5.367-1.358-7.918l2.416-3.415c1.804-2.551,5.367-3.162,7.918-1.358l9,6.365
		C38.614,127.845,39.225,131.408,37.421,133.959z"/>
	<path fill="#FEDAA6" d="M51.1,108.525l-2.416,3.415c-1.804,2.551-5.367,3.162-7.918,1.358l-9-6.365
		c-2.551-1.804-3.162-5.367-1.358-7.918l2.416-3.415c1.804-2.551,5.367-3.162,7.918-1.358l9,6.365
		C52.293,102.411,52.904,105.974,51.1,108.525z"/>
	<path fill="#FEDAA6" d="M71.065,89.094l-2.416,3.415c-1.804,2.551-5.367,3.162-7.918,1.358l-9-6.365
		c-2.551-1.804-3.162-5.367-1.358-7.918l2.416-3.415c1.804-2.551,5.367-3.162,7.918-1.358l9,6.365
		C72.258,82.98,72.869,86.543,71.065,89.094z"/>
	<path fill="#FEDAA6" d="M84.342,67.616l-2.416,3.415c-1.804,2.551-5.367,3.162-7.918,1.358l-9-6.365
		c-2.551-1.804-3.162-5.367-1.358-7.918l2.416-3.415c1.804-2.551,5.367-3.162,7.918-1.358l9,6.365
		C85.535,61.502,86.146,65.065,84.342,67.616z"/>
	<path fill="#FEDAA6" d="M99.959,44.299l-2.416,3.415c-1.804,2.551-5.367,3.162-7.918,1.358l-9-6.365
		c-2.551-1.804-3.162-5.367-1.358-7.918l2.416-3.415c1.804-2.551,5.367-3.162,7.918-1.358l9,6.365
		C101.152,38.185,101.763,41.748,99.959,44.299z"/>
	<path fill="#FEDAA6" d="M113.015,20.982l-2.416,3.415c-1.804,2.551-5.367,3.162-7.918,1.358l-9-6.365
		c-2.551-1.804-3.162-5.367-1.358-7.918l2.416-3.415c1.804-2.551,5.367-3.162,7.918-1.358l9,6.365
		C114.208,14.868,114.819,18.431,113.015,20.982z"/>
</g>
<g id="meat">
	<path fill="#851604" d="M19.993,139.989c-4.074,6.648,3.109,9.327,9.327,12.747c6.218,3.42,51.919,35.442,53.162,39.794
		c1.244,4.352,10.881,5.285,12.436-3.731s16.166-27.048,16.166-27.048s13.679-21.452,23.006-37.929s26.426-35.753,34.198-39.483
		c7.772-3.731,24.56-28.602,18.964-32.644c-5.596-4.042-29.224-15.234-34.198-22.073c-4.974-6.84-31.133-28.602-37.307-23.317
		s-10.922,10.259-13.078,15.855c-2.156,5.596-17.563,19.275-18.944,20.519c-1.381,1.244-14.612,17.41-16.166,25.182
		s-13.057,20.83-16.477,25.182c-3.42,4.352-16.551,15.284-19.586,21.452C28.46,120.663,25.9,130.351,19.993,139.989z"/>
	<path fill="#572000" d="M94.918,188.799c1.554-9.016,16.166-27.048,16.166-27.048s13.679-21.452,23.006-37.929
		c9.327-16.477,26.426-35.753,34.198-39.483c7.772-3.731,24.56-28.602,18.964-32.644c-1.72-1.243-5.146-3.161-9.209-5.421
		c-3.733,2.168-4.666,11.332-8.823,15.059c-10.748,9.637-14.612,18.032-19.586,21.452c-4.974,3.42-16.477,17.099-24.25,26.426
		c-7.772,9.327-11.503,23.939-17.721,32.022c-6.218,8.083-15.855,15.545-21.141,26.426c-3.206,6.601-2.024,10.089-3.42,16.089
		c-0.631,5.13-0.798,8.167-0.622,8.783C83.726,196.882,93.363,197.815,94.918,188.799z"/>
</g>
<g id="top_bone">
	<path fill="#FEDAA6" d="M104.13,174.181l-5.289-3.74c-0.018-0.013-0.037-0.022-0.055-0.035c-0.038-0.033-0.071-0.071-0.11-0.104
		c-2.319-1.879-6.4-0.687-9.114,2.662s-3.035,7.589-0.716,9.468c0.217,0.176,0.454,0.316,0.7,0.439
		c0.101,0.091,0.205,0.179,0.319,0.26l5.289,3.74c1.508,1.066,3.614,0.705,4.68-0.803l5.098-7.209
		C105.999,177.353,105.638,175.247,104.13,174.181z"/>
	<g>
		<path fill="#CB8C84" d="M98.625,188.612c-0.307,0-0.555-0.075-0.737-0.222c-0.488-0.396-0.552-1.398-0.17-2.683
			c0.437-1.468,1.377-3.141,2.65-4.711c1.995-2.461,4.455-4.18,5.984-4.18c0.307,0,0.555,0.075,0.737,0.222
			c1.003,0.812,0.231,4.049-2.48,7.395C102.614,186.893,100.153,188.612,98.625,188.612
			C98.625,188.612,98.625,188.612,98.625,188.612z"/>
		<path fill="#572000" d="M106.351,177.315c0.19,0,0.332,0.037,0.422,0.11c0.259,0.21,0.361,0.957,0.006,2.152
			c-0.412,1.386-1.345,3.041-2.559,4.539c-2.125,2.623-4.424,3.995-5.595,3.995c-0.19,0-0.332-0.037-0.422-0.11
			c-0.259-0.21-0.361-0.957-0.006-2.152c0.412-1.386,1.345-3.041,2.559-4.539C102.881,178.687,105.179,177.315,106.351,177.315
			 M106.351,176.315c-1.647,0-4.204,1.69-6.372,4.365c-2.714,3.35-3.792,6.975-2.406,8.098c0.279,0.226,0.637,0.333,1.052,0.333
			c1.647,0,4.204-1.69,6.372-4.365c2.714-3.35,3.792-6.975,2.406-8.098C107.124,176.422,106.766,176.315,106.351,176.315
			L106.351,176.315z"/>
	</g>
	<path fill="#FEDAA6" d="M164.693,82.167l-2.648-1.704c-0.018-0.013-0.037-0.022-0.055-0.035c-0.038-0.033-0.071-0.071-0.11-0.104
		c-2.319-1.879-6.4-0.687-9.114,2.662c-2.714,3.35-3.035,7.589-0.716,9.468c0.217,0.176,0.454,0.316,0.7,0.439
		c0.101,0.091,0.205,0.179,0.319,0.26l2.648,1.704c1.508,1.066,3.614,0.705,4.68-0.803l5.098-7.209
		C166.561,85.34,166.2,83.234,164.693,82.167z"/>
	<g>
		<path fill="#CB8C84" d="M157.808,95.423c-0.354,0-0.643-0.088-0.856-0.261c-0.538-0.436-0.637-1.448-0.272-2.777
			c0.409-1.487,1.333-3.169,2.604-4.737c1.956-2.414,4.429-4.1,6.012-4.1c0.354,0,0.643,0.088,0.856,0.261
			c0.538,0.436,0.637,1.448,0.272,2.777c-0.409,1.487-1.333,3.169-2.604,4.737C161.865,93.737,159.392,95.423,157.808,95.423
			L157.808,95.423z"/>
		<path fill="#572000" d="M165.297,84.048c0.237,0,0.419,0.05,0.541,0.149c0.36,0.292,0.401,1.178,0.104,2.257
			c-0.385,1.401-1.3,3.061-2.51,4.555c-2.083,2.57-4.406,3.914-5.624,3.914c-0.237,0-0.419-0.05-0.541-0.149
			c-0.36-0.292-0.401-1.178-0.104-2.257c0.385-1.401,1.3-3.061,2.51-4.555C161.755,85.393,164.078,84.048,165.297,84.048
			 M165.297,83.048c-1.707,0-4.263,1.647-6.401,4.285c-2.714,3.35-3.726,7.029-2.258,8.218c0.312,0.253,0.71,0.373,1.171,0.373
			c1.707,0,4.263-1.647,6.401-4.285c2.714-3.35,3.726-7.029,2.258-8.218C166.156,83.168,165.757,83.048,165.297,83.048
			L165.297,83.048z"/>
	</g>
	<path fill="#FEDAA6" d="M183.71,63.878l-2.648-1.704c-0.018-0.013-0.037-0.022-0.055-0.035c-0.038-0.033-0.071-0.071-0.11-0.104
		c-2.319-1.879-6.4-0.687-9.114,2.662c-2.714,3.35-3.035,7.589-0.716,9.468c0.217,0.176,0.454,0.316,0.7,0.439
		c0.101,0.091,0.205,0.179,0.319,0.26l2.648,1.704c1.508,1.066,3.614,0.705,4.68-0.803l5.098-7.209
		C185.579,67.051,185.218,64.945,183.71,63.878z"/>
	<g>
		<path fill="#CB8C84" d="M176.826,77.134c-0.354,0-0.643-0.088-0.856-0.261c-0.538-0.436-0.637-1.448-0.272-2.777
			c0.409-1.487,1.333-3.169,2.604-4.737c1.956-2.414,4.428-4.1,6.012-4.1c0.354,0,0.643,0.088,0.856,0.261
			c0.538,0.436,0.637,1.448,0.272,2.777c-0.409,1.487-1.333,3.169-2.604,4.737C180.882,75.448,178.41,77.134,176.826,77.134
			L176.826,77.134z"/>
		<path fill="#572000" d="M184.314,65.759c0.237,0,0.419,0.05,0.541,0.149c0.36,0.292,0.401,1.178,0.104,2.257
			c-0.385,1.401-1.3,3.061-2.51,4.555c-2.083,2.57-4.406,3.914-5.624,3.914c-0.237,0-0.419-0.05-0.541-0.149
			c-0.36-0.292-0.401-1.178-0.104-2.257c0.385-1.401,1.3-3.061,2.51-4.555C180.773,67.104,183.096,65.759,184.314,65.759
			 M184.314,64.759c-1.707,0-4.263,1.647-6.401,4.285c-2.714,3.35-3.726,7.029-2.258,8.218c0.312,0.253,0.71,0.373,1.171,0.373
			c1.707,0,4.263-1.647,6.401-4.285c2.714-3.35,3.726-7.029,2.258-8.218C185.173,64.879,184.774,64.759,184.314,64.759
			L184.314,64.759z"/>
	</g>
	<path fill="#FEDAA6" d="M120.059,150.339l-5.289-3.74c-0.018-0.013-0.037-0.022-0.055-0.035c-0.038-0.033-0.071-0.071-0.11-0.104
		c-2.319-1.879-6.4-0.687-9.114,2.662s-3.035,7.589-0.716,9.468c0.217,0.176,0.454,0.316,0.7,0.439
		c0.101,0.091,0.205,0.179,0.319,0.26l5.289,3.74c1.508,1.066,3.614,0.705,4.68-0.803l5.098-7.209
		C121.928,153.511,121.567,151.405,120.059,150.339z"/>
	<g>
		<path fill="#CB8C84" d="M114.458,164.383c-0.561,0-1.026-0.147-1.385-0.438c-0.719-0.582-0.961-1.703-0.684-3.157
			c0.299-1.564,1.159-3.282,2.421-4.839c1.868-2.305,4.253-3.794,6.079-3.794c0.561,0,1.026,0.147,1.385,0.438
			c1.552,1.257,0.756,4.919-1.737,7.996C118.669,162.894,116.283,164.383,114.458,164.383z"/>
		<path fill="#572000" d="M120.89,152.655c0.443,0,0.803,0.11,1.07,0.326c0.56,0.454,0.745,1.429,0.507,2.675
			c-0.284,1.484-1.107,3.124-2.318,4.618c-2.02,2.493-4.314,3.609-5.69,3.609c-0.443,0-0.803-0.11-1.07-0.326
			c-0.56-0.454-0.745-1.429-0.507-2.675c0.284-1.484,1.107-3.124,2.318-4.618C117.22,153.77,119.513,152.655,120.89,152.655
			 M120.889,151.655c-1.908,0-4.448,1.488-6.467,3.979c-2.715,3.35-3.459,7.245-1.663,8.7c0.46,0.373,1.043,0.549,1.7,0.549
			c1.908,0,4.448-1.488,6.467-3.979c2.715-3.35,3.459-7.245,1.663-8.7C122.129,151.831,121.547,151.655,120.889,151.655
			L120.889,151.655z"/>
	</g>
	<path fill="#FEDAA6" d="M136.969,129.593l-8.179-6.631c-0.018-0.013-0.037-0.022-0.055-0.035c-0.038-0.033-0.071-0.071-0.11-0.104
		c-2.319-1.879-6.4-0.687-9.114,2.662c-2.714,3.35-3.035,7.589-0.716,9.468c0.217,0.176,0.454,0.316,0.7,0.439
		c0.101,0.091,0.205,0.179,0.319,0.26l8.179,6.631c1.508,1.066,3.614,0.705,4.68-0.803l5.098-7.209
		C138.838,132.765,138.477,130.659,136.969,129.593z"/>
	<g>
		<path fill="#CB8C84" d="M131.398,143.211c-0.917,0-1.733-0.27-2.362-0.779c-0.991-0.802-1.469-2.137-1.346-3.756
			c0.128-1.688,0.886-3.467,2.136-5.008c1.683-2.077,4-3.368,6.048-3.368c0.917,0,1.733,0.27,2.362,0.779
			c2.101,1.703,1.747,5.635-0.79,8.765C135.764,141.921,133.446,143.211,131.398,143.211L131.398,143.211z"/>
		<path fill="#572000" d="M135.874,130.8c0.812,0,1.501,0.225,2.048,0.668c0.859,0.696,1.272,1.879,1.162,3.33
			c-0.12,1.587-0.839,3.268-2.025,4.731c-1.591,1.963-3.76,3.182-5.66,3.182c-0.812,0-1.501-0.225-2.048-0.668
			c-0.859-0.696-1.272-1.879-1.162-3.33c0.12-1.587,0.839-3.268,2.025-4.731C131.805,132.019,133.973,130.8,135.874,130.8
			 M135.874,129.8c-2.123,0-4.594,1.279-6.437,3.553c-2.714,3.35-3.035,7.589-0.716,9.468c0.745,0.604,1.672,0.891,2.677,0.891
			c2.123,0,4.594-1.279,6.437-3.553c2.714-3.35,3.035-7.589,0.716-9.468C137.806,130.087,136.879,129.8,135.874,129.8L135.874,129.8
			z"/>
	</g>
	<path fill="#FEDAA6" d="M150.312,107.738l-8.179-6.631c-0.018-0.013-0.037-0.022-0.055-0.035c-0.038-0.033-0.071-0.071-0.11-0.104
		c-2.319-1.879-6.4-0.687-9.114,2.662c-2.714,3.35-3.035,7.589-0.716,9.468c0.217,0.176,0.454,0.316,0.7,0.439
		c0.1,0.091,0.205,0.179,0.319,0.26l8.179,6.631c1.508,1.066,3.614,0.705,4.68-0.803l5.098-7.209
		C152.18,110.911,151.819,108.804,150.312,107.738z"/>
	<g>
		<path fill="#CB8C84" d="M144.913,122.402c-0.188,0-0.334-0.042-0.436-0.125c-0.287-0.232-0.409-0.99,0.11-2.42
			c0.513-1.416,1.5-3.064,2.779-4.642c2.349-2.898,4.734-4.414,5.876-4.414c0.188,0,0.334,0.042,0.436,0.125
			c0.714,0.579-0.039,3.546-2.89,7.062C148.441,120.886,146.056,122.402,144.913,122.402L144.913,122.402z"/>
		<path fill="#572000" d="M153.243,111.301c0.066,0,0.105,0.009,0.114,0.009c0.001,0,0.002,0,0.002-0.001
			c0.328,0.407-0.283,3.063-2.958,6.364c-2.364,2.917-4.632,4.229-5.488,4.229c-0.066,0-0.105-0.009-0.114-0.009
			c-0.001,0-0.002,0-0.002,0.001c-0.328-0.407,0.283-3.063,2.958-6.364C150.119,112.613,152.387,111.301,153.243,111.301
			 M153.243,110.301c-1.464,0-4.011,1.818-6.264,4.599c-2.715,3.349-3.975,6.826-2.816,7.766c0.197,0.16,0.451,0.236,0.751,0.236
			c1.464,0,4.011-1.818,6.264-4.599c2.715-3.349,3.975-6.826,2.816-7.766C153.797,110.378,153.542,110.301,153.243,110.301
			L153.243,110.301z"/>
	</g>
</g>
<g id="grill_marks">
	<path fill="#572000" d="M36.678,126.646c15.099,6.356,22.678,14.756,27.05,20.001s19.238,16.29,21.279,15.418
		c2.04-0.872-1.749-1.152-7.579-6.97s-6.962-15.908-16.307-20.745c-9.344-4.836-30.383-11.893-27.413-9.799
		C36.678,126.646,36.678,126.646,36.678,126.646z"/>
	<path fill="#572000" d="M102.291,133.088c-10.278-10.456-20.722-6.8-25.094-12.046c-4.372-5.246-21.194-24.245-23.234-23.373
		c-2.04,0.872,1.749,1.152,7.579,6.97s6.962,15.908,16.307,20.745c9.344,4.836,30.383,11.893,27.413,9.799
		S102.291,133.088,102.291,133.088z"/>
	<path fill="#572000" d="M71.604,82.517c6.112,7.509,15.813,12.911,18.009,18.092s14.125,4.559,15.933,8.601
		c1.808,4.042,4.03,3.588,6.805,7.39c2.775,3.802,3.397-1.892-1.577-6.04s-8.185-5.313-14.352-10.482
		c-6.167-5.169-9.075-13.918-16.946-15.74S64.301,73.545,71.604,82.517z"/>
	<path fill="#572000" d="M127.26,85.734c-6.306-7.348-10.451-4.045-12.781-9.167S100.872,64.394,98.959,60.4
		s-10.447-3.948-13.32-7.677c-2.873-3.729-3.346,1.98,1.734,5.997s8.32,5.098,14.62,10.105c6.3,5.007,13.921,20.116,21.837,21.732
		C131.747,92.173,134.794,94.513,127.26,85.734z"/>
	<path fill="#572000" d="M103.699,39.26c6.63,6.7,9.655,2.783,12.5,7.721s18.622,10.326,20.923,14.164
		c2.3,3.838,15.443,6.311,18.527,9.754c3.083,3.442,2.555-2.46-2.475-5.911c-5.03-3.451-18.72-7.4-24.962-11.706
		c-6.241-4.305-15.276-18.776-22.353-19.402C98.782,33.254,95.777,31.255,103.699,39.26z"/>
</g>
</svg>
