<?xml version="1.0" encoding="utf-8"?>
<!-- Generator: Adobe Illustrator 21.0.2, SVG Export Plug-In . SVG Version: 6.00 Build 0)  -->
<svg version="1.1" xmlns="http://www.w3.org/2000/svg" xmlns:xlink="http://www.w3.org/1999/xlink" x="0px" y="0px" width="200px"
	 height="200px" viewBox="0 0 200 200" enable-background="new 0 0 200 200" xml:space="preserve">
<g id="hot">
	<g id="h">
		<path fill="#231F20" d="M34.344,11.962c-1.844,0.346-2.881,0-3.342,0c-0.461,0-0.411,63.613,1.268,67.416
			c0.709,1.606,2.766,3.457,2.766,3.457l1.037-0.691c0,0,10.184,65.385,10.833,62.691c0.733-3.043,4.264-79.416,7.491-85.394
			l-7.952,3.443c0,0-0.691-28.335,3.918-52.766c0,0-1.757-5.33-2.074-5.243s-7.72,3.947-7.749,4.12
			c-0.03,0.173,0.086,0.519-0.289,0.634c-0.375,0.115-4.466,1.671-4.437,2.161c0.029,0.49-0.435,2.936-0.605,2.967
			C34.747,14.843,34.344,11.962,34.344,11.962z"/>
		<linearGradient id="SVGID_1_" gradientUnits="userSpaceOnUse" x1="41.9264" y1="131.3696" x2="41.9264" y2="6.4596">
			<stop  offset="0.3005" style="stop-color:#D51C18"/>
			<stop  offset="0.4675" style="stop-color:#F66A06"/>
			<stop  offset="0.6793" style="stop-color:#FEE600"/>
		</linearGradient>
		<path fill="url(#SVGID_1_)" d="M47.712,6.46c-6.223,42.524-3.025,60.156-2.852,59.378c0.173-0.778,7.174-3.299,7.174-3.299
			c-3.246,4.513-3.216,23.144-3.63,35.033c-0.414,11.889-2.135,36.184-3.025,33.607c-1.642-4.754-8.73-54.624-9.162-55.143
			s-2.852,2.161-2.852,2.161c-2.42-14.693-1.296-64.132-1.21-64.823c0.086-0.691,1.729,0,1.729,0s0.691,5.013,0.864,6.05
			c0.173,1.037,1.556-7.26,2.074-7.52s4.581-1.642,4.84-2.074S47.712,6.46,47.712,6.46z"/>
		<path fill="#231F20" d="M13.485,24.783l-3.284,4.322c0,0,5.532,31.288,4.754,31.893c-0.778,0.605-2.852-1.901-2.852-1.901
			s6.39,23.098,7.865,29.473s8.805,42.611,9.335,42.611c0.951,0-2.593-33.017-1.901-33.017c0.691,0,3.544,4.927,3.544,4.927
			l-3.112-35.869l5.964-6.828l-0.576-0.346c0,0,7.404-7.98,7.318-8.096c-0.086-0.115-1.527-2.507-1.93-2.449
			c-0.403,0.058-11.841,4.033-11.927,3.428c-0.086-0.605-1.31-34.025-1.31-34.025s-2.637-3.717-2.723-4.581
			c-0.086-0.864-5.704,6.396-6.05,7.692s-1.337,4.062-1.942,3.889C14.05,25.733,13.485,24.783,13.485,24.783z"/>
		<linearGradient id="SVGID_2_" gradientUnits="userSpaceOnUse" x1="24.3463" y1="110.1482" x2="24.3463" y2="15.6213">
			<stop  offset="0.3005" style="stop-color:#D51C18"/>
			<stop  offset="0.4675" style="stop-color:#F66A06"/>
			<stop  offset="0.6793" style="stop-color:#FEE600"/>
		</linearGradient>
		<path fill="url(#SVGID_2_)" d="M25.37,90.471c0.13-0.432,2.722,2.852,3.241,3.198c0.519,0.346-3.198-27.485-3.241-28.349
			s5.402-6.223,5.574-6.914c0.173-0.691,0.086-0.951,0.086-0.951s6.742-6.137,6.828-6.655c0.086-0.519-13.138,4.149-13.57,4.149
			s-2.507-39.326-2.507-39.326c-1.685,1.296-7.779,13.397-7.779,13.397s-0.432-2.204-0.519-2.636
			c-0.086-0.432-2.886,2.717-2.636,2.852s5.632,33.262,5.632,33.262l-2.42-0.519c1.429,0.961,11.985,48.171,11.985,48.171
			L25.37,90.471z"/>
	</g>
	<g id="o">
		<path fill="#231F20" d="M91.965,52.96c-8.69-28.458-28.436-20.571-28.436-19.879c0,0.691-0.864,6.482-0.864,6.482
			c-3.457-0.086-33.017,14.002-23.509,43.561l2.161,2.852c0,0,2.074-2.507,2.507-1.642s6.514,8.612,16.108,8.612
			C85.511,92.946,95.422,64.282,91.965,52.96z M72.95,70.39c0,0-7.145,8.989-13.541,5.935c-11.382-5.435,2.247-26.678,2.766-26.678
			c0.519,0-0.634,2.247,0,2.362c0.634,0.115,2.78,2.651,2.78,2.651s10.53-10.141,11.913,0.461
			c1.017,7.801-5.935,12.907-5.935,12.907L72.95,70.39z"/>
		<linearGradient id="SVGID_3_" gradientUnits="userSpaceOnUse" x1="64.1196" y1="90.5952" x2="64.1196" y2="32.6323">
			<stop  offset="0.3005" style="stop-color:#D51C18"/>
			<stop  offset="0.4675" style="stop-color:#F66A06"/>
			<stop  offset="0.6793" style="stop-color:#FEE600"/>
		</linearGradient>
		<path fill="url(#SVGID_3_)" d="M76.177,66.702c-1.152,8.528-22.608,19.613-24.201,0.23c-1.383-16.825,14.866-26.967,14.866-26.967
			c-2.651-0.922-35.61,9.911-26.851,42.294c0,0,2.42-2.535,2.766-1.959c0.346,0.576,10.372,17.517,28.695,6.684
			s25.015-38.919,10.026-49.9c-9.911-7.26-17.335-3.457-17.335-3.457l-0.989,17.978c0,0,5.416-5.647,10.372-2.881
			c4.955,2.766,6.678,9.334-0.115,18.554L76.177,66.702z"/>
		<path fill="#231F20" d="M59.294,53.507l-0.288-6.281c0,0,5.301-6.511,8.009-7.26s-4.322,0.173-8.816,2.247
			c-4.494,2.074-1.071-0.103,1.095-1.383c3.858-2.28,9.335-2.708,9.565-2.19c0.23,0.519,1.498,3.112,1.498,3.112
			S61.714,47.745,59.294,53.507z"/>
	</g>
	<g id="t">
		<path fill="#231F20" d="M78.309,20.894C79.605,23.4,79.432,44.576,79,45.44c-0.432,0.864,1.556,0.691,2.939,3.284
			c0,0,12.705-12.014,12.446-8.816c0,0,1.124,20.138-0.864,51.081c0,0,2.42,2.42,2.42,2.939s4.062-5.877,4.062-3.284
			s1.383,52.032,0.605,53.155c0,0,0.864,0.086,1.988,2.679c0,0,8.643-77.125,10.717-81.505c0,0-2.507-3.63-2.809-3.371
			c-0.303,0.259-3.025,2.852-3.025,2.852s0.994-35.307,1.685-36.388c0.691-1.08,26.232-17.2,26.232-17.2s-1.858-2.29-2.031-3.112
			c-0.092-0.438-15.945,4.923-30.683,8.355C89.778,19.116,77.87,20.046,78.309,20.894z"/>
		<linearGradient id="SVGID_4_" gradientUnits="userSpaceOnUse" x1="105.4912" y1="135.9334" x2="105.4912" y2="10.0033">
			<stop  offset="0.3005" style="stop-color:#D51C18"/>
			<stop  offset="0.4675" style="stop-color:#F66A06"/>
			<stop  offset="0.6793" style="stop-color:#FEE600"/>
		</linearGradient>
		<path fill="url(#SVGID_4_)" d="M131.118,10.003c-1.729,0.864-22.056,13.446-23.51,15.002c-1.454,1.556-1.555,41.784-1.555,41.784
			l3.889-3.198c0.136,0.607-2.612,18.724-4.7,36.673c-2.085,17.918-3.338,35.67-3.338,35.67c-0.519-2.939-0.778-51.081-1.21-52.118
			c-0.432-1.037-6.416,7.971-5.877,5.359c0.539-2.612,1.729-55.402,0.173-55.402c-1.556,0-14.78,10.631-14.78,10.631
			c0.432-0.951-0.346-22.559-0.346-22.559s13.324-1.622,23.682-4.322S131.118,10.003,131.118,10.003z"/>
	</g>
</g>
<g id="rod">
	<g id="exclamation_point">
		<path fill="#231F20" d="M169.307,64.631l4.712,54.183l1.01-2.019l6.731,47.116c0,0,6.058-52.5,8.918-61.755
			c0,0-1.795-1.514-2.075-4.095c0,0-2.973,3.87-3.029,2.917s0.505-31.13,0.954-32.252c0,0-2.412-5.553-2.468-6.394
			c0,0-6.394,2.468-7.404,2.524C175.645,64.911,169.307,64.631,169.307,64.631z"/>
		<linearGradient id="SVGID_5_" gradientUnits="userSpaceOnUse" x1="179.1788" y1="154.9918" x2="179.1788" y2="63.6211">
			<stop  offset="0.3005" style="stop-color:#D51C18"/>
			<stop  offset="0.4675" style="stop-color:#F66A06"/>
			<stop  offset="0.6793" style="stop-color:#FEE600"/>
		</linearGradient>
		<path fill="url(#SVGID_5_)" d="M170.373,65.696h6.338l6.955-2.075c0,0-0.224,40.048-0.056,40.273
			c0.168,0.224,4.375-4.319,4.375-3.926c0,0.393-6.45,55.024-6.45,55.024l-5.946-41.114l-0.954,1.458L170.373,65.696z"/>
		<path fill="#231F20" d="M173.177,168.538c5.974,6.647,12.536,4.375,12.536,4.375c10.517-4.88,12.031-17.332,11.442-17.921
			c-0.589-0.589-2.44-3.365-2.44-3.365l-2.44,1.599c0,0-3.702-10.349-14.471-4.88c-10.769,5.469-9.087,17.837-9.087,17.837
			l2.44,2.861L173.177,168.538z"/>
		<linearGradient id="SVGID_6_" gradientUnits="userSpaceOnUse" x1="181.902" y1="170.3535" x2="181.902" y2="148.0144">
			<stop  offset="0.3005" style="stop-color:#D51C18"/>
			<stop  offset="0.4675" style="stop-color:#F66A06"/>
			<stop  offset="0.6793" style="stop-color:#FEE600"/>
		</linearGradient>
		<path fill="url(#SVGID_6_)" d="M194.267,153.421c0.088,4.495-2.356,13.125-10.657,16.21c-8.301,3.085-11.947-4.712-11.947-4.712
			l-1.935,0.925c0,0-2.04-10.232,7.151-15.733c11.106-6.647,14.724,4.627,14.724,4.627S194.249,152.527,194.267,153.421z"/>
	</g>
	<g id="d">
		<path fill="#231F20" d="M135.905,78.934c0,0,2.015,58.043-0.757,67.476c-0.182,0.618-6.983,0.168-6.983,0.168
			s2.356,5.974,2.692,7.32s2.692,3.365,2.692,3.365h1.178l-0.421,7.909c0,0,2.692-3.702,2.861-3.029
			c0.168,0.673,3.029-4.123,3.197-3.786c0.16,0.32,0.244,32.107-0.471,38.36c1.208-6.339,8.379-41.81,8.379-41.81
			s30.457-4.459,32.897-35.757C182.132,106.813,177.216,78.858,135.905,78.934z M150.797,143.213c0,0,3.954-14.892,3.923-15.397
			c-0.032-0.505-1.651-2.44-1.651-2.44l-5.301,4.459c-0.421-2.692,2.512-28.512,3.786-28.354
			c14.219,1.767,9.676,17.752,9.676,17.752l2.188,3.113l2.188-1.01C164.595,140.016,150.797,143.213,150.797,143.213z"/>
		<linearGradient id="SVGID_7_" gradientUnits="userSpaceOnUse" x1="154.8391" y1="183.9342" x2="154.8391" y2="79.9504">
			<stop  offset="0.3005" style="stop-color:#D51C18"/>
			<stop  offset="0.4675" style="stop-color:#F66A06"/>
			<stop  offset="0.6793" style="stop-color:#FEE600"/>
		</linearGradient>
		<path fill="url(#SVGID_7_)" d="M141.374,183.934l0.841-33.542l-6.17,7.067c0,0,2.199-29.784,2.019-39.431
			c-0.18-9.648-0.496-35.354-1.01-37.973c0,0,38.634-3.76,42.785,33.708c0,0,4.219,36.292-47.721,40.443c0,0-1.683-5.272-2.356-6.17
			s42.292,2.692,36.458-32.196l-3.926,2.692c0,0,4.599-19.632-12.564-21.202c0,0-4.375,32.539-3.59,34.779
			c0,0,5.946-5.052,5.833-4.491C151.863,128.181,141.374,183.934,141.374,183.934z"/>
		<path fill="#231F20" d="M135.148,146.41c0.224,1.907-0.9,7.605-0.9,7.605l2.059-0.226l0.428-6.323L135.148,146.41z"/>
	</g>
	<g id="o_1_">
		<path fill="#231F20" d="M139.972,100.865c-14.583-23.333-30.036-8.974-30.064-8.301c-0.029,0.672,1.636,4.556,1.636,4.556
			c-3.151,1.836-17.229,10.813-12.219,34.972l1.984,2.863c0,0,2.121-2.352,2.506-1.493c0.385,0.858,5.169,10.585,14.508,10.592
			C148.498,144.078,146.08,110.637,139.972,100.865z M127.833,119.644c-0.516,1.355-2.865,10.023-11.531,5.985
			c-8.24-3.84-1.514-19.541-1.01-19.519c0.15,0.006,0.316,1.053,1.323,1.699c1.027,0.659,2.654,3.151,2.735,2.719
			c0.401-2.147,2.126-4.713,2.126-4.713s2.945-2.524,3.155,4.081c0.244,7.654-1.346,7.993-1.346,7.993l3.323,2.819
			C126.608,120.707,128.348,118.289,127.833,119.644z"/>
		<linearGradient id="SVGID_8_" gradientUnits="userSpaceOnUse" x1="120.3792" y1="140.7549" x2="120.3792" y2="88.5635">
			<stop  offset="0.3005" style="stop-color:#D51C18"/>
			<stop  offset="0.4675" style="stop-color:#F66A06"/>
			<stop  offset="0.6793" style="stop-color:#FEE600"/>
		</linearGradient>
		<path fill="url(#SVGID_8_)" d="M129.539,112.644c2.244,17.837-18.883,21.721-19.632,2.805
			c-0.649-16.421,10.669-19.163,10.669-19.163c-2.54-1.006-26.065,6.879-20.428,35.317c0,0,2.38-2.818,2.692-2.244
			c0.312,0.575,8.908,18.175,27.23,8.496c16.296-8.608,14.098-34.89-0.026-46.189c-9.339-7.471-18.902,0.897-18.902,0.897
			l5.16,13.686c0,0,11.863-14.611,8.75,10.545L129.539,112.644z"/>
		<path fill="#231F20" d="M112.192,99.092c0,0,5.507-2.955,8.384-2.806c2.877,0.148-1.608-0.648-6.404,4.316
			c-1.894,1.961-0.195,3.769,1.148,1.918c1.991-2.745,8.47-6.759,10.405-6.759c3.197,0-5.73-2.751-14.181,1.359L112.192,99.092z"/>
	</g>
	<g id="r">
		<path fill="#231F20" d="M85.508,144.138c0,0,28.353,35.505,30.625,39.88c0,0-26.334-49.976-23.263-51.07
			c3.071-1.094,20.655-6.731,14.513-27.428l-1.683,1.178c0,0,0.589-20.277-19.603-17.5c-7.102,0.977-13.846,2.741-13.846,2.741
			c0.673,6.619,0.973,23.453-2.056,38.148c0,0,1.808,1.683,2.138,2.805c0.33,1.122,0.554-1.374,2.489-1.627
			c0,0-2.868,20.443-3.702,24.231c-0.939,4.268-1.514,16.322-1.514,16.322l2.593,2.861c0,0,6.241-4.627,6.493-4.207
			c0.252,0.421,0.337,1.094,1.262,0.673c0.925-0.421,5.553-2.776,5.553-3.281S84.499,144.223,85.508,144.138z M85.424,123.357
			c0.337-1.01,0.421-16.911,0.421-16.911s5.468-3.607,7.825-0.841c0.962,1.13-0.11,6.368-2.44,10.629
			C88.874,120.542,85.255,123.865,85.424,123.357z"/>
		<linearGradient id="SVGID_9_" gradientUnits="userSpaceOnUse" x1="89.0453" y1="171.4823" x2="89.0453" y2="89.9959">
			<stop  offset="0.3005" style="stop-color:#D51C18"/>
			<stop  offset="0.4675" style="stop-color:#F66A06"/>
			<stop  offset="0.6793" style="stop-color:#FEE600"/>
		</linearGradient>
		<path fill="url(#SVGID_9_)" d="M89.72,131.182c0.752-1.01,20.945-5.721,17.243-24.483l-3.365,2.356c0,0,1.556-7.293-4.291-15.481
			C93.854,85.938,73.141,92.9,73.141,92.9s1.851,20.781-1.43,35.589c0,0,4.123-3.197,4.123-2.44c0,0.757-0.421,12.031-2.061,20.024
			s-3.326,23.584-3.071,25.409c0,0,5.805-4.88,7.32-5.216v1.346c0,0,5.637-2.692,5.553-3.702c-0.084-1.01-1.01-26.587,0.757-25.072
			c1.767,1.514,20.529,26.166,20.529,26.166S88.968,132.191,89.72,131.182z M84.162,126.302c-0.757,0.084,1.094-24.063,1.094-24.063
			s8.75-5.132,9.76,3.113C96.404,116.687,84.92,126.218,84.162,126.302z"/>
	</g>
</g>
</svg>
