<?xml version="1.0" encoding="utf-8"?>
<!-- Generator: Adobe Illustrator 21.0.2, SVG Export Plug-In . SVG Version: 6.00 Build 0)  -->
<svg version="1.1" xmlns="http://www.w3.org/2000/svg" xmlns:xlink="http://www.w3.org/1999/xlink" x="0px" y="0px" width="200px"
	 height="200px" viewBox="0 0 200 200" enable-background="new 0 0 200 200" xml:space="preserve">
<g id="face">
	<polygon fill="#E7D9AA" points="113.333,27 139.667,41.667 146.333,66 149.667,124 136,154.593 93,168.667 59.667,158 42.667,134 
		41.333,112 46.689,84.949 54.333,56.667 70,28.667 	"/>
	<path fill="#E7D9AA" d="M148.625,77.125c0,0,6.5,2,7,5s1.5,16.625,0,19.375s1.5,5,3,7.5s-0.25,12.25-4.25,12.75s-8-38.25-8-38.25
		L148.625,77.125z"/>
</g>
<g id="mouth">
	<polygon fill="#FFFFFF" points="90.333,133.833 106.5,130.25 112.167,126.5 106,122.768 90.917,123.5 81.167,120.083 
		67.917,121.333 79.667,132.75 	"/>
	<path fill="#DC7C63" d="M67.333,120.167c0,0,7.25,5.917,9,6.417s10.518,4.761,14.583,4.917c4.066,0.156,9.625-1.789,12.208-2.872
		c2.583-1.083,12.958-3.516,12.958-3.516s-5,2.138-6.25,3.804c-1.25,1.667-8.833,9-18.75,8.75S76,133.583,73,129.583
		c-3-4-7.25-10-7.25-10L67.333,120.167z"/>
	<path fill="#DC7C63" d="M67.917,121.333c0,0,4.75,0.667,8.417,0c3.667-0.667,4.417,0.231,6.417,1.435s3.5,2.232,7,2.315
		c3.5,0.083,7.25-2.083,11.583-1c4.333,1.083,10.833,2.417,10.833,2.417l2.667-0.917c0,0-11.75-6.75-17.917-5.5
		c-6.167,1.25-7.172,2.513-12.25,0.25C77,116.917,67.917,121.333,67.917,121.333z"/>
</g>
<g id="beard_and_hair">
	<path fill="#482814" d="M155.25,110.25C152,102,147.75,90.25,150,85s4.5-17.5,3.5-31s-5.5-23.75-15-25.5c0,0-3.75-7-9.25-7
		s-15.5-6.25-20-4.75s-5.5-3.25-12.75-2.25S85,10.471,78.25,14.36s-20.5,13.89-19.5,16.89S61,36.75,59,38.5s-7.25,8-7.5,16.25
		s-1.5,11.5-2.25,13.5s-1.75,11.25-2.75,15s-2.5,7-2.5,7c-3.25,13-5.5,30.75-4.25,35.75S42,142,44,144.75s7,11.75,8,14.25
		s10,12,11.5,14s20.75,13,24.25,13.75s20.25-2.75,30-9s21.25-13.5,23.5-18.25s13.25-15,13.75-24S158.5,118.5,155.25,110.25z
		 M146,110.25c-1.5,6-7.5,31.75-12.75,33.75s-15.5,5.75-14.5-5.5s3-17-3-20.5s-10.5-4.625-15.75-6.75
		c-7.063-2.859-7.75,7.5-7.75,7.5s18,1.75,21,5s1.442,15.602,0.75,22.491C112.694,159.237,94.5,160,89.75,160s-23.25-1-24-16.25
		s1.75-19.5,5.25-23s17.125-2,17.125-2s0.25-5.75-2-8s-17.125,3-21.875,5s0,6,0.25,12.75s-5,13.75-6.5,16s-8-5.75-12.25-15
		s-1-29.5,0-34.25s4.75-17,5-19.75S56,61.75,58.5,56S66.25,37.75,72,33.5c4.929-3.643,12-2.25,15.5-1.75s8.75-1.513,11.5-0.132
		c2.75,1.382,12.5-0.868,15.75,1.882s13.5,4.25,16.25,8s8.5,13.25,10.75,22.75s3.25,18,3,23.75S147.5,104.25,146,110.25z"/>
	<path fill="#482814" d="M78.5,142c-0.523,3.246-1.25,5.75,0,7.5s7.75,3,8.75,4.75s6.75-2.25,9.75-4s3-6.75,1.25-8.25
		s-8.217,2-9.734,1.5C87,143,79.088,138.355,78.5,142z"/>
</g>
</svg>
