<?xml version="1.0" encoding="utf-8"?>
<!-- Generator: Adobe Illustrator 21.0.2, SVG Export Plug-In . SVG Version: 6.00 Build 0)  -->
<svg version="1.1" id="Layer_8" xmlns="http://www.w3.org/2000/svg" xmlns:xlink="http://www.w3.org/1999/xlink" x="0px" y="0px"
	 width="200px" height="200px" viewBox="0 0 200 200" enable-background="new 0 0 200 200" xml:space="preserve">
<g id="black_1_">
</g>
<g id="gold">
</g>
<g id="black">
</g>
<g id="gold_1_">
</g>
<g id="red">
</g>
<g id="black_2_">
	<g>
		<polygon fill="#231F20" points="91.15,91.15 95.849,74.716 176.191,6.147 117.963,77.584 116.189,83.811 122.416,82.037 
			193.852,23.808 125.284,104.151 108.85,108.85 104.151,125.284 23.809,193.853 82.037,122.416 83.811,116.189 77.584,117.963 
			6.148,176.191 74.716,95.849 		"/>
		<polygon fill="#C1A360" points="91.905,91.905 96.604,75.244 169.361,13.129 117.019,77.32 115.02,85.132 122.831,83.132 
			187.022,30.79 124.907,103.548 108.246,108.246 103.548,124.907 30.79,187.022 83.132,122.831 85.132,115.02 77.32,117.019 
			13.129,169.361 75.244,96.604 		"/>
		<polygon fill="#231F20" points="93.264,93.264 98.528,75.811 156.191,26.677 115.548,76.528 113.208,84.679 115.472,86.943 
			123.624,84.603 173.474,43.96 124.341,101.623 106.887,106.887 101.623,124.341 43.96,173.475 84.603,123.624 86.943,115.472 
			84.679,113.208 76.528,115.548 26.677,156.191 75.811,98.528 		"/>
		<polygon fill="#C1A360" points="55.055,162.002 78.754,141.473 74.905,137.624 		"/>
		<polygon fill="#C1A360" points="81.924,129.096 87.207,134.379 97.396,126.001 90.377,118.982 		"/>
		<polygon fill="#C1A360" points="97.396,110.755 102.868,116.227 102,105.397 99.736,105.698 		"/>
		<polygon fill="#C1A360" points="99.34,94.924 101.264,94.698 101.774,90.339 97.302,85.868 		"/>
		<polygon fill="#C1A360" points="101.944,74.999 108.736,81.792 117.227,71.603 115.02,63.621 		"/>
		<polygon fill="#C1A360" points="124.416,55.583 129.171,57.055 144.936,38.177 		"/>
		<polygon fill="#DC220B" points="38.149,144.794 82.075,109.321 98.151,125.397 101.095,123.209 102.378,116.944 91.585,106.151 
			123.058,100.491 124.643,98.755 121.624,88.037 117.322,91.811 101.095,75.584 99.208,77.094 97.245,84.49 107.397,94.641 
			76.603,99.698 		"/>
		<polygon fill="#DC220B" points="71.207,119.888 86.603,135.284 79.811,141.058 64.244,125.492 		"/>
		<polygon fill="#DC220B" points="133.473,88.075 130.982,80.264 161.776,55.244 		"/>
		<polygon fill="#DC220B" points="125.831,97.302 132.567,89.66 124.756,64.98 141.242,70.287 148.941,63.947 123.284,56.376 
			115.699,63.055 		"/>
		
			<rect x="70.318" y="122.495" transform="matrix(0.7071 -0.7071 0.7071 0.7071 -73.1713 88.9933)" fill="#231F20" width="1.041" height="20.654"/>
		
			<rect x="77.699" y="116.35" transform="matrix(0.7071 -0.7071 0.7071 0.7071 -66.302 92.2626)" fill="#231F20" width="1.041" height="19.63"/>
		<polygon fill="#231F20" points="114.369,63.536 115.501,62.404 125.831,97.302 124.643,98.755 		"/>
		<polygon fill="#231F20" points="124.756,64.98 126.595,65.576 133.718,88.434 132.53,89.887 		"/>
		<polygon fill="#231F20" points="123.595,55.329 122.463,56.121 148.941,63.947 150.276,62.874 		"/>
		<polygon fill="#231F20" points="127.119,65.744 125.987,66.537 140.657,71.6 141.992,70.527 		"/>
	</g>
</g>
</svg>
