<?xml version="1.0" encoding="utf-8"?>
<!-- Generator: Adobe Illustrator 22.0.0, SVG Export Plug-In . SVG Version: 6.00 Build 0)  -->
<svg version="1.1" id="Layer_2" xmlns="http://www.w3.org/2000/svg" xmlns:xlink="http://www.w3.org/1999/xlink" x="0px" y="0px"
	 width="200px" height="200px" viewBox="0 0 200 200" enable-background="new 0 0 200 200" xml:space="preserve">
<path fill="#231F20" d="M141.713,22.968c-18.435,0-33.588,10.545-39.713,16.872c-6.125-6.327-21.277-16.872-39.713-16.872
	c-28.642,0-48.073,23.198-48.073,52.724c0,50.616,37.623,71.706,87.786,103.34c50.164-31.634,87.786-52.724,87.786-103.34
	C189.786,46.166,170.355,22.968,141.713,22.968z M76.179,111.442c-0.91,2.492-2.151,4.361-3.722,5.607
	c-1.571,1.246-3.35,2.202-5.334,2.866c-1.985,0.665-3.97,0.997-5.953,0.997c-2.206,0-4.163-0.387-5.872-1.163
	c-0.662-0.332-1.351-0.678-2.068-1.038c-0.716-0.359-1.351-0.54-1.902-0.54c-0.441,0-0.799,0.056-1.075,0.166
	c-0.883,0.498-1.571,1.274-2.066,2.326h-6.203V96.653h8.243c0.439,1.386,1.098,3.602,1.979,6.646c0.933,2.604,2.252,4.403,3.957,5.4
	c0.989,0.333,1.868,0.499,2.638,0.499c0.769,0,1.374-0.11,1.813-0.333c0.934-0.442,1.456-0.719,1.566-0.83
	c0.549-0.387,0.824-0.914,0.824-1.579c0-0.276-0.042-0.567-0.125-0.872c-0.083-0.304-0.179-0.54-0.29-0.706
	c-1.27-2.16-3.862-4.846-7.779-8.059c-4.249-3.49-7.145-6.176-8.689-8.059c-2.759-3.378-4.137-7.062-4.137-11.05
	c0-0.775,0-1.384,0-1.828c0-3.268,0.733-6.217,2.202-8.848c1.467-2.63,3.475-4.375,6.023-5.234c2.547-0.858,4.818-1.288,6.812-1.288
	c2.769,0,6.148,0.942,10.136,2.825l1.413-1.911h6.065v20.687h-7.228c-0.388-1.273-0.776-2.547-1.163-3.822
	c-0.943-2.935-2.272-4.873-3.988-5.816c-0.72-0.276-1.329-0.415-1.828-0.415c-0.444,0-0.942,0.097-1.496,0.291
	c-0.554,0.195-1.011,0.596-1.371,1.205c-0.361,0.61-0.43,1.33-0.208,2.16c1.163,2.493,3.46,5.097,6.896,7.81
	c4.929,3.934,7.671,6.177,8.225,6.729c2.825,2.88,4.514,6.121,5.068,9.72C77.543,105.128,77.087,108.949,76.179,111.442z
	 M121.326,86.269h-7.809V77.96c0-1.273-0.182-2.478-0.541-3.614c-0.361-1.135-0.928-1.924-1.703-2.368h-0.996
	c-0.777,0-1.164,0.415-1.164,1.246v34.229c0,0.887,0.498,1.427,1.496,1.62c0.996,0.194,1.965,0.374,2.908,0.54v11.05h-24.26v-11.05
	c0.885-0.166,1.841-0.346,2.866-0.54c1.024-0.193,1.537-0.733,1.537-1.62V73.308c0-0.665-0.027-1.052-0.082-1.163
	c-0.054-0.11-0.272-0.166-0.651-0.166h-0.979c-1.142,0.831-1.876,1.537-2.202,2.118c-0.327,0.582-0.489,1.316-0.489,2.202
	c0,0.333,0,0.887,0,1.662v8.391h-7.727V60.846h39.795V86.269z M165.525,71.979c-1.275,0.498-2.175,0.984-2.7,1.454
	c-0.527,0.471-0.79,1.094-0.79,1.87V95.49c0,8.364-1.027,14.373-3.081,18.029c-2.665,4.764-7.579,7.145-14.74,7.145
	c-6.552,0-11.188-2.52-13.907-7.561c-2.165-3.987-3.248-10.053-3.248-18.194v-19.69c-0.54-0.941-0.959-1.578-1.257-1.911
	c-0.297-0.333-0.986-0.775-2.066-1.329V60.846h21.269v11.133c-0.887,0.388-1.468,0.803-1.744,1.246
	c-0.278,0.444-0.416,1.136-0.416,2.077v27.832c0,3.546,1.147,5.317,3.444,5.317c1.68,0,2.772-0.442,3.276-1.329
	c0.504-0.886,0.757-2.271,0.757-4.154V75.219c0-1.107-0.139-1.882-0.415-2.326c-0.278-0.442-0.831-0.775-1.662-0.997V60.846h17.281
	V71.979z"/>
<path fill="#FF2900" d="M139.713,21.968c-18.435,0-33.588,10.545-39.713,16.872c-6.125-6.327-21.277-16.872-39.713-16.872
	c-28.642,0-48.073,23.198-48.073,52.724c0,50.616,37.623,71.706,87.786,103.34c50.164-31.634,87.786-52.724,87.786-103.34
	C187.786,45.166,168.355,21.968,139.713,21.968z M74.179,110.442c-0.91,2.492-2.151,4.361-3.722,5.607
	c-1.571,1.246-3.35,2.202-5.334,2.866c-1.985,0.665-3.97,0.997-5.953,0.997c-2.206,0-4.163-0.387-5.872-1.163
	c-0.662-0.332-1.351-0.678-2.068-1.038c-0.716-0.359-1.351-0.54-1.902-0.54c-0.441,0-0.799,0.056-1.075,0.166
	c-0.883,0.498-1.571,1.274-2.066,2.326h-6.203V95.653h8.243c0.439,1.386,1.098,3.602,1.979,6.646c0.933,2.604,2.252,4.403,3.957,5.4
	c0.989,0.333,1.868,0.499,2.638,0.499c0.769,0,1.374-0.11,1.813-0.333c0.934-0.442,1.456-0.719,1.566-0.83
	c0.549-0.387,0.824-0.914,0.824-1.579c0-0.276-0.042-0.567-0.125-0.872c-0.083-0.304-0.179-0.54-0.29-0.706
	c-1.27-2.16-3.862-4.846-7.779-8.059c-4.249-3.49-7.145-6.176-8.689-8.059c-2.759-3.378-4.137-7.062-4.137-11.05
	c0-0.775,0-1.384,0-1.828c0-3.268,0.733-6.217,2.202-8.848c1.467-2.63,3.475-4.375,6.023-5.234c2.547-0.858,4.818-1.288,6.812-1.288
	c2.769,0,6.148,0.942,10.136,2.825l1.413-1.911h6.065v20.687h-7.228c-0.388-1.273-0.776-2.547-1.163-3.822
	c-0.943-2.935-2.272-4.873-3.988-5.816c-0.72-0.276-1.329-0.415-1.828-0.415c-0.444,0-0.942,0.097-1.496,0.291
	c-0.554,0.195-1.011,0.596-1.371,1.205c-0.361,0.61-0.43,1.33-0.208,2.16c1.163,2.493,3.46,5.097,6.896,7.81
	c4.929,3.934,7.671,6.177,8.225,6.729c2.825,2.88,4.514,6.121,5.068,9.72C75.543,104.128,75.087,107.949,74.179,110.442z
	 M119.326,85.269h-7.809V76.96c0-1.273-0.182-2.478-0.541-3.614c-0.361-1.135-0.928-1.924-1.703-2.368h-0.996
	c-0.777,0-1.164,0.415-1.164,1.246v34.229c0,0.887,0.498,1.427,1.496,1.62c0.996,0.194,1.965,0.374,2.908,0.54v11.05h-24.26v-11.05
	c0.885-0.166,1.841-0.346,2.866-0.54c1.024-0.193,1.537-0.733,1.537-1.62V72.308c0-0.665-0.027-1.052-0.082-1.163
	c-0.054-0.11-0.272-0.166-0.651-0.166h-0.979c-1.142,0.831-1.876,1.537-2.202,2.118c-0.327,0.582-0.489,1.316-0.489,2.202
	c0,0.333,0,0.887,0,1.662v8.391h-7.727V59.846h39.795V85.269z M163.525,70.979c-1.275,0.498-2.175,0.984-2.7,1.454
	c-0.527,0.471-0.79,1.094-0.79,1.87V94.49c0,8.364-1.027,14.373-3.081,18.029c-2.665,4.764-7.579,7.145-14.74,7.145
	c-6.552,0-11.188-2.52-13.907-7.561c-2.165-3.987-3.248-10.053-3.248-18.194v-19.69c-0.54-0.941-0.959-1.578-1.257-1.911
	c-0.297-0.333-0.986-0.775-2.066-1.329V59.846h21.269v11.133c-0.887,0.388-1.468,0.803-1.744,1.246
	c-0.278,0.444-0.416,1.136-0.416,2.077v27.832c0,3.546,1.147,5.317,3.444,5.317c1.68,0,2.772-0.442,3.276-1.329
	c0.504-0.886,0.757-2.271,0.757-4.154V74.219c0-1.107-0.139-1.882-0.415-2.326c-0.278-0.442-0.831-0.775-1.662-0.997V59.846h17.281
	V70.979z"/>
</svg>
