<?xml version="1.0" encoding="utf-8"?>
<!-- Generator: Adobe Illustrator 21.0.2, SVG Export Plug-In . SVG Version: 6.00 Build 0)  -->
<svg version="1.1" id="hogan" xmlns="http://www.w3.org/2000/svg" xmlns:xlink="http://www.w3.org/1999/xlink" x="0px" y="0px"
	 width="200px" height="200px" viewBox="0 0 200 200" enable-background="new 0 0 200 200" xml:space="preserve">
<g>
	<path fill="#FE3632" d="M63.307,103.021c0,0,1.007-2.446-0.863-4.029c-1.871-1.583,0-4.604,0-4.604s-8.037,4.173-7.616,8.633
		c0.421,4.461-8.725,5.255-6.485,25.9c0,0,2.66-11.355,6.222-12.944S63.307,103.021,63.307,103.021z"/>
	<path fill="#FE3632" d="M46.423,97.487c0,0-2.515,0.82-2.506,3.27s-3.504,2.987-3.504,2.987s8.389,3.41,11.511,0.196
		c3.121-3.214,9.659,3.232,23.919-11.865c0,0-10.368,5.341-13.887,3.66C58.434,94.056,46.423,97.487,46.423,97.487z"/>
	<path fill="#F0DF5E" d="M65.61,91.264c0,0-8.635,19.761-9.594,24.365c-0.959,4.604-1.535,11.223-0.959,15.012
		s27.435,0.144,24.941-13.861C77.504,102.775,65.61,91.264,65.61,91.264z"/>
	<path fill="#F0DF5E" d="M154.628,143.256c0,0-8.441-28.586,0-45.853c8.441-17.267-28.394,43.742-28.394,43.742l13.909,13.813
		L154.628,143.256z"/>
	<path fill="#FF9F40" stroke="#BA6E00" stroke-width="0.2878" stroke-miterlimit="10" d="M149.208,112.368
		c0,0,8.058-2.878,6.331-10.072c-1.727-7.194,2.734-4.173,0.719-12.231c-2.014-8.058-0.144-13.094-0.144-13.094l-7.338-3.453
		L149.208,112.368z"/>
	<path fill="#FE3632" d="M58.127,88.485c0,0-1.439,5.177,4.604,4.458s-0.432-12.231-0.432-12.231"/>
	<path fill="#FF9F40" stroke="#BA6E00" stroke-width="0.2878" stroke-miterlimit="10" d="M60.429,86.137c0,0-1.726,6.023,0,7.813
		c3.885,4.029-0.576,9.353,1.151,11.223c1.727,1.871,2.878,12.374,2.014,21.727s-14.533,20.144-9.928,21.152
		c4.604,1.007,20.432,12.662,22.591,15.396s57.268,37.555,70.218,29.641c12.95-7.914,4.604-24.605,4.604-24.605
		s-8.202-18.993-11.511-19.713c-3.309-0.719-6.475-2.878-4.461-5.18c2.014-2.302,16.259-21.439,16.259-33.094
		s2.302-40.577,1.439-43.023c-0.863-2.446-22.059-18.418-45.059-15.972S63.882,73.374,63.882,73.374L60.429,86.137z"/>
	<path fill="none" stroke="#BA6E00" stroke-width="0.5756" stroke-linecap="round" stroke-miterlimit="10" d="M76.976,130.642
		c0,0,8.921,13.238,12.087,14.389s9.065,3.597,10.36,5.036c1.295,1.439,8.058,4.461,16.403,3.166s13.382,1.871,19.281-9.641"/>
	<path fill="none" stroke="#BA6E00" stroke-width="0.5756" stroke-linecap="round" stroke-miterlimit="10" d="M83.883,98.698
		c0,0,1.151,5.899,0,10.072c-1.151,4.173-1.007,18.418,2.014,21.871"/>
	<path fill="none" stroke="#BA6E00" stroke-width="0.5756" stroke-linecap="round" stroke-miterlimit="10" d="M92.516,113.375
		c0,0,8.346-12.231,11.511-21.152"/>
	<path fill="none" stroke="#BA6E00" stroke-width="0.5756" stroke-linecap="round" stroke-miterlimit="10" d="M124.315,92.223
		c1.583,2.158,6.619,7.626,6.907,9.497c0.288,1.871,2.446,7.77,8.921,10.648"/>
	<path fill="none" stroke="#BA6E00" stroke-width="0.5756" stroke-linecap="round" stroke-miterlimit="10" d="M111.366,153.547
		c0,0-1.439,9.038,5.899,13.786"/>
	<path fill="none" stroke="#BA6E00" stroke-width="0.5756" stroke-linecap="round" stroke-miterlimit="10" d="M121.294,153.547
		c0,0,0.288,12.347,3.022,13.786"/>
	<path fill="none" stroke="#BA6E00" stroke-width="0.5756" stroke-linecap="round" stroke-miterlimit="10" d="M119.711,169.124
		c0,0,5.468,1.439,5.468,0"/>
	<path fill="none" stroke="#BA6E00" stroke-width="0.5756" stroke-linecap="round" stroke-miterlimit="10" d="M61.58,105.173
		c0,0,3.741,4.173,8.058-0.863"/>
	<path fill="none" stroke="#BA6E00" stroke-width="0.2878" stroke-miterlimit="10" d="M64.285,88.485
		c-0.648,3.022-0.791,4.173-1.295,5.18c-0.504,1.007,2.446,3.669,2.59,5.612"/>
	<path fill="#F0DF5E" d="M59.31,157.453c6.555-5.947,8.314-18.61,8.314-28.25c0-6.571-0.451-20.862-4.029-22.215
		c-1.671-0.632-5.19,1.64-5.895,8.69c-2.067,20.672-17.99,32.951-17.99,32.951s-0.959,1.151,1.151,1.919
		c2.11,0.767,3.07-0.576,4.029,0.576s2.686,1.781,3.261,2.426c0.576,0.644,3.261-1.028,3.453,0c0.192,1.028,3.261,0.452,3.07,1.795
		c-0.192,1.343,2.494-0.192,2.494,0.576S59.31,157.453,59.31,157.453z"/>
	<path fill="#F0DF5E" d="M137.697,143.592c0,0-0.528,14.245,1.199,15.972c1.727,1.727,1.151-1.151,2.686,0
		c1.535,1.151,1.343-0.017,2.686,0.567c1.343,0.584,2.878-2.102,4.509-1.526c1.631,0.576,4.429-0.192,4.949,0.767
		s1.67-1.727,2.246-0.767c0.576,0.959,1.151-1.919,3.837-0.384c2.686,1.535-3.07-4.029-5.18-14.964
		C152.518,132.32,137.697,143.592,137.697,143.592z"/>
	<path fill="#FE3632" d="M60.861,71.647c-2.594-5.94,1.007-12.374,1.007-12.374c-1.295-4.892,3.741-10.792,3.741-10.792
		c-1.583-11.079,1.295-18.562,1.295-18.562S71.94,5.458,109.063,5.746c37.123,0.288,38.85,23.454,39.282,29.641
		c0.432,6.187,4.748,15.396,5.036,19.713c0.288,4.317,1.295,8.202,3.215,14.245c1.92,6.043-0.337,11.367-0.481,12.374
		c-0.144,1.007,1.151,6.619,0,6.763c-1.151,0.144-1.007-5.756-1.295-8.058c-0.288-2.302-2.878-5.18-6.043-6.907
		c-3.166-1.727-25.324-6.619-33.094-8.346c-7.77-1.727-18.993,1.727-34.533,2.014c-15.54,0.288-16.691,19.425-23.022,21.298
		c0,0,1.439-6.19,1.007-7.773C58.702,79.129,56.544,75.532,60.861,71.647z"/>
	<g>
		<defs>
			<path id="SVGID_1_" d="M60.861,71.647c-2.594-5.94,1.007-12.374,1.007-12.374c-1.295-4.892,3.741-10.792,3.741-10.792
				c-1.583-11.079,1.295-18.562,1.295-18.562S71.94,5.458,109.063,5.746c37.123,0.288,38.85,23.454,39.282,29.641
				c0.432,6.187,4.748,15.396,5.036,19.713c0.288,4.317,1.295,8.202,3.215,14.245c1.92,6.043-0.337,11.367-0.481,12.374
				c-0.144,1.007,1.151,6.619,0,6.763c-1.151,0.144-1.007-5.756-1.295-8.058c-0.288-2.302-2.878-5.18-6.043-6.907
				c-3.166-1.727-25.324-6.619-33.094-8.346c-7.77-1.727-18.993,1.727-34.533,2.014c-15.54,0.288-16.691,19.425-23.022,21.298
				c0,0,1.439-6.19,1.007-7.773C58.702,79.129,56.544,75.532,60.861,71.647z"/>
		</defs>
		<clipPath id="SVGID_2_">
			<use xlink:href="#SVGID_1_"  overflow="visible"/>
		</clipPath>
		<path clip-path="url(#SVGID_2_)" fill="#C60202" d="M56.976,77.643c0,0,3.357-18.13,49.786-23.118c0,0-39.267-1.439-52.088,16.02"
			/>
		<path clip-path="url(#SVGID_2_)" fill="#C60202" d="M154.724,97.307c0,0,29.353-5.657-18.034-37.219
			c0,0,45.277,7.674,38.231,29.808"/>
		<path clip-path="url(#SVGID_2_)" fill="#C60202" d="M135.134,34.955c-28.97-22.255-79.48,20.034-79.48,20.034
			s30.64-20.034,52.678-22.337S135.134,34.955,135.134,34.955z"/>
	</g>
	<polygon fill="#FFFFFF" points="93.379,113.087 100.286,120.138 113.958,124.598 132.072,120.425 134.819,112.224 	"/>
	<path fill="#DB7C75" stroke="#B24F4D" stroke-width="0.2878" stroke-miterlimit="10" d="M95.394,115.245
		c0,0,8.202,6.763,17.986,6.763s15.54-3.885,23.31-6.763c0,0-4.461,11.367-21.296,11.655S95.394,115.245,95.394,115.245z"/>
	<path fill="#F0DF5E" stroke="#CCB217" stroke-width="0.8633" stroke-miterlimit="10" d="M95.538,149.491
		c-1.151,0.863-3.022,0.576-3.741,1.583c-0.719,1.007-4.604-1.439-5.899-4.029c-1.295-2.59-2.59-20.576-1.007-24.749
		c1.583-4.173,6.043-8.921,7.77-11.511c1.727-2.59,14.677-3.741,16.547-4.173c1.871-0.432,5.612,1.439,5.612,1.439
		s5.18-1.856,6.907-1.504c1.727,0.352,9.209-0.367,11.367,1.216c2.158,1.583,3.453,0.432,5.612,3.309
		c2.158,2.878,4.892,10.36,5.036,12.662c0.144,2.302-0.719,10.504-1.583,11.799c-0.863,1.295-0.576,9.353-2.014,10.216
		c-1.439,0.863-5.324,5.18-5.18,1.439c0.144-3.741-0.432-21.439-0.144-23.742c0.288-2.302-0.288-8.058-4.317-7.051
		c-4.029,1.007-8.633,1.151-15.684,0.719c-7.051-0.432-19.281-1.583-19.425,1.007c-0.144,2.59,0.432,7.914-0.144,9.928
		c-0.576,2.014-1.727,7.338-1.151,10.36C94.674,141.433,95.538,149.491,95.538,149.491z"/>
</g>
</svg>
