<?xml version="1.0" encoding="utf-8"?>
<!-- Generator: Adobe Illustrator 21.0.2, SVG Export Plug-In . SVG Version: 6.00 Build 0)  -->
<svg version="1.1" id="Layer_2" xmlns="http://www.w3.org/2000/svg" xmlns:xlink="http://www.w3.org/1999/xlink" x="0px" y="0px"
	 width="200px" height="200px" viewBox="0 0 200 200" enable-background="new 0 0 200 200" xml:space="preserve">
<g>
	<path fill="#C80200" d="M92.655,195.084c-26.356-35.7-28.641-75.582-15.133-100.668C96.92,58.39,97.784,35.558,79.452,27.84
		S43.108,40.383,43.108,40.383s13.508-3.538,16.724,6.111c3.216,9.649-8.577,19.212-24.122,33.771
		C15.448,99.24-11.568,151.665,92.655,195.084"/>
	<path fill="#C80200" d="M46.164,61.128c8.561,1.447,16.081-14.956,6.754-18.976c0,0,0.322,4.824-5.307,5.95
		C41.982,49.228,35.38,59.304,46.164,61.128z"/>
	<path fill="#C80200" d="M87.653,22.694c13.17-2.794,7.397-15.438,0.322-17.413c-7.076-1.975-11.739,4.708-11.739,4.708
		c-8.041-11.257-15.277,3.538-15.277,3.538c-16.564-5.95-10.453,17.046-10.453,17.046s10.131-11.418,20.423-9.166
		S82.346,23.819,87.653,22.694z"/>
	<path fill="#190000" d="M137.987,69.651c-4.499-0.176-32.484-4.181-50.977,28.142c-28.556,49.911,8.529,94.397,8.529,94.397
		s-10.068-62.734,24.438-58.696c30.233,3.538,17.689,35.539,17.689,35.539c13.83-14.473,13.187-31.519-0.965-42.454
		c-14.151-10.935-30.876-4.181-30.876-4.181s17.169-20.584,40.747-3.216c16.354,12.046,10.022,33.528,4.606,45.563
		c0,0,26.903-25.512,3.856-54.159c-14.234-17.692-38.273-14.561-38.273-14.561s24.443-15.116,43.741,4.181
		c14.683,14.683,14.846,33.275,9.833,51.245c6.934-7.461,12.35-17.943,12.842-32.59C184.594,76.602,137.987,69.651,137.987,69.651z"
		/>
</g>
</svg>
