<?xml version="1.0" encoding="utf-8"?>
<!-- Generator: Adobe Illustrator 21.0.2, SVG Export Plug-In . SVG Version: 6.00 Build 0)  -->
<svg version="1.1" xmlns="http://www.w3.org/2000/svg" xmlns:xlink="http://www.w3.org/1999/xlink" x="0px" y="0px" width="200px"
	 height="200px" viewBox="0 0 200 200" enable-background="new 0 0 200 200" xml:space="preserve">
<g id="chicken">
	<g id="top_of_head">
		<path fill="#FF3333" stroke="#9E0000" stroke-width="5.5332" stroke-miterlimit="10" d="M162.113,14.457
			c-0.981,0-1.927,0.145-2.827,0.398c-0.759-6.181-6.017-10.971-12.404-10.971c-6.316,0-11.524,4.686-12.372,10.768
			c-0.644-0.124-1.308-0.194-1.988-0.194c-5.768,0-10.444,4.676-10.444,10.444s4.676,10.444,10.444,10.444
			c4.658,0,8.601-3.052,9.947-7.263c1.374,0.519,2.858,0.816,4.414,0.816c1.855,0,3.609-0.415,5.193-1.139
			c1.244,4.377,5.262,7.586,10.038,7.586c5.768,0,10.444-4.676,10.444-10.444S167.881,14.457,162.113,14.457z"/>
	</g>
	<path id="beak_1_" fill="#FFFF00" stroke="#A09C00" stroke-width="4" stroke-miterlimit="10" d="M164.317,40.424
		c0,0,12.985,2.951,14.712,21.918c0,0-17.241-5.901-30.308,0"/>
	<path id="body_1_" fill="#FFFFFF" stroke="#231F20" stroke-width="4" stroke-miterlimit="10" d="M155.497,73.456
		c1.573-17.617,13.527-21.707,11.011-33.347c-2.517-11.64-6.606-15.73-18.246-15.73s-20.134,4.09-23.909,17.932
		s-9.804,38.878-28.656,39.324c-39.925,0.944-68.583-21.078-70.44-26.111c-3.329-9.024-0.944,25.482,12.898,31.145
		c0,0-9.123,2.202-10.067,4.09s-4.404,2.286-0.315,3.345s15.1,4.834,10.382,5.778s-7.895,0.629-11.325,5.663
		s3.146-1.888,8.809,6.292c5.663,8.179,13.842,25.167,36.178,26.74c22.336,1.573,43.099-14.471,47.189-36.807
		c0,0-1.888,43.414-45.301,44.987c0,0,44.987,19.19,74.873-11.954S153.924,91.073,155.497,73.456z M147.512,42.371
		c0-3.508,2.844-6.352,6.352-6.352c3.508,0,6.352,2.844,6.352,6.352c0,3.508-2.844,6.352-6.352,6.352
		C150.356,48.723,147.512,45.879,147.512,42.371z"/>
</g>
<g id="salad">
	
		<path fill="#1BB500" stroke="#0C4400" stroke-width="4.8418" stroke-linecap="round" stroke-linejoin="round" stroke-miterlimit="10" d="
		M130.557,121.444c0,0,8.825-2.969,2.369-6.601c-6.456-3.631-9.953-6.187-12.643-3.631c-2.69,2.555,14.929-13.449,5.514-20.712
		c-9.415-7.263-26.361,11.163-26.361,11.163s-4.766-8.262-10.894-9.818c-11.97-3.04-5.688,50.705-5.688,50.705"/>
	
		<path fill="none" stroke="#0C4400" stroke-width="4.8418" stroke-linecap="round" stroke-linejoin="round" stroke-miterlimit="10" d="
		M114.904,99.78c0,0-0.941,5.111-8.07,8.608c-7.128,3.497-0.54,18.834-0.54,18.834"/>
	
		<path fill="none" stroke="#0C4400" stroke-width="4.8418" stroke-linecap="round" stroke-linejoin="round" stroke-miterlimit="10" d="
		M114.904,117.399c0,0-8.459-2.442-10.752,3.016"/>
	
		<line fill="none" stroke="#0C4400" stroke-width="4.8418" stroke-linecap="round" stroke-linejoin="round" stroke-miterlimit="10" x1="92.174" y1="108.253" x2="103.629" y2="113.501"/>
	
		<path fill="#1BB500" stroke="#0C4400" stroke-width="4.8418" stroke-linecap="round" stroke-linejoin="round" stroke-miterlimit="10" d="
		M137.014,149.639c0,0,9.429-16.033,4.789-22.892c0,0-2.286-0.471-4.976,2.085s0-8.473-10.356-7.935
		c-10.356,0.538-11.029,12.374-11.029,12.374s-6.859-6.994-12.374-6.456c-5.514,0.538-7.128,5.649-3.362,12.374
		c0,0-5.951-7.431-9.717-8.507c0,0,0.841-4.674,3.799-7.095c2.959-2.421,1.076-8.473-6.859-8.339c0,0,1.614-12.508-12.777-7.935
		c0,0-5.38-5.642-9.953-1.005c-4.573,4.637-4.169,15.396-4.169,15.396s-5.158-0.726-5.783,6.456
		c-1.177,13.517,10.726,24.209,10.726,24.209L137.014,149.639z"/>
	
		<path fill="none" stroke="#0C4400" stroke-width="4.8418" stroke-linecap="round" stroke-linejoin="round" stroke-miterlimit="10" d="
		M131.85,134.614l-6.052,5.632c0,0-4.771-7.022,1.614-11.55"/>
	
		<path fill="none" stroke="#0C4400" stroke-width="4.8418" stroke-linecap="round" stroke-linejoin="round" stroke-miterlimit="10" d="
		M81.549,122.241c0,0-3.362,13.45-5.649,16.408c-2.286,2.959-9.415-15.198-7.801-21.25"/>
	
		<line fill="none" stroke="#0C4400" stroke-width="4.8418" stroke-linecap="round" stroke-linejoin="round" stroke-miterlimit="10" x1="60.702" y1="128.697" x2="70.378" y2="130.972"/>
	<path fill="#32599E" stroke="#2C00B5" stroke-width="4.8418" stroke-linejoin="round" stroke-miterlimit="10" d="M82.76,191.355
		v-4.691c0,0-33.086-13.987-33.086-44.114h100.064c0,30.127-33.086,44.114-33.086,44.114v4.691H82.76z"/>
</g>
</svg>
