<?xml version="1.0" encoding="utf-8"?>
<!-- Generator: Adobe Illustrator 21.0.2, SVG Export Plug-In . SVG Version: 6.00 Build 0)  -->
<svg version="1.1" id="Layer_1" xmlns="http://www.w3.org/2000/svg" xmlns:xlink="http://www.w3.org/1999/xlink" x="0px" y="0px"
	 width="200px" height="200px" viewBox="0 0 200 200" enable-background="new 0 0 200 200" xml:space="preserve">
<g id="black">
	<g>
		<polygon fill="#231F20" points="9.173,130.82 9.173,73.074 52.392,73.074 52.392,85.959 33.771,85.959 33.771,94.247 
			49.382,94.247 49.382,106.44 33.984,106.44 33.984,118.413 52.804,118.413 52.804,130.82 		"/>
		<path fill="#FF0000" d="M51.641,73.824v11.385H33.02v9.788h15.612v10.693H33.234v13.473h18.82v10.907H9.923V73.824H51.641
			 M53.141,72.324h-1.5H9.923h-1.5v1.5v56.246v1.5h1.5h42.131h1.5v-1.5v-10.907v-1.5h-1.5h-17.32V107.19h13.898h1.5v-1.5V94.996
			v-1.5h-1.5H34.52v-6.788h17.121h1.5v-1.5V73.824V72.324L53.141,72.324z"/>
	</g>
	<g>
		<polygon fill="#231F20" points="73.682,131.034 57.72,122.609 57.72,81.926 73.682,73.502 98.585,73.502 113.756,82.595 
			113.756,97.457 89.372,97.457 89.372,86.473 81.676,86.473 81.676,118.841 89.372,118.841 89.372,106.01 113.756,106.01 
			113.756,122.932 98.218,131.034 		"/>
		<path fill="#FF0000" d="M98.378,74.252l14.628,8.768v13.687H90.122V85.722h-9.196v33.868h9.196v-12.831h22.884v15.718
			l-14.971,7.807H73.868l-15.398-8.127V82.378l15.398-8.127H98.378 M98.793,72.752h-0.415h-24.51h-0.372l-0.329,0.173L57.77,81.052
			l-0.8,0.422v0.904v39.779v0.904l0.8,0.422l15.398,8.127l0.329,0.173h0.372h24.167h0.368l0.326-0.17l14.971-7.807l0.806-0.421
			v-0.909v-15.718v-1.5h-1.5H90.122h-1.5v1.5v11.331h-6.196V87.222h6.196v9.485v1.5h1.5h22.884h1.5v-1.5V83.02v-0.85l-0.729-0.437
			l-14.628-8.768L98.793,72.752L98.793,72.752z"/>
	</g>
	<g>
		<polygon fill="#231F20" points="155.037,108.018 154.555,108.078 149.834,131.034 131.122,131.034 114.841,74.396 138.025,74.116 
			144.63,97.32 149.61,74.122 160.746,74.4 165.901,98.517 171.516,74.559 194.931,75.018 177.367,132.099 159.765,132.265 		"/>
		<path fill="#FF0000" d="M137.461,74.873l7.271,25.546l5.48-25.531l9.924,0.248l5.73,26.812l6.24-26.626l21.814,0.428
			l-17.109,55.605l-16.43,0.155l-4.742-24.321l-1.711,0.213l-4.706,22.884h-17.536l-15.853-55.149L137.461,74.873 M149.007,73.356
			l-0.261,1.216l-4.218,19.65l-5.624-19.76l-0.314-1.103l-1.147,0.014l-21.628,0.262l-1.967,0.024l0.543,1.89l15.853,55.15
			l0.312,1.086h1.13h17.536h1.223l0.246-1.198l4.097-19.923l4.12,21.132l0.239,1.225l1.248-0.012l16.43-0.155l1.097-0.01
			l0.323-1.048l17.109-55.605l0.585-1.902l-1.989-0.039l-21.814-0.428l-1.213-0.024l-0.277,1.181l-4.712,20.107l-4.331-20.264
			l-0.247-1.156l-1.182-0.03l-9.924-0.248L149.007,73.356L149.007,73.356z"/>
	</g>
</g>
<g id="purple">
	<g id="W_2_">
		<path fill-rule="evenodd" clip-rule="evenodd" fill="#9A00CF" d="M179.445,117.151c-0.48,0.013-1.786,0.144-1.71,1.049
			c1.056,0.665,2.187,0.128,3.181-0.183l0.289-0.937c-0.15,0.051-0.301,0.099-0.457,0.128
			C180.197,117.312,179.983,117.136,179.445,117.151L179.445,117.151z"/>
		<path fill-rule="evenodd" clip-rule="evenodd" fill="#9A00CF" d="M149.271,96.503c0.298-0.132,0.7-1.622,1.037-1.841
			c0.001,0.396,0.094,0.736,0.126,1.098c1.093-0.319,0.537-1.333,0.957-2.014c0.23-0.374,0.621-0.101,0.903-0.6
			c0.15-0.267,0.002-0.816,0.134-1.136c0.199-0.01,0.372-0.145,0.546-0.164c-0.429-0.735,0.071-1.26-0.006-2.036
			c-0.929,0.376-1.533-2.354,0.122-2.112c-0.211-1.764,1.197-3.238,1.973-4.839c0.709-1.463,0.972-3.32,1.061-5.064
			c0.26,0.059,0.629-0.093,0.889-0.035c0.449-1.029-1.18-0.914-2.063-1.138c-0.446-0.114-0.101-0.651-0.427-0.783
			c0.663-0.119,2.625,0.274,3.001,0.006c0.322-0.23,0.364-0.501,0.291-0.787l-7.603-0.169l-4.103,19.117
			c0.621,0.467,1.189,1.055,1.648,1.48C148.227,95.919,148.642,96.782,149.271,96.503L149.271,96.503z"/>
		<path fill-rule="evenodd" clip-rule="evenodd" fill="#9A00CF" d="M146.965,95.433c-0.348-0.524-0.602-0.688-0.986-0.822
			l-0.163,0.761C146.167,95.436,146.55,95.46,146.965,95.433L146.965,95.433z"/>
		<path fill-rule="evenodd" clip-rule="evenodd" fill="#9A00CF" d="M180.258,120.156l0.254-0.826
			c-0.308-0.029-0.608-0.073-0.934-0.05C179.531,119.956,179.838,120.083,180.258,120.156L180.258,120.156z"/>
		<path fill-rule="evenodd" clip-rule="evenodd" fill="#9A00CF" d="M177.004,119.627c-0.181-0.119-0.573-0.239-0.774-0.237
			c0.012,0.605-2.38,0.902-3.002,1.241c-0.186-0.336-0.183-0.646,0.012-0.842c-1.623,0.646-2.343-0.182-6.138-0.05
			c0.199,0.982,0.554,2.927-0.111,3.787c-0.154-1.447-0.783-2.375-0.381-3.902c-0.686-0.109-1.079,0.306-0.934,1.007
			c-0.588-0.057-0.919-0.596-1.444-0.71c-0.693-0.151-1.296,0.147-1.985,0.283c0.017,0.164-0.056,0.383-0.035,0.546
			c-0.829-0.413-2.33-0.494-3.105,0.008c-0.294,0.19-0.48,0.541-0.643,0.92l1.917,9.83l16.43-0.155l2.643-8.589
			c-0.226-0.219-0.432-0.467-0.559-0.61C178.29,121.472,176.894,120.663,177.004,119.627L177.004,119.627z"/>
		<path fill-rule="evenodd" clip-rule="evenodd" fill="#9A00CF" d="M187.911,95.283l6.01-19.534L177,75.417
			c0.008,0.024,0.016,0.049,0.024,0.073c0.249,0.761,0.41,0.706,0.782,1.269c0.378,0.571,0.719,2.197,1.39,2.539
			c0.03,0.44,0.011,0.906,0.04,1.346c0.699,0.153,1.043,0.545,1.037,1.274c1.531-0.255,3.532-0.008,4.941-0.742
			c-0.393,0.319-1.147,0.804-1.635,0.962c-0.684,0.222-1.618-0.045-2.184,0.367c0.31,0.526,0.858,0.625,1.387,0.488
			c0.043,0.439,0.213,0.842,0.551,1.139c-0.283,0.379-0.649,0.625-1.093,0.713c-0.363,0.636-0.148,1.838,0.628,2.081
			c-0.184,0.552,1.638,2.607,2.225,2.654c0.117,0.706,0.058,1.449-0.772,1.47c0.046-1.095-0.513-1.989-1.407-2.657
			c-0.836,0.636,0.316,2.662,1.141,2.807c-0.47,0.696-0.077,1.362,0.691,1.618c0.02,0.686,0.023,1.661,0.806,1.849
			c0.031,0.879,0.842,1.371,0.964,2.271c0.301,0.052,0.601,0.039,0.893-0.024l0.139-0.454c-0.527-0.897-1.245-2.094-1.375-2.957
			C186.93,94.204,187.504,94.678,187.911,95.283L187.911,95.283z"/>
		<path fill-rule="evenodd" clip-rule="evenodd" fill="#9A00CF" d="M186.225,98.043c-0.056,0.068-0.166,0.107-0.35,0.107
			c0.032-0.065,0.055-0.128,0.073-0.187c-0.055-0.015-0.111-0.03-0.173-0.041c0.007-0.012,0.118-0.212,0.198-0.356
			c-0.135-0.696-1.215-1.071-1.345-1.974c-0.108-0.026-0.201-0.009-0.308-0.04c-0.311-0.852-0.576-2.247-1.618-2.542
			c-0.241-1.125-0.253-2.34-0.479-3.453c-0.049-0.24-0.366-0.297-0.471-0.572c-0.103-0.271,0.121-0.662-0.014-0.929
			c-0.204-0.402-0.837-0.521-1.054-0.887c-0.609-1.027-0.064-2.175-1.905-1.39c-0.468,0.2-0.798,0.519-1.271,0.69
			c-0.469,0.168-0.997,0.063-1.424,0.391c0.434-0.945,1.481-1.258,2.438-1.554c0.626-0.194,1.164,0.283,1.27-0.596
			c0.082-0.679-0.42-0.848-1.022-0.71c0.044-0.497,0.022-1.369-0.133-1.832c-0.196-0.585-0.488-0.595-0.78-1.069
			c-0.246-0.403-0.358-0.883-0.635-1.328c-0.301-0.482-0.81-0.384-0.681-1.165c-1.079-0.386-1.154-1.335-1.627-2.099
			c-0.271-0.439-0.806-0.755-1.076-1.15l-1.732-0.034l-6.416,27.375l-5.555-27.561c-0.222,0.197-0.394,0.386-0.467,0.541
			c-0.897,0.173-1.922,1.556-1.812,2.429c0.138,0.024,0.26,0.009,0.401,0.009c-1.049,0.922-1.668,2.305-1.811,3.816
			c-0.094,0.993-0.39,1.589-0.572,2.432c-0.169,0.782,0.028,1.733-0.023,2.531c-0.09-0.003-0.091-0.111-0.179-0.088
			c-0.378,1.068-0.013,3.451-1.395,3.932c-0.038,0.633-0.005,1.292-0.038,1.927c-0.421-0.001-0.824-0.121-1.236-0.2
			c-0.065,1.076,0.53,1.283-0.255,2.256c-0.054-0.334-0.228-0.338-0.369-0.636c-0.092,0.048-0.183,0.091-0.297,0.118
			c-0.111,0.598,0.186,1.126,0.095,1.716c-0.065,0.421-0.433,0.678-0.425,1.031c0.016-0.065,0.03-0.131,0.053-0.189
			c-0.013,0.066-0.007,0.339,0,0.418c-0.039-0.082-0.051-0.157-0.053-0.228c-0.066,0.289-0.065,0.626-0.017,0.916
			c0.607-0.071,0.923-0.612,0.806-1.236c0.168-0.078,0.374-0.122,0.543-0.121c0.042,0.823,0.042,1.686,0,2.51
			c-0.541-0.091-1.552,0.419-0.678,0.714c0.583,0.196,0.967-0.606,1.511-0.47c0.443,0.11,0.504,0.765,0.825,1.022
			c0.494,0.395,1.055,0.514,1.572,1.072c1.497,1.616,3.041,3.355,5.113,4.185c-0.906,0.374-1.521-0.544-2.306-0.704
			c0.2,0.379,0.369,0.817,0.469,1.228c1.099,0.337,1.198,1.631,2.398,1.429c-0.114,0.09-0.246,0.35-0.353,0.446
			c0.357,0.331,0.878,0.535,1.283,0.808c0.321,0.216,1.007,0.785,1.491,0.706c0.138,0.956,1.587-0.258,2.299,0.242
			c0.416,0.293,0.359,0.723,0.722,1.012c0.267,0.213,1.117,0.483,1.494,0.482c0.045,1.129,1.472,0.386,1.298,1.927
			c0.223-0.05,0.552,0.086,0.774,0.035c0.207,1.095,2.026,1.959,2.996,2.435c0.225,0.111,0.801,0.331,0.95,0.437
			c0.194,0.137,0.419,0.554,0.604,0.668c0.621,0.378,0.927,0.635,1.571,0.121c0.032-0.873,0.213-1.905,1.156-2.161
			c-0.001,0.626-0.011,1.665-0.572,1.716c0.943,0.299,2.454,0.412,3.626,0.318l5.482-17.815c-0.059-0.271-0.117-0.533-0.171-0.769
			C186.47,98.104,186.344,98.077,186.225,98.043L186.225,98.043z"/>
		<path fill-rule="evenodd" clip-rule="evenodd" fill="#9A00CF" d="M178.395,119.844c0.12-0.111,0.281-0.504,0.345-0.564
			c-0.236-0.072-0.652-0.053-0.892-0.003c-0.158,0.553,0.474,1.378,0.881,1.741c0.451,0.404,0.683,0.506,1.108,0.504l0.127-0.412
			C179.402,120.784,178.704,120.171,178.395,119.844L178.395,119.844z"/>
		<path fill-rule="evenodd" clip-rule="evenodd" fill="#9A00CF" d="M145.244,126.771c-0.951,0.111-1.915-0.177-2.9-0.096
			c-0.735,0.06-1.805,0.556-2.502,0.709c-1.568,0.342-3.363,0.255-4.998,0.658c-1.096,0.269-2.337,0.634-3.556,0.822l0.399,1.42
			h17.536l0.843-4.098c-0.68,0.135-1.571,0.096-2.052,0.12C147.094,126.35,146.176,126.662,145.244,126.771L145.244,126.771z"/>
		<path fill-rule="evenodd" clip-rule="evenodd" fill="#9A00CF" d="M161.999,118.566c0.684-0.065,1.694-0.045,2.196-0.347
			c1.087-0.651,1.213-2.028,0.483-3.544c0.389,0.52,0.774,0.24,0.91-0.349c-0.061,0.742,0.291,1.327,0.208,2.027
			c-0.705-0.03-1.143,0.615-0.794,1.24c0.739-0.352,2.1-1.141,1.752,0.381c0.113-0.033,0.294-0.045,0.425-0.086
			c0.215,0.929,1.768,0.914,2.438,0.445c-0.054-0.055-0.162-0.137-0.213-0.202c0.636-0.048,1.299-0.012,1.937-0.044
			c-0.016-0.959,2.388-0.516,3.121-0.693c0.194-0.797-2.717-2.097-3.449-2.525c-1.297-0.757-2.854-1.211-4.061-1.617
			c0.736-0.001,1.546,0.124,2.201-0.26c-0.674-0.95-3.927-1.816-3.386-2.721c-0.599-0.347-1.266,0.152-1.894-0.358
			c0.046,0.31-0.072,0.698-0.041,1.013c-1.264-0.321-1.78-1.124-2.669-2.151c-0.359-0.414-0.811-0.819-1.213-1.214
			c-0.342-0.334-0.748-0.962-1.098-1.213c-0.626-0.448-1.24-0.317-1.797-0.867c-0.384-0.378-0.476-1.044-0.854-1.451
			c-0.593-0.635-2.26-1.62-2.269-2.553c0.644,0.139,1.022,0.854,1.67,0.895c-0.229-0.66-0.639-1.228-1.327-1.441
			c-0.029,0.1,0.004,0.194-0.039,0.293c-0.155,0.011-0.687-0.069-0.884-0.122c-0.001-0.135-0.038-0.293-0.035-0.427
			c-0.842-0.018-1.508-0.369-2.276-0.382c0.145-0.262-0.045-0.251,0.2-0.471c-0.809-1.52-3.739,3.782-2.661,4.087
			c-0.081,0.95-1.709,1.784-1.233,2.623c0.763,0.101,3.386,0.053,3.313,1.04c-1.441-0.16-3.182-0.877-3.912,0.711
			c-0.266,0.579-0.763,1.356-0.931,1.958c-0.202,0.73-0.037,1.551-0.254,2.288c-0.193,0.656-0.334,1.348-0.549,1.993
			c-0.272,0.819-0.589,1.255-0.809,2.085c-0.21,0.795-0.388,1.016-0.782,1.638c-0.246,0.386-0.347,0.99-0.623,1.363
			c0.095-0.003-0.356,0.449-0.212,0.46c0.158,0.849-0.224,0.379-0.447,1.02c1.106,0.065,1.754-0.289,2.758-0.442
			c0.949-0.144,1.954,0.041,2.889-0.109c1.195-0.191,2.341-0.261,3.502-0.294l2.641-12.843l1.711-0.213l2.327,11.939
			c0.257-0.123,0.515-0.253,0.797-0.303C159.822,118.638,160.953,118.666,161.999,118.566L161.999,118.566z"/>
		<path fill-rule="evenodd" clip-rule="evenodd" fill="#9A00CF" d="M133.937,127.135c0.672-0.029,1.271,0.018,1.906,0.104
			c-0.144-0.197-0.095-0.259-0.173-0.451c0.623-0.031,1.722,0.213,2.296-0.014c0.58-0.229,0.608-0.957,1.257-0.904
			c-0.728,0.944,1.115,1.304,1.034,0.225c-0.255,0.045-0.552-0.129-0.742-0.13c-0.239-0.684-0.537-1.089-0.494-2.065
			c0.268,0.014,0.643-0.096,0.899-0.044c-1.077-0.622-1.061-1.592-2.513-0.993c0.094,0.789,0.188,1.6-0.165,2.397
			c-0.414-0.585-0.214-1.734-0.573-2.189c-0.37-0.472-1.915-0.215-1.96,0.56c-1.1,0.364-2.347,0.12-3.447,0.482
			c-0.386,0.127-0.768,0.337-1.151,0.563l0.872,3.103c0.951-0.231,2.386-0.186,2.919-0.217
			C133.902,127.426,133.937,127.271,133.937,127.135L133.937,127.135z"/>
		<path fill-rule="evenodd" clip-rule="evenodd" fill="#9A00CF" d="M133.994,122.94c-0.262-0.332-1.498-0.995-1.998-1.145
			c0.906,0.015,1.851,0.154,2.722,0.104c0.044-1.198,0.26-1.829,0.797-2.833c0.054,0.768,0.141,1.509,0.156,2.256
			c0.742-0.071,1.34,0.067,2.056-0.014c0.71-0.081,1.457-0.065,2.184-0.102c-0.104-0.781,0.068-3.601,1.037-3.78
			c0.065,1.117-1.351,3.362-0.215,4.275c0.467-0.44,0.012-2.741,1.28-2.109c0.154-0.416,0.068-0.93,0.212-1.346
			c-1.128-0.637,1.627-2.954,1.419-3.937c0.188,0.039,0.469-0.073,0.657-0.035c0.076-1.497,0.654-2.252,0.575-3.666
			c-0.202,0.155-0.643,0.319-0.886,0.523c-0.032-0.624-0.032-1.283,0-1.909c0.152-0.015,0.508,0.049,0.658,0.117
			c0.036,0.203,0.205,0.549,0.222,0.667c0.08-0.564-0.09-1.066-0.099-1.636c0.02-0.035,0.151,0.041,0.221,0.014
			c-0.005-0.47,0.257-0.661,0.695-0.703c-0.148-0.444-0.456-0.838-0.695-1.229c-0.693-0.029-0.919-0.654-0.769-1.271
			c1.172-0.372,1.875-0.363,3.083-0.384c-0.006-0.04-0.008-0.276,0-0.312c-0.871-0.043-1.738,0.097-2.4-0.453
			c0.171,0.002,0.375-0.046,0.549-0.043c0.254-0.61,0.883-0.418,1.293-0.876c0.335-0.375,0.375-1.025,0.477-1.516
			c0.161,0.022,0.382-0.055,0.543-0.035c0.068-0.807-0.221-1.423-0.196-2.16c1.122,0.085,1.416-0.463,1.003-1.5
			c-0.413-0.098-0.569-0.268-0.694-0.693c-1.006-0.065-1.426-0.914-2.286-0.811l-1.076,5.014l-1.35-5.076
			c-0.532-0.556-0.906-1.449-1.277-2.042c-0.708-1.138-1.291-1.358-2.407-2.094c-0.732-2.046-4.483-2.256-4.661-4.583
			c-0.111-0.161-0.226-0.256-0.344-0.465c-1.531-0.065-1.857,0.312-2.55,1.457c-0.22,0.363-0.472,0.897-0.81,1.158
			c-0.35,0.272-0.969,0.268-1.129,0.505c-0.173-0.788,0.387-0.776,0.687-1.31c0.438-0.778,0.284-0.759,0.373-1.699
			c0.397,0.141,0.82,0.289,1.239,0.32c-0.04-0.406-0.078-0.789-0.101-1.21c-0.046-0.073-0.185-0.27-0.254-0.373
			c-0.357-0.054-0.547-0.211-0.867-0.344c0.578-0.039,1.183-0.028,1.77-0.014c-0.722-1.298-1.918-1.57-3.292-1.644
			c0.054-0.676-1.537-2.068-1.767-0.924c-0.918,0.281-1.611-0.787-2.291-1.257c-0.578-0.4-1.445-0.581-1.522-1.482
			c-0.634,0.145-1.058-0.141-0.925-0.808c-0.718-0.09-1.426-0.111-2.164-0.151c0.025-0.135,0.042-0.278,0.089-0.424
			c-0.499-0.07-0.643-0.241-0.664-0.696c0.371,0.055,0.778,0.169,1.118,0.314c0.203-1.068-1.915-2.637-2.945-3.697h-1.759v2.159
			l13.128,46.697c0.172-0.031,0.337-0.065,0.488-0.11C131.596,123.24,132.7,123.232,133.994,122.94L133.994,122.94z"/>
		<path fill-rule="evenodd" clip-rule="evenodd" fill="#9A00CF" d="M120.533,75.794c1.027-0.08,1.506,1.103,2.4,1.375
			c-0.321,0.095-0.636,0.201-1.019,0.162c0.137,0.851,1.204,1.976,2.052,1.848c0.052,0.713,1.077,1.344,0.912,0.359
			c-0.04-0.238-0.889-1.064-1.114-1.278c1.432-0.099,1.336,1.388,2.51,1.5c0.147,0.659,0.787,0.71,1.39,0.69
			c-0.01,0.165,0.058,0.384,0.037,0.545c0.139-0.064,0.395-0.033,0.54-0.083c0.062,1.096,0.656,0.89,1.378,1.279
			c0.697,0.376,0.614,0.803,1.626,0.569c-0.05,0.596,0.18,1.14,0.809,1.155c0.262,0.442,0.05,0.288,0.578,0.462
			c0.03,0.085-0.031,0.253,0.034,0.313c0.61,0.03,1.193,0.183,1.814,0.15c-0.023,0.345,0.143,0.578,0.151,0.899
			c1.281-0.588,1.746-2.667,3.313-2.981c0.367,1.488-2.588,2.346-2.389,3.55c0.662,0.195,1.891,0.373,2.16,0.923
			c-0.241-0.067-1.307-0.342-1.516-0.297c-0.266,0.057-0.444-0.406-0.525,0.199c-0.047,0.352,0.449,0.368,0.655,0.364
			c-0.044,0.298,0.156,0.515,0.153,0.771c0.592-0.13,1.126,0.02,1.038,0.696c1.859-0.222,2.568,3.681,4.485,2.992l-0.071-0.269
			c-0.05-0.027-0.101-0.056-0.149-0.079c0.046,0.006,0.088,0.008,0.13,0.01l-0.205-0.771c-0.727-0.514-1.691-0.905-1.648-1.848
			c0.42-0.029,0.835,0.049,1.213,0.211l-3.813-14.341h-16.934C120.533,75.252,120.522,75.603,120.533,75.794L120.533,75.794z"/>
		<path fill-rule="evenodd" clip-rule="evenodd" fill="#9A00CF" d="M148.577,121.438c-0.911-0.039-3.048-0.349-3.914,0.04
			c-0.755,0.34-0.524,0.919-1.5,1.017c-0.7,0.07-1.323-0.334-2.063-0.214c0.004,0.528,0.331,1.138-0.231,1.392
			c0.433,0.561,0.516,1.625,1.474,1.502c0.007,0.089-0.13,0.104-0.094,0.185c1.23,0.278,4.86,1.643,5.787,0.273
			c0.751-0.048,1.473-0.147,2.193-0.245l0.634-3.083c-0.234,0.002-0.465-0.018-0.735-0.075c-0.475-0.101-0.686-0.403-1.262-0.309
			c0.575-0.323,1.386-0.247,2.127-0.247l0.194-0.946C150.043,120.468,148.562,120.568,148.577,121.438L148.577,121.438z"/>
		<path fill-rule="evenodd" clip-rule="evenodd" fill="#9A00CF" d="M178.641,80.884c0.132-0.325,0.166-0.748,0.093-1.123
			c-0.876-0.246-0.579-1.299-1.597-1.292l-0.115-0.115C177.038,78.901,178.19,80.643,178.641,80.884L178.641,80.884z"/>
		<path fill-rule="evenodd" clip-rule="evenodd" fill="#9A00CF" d="M176.268,77.17c0.06-0.023,0.118-0.051,0.175-0.087
			L176.268,77.17L176.268,77.17z"/>
		<path fill-rule="evenodd" clip-rule="evenodd" fill="#9A00CF" d="M176.772,77.643c0.033-0.152,0.004-0.278,0-0.427
			c-0.185-0.024-0.371-0.018-0.56-0.017l0.056-0.029c-0.048,0.019-0.097,0.036-0.151,0.048c-0.005,0.145-0.049,0.274-0.003,0.424
			C176.316,77.684,176.57,77.682,176.772,77.643L176.772,77.643z"/>
		<path fill-rule="evenodd" clip-rule="evenodd" fill="#9A00CF" d="M153.463,89.352c0.082,0.33,0.128,0.737,0.124,1.126
			c1.044-1.005,1.785-3.631,1.248-5.075v-0.115c-1.093,0.418-0.544,0.904-0.595,1.707c-0.008,0.129-0.431,0.186-0.453,0.367
			c-0.026,0.215,0.145,0.433,0.131,0.578c-0.048,0.459-0.008,0.96,0.095,1.375C153.848,89.291,153.624,89.37,153.463,89.352
			L153.463,89.352z"/>
		<path fill-rule="evenodd" clip-rule="evenodd" fill="#9A00CF" d="M141.888,126.328c0.241-0.111,0.864-0.091,1.061-0.136
			c-0.348-0.285-0.891-0.382-1.383-0.366c-0.179-0.5-0.613-0.639-1.05-0.333c-0.08,0.008-0.157,0.017-0.224,0.023
			c-0.137,0.57,0.197,0.95,0.777,0.927c-0.041,0.134-0.032,0.414-0.083,0.54C141.559,126.963,141.467,126.522,141.888,126.328
			L141.888,126.328z"/>
		<path fill-rule="evenodd" clip-rule="evenodd" fill="#9A00CF" d="M170.781,118.797c0.06-0.072,0.126-0.132,0.194-0.185
			c-0.196-0.071-0.383-0.157-0.541-0.276L170.781,118.797L170.781,118.797z"/>
		<path fill-rule="evenodd" clip-rule="evenodd" fill="#9A00CF" d="M171.262,119.242c0.771,0.172,0.933-0.27,1.509-0.419
			c0.552-0.143,1.1-0.125,1.692-0.161c-0.176-0.136-0.097-0.222-0.431-0.344c0.02-0.203-0.061-0.463-0.04-0.664
			c-0.817,0.931-2.204,0.321-3.018,0.958c0.259,0.094,0.538,0.149,0.82,0.17C171.459,118.774,171.338,118.891,171.262,119.242
			L171.262,119.242z"/>
		<path fill-rule="evenodd" clip-rule="evenodd" fill="#9A00CF" d="M175.981,118.104l-0.231-0.115
			c-0.251-0.068-0.441,0.027-0.67-0.104c0.113,0.358,0.232,0.799,0.224,1.222C175.694,118.884,175.96,118.534,175.981,118.104
			L175.981,118.104z"/>
	</g>
	<g id="C_2_">
		<path fill-rule="evenodd" clip-rule="evenodd" fill="#9A00CF" d="M80.926,95.717c-0.53,0.448-0.861,1.022-1.433,1.415
			c0.534,0.125,0.933,0.372,1.433,0.487V95.717L80.926,95.717z"/>
		<path fill-rule="evenodd" clip-rule="evenodd" fill="#9A00CF" d="M95.635,118.91c0.079-0.069,0.251-0.267,0.371-0.37
			c0.016,0.023,0.001-0.358,0-0.353c-0.106-0.05-0.208-0.008-0.316-0.036c-0.093,0.159-0.134,0.353-0.147,0.565
			C95.56,118.771,95.584,118.827,95.635,118.91L95.635,118.91z"/>
		<path fill-rule="evenodd" clip-rule="evenodd" fill="#9A00CF" d="M60.834,89.542c0,0,6.434-3.677,8.667-4.596
			c2.232-0.919,9.98-4.858,9.98-4.858l1.313-1.182l-0.919-2.364l0.263-1.445l0.788,1.051l0.132,2.364h0.788v-0.788l1.182-0.131
			l0.525,0.919l3.808-1.839l-0.394,0.919h2.101l0.131-0.657c0,0,1.313-0.132,2.101-0.526c0.788-0.393,1.838-1.05,1.838-1.05
			l-0.291-0.776l-0.63-0.011l-0.261,0.13l-1.05,0.656l-0.787-0.263l-0.456-0.569l-0.908-0.016l-0.081,0.322l-3.808,0.132v-0.523
			l-10.996-0.192L58.47,82.378V89.3l1.313,0.505L60.834,89.542L60.834,89.542z"/>
		<path fill-rule="evenodd" clip-rule="evenodd" fill="#9A00CF" d="M112.093,82.505l-0.705,0.078c0,0-0.525,1.707-0.788,2.364
			c-0.262,0.656-0.788,2.101-0.788,2.101l-0.788,0.525l-0.131,1.445l4.112,0.117V83.02L112.093,82.505L112.093,82.505z"/>
		<path fill-rule="evenodd" clip-rule="evenodd" fill="#9A00CF" d="M90.904,77.724l-0.526,0.394L86.308,79.3l-1.707,0.262
			l-0.657,0.526l-0.132,0.788l0.92,1.313l0.262,1.708l-1.051-1.314l-0.788-2.495L82.5,80.219l-0.656,1.182h-1.182l-0.919-0.131
			l-0.525,1.181l-1.97,0.656l-0.657,0.656l-0.919,0.263l-1.444,1.576h-1.051l-0.788,0.788c0,0-1.05,0.919-1.445,1.182
			c-0.394,0.263-2.363,1.05-2.363,1.05l-0.394,1.051l0.788,0.132l0.262-0.394l1.181-0.131v0.525l10.507-0.128v-4.09h9.196v3.822
			l7.216-0.128l0.788-2.364l0.656-1.445l-0.131,1.445l-0.394,1.181l-0.131,1.051l1.182-0.262l0.131-0.657l1.707,1.313l2.889,0.263
			l0.262-0.525h2.364l0.525-1.314l0.788,0.525l0.263-1.707l0.656-0.394v-1.182l0.919-0.656V82.32l-0.919,0.657v-2.281l-10.103-5.71
			l-3.028,0.112l-0.525,0.657l-1.707,0.656l-1.444,1.182L90.904,77.724L90.904,77.724z"/>
		<path fill-rule="evenodd" clip-rule="evenodd" fill="#9A00CF" d="M66.109,105.822c-0.276-0.087-0.581-0.343-0.893-0.387
			c0.526-0.031,0.737-0.263,0.738-0.792c0.002-0.916-0.45-0.406-0.923-0.784c-0.764-0.61-1.487-1.362-1.953-2.321
			c1.395,0.541,3.503,3.249,4.825,3.083c0.231-0.168,0.491-0.447,0.762-0.669c-0.206-0.019-0.489-0.112-0.731-0.122
			c0.43-0.422,1.265-0.486,1.824-0.788c0.705-0.381,1.481-1.038,2.078-1.55c0.578-0.496,0.956-0.978,1.631-1.444
			c0.66-0.456,1.333-0.946,1.908-1.478c1.221-1.128,1.957-2.147,3.345-3.089c0.605-0.411,1.38-1.242,2.204-1.693v-1.641
			c-0.497-0.043-1.608-0.141-2.497-0.239c-1.181-0.132-2.363-0.789-2.363-0.789h-3.414l-0.656-0.262l-1.313-0.263l0.263,0.656
			l-1.313-0.262c0,0,0.262,1.576,0.131,2.364c-0.131,0.787-0.394-1.445-0.919-2.102c-0.525-0.656-0.788-0.131-0.788-0.131
			l-1.444,0.394l0.262-1.313h-3.151l-1.051,0.657l3.02,0.393l-2.627,0.263l0.395,0.526l-4.334-0.131l0.131,0.655H58.47v17.472
			c0.575-0.237,1.232-0.435,1.684-0.821c0.299-0.255,0.23-0.795,0.581-1.126c0.251-0.237,0.747-0.349,1.051-0.522
			c0.592-0.338,1.15-0.759,1.723-1.159c0.108-0.126,0.247-0.23,0.437-0.298c-0.148,0.096-0.292,0.197-0.437,0.298
			c-0.455,0.536-0.33,1.493-1.001,2.01c-0.417,0.32-0.952,0.15-1.149,0.293c-0.442,0.317-0.339,0.631-0.686,1.027
			c-0.543,0.619-1.338,1.317-2.202,1.857v1.073c1.026-0.873,2.077-1.79,3.155-2.736C63.297,108.46,65.038,107.761,66.109,105.822
			L66.109,105.822z"/>
		<polygon fill-rule="evenodd" clip-rule="evenodd" fill="#9A00CF" points="79.611,90.593 76.985,90.724 78.167,91.38 80.53,91.643 
			80.926,91.643 80.926,90.987 80.924,90.987 79.874,90.987 79.611,90.593 		"/>
		<polygon fill-rule="evenodd" clip-rule="evenodd" fill="#9A00CF" points="108.369,90.593 113.006,90.593 113.006,89.805 
			108.237,89.805 108.369,90.593 		"/>
		<path fill-rule="evenodd" clip-rule="evenodd" fill="#9A00CF" d="M101.905,108.688c-0.579,1.347-1.003,2.596-1.829,3.575
			c-0.719,0.851-0.41,0.835-0.768,1.835c-0.22,0.615-0.328,0.916-1.028,1.204c0.047,0.541,0.038,1.039-0.394,1.313
			c-0.053,0.334,0.003,0.834,0.128,1.139c1.049,0.073,1.88,0.662,2.943,0.703c0.021,0.013,0.061,0.304,0.08,0.344
			c0.284,0.05,0.374,0.05,0.614,0.187c-0.941,0.754-3.268-0.144-4.031-0.81c-0.206,2.425-0.163,4.605-1.494,6.655
			c-0.477,0.734-0.978,1.081-1.276,1.878c-0.194,0.516-0.225,1.109-0.43,1.674c-0.171,0.47-0.447,1.388-0.895,1.9h4.51l14.971-7.913
			v-15.612h-10.372C102.452,107.447,102.139,108.143,101.905,108.688L101.905,108.688z"/>
		<polygon fill-rule="evenodd" clip-rule="evenodd" fill="#9A00CF" points="105.001,96.28 109.584,96.28 109.584,96.707 
			113.006,96.707 113.006,91.907 107.187,91.907 105.001,96.28 		"/>
		<path fill-rule="evenodd" clip-rule="evenodd" fill="#9A00CF" d="M93.507,128.027c-0.52,0.658-0.958,1.534-1.444,2.257h0.569
			c0.055-0.364,0.29-0.601,0.526-0.933C93.843,129.236,93.718,128.567,93.507,128.027L93.507,128.027z"/>
		<path fill-rule="evenodd" clip-rule="evenodd" fill="#9A00CF" d="M95.691,118.151c0.047-0.08,0.106-0.152,0.183-0.211
			c0.018-0.005-0.059-0.062-0.126-0.105c-0.01,0.106-0.031,0.212-0.067,0.314C95.684,118.15,95.688,118.149,95.691,118.151
			L95.691,118.151z"/>
		<path fill-rule="evenodd" clip-rule="evenodd" fill="#9A00CF" d="M92.168,129.179c-0.229-0.524-0.105-0.997,0.42-1.185
			c0.158-1.61,0.764-2.602,1.093-4.16c1.047-0.067,0.429-2.128,1.664-2.536c-0.041-0.543-0.283-1.118-0.619-1.54
			c0.208,0.211,0.615,0.386,0.882,0.597c0.044-0.476-0.097-1.112-0.065-1.639c-0.02-0.064-0.027-0.134-0.036-0.234
			c-0.004,0.012-0.006,0.024-0.011,0.036c0.006-0.02-0.005-0.295,0.004-0.107c0.003,0.029,0.004,0.047,0.007,0.071
			c0.075-0.221,0.073-0.478,0.15-0.694c-0.007-0.012,0.039,0.014,0.091,0.047c0.041-0.387-0.073-0.78-0.228-1.085
			c0.268-0.013,0.446-0.194,0.747-0.177c-0.26-0.86,0.019-3.905,0.92-4.165c-0.144,0.91-0.399,1.655,0.045,2.592
			c1.35-0.003,0.518-1.119,0.763-1.952c0.21-0.72,1.064-1.518,1.443-2.364c0.358-0.8,1.699-2.731,1.833-3.924h-1.003
			c-0.468,0.67-0.928,1.551-0.986,1.941c-0.319-0.31-0.264-1.273-0.129-1.941h-9.032v12.831h-9.196V97.839
			c-0.707,0.247-1.357-0.001-2.102,0.236c-0.62,0.197-1.451,0.995-1.969,1.447c-1.338,1.168-1.441,2.619-3.401,3.132
			c0.31-0.411,0.581-0.924,0.626-1.405c-1.614,0.359-2.587,1.739-4.163,2.236c-0.125,0.516-0.589,0.837-0.79,1.27
			c0.582-0.22,1.301-0.288,1.943-0.513c0.673-0.235,1.159-0.639,1.825-0.899c0.482,1.887-2.692,1.255-3.016,2.876
			c0.933,0.753,1.374,1.56,1.575,2.718c-0.855-0.742-2.556-3.166-3.929-2.728c-1.22,0.39-1.488,2.77-2.595,3.142
			c-0.063-0.071-0.085-0.19-0.147-0.263c-0.428,0.262-0.493,0.747-0.795,0.97c-0.376,0.278-0.835,0.256-1.191,0.491
			c-0.573,0.378-1.082,1.081-1.537,1.611c-0.811,0.946-1.609,1.829-2.79,2.036v7.96l15.398,8.127h17.886
			c0.037-0.346,0.082-0.683,0.088-1.066C91.956,129.164,92.06,129.236,92.168,129.179L92.168,129.179z M93.005,113.572h0.262
			c0.36,0.417,0.538,1.1,1.276,1.185C93.543,115.149,92.745,114.713,93.005,113.572L93.005,113.572z"/>
		<polygon fill-rule="evenodd" clip-rule="evenodd" fill="#9A00CF" points="103.247,90.33 104.561,90.724 103.904,91.38 
			102.591,90.987 99.964,91.249 99.439,94.664 99.045,91.249 98.258,91.118 97.732,91.775 96.944,91.118 90.641,91.118 
			90.247,91.643 90.122,91.635 90.122,96.28 103.166,96.28 105.611,91.775 104.954,91.249 106.268,90.067 103.247,90.33 		"/>
		<path fill-rule="evenodd" clip-rule="evenodd" fill="#9A00CF" d="M84.361,79.408c0.628-0.138,0.766-0.843-0.022-1.027l0.131-0.131
			C83.958,78.488,84.049,78.944,84.361,79.408L84.361,79.408z"/>
		<path fill-rule="evenodd" clip-rule="evenodd" fill="#9A00CF" d="M82.092,79.713c-0.417-0.055-0.752-0.141-1.168-0.151
			l-0.263-0.131c0.01,0.212,0.14,0.412,0.151,0.636C81.359,80.216,81.863,80.161,82.092,79.713L82.092,79.713z"/>
		<path fill-rule="evenodd" clip-rule="evenodd" fill="#9A00CF" d="M72.783,84.29c-1.217,0.077-1.689,1.013-3.005,1.069
			c-0.307,0.615-1.158,0.348-1.842,0.397c0.138,0.105,0.31,0.402,0.505,0.539c-0.378,0.136-0.855,0.278-1.284,0.38
			c-0.01,0.862-1.483,1.146-2.121,1.582c-0.896,0.612-1.365,1.162-2.383,1.547c1.099,0.649,3.859-0.643,4.713-1.447
			c-0.509-0.05-0.953-0.128-1.365-0.391c1.454-0.45,2.65-0.876,3.886-1.451C70.827,86.078,72.484,85.58,72.783,84.29L72.783,84.29z"
			/>
		<path fill-rule="evenodd" clip-rule="evenodd" fill="#9A00CF" d="M76.896,97.664c0.913-0.494,3.164-0.123,2.564-2.068
			c-0.152,0.067-0.359,0.064-0.505,0.118h0.263C78.505,96.193,77.463,96.873,76.896,97.664L76.896,97.664z"/>
		<path fill-rule="evenodd" clip-rule="evenodd" fill="#9A00CF" d="M94.732,124.323c1.867-1.161,1.95-3.164,1.95-5.236v-0.262
			c-0.988,0.466-0.847,1.49-0.677,2.347c-0.133-0.038-0.33-0.051-0.485-0.102c-0.028,0.555,0.115,1.288-0.017,1.828
			C95.376,123.415,94.864,123.752,94.732,124.323L94.732,124.323z"/>
	</g>
	<g id="E_2_">
		<path fill-rule="evenodd" clip-rule="evenodd" fill="#9A00CF" d="M14.629,103.51c-1.283-0.869-2.744-1.424-4.114-1.911
			c-0.206-0.074-0.405-0.136-0.593-0.203v0.665c0.528,0.216,1.109,0.719,1.515,0.857C12.326,103.221,13.656,103.56,14.629,103.51
			L14.629,103.51z"/>
		<path fill-rule="evenodd" clip-rule="evenodd" fill="#9A00CF" d="M33.234,111.912c-0.054,0.003-0.109,0.009-0.166,0.02
			c-0.458,0.954-1.656-0.452-2.177-0.776c-0.787-0.489-1.803-0.786-2.526-1.286c-0.865-0.599-1.278-0.951-2.266-1.321
			c-0.827-0.308-1.688-1.058-2.559-1.107c0.094,0.424,0.437,0.783,0.523,1.203c-1.643,0.386-4.031-3.743-4.33-0.105
			c-0.017-1.063-0.211-2.192-0.539-3.088c-1.053,0.315-1.557-0.756-2.213,0.412c-0.204,0.361-0.194,0.995-0.074,1.339
			c0.212,0.608,0.992,0.928,1.101,1.668c-0.342-0.086-0.702-0.342-0.897-0.639c-0.325-0.166-0.525-0.269-0.772-0.54
			c-0.442,0.696,0.046,1.564-0.24,2.293c-0.259,0.656-0.911,0.95-1.098,1.704c-0.21,0.847-0.132,1.281-0.679,2.02
			c-0.378,0.509-0.937,0.899-1.227,1.455c-0.707,1.359-0.609,2.878-0.926,4.256c-0.126,0.552-0.35,1.452-0.557,1.996
			c-0.241,0.63-0.925,0.908-0.743,1.691c1.091,0.348,3.088,0.347,4.243,0.353c1.343,0.006,2.701-0.723,4.02-0.689
			c0.055-0.743,0.521-1.284,0.577-2.113c0.072-1.073-0.034-1.553,0.654-2.427c-0.758,1.622,0.05,2.719,0.377,4.212
			c0.079-0.263,0.376-0.541,0.511-0.765c0.754,1.279,1.886,1.581,3.279,1.671c1.546,0.099,2.33-0.338,3.812-0.337
			c2.812,0.003,5.458-0.568,8.173-0.09c-0.62,0.977-4.133,0.426-5.258,0.426c-1.848,0-3.921-0.033-5.484,0.759
			c1.923,0.142,3.858,0.138,5.814,0.138c1.235,0,5.174,0.604,5.962-0.337c-0.14-0.126-0.265-0.472-0.335-0.541
			c0.579-0.049,1.227,0.177,1.759,0.303c-0.321-1.082-0.672-2.549-0.199-3.646c-0.057,0.826,0.447,1.595,0.779,2.315
			c0.474,1.028,0.741,1.034,1.897,1.141c-0.242,0.193-0.283,0.512-0.425,0.748c1.727,0.278,3.787-0.185,5.591-0.095
			c1.811,0.09,3.753,0.24,5.407-0.199c0.01-0.003,0.023-0.005,0.033-0.008v-4.763h-18.82V111.912L33.234,111.912z"/>
		<path fill-rule="evenodd" clip-rule="evenodd" fill="#9A00CF" d="M13.996,83.801c1.679-1.266,4.272-1.593,5.255-3.483
			c-1.141,0.052-1.869,0.115-2.909,0.65c-1.022,0.525-1.687,1.49-2.6,2.11c-0.462,0.314-1.113,0.333-1.566,0.553
			c-0.531,0.257-0.98,0.571-1.547,0.813c-0.176,0.075-0.431,0.227-0.705,0.362v1.79c0.359-0.16,0.721-0.359,1.047-0.549
			C12.029,85.431,13.004,84.551,13.996,83.801L13.996,83.801z"/>
		<path fill-rule="evenodd" clip-rule="evenodd" fill="#9A00CF" d="M13.736,101.965c1.036,0.605,3.338,2.2,4.206,0.533
			c0.186-0.358,0.079-0.885,0.14-1.279c-0.109,0.05-0.235,0.096-0.377,0.135c0.098-0.089,0.242-0.143,0.389-0.215
			c-0.006,0.025-0.008,0.053-0.012,0.08c0.774-0.357,0.797-0.977,1.15-1.778c0.327-0.741,0.946-1.384,1.346-2.125
			c0.811-1.505,1.413-3.049,2.021-4.686c0.571-1.536,1.956-2.948,2.917-4.176c0.475-0.607,0.524-1.423,0.895-2.13
			c0.249-0.476,1.102-2.034,1.564-2.22c0.045-0.018,0.214-0.134,0.266-0.176c-0.164,0.31,0.01,1.212,0.553,0.977
			c0.378-0.163,0.207-1.115,0.323-1.444c-0.164,0.076-0.44,0.035-0.646,0.159c-0.36-1.246-0.047-2.675,1.536-2.217
			c-0.151-0.609-1.119-1.776-1.622-2.341c0.622-0.219,1.055,0.463,1.712,0.118c-0.31-0.224-0.624-0.488-0.848-0.764
			c1.003-0.081,1.578-0.22,2.212-1.028c0.563-0.721,1.119-1.732,0.367-2.332c0.583,0.062,0.992-0.312,0.871-0.905
			c-0.51-0.141-1.733,0.408-2.338,0.543c-0.757,0.17-1.493,0.513-2.031,1.121c0.677,0.743,1.944,0.128,2.801,0.244
			c-0.355,0.919-2.554,0.509-3.442,0.56c-0.274,0.688-0.115,1.343,0.276,1.894c-0.752,0.146-1.113-0.782-1.864-0.904
			c-0.839-0.138-1.899,0.333-2.556,0.812c-0.58,0.422-1.009,0.963-1.031,1.653c-0.024,0.723,0.897,1.57,0.335,2.142
			c-0.719-0.295-0.408-1.309-1.204-1.72c-0.684-0.353-1.234,0.126-1.907,0.613c-1.171,0.847-2.312,1.476-3.5,2.221
			c-1.114,0.698-2.201,1.805-3.388,2.66c-1.086,0.782-1.892,1.316-2.925,1.557v12.139c0.078,0.047,0.155,0.096,0.231,0.149
			C11.3,100.629,12.528,101.261,13.736,101.965L13.736,101.965z"/>
		<path fill-rule="evenodd" clip-rule="evenodd" fill="#9A00CF" d="M10.852,118.745c0.502-1.378,1.181-2.753,1.765-4.14
			c0.583-1.382,1.827-3.005,1.693-4.582c-0.286,0.059-0.569-0.07-0.863,0.053c-0.068-0.581,0.452-0.623,0.434-1.08
			c-0.027-0.671-0.253-0.64-0.675-1.127c-0.405-0.468-0.532-0.358-0.779-0.891c-0.194-0.42-0.203-0.909-0.23-1.361
			c0.224,0.535,1.712,1.564,2.444,1.799c0.264-0.508,0.281-1.044,0.487-1.542c0.777,0.255,1.625-0.501,0.998-1.252
			c-0.386-0.461-2.11-0.722-2.695-0.785c-0.746-0.079-2.445-0.342-3.508-0.88v19.519c0.223-0.357,0.445-0.697,0.598-1.147
			C10.796,120.52,10.548,119.579,10.852,118.745L10.852,118.745z"/>
		<path fill-rule="evenodd" clip-rule="evenodd" fill="#9A00CF" d="M18.279,79.542c0.64-0.522,0.632-0.763,0.732-1.623
			c0.07-0.61-0.114-1.818,0.681-1.866c0.032,0.65-0.203,2.18,0.263,2.654c0.792,0.804,1.248-0.416,1.884-0.766
			c1.407-0.774,3.27-1.33,4.733-1.987c1.146-0.515,2.067-1.289,2.979-2.13H9.923v9.881c1.822-0.338,3.596-2.014,5.216-2.707
			C16.138,80.572,17.437,80.226,18.279,79.542L18.279,79.542z"/>
		<path fill-rule="evenodd" clip-rule="evenodd" fill="#9A00CF" d="M45.717,125.926c-1.535,0.001-3.161,0.118-4.577-0.244
			c-0.201-1.081-1.464-0.533-2.147-0.432c-1.037,0.154-1.868,0.029-2.789-0.204c0.03,0.126,0.024,0.327,0.054,0.464
			c-1.493,0.328-3.648-0.121-5.327-0.01c0.096,0.084,0.221,0.315,0.314,0.405c-1.72,0.573-3.123-0.392-4.692-0.545
			c-1.576-0.154-3.473-0.635-4.807-0.647c-0.519,0.924-1.67-0.997-2.384,0.205c0.052,0.111,0.135,0.152,0.196,0.255
			c-0.865,0.378-2.26-0.549-3.307-0.463c-0.029,0.106-0.005,0.198-0.033,0.303c-0.869,0.14-4.599-0.758-4.596,0.561
			c-0.444,0.125-1.14,0.237-1.697,0.159v4.339h42.131v-3.995c-0.319,0.053-0.621,0.074-0.844,0.075
			C49.436,126.157,47.576,125.926,45.717,125.926L45.717,125.926z"/>
		<path fill-rule="evenodd" clip-rule="evenodd" fill="#9A00CF" d="M25.352,89.586c-1.018,0.173-0.76,0.461-0.987,1.094
			c-0.196,0.547-0.476,1.206-0.699,1.799c-0.402,1.07-0.632,2.421-1.725,2.988c0.005,0.179,0.068,0.377,0.192,0.53
			c2.767-0.615,2.758-4.365,3.432-6.303L25.352,89.586L25.352,89.586z"/>
		<path fill-rule="evenodd" clip-rule="evenodd" fill="#9A00CF" d="M18.303,123.707c0.25,0.063,0.683,0.062,0.935,0.002
			c0.053-0.338-0.127-0.297-0.307-0.411h0.214C18.713,123.198,18.392,123.315,18.303,123.707L18.303,123.707z"/>
		<path fill-rule="evenodd" clip-rule="evenodd" fill="#9A00CF" d="M47.52,125.224c-0.79-0.324-2.085-0.277-2.988-0.452
			c-0.976-0.189-1.89-0.459-2.913-0.083v0.107c0.372,0.225,0.782,0.485,1.266,0.447C43.416,126.078,46.775,125.543,47.52,125.224
			L47.52,125.224z"/>
		<path fill-rule="evenodd" clip-rule="evenodd" fill="#9A00CF" d="M50.197,125.207c0.481,0.025,0.982,0.025,1.464,0
			c0.122-0.233,0.169-0.567,0.109-0.824c-0.538-0.021-0.874,0.346-1.375,0.412l0.107-0.214
			C50.234,124.73,50.067,124.788,50.197,125.207L50.197,125.207z"/>
		<path fill-rule="evenodd" clip-rule="evenodd" fill="#9A00CF" d="M21.309,97.827c-0.154,0.245-0.023,0.543-0.153,0.751
			c-0.175,0.281-0.465,0.331-0.652,0.616c-0.212,0.325-0.484,0.79-0.487,1.184c0.747,0.192,0.695-0.367,1.081-0.813
			c0.14-0.162,0.397-0.207,0.508-0.349c0.146-0.185,0.109-0.6,0.23-0.727c0.794-0.829,1.709-0.777,1.79-2.145
			c-0.389,0.025-0.376-0.154-0.563-0.294C22.53,96.635,21.732,97.158,21.309,97.827L21.309,97.827z"/>
		<path fill-rule="evenodd" clip-rule="evenodd" fill="#9A00CF" d="M22.998,96.008c0.025,0.014,0.046,0.029,0.066,0.044
			c0.013-0.015,0.028-0.029,0.041-0.044H22.998L22.998,96.008z"/>
		<path fill-rule="evenodd" clip-rule="evenodd" fill="#9A00CF" d="M33.02,84.731h10.874v0.478h0.788v-0.478h1.707v0.478h5.252
			V73.824h-2.775v0.642h-5.774v-0.642h-1.09v0.428h-1.069v-0.428h-4.43c-0.123,0.175-0.273,0.353-0.453,0.532
			c-0.419,0.417-0.951,0.717-1.208,1.233c-0.281,0.563-0.107,1.209-0.443,1.713c-0.618,0.929-2.487,1.277-1.378,2.688
			c0.603,0.767,2.056,1.009,2.71,1.883c-0.408,0.206-1.748-0.502-2.237-0.675c-0.714-0.253-1.291-0.75-2.111-0.771
			c-0.121,0.507,0.177,0.912,0.554,1.217c-0.649,0.62-0.999,0.897-1.9,0.69c-0.05,0.998,0.016,1.691-0.437,2.565
			c-0.397,0.764-0.964,1.418-1.236,2.238c-0.292,0.881-0.323,1.732-0.697,2.58c-0.359,0.81-1.092,1.383-1.348,2.241
			c-0.55,1.844-1.031,3.012-2.099,4.618c-0.903,1.359-1.794,2.566-2.806,3.908c-0.73,0.969-3.533,3.307-2.41,4.279
			c0.528,0.457,0.75,0.067,1.376,0.199c0.277,0.059,0.52-0.051,0.792,0.08c0.204,0.098,0.029,0.611,0.236,0.683
			c1.101,0.385,0.798-1.609,1.099-2.432c0.873,0.705,0.999,1.329,1.218,2.435c-0.796,0.196-0.432,0.931,0.012,1.258
			c0.314,0.23,1.296,0.213,1.716,0.415c0.95,0.458,1.759,1.099,2.69,1.572c1.01,0.514,2.169,0.676,3.224,1.147
			c0.6,0.268,1.227,0.348,1.866,0.412v-4.841h15.398V94.996H33.02V84.731L33.02,84.731z"/>
	</g>
</g>
</svg>
