<?xml version="1.0" encoding="utf-8"?>
<!-- Generator: Adobe Illustrator 21.0.2, SVG Export Plug-In . SVG Version: 6.00 Build 0)  -->
<svg version="1.1" id="Layer_2" xmlns="http://www.w3.org/2000/svg" xmlns:xlink="http://www.w3.org/1999/xlink" x="0px" y="0px"
	 width="200px" height="200px" viewBox="0 0 200 200" enable-background="new 0 0 200 200" xml:space="preserve">
<path stroke="#000000" stroke-linejoin="round" stroke-miterlimit="10" d="M67.667,61.917H35.5v42.833h9V92.417h23.583
	c0,0,9.833-2.333,9.833-10V70.75C76.667,62.917,67.667,61.917,67.667,61.917z M68.75,80.667c0,2.333-2.333,2.167-2.333,2.167H44.75
	v-11.75h21.917c0,0,2.083,0,2.083,2.25S68.75,80.667,68.75,80.667z"/>
<path stroke="#000000" stroke-width="1.0088" stroke-linejoin="round" stroke-miterlimit="10" d="M110.997,61.917l0,24.917
	l7.209,8.917l3.647-4.083l0-29.75l8.99,0l0,33.333l-6.785,9.083c0,0-8.227,0-10.686,0c-1.866,0-6.7-7.667-6.7-7.667
	s-4.834,7.667-6.7,7.667c-2.46,0-10.686,0-10.686,0L82.5,95.25l0-33.333h8.99l0,29.75l3.647,4.083l7.209-8.917l0-24.917
	L110.997,61.917z"/>
<path fill="#FB2419" d="M32.083,76.75V62.333c0,0-0.083-3.25,2.583-3.25c2.667,0,14.667,0,14.667,0s-8.562-8.47-7.333-14
	c0.167-0.75-4.417,2.917-3.167,6.25c0,0-4.833-0.667-2.333-9.417s4.167-12.5-2.833-19.833c0,0,3.5,8.75-7.917,18.667
	s-14.855,18.908-9.083,26.667C24.417,77.833,32.083,76.75,32.083,76.75z"/>
<polygon fill="#FB2419" stroke="#FB2419" stroke-linejoin="round" stroke-miterlimit="10" points="35.5,111.25 35.5,116.625 
	45.75,116.625 45.75,139.75 52.375,139.75 52.375,116.875 61.5,116.875 61.5,111.25 "/>
<path fill="#FB2419" stroke="#FB2419" stroke-linejoin="round" stroke-miterlimit="10" d="M84.875,110.75H70.75c0,0-7,0.875-7,7v15
	c0,6.125,7,7,7,7h7.062h7.062c0,0,7-0.875,7-7v-15C91.875,111.625,84.875,110.75,84.875,110.75z M86.125,133.5H69.5v-16.375h16.625
	V133.5z"/>
<path fill="#FB2419" stroke="#FB2419" stroke-linejoin="round" stroke-miterlimit="10" d="M124.25,123.5c0-2.833,0-7.75,0-7.75
	s-0.417-5-4.583-5h-24v29h6.25v-8.5L112,136.833c0,0,5.833,2.917,8.083,2.917s4.167,0,4.167,0v-5.833H120c0,0-3.083-1-5.5-2.583
	s-5.833-3.75-5.833-3.75h10.667C119.333,127.583,124.25,126.333,124.25,123.5z M118.5,121.667h-16.75v-5.083h16.75V121.667z"/>
<path fill="#FB2419" stroke="#FB2419" stroke-linejoin="round" stroke-miterlimit="10" d="M155,139.75h-22.167
	c0,0-6.25-1.667-6.25-5.667v-6.167c0,0,0.667-3.083,2.833-5.417c2.167-2.333,8.75-9,8.75-9s1.833-2.333,4.667-2.333
	c2.833,0,12.167,0,12.167,0v5.583h-9.583c0,0-2.702,1.085-5.083,2.917c-2.431,1.869-5.667,5.792-5.667,5.792s-2.25,2.292-2.25,4.958
	c0,2.667,0,3.25,0,3.25H155V139.75z"/>
<polygon fill="#FB2419" stroke="#FB2419" stroke-linejoin="round" stroke-miterlimit="10" points="181.061,122.125 181.061,110.75 
	186.647,110.75 186.647,139.75 180.824,139.75 180.824,128.375 163.948,128.375 163.948,139.75 158.125,139.75 158.125,110.75 
	163.711,110.75 163.711,122.125 "/>
</svg>
